<svg id="Camada_1" data-name="Camada 1" xmlns="http://www.w3.org/2000/svg" viewBox="0 0 622.24 622.15"><defs><style>.cls-1,.cls-3{fill:none;}.cls-1,.cls-2,.cls-3,.cls-4,.cls-5{stroke:#fff;stroke-miterlimit:10;}.cls-1,.cls-2{stroke-width:1.99px;}.cls-2,.cls-4,.cls-5{fill:#75b948;}.cls-3{stroke-width:1.7px;}.cls-4{stroke-width:1.59px;}.cls-5{stroke-width:1.59px;}</style></defs><path class="cls-1" d="M487,140.07c-5.47,8.94-8.3,18.85-11,28.88-5,18-6.2,36.17.28,53.77,6.23,16.91,19.5,26.9,36.66,32.05,7.7,2.3,15.68,2.37,23.44,3.93,5,1,6.79-2.22,8.52-6,3.53-7.65,5.53-15.64,7.08-23.91a46.73,46.73,0,0,0-5.68-33.39c-5.09-8.68-12.46-15.33-20.34-21.51-11.6-9.08-23.32-18-33.51-28.78-1.56-1.64-1.93-4.29-4.41-5.06"/><path class="cls-1" d="M174,57.33c-8.62,1.17-16.89,2.68-24.51,7.84-21.3,14.41-24.58,45.26-6,64.05,21.34,21.6,59.57,13.69,69.4-16.57,7-21.69-4-42.66-22.9-51.39-5-2.31-10.37-2.44-15.48-3.93"/><path class="cls-1" d="M438.11,225.29c-4.18.22-5.16,2.47-5.08,6.48.26,13.79.11,27.58.1,41.37,0,5.39-1.09,6.47-6.48,6.47H333c-5.6,0-7.46-1.87-7.47-7.47q0-17.44,0-34.89a42.54,42.54,0,0,1,.47-4.48"/><path class="cls-1" d="M433.13,205.85c.32-13.12-.6-26.25.47-39.37.3-3.67-3-6.46-7.45-6.47q-27.16,0-54.32,0-18.94,0-37.88,0c-6.11,0-8.46,2.35-8.47,8.46,0,13.29-.09,26.59.06,39.87,0,3.5.18,6.57-5,5.95,3.09,6.58,7.35,11.57,11,17.73,4-6,7.7-11.42,11.23-16.64-1.31-2.53-3.57-.74-5.29-2.58,0-12.26,0-25.05,0-37.85,0-4,2.86-3,5-3,22.6,0,45.19-.1,67.78,0,3.47,0,7.81-1.84,10.27,1.09,2.06,2.45.61,6.48.66,9.8.12,7.64,0,15.28,0,22.92"/><path class="cls-1" d="M268.16,488.94c1.09-5.41,4.45-9,8.93-12,12-8.24,17.09-20.16,15.34-34.31a34.79,34.79,0,0,0-29.26-30.39c-19.08-2.85-33.64,5.83-40.35,23.9-4.25,11.41-1.94,22,4.57,31.82,2.18,3.27,4.5,6.69,8.36,8.57,8.18,4,10.23,10.94,9,19.41-.46,3.23.48,5.26,4.46,5.05,5.3-.27,10.63-.2,15.94,0,3.14.11,4-1.56,3.41-4s1-5.09-.42-7.5"/><path class="cls-1" d="M414.19,225.79c2.17.08,4.41-.88,6.73.66v41H337.41c.35-11.72-.6-23.18.53-34.64"/><path class="cls-1" d="M60.83,303C51.6,315.15,43.25,327.83,40,342.94c-2.65,12.34.33,24.34,13.9,29.24,12,4.34,25.32-.84,29.36-16.81,2.13-8.4-1-15.9-4-23.43-4-9.81-9.86-18.52-15.51-27.37-.47-.73-1.61-1-2.44-1.53"/><path class="cls-1" d="M87.74,455.05c-7.66,16.53-10.34,32.95.47,49.36,6.31,9.58,16,12.68,26.45,14.42.81.13,1.67-.06,2.49,0,7.38.82,7.37.78,10-7,2.78-8.29,3.48-16.5-1-24.4a36.4,36.4,0,0,0-11-11.42c-9.31-6.57-18.66-13.05-26.87-21"/><path class="cls-1" d="M241.75,248.22c4.45-1.06,9-.41,13.45-.47,9.64-.11,19.27,0,28.91,0,7.17,0,11.46-4.31,11.46-11.45,0-16.12-.34-32.24.17-48.34.2-6.42-5.63-11.64-10.14-11.77-11.28-.32-22.6-.82-33.89.3"/><path class="cls-1" d="M229.78,176.45c-1.59-.8-3.31-.49-5-.49-11.63,0-23.27.27-34.88-.11a13.75,13.75,0,0,0-14.07,14.06c.36,15.11.09,30.23.11,45.35,0,7.33,5.17,12.36,12.46,12.48,10.8.18,21.61-.6,32.39.48"/><path class="cls-1" d="M81.26,252.2c18.7,11,36.59,7.94,48.86-9.95,5.1-7.44,7.65-15.88,9.91-24.45a2.41,2.41,0,0,0-1.06-3c-4.76.43-10.09,1.47-15.3,2.24-7.34,1.08-14.69.13-22,1.58-9.3,1.84-15.8,6.18-18.47,15.58-.45,1.6-1.61,3-2.44,4.5"/><path class="cls-1" d="M180.44,324.47c1.46,3.09.48,6.44.31,9.46q-1.55,26.16-1.92,52.34c-.07,4.62,1.7,5.2,5.6,5.1,3.72-.09,5.81-.4,5.59-5.1-.91-19.26-1.44-38.54-2.1-57.81"/><path class="cls-1" d="M546.76,185.42c11.4-8.43,22.46-17.24,31.87-28.61,4.31,6.95,6.71,14.07,8.9,21.16,3.64,11.8,5.5,24.09,3.94,36.34-2.71,21.25-14.05,35.64-36.73,41.38-2,.51-4,1-6,1.5"/><path class="cls-1" d="M334,60.82c3.69,1.81,7.64.67,11.46,1,3.17.26,6.44-.49,9.88,1.08-2.47,8.65-5.22,17.18-7.31,25.87-2.43,10.13-5.83,20.12-4.66,30.89.61,5.68,2.34,8,8.07,8,21.27,0,42.53,0,63.8,0,5.64,0,11.29-.34,17,.37,4.42.56,6.94-2.23,7-6.88,0-15.79,0-31.57,0-47.35,0-1.65-.6-3.41.46-5"/><path class="cls-1" d="M221.81,187.91c-8.47,0-16.95,0-25.42,0-5.61,0-8.46,2.91-8.47,8.46q0,15.7,0,31.4c0,6.28,1.74,7.88,8,8,9.64.18,19.29-.58,28.91.48"/><path class="cls-1" d="M250.72,236.26c8.45-1.12,16.94-.28,25.42-.48,6.15-.14,7.47-1.34,7.47-7.5q0-16.69,0-33.39c0-4.95-2-6.95-7-7-9.3,0-18.6,0-27.91,0"/><path class="cls-1" d="M477.49,337.43c2.67-4.38,5.94-8.36,8.82-12.56,6.31-9.18,4.8-20.21-4.39-27.74-8.17-6.7-19.27-5.88-26.92.86a20.66,20.66,0,0,0-1,30,20.64,20.64,0,0,1,6.13,17.39c-.44,4.59,1.7,6.59,6.39,6.95,1.82.14,3.66,0,5.48,0,3.79.1,5.59-2.41,5.84-5.5.24-2.92.82-6-.35-9"/><path class="cls-1" d="M398.24,582.14c2.6.21,2.59-2.49,2.83-3.52,4.56-19.72,2.69-38.16-10.2-54.87-8.75-11.35-20.41-17.55-33.52-21.79-1.85-.6-4-.39-6-.56"/><path class="cls-1" d="M335.44,501.4c-22.54,3.61-38.39,16-47.28,36.91-6.37,15-5.62,30.21-.06,45.33"/><path class="cls-1" d="M345.91,552.74c.8-1.6.48-3.32.49-5q0-20.93,0-41.86c0-1.49.52-3.08-.47-4.67a8.66,8.66,0,0,0-5.25.09c-1.91,13.36-3.63,26.69-5.88,39.94-.4,2.31,1.37,2.67,1.6,4,.54,3.13,2.84,5.45,3.55,8.46"/><path class="cls-1" d="M297.07,597.59c7.61,10.94,18.4,17.45,30.92,20.84,19,5.15,36.49,1.23,52.31-10.38a44.94,44.94,0,0,0,9.47-9.46"/><path class="cls-1" d="M93.72,393.25l-8.19-8.19a57.16,57.16,0,0,1-12.24,5.2c0,3-.22,6,.06,9,.29,3.23-1.26,4-4,4q-8-.09-15.95,0c-2.78,0-4.34-.78-4-4,.27-3,.06-6,.06-8.7L37.1,385.29c-3.16,2.28-5.38,6-9.22,8.29-6.4-4.71-12.38-9.54-16.51-18L21,368.83l-1-1c-1-2-2.59-3.9-2.88-6-.88-6.34-4.79-7.31-10.08-6.47-3.47.55-4.75-.85-5.1-4.47a54.59,54.59,0,0,1,.87-18.71c.41-.41.57-.71.74-.72,3.82-.3,8.58,1.57,11.21-.8s3.26-7,5.29-11.94l-9.27-6.05c4.34-8.22,9.55-12.83,15.15-17.18,2-1.58,3.12-.92,4.56.54,2.05,2.1,4.24,4.07,6.45,6.17,3.37-1.4,6.61-3,10-4.09,2.22-.74,2.64-2,2.52-4.05-.17-3,0-6,0-8.82,8.14-2.37,15.78-1.95,23.32-.25.27.26.55.41.58.6.57,4-1.84,8.93,1.23,11.72,2.83,2.56,7.47,3.12,12.67,5.07l7-8.56c7.43,4.23,12.25,10.43,17.47,16.74-3,3-5.86,5.85-8.65,8.62,1.49,3.64,3,6.89,4.14,10.29.67,2.06,2,1.94,3.56,2,10.46.32,10.53.33,10.43,11,0,4.33.77,8.75-1.06,12.88-3.88.5-8.91-1.66-11.59.87-2.89,2.7-3.65,7.66-5.44,11.88,2.1,3.44,5.55,5.72,8.24,8.94-4.55,6.53-9.45,12.78-17,16.27"/><path class="cls-1" d="M455.56,545.76c.8-7.32-3.06-13.61-4.44-20.44-2.71-13.41,3.47-22.88,13.9-30.41,9-6.48,18.61-12.12,26.22-21,3.44,3.35,4.23,7.58,5.11,11.51,3,13.56,3.72,26.83-5.35,38.9-6.1,8.12-14.47,11.85-24,13.28-3.55.54-7.2,2.36-10.94.63"/><path class="cls-1" d="M492.94,59.33c-.1,3.84-2.56,6.87-3.57,10.44-3.35,11.9-4.61,23.51.46,35.46,4.93,11.62,14.12,17.07,25.55,19.82,4.21,1,8.57,1.89,12.94.56"/><path class="cls-1" d="M150,378.3c4,5.87,5.57,12.59,5.86,19.44s.53,13.64-1.73,20.48c-4.58,13.8-14.85,20-28,22.87-1,.22-2,.28-3,.51-7.79,1.82-10.51-.54-13.09-8.44-4.92-15.05.68-25.75,12.58-34.44,9.08-6.63,18.87-12.36,26.42-20.92"/><path class="cls-1" d="M397.25,185.92c6.95,13.87,8.57,28.18,2.94,42.84-4.45,11.57-13.81,17.34-25.4,19.82a40.54,40.54,0,0,1-5,1.18c-8.23.71-11.7-3-13.58-12.48-2.76-13.95,3.31-23.27,14-31,9-6.48,18.56-12.37,26-20.88"/><path class="cls-1" d="M452.57,387.77c1.25-4.46,2.59-8.89,3.66-13.42,2.43-10.24-1.22-18-8.15-25-5.82-5.84-13.24-9.56-19.53-14.83-4.16-3.49-8.66-6.56-12.47-10.88-4.88,5.63-5.91,12.68-6.64,19.26-1.29,11.47-.27,22.85,7.72,32.38,5.78,6.9,13.45,10.3,22,11.83,2.68.48,5.63,2.67,8.45.12"/><path class="cls-1" d="M370.83,439.85c4.44-10.09,8.22-20.12,2.59-31.2-2.44-4.79-6.06-8.24-10.09-11.38C354,390,343.5,384.21,335.49,374.6c-3.48,4.54-4.37,9.45-5.48,14.18-2.48,10.51-2.14,20.7,2.31,31,5.4,12.46,20,19.29,33.53,19.83.65,0,1.33-.62,2-1"/><path class="cls-1" d="M158.51,537.29c-8.34-13.43-7.58-29.92,4.86-39.54,9.17-7.09,19.39-12.87,27.54-21.27.9-.93,1.78-1.88,2.93-3.08,3.61,3.46,4.36,8.38,5.51,13.06,2.3,9.32,2.62,18.73-.52,27.88-4.47,13-14.37,19.72-27.37,22.41-3.27.68-6.57,2.15-10,.14-.6-.35-2.15.31-2.9.93-7.67,6.33-13.91,14-16.68,23.48-1.15,4-1.71,8.88-.3,13.37"/><path class="cls-1" d="M485.46,387.77c-1.87-6.06-4.53-11.86-4.54-18.44,0-9.26,4-16.33,11-21.92,7.81-6.2,16.46-11.29,23.88-18a71.72,71.72,0,0,0,5.47-6.17c4.55,4.31,5.25,9.57,6.33,14.23,2.1,9,2.35,18.54-1,27.31-4.83,12.84-14.66,20.26-28.26,22.45-2.8.45-5.65,2.14-8.47,0"/><path class="cls-1" d="M584.14,334.94c3.66,3.17,8.37,2.14,11.9,1.25,14.14-3.57,21.85-11.44,24.3-25.71a28.17,28.17,0,0,0-14.84-29.73c-16.81-8.86-36.71-3.61-43.64,17.36-4.69,14.21,2.14,29.15,16.33,35.77,1.63.76,3.63.73,5.46,1.06"/><path class="cls-1" d="M21.45,215.82c1.67,17.39,12.3,36.41,28.39,41.43,9.73,3,18.58.41,27.43-3.08a5.84,5.84,0,0,0,3.49-4.46"/><path class="cls-1" d="M493.44,61.82c8.77,9,19.47,15.44,29.33,23,12.69,9.76,15,23.06,7.43,38-1.7,3.35.53,6.25-.38,9.28"/><path class="cls-1" d="M284.11,50.35c.66-1.82,2.07-3.77,1.82-5.45-.38-2.48-1.27-5.39-4.81-5.51-2.84-.09-5.51-.21-6.59,3.46-.38,1.29-.41,3.08-2.83,3.7-2.86.73-5.49,2.62-8,4.34-6.79,4.63-14.6,7.6-21,12.73,1.16,4.32,3.35,5.64,7.56,3.76a50.52,50.52,0,0,1,10.92-3.14c5.28-1,9.68-3.56,12-8.88.81-1.82,3-4.92,3.32-4.76,3.11,1.37,6.26-1.09,9.77,1.5,7,5.16,15.16,8.79,22.69,13.29,1.64,1,3.43,1.45,5.26,2.54,2.88-2.25,3.43-4.41.31-7.15-2.82-2.47-5.83-5-7.91-8-4.38-6.38-10.9-6.86-17.55-7.4-.82-.07-1.66,0-2.49,0"/><path class="cls-1" d="M561.22,415.18c-1,19.93-.82,39.9-2.45,59.81-.6,7.25.91,7.74,6.93,7.5,3.35-.13,5.23-1,5-5-.81-18.77-1.35-37.55-2.21-56.31,0-.72.35-1.34.15-2"/><path class="cls-1" d="M478,455.05c-24.11-1-41.26,9.9-52.26,30.94-1.75,3.36-3.43,6.94-3.56,10.93"/><path class="cls-1" d="M526.83,521.84c-5,17.9-16.07,30.48-33.4,37.36-7.84,3.11-16.05,3.93-24.42,3.51"/><path class="cls-1" d="M487,455.05c.46,1.46,1.65,1.62,3,2.06,20.61,6.92,33.16,21.21,37.8,42.32.91,4.16.44,8.62.6,12.94"/><path class="cls-1" d="M282.12,38.89c1.13-11.63.17-23.26.51-35-4.06-.77-6.81-.6-7,4.15a28.24,28.24,0,0,1-2.17,9.37c-2.83,6.62-2.16,12.33,1.7,18.06a34.33,34.33,0,0,1,2,4"/><path class="cls-1" d="M501.91,192.9c3,11.3,10.15,20.24,17.52,28.83,8.78,10.23,17.41,20.47,22.85,33"/><path class="cls-1" d="M420.67,505.39c-1.25,28.41,17.46,50,41.37,55.82"/><path class="cls-1" d="M328.47,456.05c2.28,7.54,5.33,14.71,11,20.42,11.59,11.74,23,11.52,36.35,3.47a48.38,48.38,0,0,0,5-4"/><path class="cls-2" d="M422.17,586.63c1.45,2.79,1.64,6.11,4.92,8.06,5.44,3.24,11.6,2.22,15-3.08,2.81-4.36.65-12.45-4-15-4.94-2.67-11.93-.29-14.42,5a37.3,37.3,0,0,0-1.52,4.47"/><path class="cls-2" d="M96.21,111.16c-1.45-4.94-3.65-9.23-9.47-10-5.4-.67-10.54,3-11.46,8-1,5.48,2.45,11.47,7.48,13,4.57,1.36,10.54-2,12.44-7,.43-1.13.68-2.32,1-3.48"/><path class="cls-1" d="M249.47,161.5c.92,6.23-2.69,11.34-4.32,16.92-2.65,9-5.86,17.87-9.05,27.43h29c-.91,3.87-3.5,5.93-5.35,8.49-11.34,15.75-22.6,31.56-33.95,47.31-.81,1.12-1.49,2.81-3.45,2.52"/><path class="cls-1" d="M126.62,211.83a50,50,0,0,0,3.2-35.3c-4.23-15.13-13.65-27-28.63-33.46-5.24-2.27-10.62-4.07-16.44-4-1.4,0-2.7-.08-4,.94a211.5,211.5,0,0,0-20.4,18.49,4.87,4.87,0,0,0-1,1c-1.17,2.28,6.38,15.36,8.95,15.42,3.49.09,7-.08,10.47.07a4,4,0,0,0,3.5-1.53c1.45-1.71,3-3.35,4.66-5.25,3.5,3.16,4.49,7,6.23,10.26,1.27,2.39,2.53,4.05,5.55,3.48a4.58,4.58,0,0,1,5,1.95c1.57,2.23,3.31,4.33,5.19,6.77l18.21-18.22"/><path class="cls-1" d="M254.21,151c-1.69,5.52-5.82,9.24-9.25,13.63-7.29,9.37-14,19.24-21.13,28.76-5.14,6.85-10,14-15,20.87a3.22,3.22,0,0,0-.95,2.53"/><path class="cls-1" d="M391.76,483c-4-2-6.39-6.27-10.94-7.55-1-.29-1.36-1.68-1.55-2.91-1.13-7.32-5.6-12.33-12-15.33a23.43,23.43,0,0,0-13.41-1.74c-8.07,1.11-16.2,2.47-24.41,1.12"/><path class="cls-1" d="M256.7,483V471.22c-5.31-.18-10.44-1.34-13.9-5.74a18,18,0,0,1-4-13.41,30.14,30.14,0,0,1,5.06-13.39c3.63-5.34,7.46-10.66,13-14.85,7.28,7,13.82,14.25,16.86,24.22,3.76,12.36-3.65,22.95-17,22.95V440.1"/><path class="cls-1" d="M274.64,110.66c-8.26,1.25-7.4,1.9-6.46,12.21h23.41c0-2.89-.12-5.56,0-8.22s-.94-3.38-3.52-3.58c-4.32-.34-8.69.93-13-.41"/><path class="cls-1" d="M283.11,56.33a4.68,4.68,0,0,1,.48,1.5c-.59,10.5,1.1,20.92,1,31.4-.08,7,.49,14,1,20.93"/><path class="cls-1" d="M79.77,140.07c-7.39-2.92-14.11.4-20.35,3.18a46.74,46.74,0,0,0-23,21.24c-7,13.45-9.82,27.31-3.41,41.82.59,1.34-.52,3.23,1.4,4"/><path class="cls-1" d="M338.93,567.69c-3.69,9.95-13,12.46-21.44,15.91-7.89,3.21-15.9,6.13-23.75,9.14-2-.8-1.76-3.09-3.19-4.15.18-.32.27-.79.55-.94,14.11-8.17,28.24-16.29,42.32-24.5a4.77,4.77,0,0,1,2-.44"/><path class="cls-1" d="M276.14,60.32q-.25,8.48-.5,16.95-.5,16.44-1,32.89"/><path class="cls-1" d="M368.84,586.63c-5.43,4.56-11.38,8.29-18.45,9.41-11,1.73-21.2,0-29.4-8.42"/><path class="cls-1" d="M349.4,567.19l43.78,25.49c4.44-3.88,4.44-4.09.08-7.55-7.31-5.81-15-11.22-21.81-17.57-5.63-5.25-12-6.38-19.06-6.35"/><path class="cls-1" d="M331,525.82c-3.77,4-9.36,5.49-13.06,9.89-7.52,8.95-11.9,18.57-9.39,30.49.31,1.46.35,3,.52,4.48"/><path class="cls-1" d="M379.3,565.7c1-12.36-1.85-23.48-11.53-31.82-4.65-4-9.79-7.68-16.38-8.06"/><path class="cls-1" d="M383.79,51.35c-6.39,10-14.41,18.85-21.46,28.39-4,5.42-8.32,10.62-12.4,16-.83,1.1-1.51,2.09-3,2"/><path class="cls-2" d="M614.55,248.72a25.47,25.47,0,0,0-2-4.46c-2.66-3.75-5.48-4.38-9.93-2.52-4.13,1.73-5.49,4.18-5,9a7.83,7.83,0,0,0,7,7,8.1,8.1,0,0,0,8.83-5.53,16.51,16.51,0,0,0,1.14-2.95"/><path class="cls-2" d="M309.45,148.82a25.71,25.71,0,0,0-2-4.45c-2.66-3.76-5.48-4.39-9.93-2.53-4.13,1.74-5.49,4.19-5,9a7.82,7.82,0,0,0,7,7,8.1,8.1,0,0,0,8.83-5.53,16.41,16.41,0,0,0,1.14-2.94"/><path class="cls-1" d="M48.87,426.14c-6.35,1.47-12.21,3.27-15.55,9.93-5,10-.46,22.84,10.54,25.55,4.77,1.17,9.16,1.27,13.47-1.1a18.29,18.29,0,0,0,9-11.43c2.45-8.25-2.41-18.3-10.54-20.95-2.15-.69-4.32-1.33-6.47-2"/><path class="cls-1" d="M373.32,8.49c-3.15,6.4-9,10.67-13,16.39-8.59,12.08-18.68,23-26.81,35.46-.8,1.23-2.15.73-3,1.48"/><path class="cls-1" d="M204.86,217.82h30.43c0,5.55-2.65,9.86-4.06,14.43-2.81,9-6.16,17.89-8.81,27-1.13,3.84-1,8-3.52,11.5a4.55,4.55,0,0,1-2.07,1.43"/><path class="cls-1" d="M472.5,325.47c1.5-3,2.91-6,4.51-9s.79-4.53-2-6a12.74,12.74,0,0,0-15.13,2.69c1.71,4.12,3,8.51,5.64,12.31"/><path class="cls-1" d="M469,353.38v58.81"/><path class="cls-2" d="M185.93,447.08c2-1.33,4.62-1,6.54-2.93,3.55-3.6,4.65-8.21,2.43-12.52-2.46-4.77-6.75-6.73-12-5.49-3.59.86-8,6.35-8,10,0,4,3.92,8.64,8.47,10,.66.19,1.33.33,2,.5"/><path class="cls-1" d="M346.91,406.21c2.12,10,8.31,17.63,15,24.9,5.88,6.42,12.07,12.56,17.42,19.46,6.69,8.61,12,18.13,13.12,28.94.53,5.13,2.72,10.13,1.84,15.41"/><path class="cls-1" d="M77.77,222.8c5-7.48,9.81-15.07,15-22.37,2-2.86,1.7-5.37.37-8s-2.87-4.84-4-7.47c-2-4.61-6.62-2.34-9.92-2.82-5.94-.86-9.79,3.2-12.95,7.68,2.17,9.77,8.16,18.52,7,29"/><path class="cls-1" d="M124.62,519.84c8.33,10.78,12.55,23.31,15.4,36.4.33,1.48.28,2.94,2,3.47"/><path class="cls-1" d="M255.7,261.67c-4.32,5-8.88,9.79-12.9,15-6.68,8.65-13,17.6-19.53,26.34a17.32,17.32,0,0,0-3,5.51"/><path class="cls-1" d="M190.41,270.65c0,7.28-5.26,12.53-7.81,18.8-1.9,4.66-2.51,8.54-1.18,13.1.47,1.62.68,3.32,1,5"/><path class="cls-1" d="M34.41,171.46c1.68,4.85,6.1,3.18,9.28,3.51,3.26,8-3.6,10.85-7,15.38,2,4.14-.61,8.34.56,12.56.41,1.44-1.91,2.53-3.33,3.44"/><path class="cls-1" d="M370.83,14.47c.88,3.63-1.21,6.69-2.05,10-2.1,8.16-4.51,16.23-6.83,24.49,7.77,2.14,15.43-.14,22.84,1.44"/><path class="cls-1" d="M445.59,42.88c4,.33,6.42,1.84,5.54,6.49a12.55,12.55,0,0,0,0,5.94c2.07,6.21-4.25,7.93-6.31,11.87-1.18,2.27-9.9.12-11.73-2.37a2.84,2.84,0,0,0-1-1c-8.11-3.55-4.44-10.74-4.82-16.48-.24-3.73,3.58-4.53,6.32-4.32a42.76,42.76,0,0,0,11.47-.15"/><path class="cls-1" d="M599.59,279.62q-2.8,10.06-5.64,20.17c4.31,1.84,9-.36,13.63,1.73-7.53,11.42-15.39,22.24-23.44,32.92"/><path class="cls-1" d="M596.11,278.62c-5.64,10.05-13.07,18.87-19.62,28.28-1.28,1.83-1.12,4.77-3.81,5.61"/><path class="cls-1" d="M198.39,596.6c5.87,8.62,15,11.58,24.43,13.9a4.47,4.47,0,0,0,4.47-1,3.09,3.09,0,0,1,3.45-.41c7,3.09,12.74-.59,18.46-3.61,13.2-6.95,19.95-18,21.56-32.85,2.37-21.78-13.28-40-31-44.38-.2,0-.34-.46-.51-.46-14.75-.09-29.44-.53-40.47,12.35-6.32,7.38-10.82,15.4-11.23,25-.5,11.63,1.39,22.8,10.84,31.15"/><path class="cls-1" d="M479.48,504.89a20.9,20.9,0,0,1-7.53,10.4c-7,5.52-13,11.77-16.64,20"/><path class="cls-1" d="M250.47,269.65c1,2.87-.42,5.39-1.26,8-2,6.22-4.13,12.41-6.26,18.8,7.23,3,14.75-1.08,21.72,1.64"/><path class="cls-1" d="M99.2,486.45q10.47,13.21,21,26.41c1.09,1.38,2.31,2.66,3.48,4"/><path class="cls-1" d="M505.9,92.22c-.2,5.26,4.07,8,7.11,10.82,6.16,5.81,12.43,11.38,16.31,19.08"/><path class="cls-1" d="M137.58,408.2c-2.78,6.32-7.33,11-12.91,15-5.16,3.71-8.26,9.23-11,14.88"/><path class="cls-1" d="M111.17,234.26c-3.94,2.19-7.79,4.45-12.46,5.05-6.3.8-11.37,4.09-15.44,8.92-.85,1-1.5,2.18-3,1"/><path class="cls-1" d="M42.39,321c-9.33,7.73-12.27,17.72-10.47,29.41"/><path class="cls-1" d="M49.37,234.26c5.53,2.8,11.17,5.21,17.43,6,3.25.44,5.49,3,8,4.93,1.61,1.25,2.54,3.45,5,3.49"/><path class="cls-1" d="M570.69,363.35a17.81,17.81,0,0,0-.18,8c.71,4,.08,8.28.2,12.43.16,5.4.27,10.74-3,15.45"/><path class="cls-1" d="M569.19,368.83c-4.43,5-6.22,11.42-8.29,17.5-1.34,3.92,1.74,7.86,2.31,11.9"/><path class="cls-1" d="M384.29,217.82a42,42,0,0,1-9.52,10.91c-5.71,4.84-10.65,10.19-13.91,17"/><path class="cls-1" d="M178,73.78c-4.3,2.36-6.33,6.73-8.9,10.51-4,5.84-9.6,10.5-12.13,17.36-.23.62-1.89.7-2.89,1"/><path class="cls-1" d="M191.91,96.7c-4.93,3.46-7.09,9.16-11,13.46-4.66,5.17-7.37,12-13.47,16"/><path class="cls-1" d="M81.76,321.48c8.13,8,10.85,17.76,9,28.91"/><path class="cls-1" d="M179.94,318.49c-1.66,1.5-3.58,2.79-4.92,4.53-2.87,3.71-6.79,4.65-11,4.37-4-.27-7.9,2.37-12,.57"/><path class="cls-1" d="M571.19,406.71c-.34-4.47-2-7.83-7.45-8.36a9.22,9.22,0,0,0-3.5,2.89c-2.12,2.44-2.76,5,0,7.45,2.39,2.12,5.27,2.62,7.93.95a12.24,12.24,0,0,1,16,2.55c2.48,3.16,4.94,6.35,7.49,9.45a6.76,6.76,0,0,1,1.48,4.5"/><path class="cls-1" d="M559.72,409.7a39.5,39.5,0,0,0-3.46,3.51c-2.94,3.79-6.62,5.17-11.49,5.12-4.15,0-8.31,2-12.46-.16"/><path class="cls-1" d="M218.82,339.92c-3.75-1.11-4.82-4.28-6.68-7.35-4.9-8.1-10.45-16-21.23-17.07"/><path class="cls-1" d="M557.73,405.21c-4.05-.45-7.74.21-11,3-4.76,4.05-11.71,4.75-15.58,10.39-.82,1.19-3.51,1.1-5.34,1.59"/><path class="cls-1" d="M177.45,314c-10.49.9-18.29,6.92-26,13.34-1.88,1.57-4.9,1.77-7.39,2.6"/><path class="cls-1" d="M131.1,57.33c.33,1.66.53,3.36,1,5C135,72,130.39,75,122.13,76.25c-1.23.18-2.57-.19-3.65,1.23,2.67,3.64,6.39,7,5.62,12.24-.79,5.5-6.4,6.55-9.72,9.73,12.42,11.07,12.42,11.07,4.28,22.15.88,1.66,2.44,1.4,4,1.56,7.14.72,12.64,4.89,9.61,13.47-.43,1.21-2.22,2.74-.64,4.43"/><path class="cls-1" d="M214.33,58.83c.81,1,.44,1.87.06,3-2.93,8.79.42,13.62,9.91,14.41,1.13.09,2.2.09,3,1-7.52,11.6-7.52,11.6,4.42,22.59-3.31,3.27-9,4.26-9.87,9.81-.75,5.07,3.46,8,5.38,12-.95,1.84-2.78,1.23-4.41,1.43-7.06.87-11.57,5.66-8.92,13.42.53,1.54,1.41,2.88.44,4.5"/><path class="cls-1" d="M195.15,153.52c-1.75-1-3.53-1.93-5.23-3-4.83-3.05-9.66-2.16-13,2.51-1.24,1.77-2.38,3.62-3.72,5.68-3.62-2.82-4-8.83-9.73-9.75-5-.81-8.28,2.28-12.36,4.86-.68-1.84-1.89-3.21-2.16-5.28-.89-6.92-3.58-9.15-10.4-8.39-2.52.28-5.26.25-7.49,1.91"/><path class="cls-1" d="M218.82,309.52c7.61,1.5,15.31-1,23.07.43-.6,6.23-3.89,11.56-5.24,17.49-.68,3-2.7,5.68-1.63,9"/><path class="cls-1" d="M567.7,198.88a87,87,0,0,1-9,25.91"/><path class="cls-1" d="M568.69,410.69c5.31,8.68,14.82,11.35,23,15.82,2.66,1.45,5.67,1.88,5.91,5.62"/><path class="cls-1" d="M150,44.37c.62,3.89-1,7.44-2.13,10.92-1.07,3.29-7,5.46-10.75,3.85-1.81-.77-3.39-.51-5.06-.81"/><path class="cls-1" d="M187.92,319.49c2.58-2.92,3.44-5.84,1.08-9.53-1.61-2.52-3.83-3.08-6-2.31-2.74,1-5.12,3.51-4.8,6.33.27,2.4,1.59,5.85,5.24,5.42s5.51,1.5,7.55,4c3.6,4.47,9.19,6.13,13.94,8.93,2.27,1.34,4.13,4.09,7.43,3.08"/><path class="cls-1" d="M44.88,349.39c.15,7.52,3.43,13.11,9.93,17,2.45,1.47,5.16.26,7.51,1.43"/><path class="cls-1" d="M151,45.87c2.63,1,4.65,3,7,4.39,2.9,1.66,8.45-.57,10.9-3.9,1.34-1.82,2.57-3.72,4-5.82,1.43,1.92,2.79,3.57,4,5.34,3.18,4.83,8.3,6.15,12.93,2.92,2-1.42,4.69-2,6-4.43"/><path class="cls-1" d="M195.4,46.37c1.58.92,1.46,2.43,1.52,4,.22,6,4,9.55,9.93,8.88,2.67-.3,5.57-.26,8-1.9"/><path class="cls-1" d="M214.83,142.06c-5.21-1.69-10.71-4.38-15.36.58-3.4,3.63-3.76,8.51-3.08,13.37"/><path class="cls-1" d="M189.41,279.62c1.44,9.45,2.48,18.87-2,27.91"/><path class="cls-1" d="M177,514.36c-1.63,6.08-5.48,10.82-9.48,15.44-1.92,2.22-4,4.33-6,6.49"/><path class="cls-1" d="M504.9,365.34c-4.27,7.2-8,14.64-14.22,20.68-2.26,2.2-4.74,1.86-6.87,2.92-5.3,2.65-10.75,4.87-15,9.53-5.33-6.52-12.44-8.24-19.2-10.84-3.25-1.25-5.28-4.58-7.56-7.31-3.78-4.54-6.18-9.86-8.94-15"/><path class="cls-1" d="M267.66,494.92H245.73"/><path class="cls-1" d="M267.66,488.94H245.73"/><path class="cls-1" d="M357.37,469.51c7.34.27,14.37,2.23,21.43,4"/><path class="cls-1" d="M181.94,65.31c-3.18,8.4-4.1,17.44-7.14,25.85a24.77,24.77,0,0,0-.84,4.55"/><path class="cls-1" d="M157.52,102.19c3.61,1.07,7.31.44,11,.43,3.06,0,4.4,1.41,3.47,4.55-1.43,4.83-3.46,9.55-4.31,14.48-.68,3.92-1.17,7.7-3.64,10.94"/><path class="cls-1" d="M269.66,568.69q-38.39,0-76.76,0c-1.48,0-3.09-.65-4.48.46"/><path class="cls-1" d="M574.67,312c3.75,1.26,7.72-.17,12,.95-.31,7.39-4.54,13.78-5,21"/><path class="cls-1" d="M232.28,529.31c7.26,8.51,13.5,17.48,15.5,28.9,3.21,18.33-.86,34.39-14,47.85-.49.51-1,1-1.49,1.5"/><path class="cls-1" d="M226.3,529.31c-5,6-9.81,12.18-13,19.44"/><path class="cls-1" d="M250.72,501.9c-1,5.23,2.33,5.06,6,5.06s7,.17,6-5.06"/><path class="cls-1" d="M213.34,549.75c-7.64,18.4-3.74,43.27,13.45,58.31"/><path class="cls-3" d="M288.6,339.23c-.56,16.28-1.15,32.56-1.67,48.85-.05,1.62-.74,4.15,1.28,4.5a15.14,15.14,0,0,0,8-.29c1.33-.52,1-1.94.82-2.93-1.75-9,0-18.18-1.56-27.21-.8-4.72.44-9.64-.52-14.43"/><path class="cls-3" d="M286.48,324.78c-6.16-3.3-12.44-1-18.69-.41a48.61,48.61,0,0,0-5.51.88,1,1,0,0,0-.65,1.66"/><path class="cls-3" d="M296.68,330.73c8.38,4.08,8.76,12.42,10.6,20a2.82,2.82,0,0,1-.83,2.54"/><path class="cls-3" d="M307.72,300.57c.14.43.53,1,.39,1.26-3.7,7.22-4.53,16.06-11.86,21.25"/><path class="cls-3" d="M311.12,295.05a14.26,14.26,0,0,1-5.41,6.12,57.24,57.24,0,0,0-11,10.15c-1.13,1.32-.51,4.42-1.21,6.15-1.3,3.21.05,4.11,2.26,5.72s1.73,5.92-.35,7.54c-2.81,2.2-5.88,1.55-8.07-1.7-1.35-2-.29-5.47,2.13-6.78,1-.51,2-.86,3-1.29"/><path class="cls-3" d="M292.85,332.43c-.1,6.83,5.3,10.68,8.53,15.69,2.24,3.48,5.73,6,7.61,9.8"/><path class="cls-3" d="M262.27,326.91c4.3,3.18,9.64,4,14.53,5.17,2.77.68,6.42-2.2,9.68-3.47"/><path class="cls-1" d="M427.65,209.34c4.73,4.85,7.68,10.94,11.46,16.45"/><path class="cls-1" d="M53.85,428.14c-2.62,5.36-7.38,9.49-9.18,15.41,2,1.71,4.18.86,6.19,1,2.52.19,3.37,1.33,2,3.5-2.69,4.14-5.8,8-7.95,12.47"/><path class="cls-1" d="M259.69,596.1c-20.27-12.68-40.54-13-60.81,0"/><path class="cls-1" d="M199.38,541.77c10.27,8.17,22.28,10.08,34.89,9.4,3.51-.19,7-1.26,10.47-1.92"/><path class="cls-1" d="M427.15,206.85c-.44,5.21-5.21,8-7,12.46-.77,1.93-3.08,3.06-3,5.48"/><path class="cls-1" d="M259.19,541.77c-3.83,3.6-8.67,5.23-13.46,7"/><path class="cls-1" d="M229.29,528.81v79.75"/><path class="cls-1" d="M445.59,30.42c-.84,4-.39,8-.5,12"/><path class="cls-1" d="M245.23,454.05c2.66,2.66,5.29,5.35,8,8,2.28,2.22,4.67,2.22,7,0,2.69-2.62,5.32-5.31,8-8"/><path class="cls-1" d="M432.13,49.36c4.61,1.29,9.32-.13,14,.5"/><path class="cls-1" d="M433.63,31.41c-1,3.62-.26,7.32-.5,11"/><path class="cls-1" d="M464,336.43a58.24,58.24,0,0,1,.83-8.5,3.56,3.56,0,0,1,4.13-3.25c1.64.21,4.08.41,4.22,3.77.11,2.81,0,5.66.29,8.48"/><path class="cls-1" d="M345.91,553.24a29.53,29.53,0,0,1,3.94,3.52c2.15,2.69,1.55,7.66-1,9.93-1.82,1.65-8.8,1.32-10.47-.5-2.54-2.76-2.78-8-.49-10.46a9.72,9.72,0,0,1,7.47-3"/><path class="cls-1" d="M461,337.43H477"/><path class="cls-1" d="M522.34,507.88c4.74,6.8,7.23,6.8,12,0"/><path class="cls-1" d="M414.69,509.88c4.73-6.81,7.23-6.81,12,0"/><path class="cls-1" d="M461,344.91H477"/><path class="cls-1" d="M474.5,448.07c.38,2.75,4,3.47,4,6.48"/><path class="cls-1" d="M172,96.7c5.82.31,11.78-1.28,17.44,1.25"/><path class="cls-1" d="M432.13,55.34c4.62,1.07,9.31.1,14,.5"/><path class="cls-1" d="M251.22,448.07c4.81,4.95,5.68,4.95,11,0"/><path class="cls-1" d="M470.51,563.2c.16,2.68,2.58,3.72,4,5.49"/><path class="cls-1" d="M480,455.05l-5.48,6"/><path class="cls-2" d="M10,257.69c-4.22,2-7.56,4.64-7.5,10a10.35,10.35,0,0,0,8,10.47,9.71,9.71,0,0,0,11-5c3-5.47,2.42-8.11-1.4-12.54-2.78-3.22-6.09-2.9-9.56-2.91"/><path class="cls-2" d="M142.57,272.64c-5.06,1.93-8.93,4.67-8.52,11a11.16,11.16,0,0,0,8,10c3.23.94,8.56-1.24,11-4.48,2.19-3,2.23-9,0-12a10.56,10.56,0,0,0-10-4.49"/><path class="cls-2" d="M519.35,277.62c-6.59,4.3-8.79,8.55-7,13.46,1.7,4.61,7.61,8.46,11.46,7.48,5.6-1.44,9.46-6.36,9-11.47-.55-5.7-4.9-9.45-11-9.47h-2"/><path class="cls-2" d="M392.79,86c-6.59,4.3-8.79,8.55-7,13.45,1.71,4.61,7.61,8.46,11.47,7.48,5.6-1.44,9.46-6.36,9-11.47-.55-5.7-4.9-9.45-11-9.46-.66,0-1.33,0-2,0"/><path class="cls-2" d="M603.58,355.37c-1.33.67-2.72,1.23-4,2-4.35,2.7-6.39,9.67-4,13.44,3.12,4.95,9.91,7,14.46,4.5a10.16,10.16,0,0,0,4.53-13.49c-2.28-4.36-5.64-6.55-10.52-6.46"/><path class="cls-4" d="M360.43,316.27c-8.66,1.73-13.52,7-13.52,14.72a14.13,14.13,0,0,0,14.32,14.32c10.84,0,17.4-8.75,14.32-19.09-1.76-5.91-7.08-9.5-14.72-10"/><path class="cls-2" d="M227.29,12.48c-8.15,3-11.53,8.37-8.95,14.44,2.18,5.15,5.77,7,11.44,6.48,3.77-.36,8.1-4.73,9-9,.66-3.23-2.34-8.4-6-10.49a8.56,8.56,0,0,0-5-1.47"/><path class="cls-5" d="M416.12,419.09c-4.35,1.36-7.9,3.38-9.22,8.34a11.33,11.33,0,0,0,4.45,12.75,11.5,11.5,0,0,0,13.53-.4c4.14-3.49,5.39-7.95,3.58-12.73-2.21-5.82-5.42-8-11.94-8"/><path class="cls-2" d="M492.94,418.17c-4.24,1.5-6,5.08-5.79,9a7.39,7.39,0,0,0,5.78,7c3.54.89,6.37.36,9.05-2.45a8,8,0,0,0,1.69-8.46c-1.19-3.18-4-5.82-8.24-5.09a11,11,0,0,1-2,0"/><path class="cls-2" d="M237.81,366.48c-4.23,1.5-6,5.09-5.79,9a7.4,7.4,0,0,0,5.78,7c3.54.89,6.38.37,9.06-2.45a8,8,0,0,0,1.69-8.46c-1.2-3.18-4-5.81-8.25-5.08a12,12,0,0,1-2,0"/><path class="cls-2" d="M321,1.51c-7.37,3.62-10.05,8-8,13.45,2.43,6.27,7.22,8.2,11.94,7.43,4.92-.82,9.15-6.55,8.43-11.4-.79-5.24-4-8.93-10.42-9.47a14.79,14.79,0,0,0-1.49,0"/></svg>