<svg xmlns="http://www.w3.org/2000/svg" viewBox="0 0 127.72 36.79"><defs><style>.cls-1{font-size:13.37px;font-family:ProximaNovaT-Thin, Proxima Nova;font-weight:200;}.cls-1,.cls-3{fill:#75b948;}.cls-2{fill:#fffffc;}</style></defs><g id="Camada_2" data-name="Camada 2"><g id="Camada_1-2" data-name="Camada 1"><text class="cls-1" transform="translate(38.66 33.03)">Consulting</text><path class="cls-2" d="M39.65,10.58h4.19a2.25,2.25,0,0,1,2.51,2.27A2,2,0,0,1,44.8,14.9a2.19,2.19,0,0,1,1.72,2.19,2.33,2.33,0,0,1-2.58,2.4H39.65Zm3.93,3.78a1.3,1.3,0,1,0,0-2.6H41v2.6Zm.07,4a1.34,1.34,0,0,0,1.5-1.4,1.36,1.36,0,0,0-1.5-1.38H41v2.78Z"/><path class="cls-2" d="M52.14,18.79a2.76,2.76,0,0,1-2.11.86,2.15,2.15,0,0,1-2.25-2.13A2.09,2.09,0,0,1,50,15.4a2.71,2.71,0,0,1,2.11.86V15.19c0-.8-.66-1.28-1.58-1.28a2.67,2.67,0,0,0-1.94.85l-.52-.83a3.67,3.67,0,0,1,2.65-1c1.4,0,2.59.61,2.59,2.26v4.35h-1.2Zm0-1.81a2,2,0,0,0-1.66-.73,1.29,1.29,0,1,0,0,2.56,2,2,0,0,0,1.66-.73Z"/><path class="cls-2" d="M55.27,13h1.2v1a2.77,2.77,0,0,1,2.11-1.14v1.22a1.68,1.68,0,0,0-.41,0,2.28,2.28,0,0,0-1.7.93v4.49h-1.2Z"/><path class="cls-2" d="M63.77,18.79a2.76,2.76,0,0,1-2.11.86,2.15,2.15,0,0,1-2.25-2.13,2.1,2.1,0,0,1,2.25-2.12,2.7,2.7,0,0,1,2.11.86V15.19c0-.8-.65-1.28-1.58-1.28a2.64,2.64,0,0,0-1.93.85l-.53-.83a3.68,3.68,0,0,1,2.65-1c1.4,0,2.59.61,2.59,2.26v4.35h-1.2Zm0-1.81a2,2,0,0,0-1.66-.73,1.29,1.29,0,1,0,0,2.56,2,2,0,0,0,1.66-.73Z"/><path class="cls-2" d="M66.91,17.77a3.14,3.14,0,0,0,2.17.92c.91,0,1.39-.37,1.39-.92s-.74-.85-1.57-1c-1.09-.26-2.37-.55-2.37-1.94,0-1,.88-1.91,2.46-1.91a3.44,3.44,0,0,1,2.45.92l-.53.84A2.55,2.55,0,0,0,69,13.85c-.82,0-1.33.32-1.33.85s.7.74,1.5.93c1.12.26,2.46.56,2.46,2,0,1.11-.91,2-2.6,2a3.65,3.65,0,0,1-2.69-1Z"/><path class="cls-2" d="M73.17,17.77a3.14,3.14,0,0,0,2.17.92c.9,0,1.39-.37,1.39-.92s-.74-.85-1.57-1c-1.09-.26-2.38-.55-2.38-1.94,0-1,.88-1.91,2.46-1.91a3.46,3.46,0,0,1,2.46.92l-.53.84a2.56,2.56,0,0,0-1.92-.79c-.81,0-1.32.32-1.32.85s.7.74,1.5.93c1.12.26,2.46.56,2.46,2,0,1.11-.91,2-2.61,2a3.65,3.65,0,0,1-2.68-1Z"/><path class="cls-2" d="M83.4,18.79a2.79,2.79,0,0,1-2.12.86A2.14,2.14,0,0,1,79,17.52a2.09,2.09,0,0,1,2.24-2.12,2.74,2.74,0,0,1,2.12.86V15.19c0-.8-.66-1.28-1.58-1.28a2.66,2.66,0,0,0-1.94.85l-.52-.83a3.65,3.65,0,0,1,2.65-1c1.4,0,2.59.61,2.59,2.26v4.35H83.4Zm0-1.81a2,2,0,0,0-1.66-.73,1.29,1.29,0,1,0,0,2.56,2,2,0,0,0,1.66-.73Z"/><path class="cls-3" d="M96.2,19.49c-.34-.29-.81-.73-1.28-1.2a3.28,3.28,0,0,1-2.66,1.36,2.37,2.37,0,0,1-2.62-2.39c0-1.43,1-2.15,2-2.75a4.1,4.1,0,0,1-.78-2.06,2,2,0,0,1,2-2,1.54,1.54,0,0,1,1.73,1.63c0,1.32-1.19,1.92-2.33,2.56a16.73,16.73,0,0,0,1.25,1.54c.47.52.9,1,1.34,1.42a9.35,9.35,0,0,0,1-2.29l.43.16a11.06,11.06,0,0,1-1.15,2.45c.51.51,1.06,1,1.71,1.57ZM94.6,18c-.59-.6-1.14-1.18-1.42-1.5-.42-.49-.89-1-1.29-1.61-1,.56-1.78,1.21-1.78,2.4a2,2,0,0,0,2.15,2A3,3,0,0,0,94.6,18ZM92.05,14.3c1.07-.58,2.1-1.11,2.1-2.22a1.16,1.16,0,0,0-1.27-1.23,1.53,1.53,0,0,0-1.53,1.6A3.71,3.71,0,0,0,92.05,14.3Z"/><path class="cls-2" d="M101.59,15a4.46,4.46,0,0,1,4.57-4.61,4,4,0,0,1,3.55,1.89l-1.14.6a2.83,2.83,0,0,0-2.41-1.3A3.22,3.22,0,0,0,103,15a3.23,3.23,0,0,0,3.19,3.43,2.83,2.83,0,0,0,2.41-1.3l1.14.6a4.06,4.06,0,0,1-3.55,1.88A4.46,4.46,0,0,1,101.59,15Z"/><path class="cls-2" d="M111,13h1.2v1a2.77,2.77,0,0,1,2.11-1.14v1.22a1.68,1.68,0,0,0-.41,0,2.28,2.28,0,0,0-1.7.93v4.49H111Z"/><path class="cls-2" d="M119.9,18.61a3.2,3.2,0,0,1-2.3,1,1.82,1.82,0,0,1-2.06-2V13h1.2V17.2c0,1.07.54,1.39,1.36,1.39a2.37,2.37,0,0,0,1.8-.91V13h1.2v6.45h-1.2Z"/><path class="cls-2" d="M122.7,18.57l3.37-4.48H122.7V13h5v.89l-3.39,4.52h3.45v1h-5Z"/><path class="cls-3" d="M20.87,8.5a5.13,5.13,0,0,0-.35-1.18C19,3.69,13.54.85,11.75,0,10.59,1.3,7.43,5.3,8.26,9.83l0,.13a11.28,11.28,0,0,0,2.81,4.85l.08.1a20.53,20.53,0,0,1,4.05,5.88l.15.38c.31,1,.55,2,.72,2.81l1-2,.06-.12.66-1.29C19.62,17.18,21.63,13.33,20.87,8.5Z"/><path class="cls-2" d="M25.43,12.1a5.69,5.69,0,0,1,1.34-1L22.72,8.66c.67,5.21-1.5,9.39-3.26,12.77-.25.47-.49.93-.71,1.38-.5,1-1,2-1.45,2.83V33H21V26.65l4.14-7.18A5.47,5.47,0,0,1,25.43,12.1Z"/><path class="cls-2" d="M27.35,21.08,23.7,27.41v5.47A1.84,1.84,0,0,0,25.28,32L31.66,20.9a5.44,5.44,0,0,1-4.31.18Z"/><path class="cls-2" d="M32.69,15l-.12-.34a3.66,3.66,0,0,0-.77-1.17,3.55,3.55,0,0,0-2.5-1H29a3.48,3.48,0,0,0-2.16,1,3.52,3.52,0,0,0-1,2.5A3.55,3.55,0,0,0,29.3,19.5,3.53,3.53,0,0,0,32.69,15Z"/><path class="cls-2" d="M2.64,25.24,6.6,32a1.84,1.84,0,0,0,1.58.91V26.57l-1.91-2a5.47,5.47,0,0,1-2.74.74A5.35,5.35,0,0,1,2.64,25.24Z"/><path class="cls-2" d="M6.45,21.83c.06-.09.11-.18.16-.27h0l.14-.29h0A3.55,3.55,0,0,0,6,17.35a3.55,3.55,0,0,0-5,0,3.63,3.63,0,0,0-.82,1.3v0c0,.11-.07.22-.1.33s0,0,0,.06L0,19.38a.22.22,0,0,1,0,.08c0,.13,0,.26,0,.39a3.53,3.53,0,0,0,6,2.49l.23-.25a1.43,1.43,0,0,0,.14-.2Z"/><path class="cls-2" d="M14.58,33l0-7.29v-.06a29.3,29.3,0,0,0-.91-3.9c-.64-2-2.41-4-3.83-5.62L9.74,16a14.77,14.77,0,0,1-2.91-4.58l-3,3A5.46,5.46,0,0,1,8.19,22.7l2.73,2.71V33Z"/></g></g></svg>