<?xml version="1.0" encoding="utf-8"?>
<!-- Generator: Adobe Illustrator 24.1.1, SVG Export Plug-In . SVG Version: 6.00 Build 0)  -->
<svg version="1.1" id="Camada_1" xmlns="http://www.w3.org/2000/svg" xmlns:xlink="http://www.w3.org/1999/xlink" x="0px" y="0px"
	 viewBox="0 0 142.8 71.9" style="enable-background:new 0 0 142.8 71.9;" xml:space="preserve">
<style type="text/css">
	.st0{fill:#194091;}
	.st1{fill:none;}
	.st2{fill:#FFFFFF;}
	.st3{fill:#75B948;}
	.st4{fill:#4F9D34;}
	.st5{fill:#75B948;stroke:#FFFFFF;stroke-width:3.8194;stroke-miterlimit:10;}
	.st6{fill:#75B948;stroke:#FFFFFF;stroke-width:1.5112;stroke-miterlimit:10;}
	.st7{fill:#75B948;stroke:#FFFFFF;stroke-width:2.8162;stroke-miterlimit:10;}
	.st8{fill:#75B948;stroke:#FFFFFF;stroke-width:21.2598;stroke-miterlimit:10;}
	.st9{fill:#75B948;stroke:#FFFFFF;stroke-width:2.3301;stroke-miterlimit:10;}
	.st10{fill:#75B948;stroke:#FFFFFF;stroke-width:1.166;stroke-miterlimit:10;}
	.st11{fill:#75B948;stroke:#FFFFFF;stroke-width:2.3261;stroke-miterlimit:10;}
	.st12{fill:#75B948;stroke:#FFFFFF;stroke-width:28.3465;stroke-miterlimit:10;}
	.st13{fill:none;stroke:#194091;stroke-width:0.2821;stroke-miterlimit:10;}
	.st14{fill:none;stroke:#EBF6FB;stroke-width:0.2821;stroke-miterlimit:10;}
	.st15{fill:none;stroke:#194091;stroke-width:0.2835;stroke-miterlimit:10;}
	.st16{fill:none;stroke:#194091;stroke-width:0.2901;stroke-miterlimit:10;}
	.st17{fill:#999999;}
	.st18{fill:#194091;stroke:#194091;stroke-width:1.1767;stroke-miterlimit:10;}
	.st19{fill:#75B949;}
	.st20{fill:#75B949;stroke:#194091;stroke-width:2.2784;stroke-miterlimit:10;}
	.st21{fill:#75B949;stroke:#194091;stroke-width:1.5112;stroke-miterlimit:10;}
	.st22{fill:#75B948;stroke:#194091;stroke-width:21.2598;stroke-miterlimit:10;}
</style>
<rect x="0.6" y="0.6" class="st18" width="141.6" height="70.7"/>
<g>
	<path class="st2" d="M59.9,34.6h10.6c4,0,6.3,2.5,6.3,5.7c0,2.8-1.9,4.7-3.9,5.2c2.4,0.4,4.4,2.8,4.4,5.5c0,3.5-2.4,6.1-6.5,6.1
		H59.9V34.6z M69.8,44.2c2.3,0,3.5-1.4,3.5-3.3s-1.2-3.3-3.5-3.3h-6.5v6.6H69.8z M70,54.2c2.4,0,3.8-1.3,3.8-3.5
		c0-1.9-1.3-3.5-3.8-3.5h-6.7v7H70z"/>
	<path class="st2" d="M80.5,45.9c0-6.9,5.1-11.6,11.5-11.6c4.4,0,7.2,2.1,8.9,4.8l-2.9,1.5c-1.2-1.9-3.4-3.3-6.1-3.3
		c-4.6,0-8.1,3.6-8.1,8.6c0,5,3.5,8.6,8.1,8.6c2.7,0,4.9-1.4,6.1-3.3l2.9,1.5c-1.8,2.6-4.5,4.8-8.9,4.8
		C85.6,57.5,80.5,52.8,80.5,45.9z"/>
	<path class="st19" d="M104,45.9c0-6.9,5-11.6,11.2-11.6c3.2,0,5.8,1.2,7.8,3.5l-0.8,0.7c-1.6-2-4.2-3.3-7-3.3
		c-5.6,0-10,4.3-10,10.6c0,6.3,4.4,10.6,10,10.6c2.8,0,5.4-1.3,7-3.3l0.9,0.7c-2.1,2.4-4.7,3.6-7.9,3.6C109,57.5,104,52.8,104,45.9z
		"/>
</g>
<path class="st2" d="M16.5,45.8l-3.7,1.6l5,8.5c0.4,0.7,1.2,1.1,2,1.1l0,0v-7.9L16.5,45.8z"/>
<path class="st2" d="M46.5,37.3l3.9,2.3L41,55.9c-0.4,0.7-1.2,1.1-2,1.1l0,0v-6.8L46.5,37.3z"/>
<polygon class="st2" points="45.9,42.7 50.4,34.5 27.7,20.6 9.4,38.8 14.1,39 17.6,42.2 23.1,47.7 23.1,57.2 27.7,57.2 27.7,48.1 
	28,41.7 31.1,43.4 31.1,57.2 35.7,57.2 35.7,49.3 41.5,39.1 "/>
<g>
	<path class="st2" d="M13.9,46.4c-1.5,0-2.9-0.6-4-1.6c-1.1-1.1-1.6-2.5-1.6-4s0.6-2.9,1.6-4c1.1-1.1,2.5-1.6,4-1.6s2.9,0.6,4,1.6
		c1.1,1.1,1.6,2.5,1.6,4s-0.6,2.9-1.6,4C16.8,45.8,15.4,46.4,13.9,46.4z"/>
	<path class="st0" d="M13.9,36.4c1.2,0,2.3,0.5,3.1,1.3c1.7,1.7,1.7,4.5,0,6.2c-0.8,0.8-1.9,1.3-3.1,1.3c-1.2,0-2.3-0.5-3.1-1.3
		c-1.7-1.7-1.7-4.5,0-6.2C11.6,36.8,12.7,36.4,13.9,36.4 M13.9,34c-1.7,0-3.5,0.7-4.8,2c-2.7,2.7-2.7,7,0,9.7c1.3,1.3,3.1,2,4.8,2
		c1.7,0,3.5-0.7,4.8-2c2.7-2.7,2.7-7,0-9.7C17.4,34.6,15.6,34,13.9,34L13.9,34z"/>
</g>
<g>
	<path class="st2" d="M46.1,41.6c-1.5,0-2.9-0.6-4-1.6c-1.1-1.1-1.6-2.5-1.6-4c0-1.5,0.6-2.9,1.6-4c1.1-1.1,2.5-1.6,4-1.6
		s2.9,0.6,4,1.6c1.1,1.1,1.6,2.5,1.6,4c0,1.5-0.6,2.9-1.6,4C49,41,47.6,41.6,46.1,41.6z"/>
	<g>
		<path class="st0" d="M46.1,31.5c1.2,0,2.3,0.5,3.1,1.3c0.8,0.8,1.3,1.9,1.3,3.1s-0.5,2.3-1.3,3.1s-1.9,1.3-3.1,1.3
			c-1.2,0-2.3-0.5-3.1-1.3s-1.3-1.9-1.3-3.1s0.5-2.3,1.3-3.1C43.8,32,44.9,31.5,46.1,31.5 M46.1,29.1c-1.7,0-3.5,0.7-4.8,2
			c-2.7,2.7-2.7,7,0,9.7c1.3,1.3,3.1,2,4.8,2s3.5-0.7,4.8-2c2.7-2.7,2.7-7,0-9.7C49.6,29.8,47.8,29.1,46.1,29.1L46.1,29.1z"/>
	</g>
</g>
<path class="st20" d="M28.8,48.1c0,0-0.4-2.8-1.2-5.3c-0.9-2.8-3.2-5.4-5.1-7.5c-2-2.3-3.4-4.6-3.8-6.8c-1.4-7.6,5.2-13.9,5.2-13.9
	s11.7,5,12.8,11.8c1.1,7.3-2.5,13-4.8,17.5c-1.3,2.7-2.8,5.5-2.8,5.5"/>
</svg>
