<svg xmlns="http://www.w3.org/2000/svg" viewBox="0 0 2210.02 680.31"><defs><style>.cls-1{fill:none;}.cls-2{fill:#75b948;}.cls-3{fill:#fff;}</style></defs><g id="Camada_2" data-name="Camada 2"><g id="Camada_1-2" data-name="Camada 1"><rect class="cls-1" width="2210.02" height="680.31"/><path class="cls-2" d="M636.58,492.43c0-45.86,33.32-77.17,75.15-77.17,24.16,0,42,10.51,54.8,26.39l-10.73,6.94c-9.4-13-25.73-21.7-44.07-21.7-34.67,0-61.73,26.62-61.73,65.54C650,530.9,677.06,558,711.73,558c18.34,0,34.67-8.73,44.07-21.7L766.53,543c-13.19,16.33-30.64,26.62-54.8,26.62C669.9,569.6,636.58,538.28,636.58,492.43Z"/><path class="cls-2" d="M785.77,512.78c0-31.54,20.36-56.59,51.9-56.59,32,0,52.11,25.05,52.11,56.59s-20.13,56.82-52.11,56.82C806.13,569.6,785.77,544.32,785.77,512.78Zm91.49,0c0-23.93-14.09-46.07-39.59-46.07-25,0-39.37,22.14-39.37,46.07,0,24.16,14.32,46.3,39.37,46.3C863.17,559.08,877.26,536.94,877.26,512.78Z"/><path class="cls-2" d="M992.68,493.77c0-20.8-10.51-27.06-26.17-27.06-13.87,0-28.18,8.72-35.12,18.56v81.64H919.76v-108h11.63v16.33c7.83-9.4,23.26-19,38.92-19,21.92,0,34,10.74,34,35.12v75.6H992.68Z"/><path class="cls-2" d="M1038.09,543.87c6.93,8.73,19.68,15.89,34.89,15.89,18.12,0,28.86-9,28.86-21.48,0-13.87-14.77-17.89-30.2-21.92-18.12-4.47-38-9.17-38-30.19,0-16.56,14.09-30,38.47-30,18.56,0,30.87,7.16,38.69,15.88l-6.48,8.28c-6.27-8.5-17.9-14.32-32.21-14.32-16.78,0-27.07,8.28-27.07,19.46,0,12.31,13.87,15.66,28.86,19.46,18.56,4.7,39.36,9.85,39.36,32.89,0,17.44-13.42,31.76-40.48,31.76-17.45,0-30.87-5.15-41.61-17Z"/><path class="cls-2" d="M1216.14,551c-9,9.84-23.26,18.57-38.92,18.57-22.14,0-34-10.29-34-34.67v-76h11.63v73.36c0,21,10.51,26.84,26.17,26.84,13.87,0,28-8.27,35.12-17.89V458.88h11.63v108h-11.63Z"/><path class="cls-2" d="M1264,417.72h11.63V566.91H1264Z"/><path class="cls-2" d="M1314.11,546.11V469.17h-17.89V458.88h17.89V429.35H1326v29.53h21.92v10.29H1326v75.15c0,8.73,3.58,14.76,11.18,14.76a16.9,16.9,0,0,0,12.08-5.14l4.47,8.95c-4.25,4-9.39,6.71-18.34,6.71C1321.05,569.6,1314.11,560.87,1314.11,546.11Z"/><path class="cls-2" d="M1370.26,431.59a9.12,9.12,0,0,1,8.94-8.95,9,9,0,1,1,0,17.9A9.12,9.12,0,0,1,1370.26,431.59Zm3.13,27.29H1385v108h-11.63Z"/><path class="cls-2" d="M1494.17,493.77c0-20.8-10.51-27.06-26.17-27.06-13.87,0-28.18,8.72-35.12,18.56v81.64h-11.63v-108h11.63v16.33c7.83-9.4,23.27-19,38.92-19,21.92,0,34,10.74,34,35.12v75.6h-11.63Z"/><path class="cls-2" d="M1549,585.48c9.4,11.18,19.69,15.21,35.79,15.21,19.69,0,36.91-9.84,36.91-34.67V549c-7.6,11-21.47,20.13-37.58,20.13-28.63,0-48.31-21.7-48.31-56.37,0-34.22,19.68-56.59,48.31-56.59,15.44,0,28.86,7.83,37.58,20.13V458.88h11.86V565.8c0,33.1-22.37,45-48.77,45-18.11,0-29.75-3.35-42.5-16.32Zm72.7-99.09c-6.26-10.51-20.58-19.68-35.56-19.68-23.94,0-37.81,19.9-37.81,46.07s13.87,45.86,37.81,45.86c15,0,29.3-9.17,35.56-19.69Z"/><path class="cls-3" d="M640.16,191h70c26.62,0,42.05,16.33,42.05,38,0,18.79-12.3,31.31-26,34.22,15.89,2.46,28.86,18.56,28.86,36.68,0,23.49-15.66,40.26-43.17,40.26h-71.8Zm65.76,63.3c15,0,23.26-9.39,23.26-21.69s-8.27-21.92-23.26-21.92H662.53v43.61ZM707,320.47c15.66,0,25.05-9,25.05-23.49,0-12.3-8.5-23-25.05-23H662.53v46.52Z"/><path class="cls-3" d="M849.07,328.3c-8.5,9.39-20.8,14.54-35.34,14.54-17.89,0-37.57-12.08-37.57-35.79,0-24.6,19.46-35.34,37.57-35.34,14.54,0,27.07,4.7,35.34,14.31V268.13c0-13.42-11-21.47-26.39-21.47-12.3,0-22.81,4.69-32.43,14.31l-8.73-13.87c12.08-11.85,26.85-17.67,44.29-17.67,23.49,0,43.4,10.29,43.4,37.81v72.91H849.07Zm0-30.2c-6-8.05-16.55-12.3-27.73-12.3-14.54,0-24.83,8.72-24.83,21.47s10.29,21.48,24.83,21.48c11.18,0,21.7-4.25,27.73-12.31Z"/><path class="cls-3" d="M901.42,232.12h20.13v16.55c8.28-10.74,21-19,35.34-19V250a31.49,31.49,0,0,0-6.93-.67c-10.07,0-23.71,7.61-28.41,15.66v75.15H901.42Z"/><path class="cls-3" d="M1043.68,328.3c-8.5,9.39-20.8,14.54-35.34,14.54-17.9,0-37.58-12.08-37.58-35.79,0-24.6,19.46-35.34,37.58-35.34,14.54,0,27.06,4.7,35.34,14.31V268.13c0-13.42-11-21.47-26.39-21.47-12.31,0-22.82,4.69-32.44,14.31l-8.72-13.87c12.08-11.85,26.84-17.67,44.29-17.67,23.48,0,43.39,10.29,43.39,37.81v72.91h-20.13Zm0-30.2c-6-8.05-16.55-12.3-27.74-12.3-14.54,0-24.82,8.72-24.82,21.47s10.28,21.48,24.82,21.48c11.19,0,21.7-4.25,27.74-12.31Z"/><path class="cls-3" d="M1096.25,311.3c7.38,8.05,21.69,15.43,36.23,15.43,15.21,0,23.27-6.26,23.27-15.43,0-10.74-12.31-14.32-26.18-17.45-18.34-4.25-39.81-9.17-39.81-32.43,0-17.22,14.76-32,41.16-32,18.56,0,32,6.71,41.15,15.44L1163.13,259c-6.27-7.61-18.35-13.2-32-13.2S1109,251.13,1109,259.85c0,9.4,11.63,12.53,25,15.66,18.79,4.25,41.16,9.4,41.16,34.22,0,18.57-15.21,33.11-43.62,33.11-18.12,0-34-5.59-45-16.78Z"/><path class="cls-3" d="M1200.93,311.3c7.38,8.05,21.7,15.43,36.23,15.43,15.21,0,23.27-6.26,23.27-15.43,0-10.74-12.31-14.32-26.17-17.45-18.35-4.25-39.82-9.17-39.82-32.43,0-17.22,14.76-32,41.16-32,18.56,0,32,6.71,41.16,15.44l-9,14.09c-6.26-7.61-18.34-13.2-32-13.2s-22.14,5.37-22.14,14.09c0,9.4,11.63,12.53,25,15.66,18.79,4.25,41.16,9.4,41.16,34.22,0,18.57-15.21,33.11-43.62,33.11-18.12,0-34-5.59-45-16.78Z"/><path class="cls-3" d="M1372,328.3c-8.5,9.39-20.8,14.54-35.34,14.54-17.89,0-37.58-12.08-37.58-35.79,0-24.6,19.46-35.34,37.58-35.34,14.54,0,27.07,4.7,35.34,14.31V268.13c0-13.42-11-21.47-26.39-21.47-12.3,0-22.82,4.69-32.43,14.31l-8.73-13.87c12.08-11.85,26.84-17.67,44.29-17.67,23.49,0,43.39,10.29,43.39,37.81v72.91H1372Zm0-30.2c-6-8.05-16.55-12.3-27.73-12.3-14.54,0-24.83,8.72-24.83,21.47s10.29,21.48,24.83,21.48c11.18,0,21.69-4.25,27.73-12.31Z"/><path class="cls-2" d="M1538.21,340.15c-5.15-4.25-10.74-9.61-16.55-15-10.29,11-22.82,17.67-38.48,17.67-22.81,0-39.59-13.2-39.59-34.67,0-19.46,13.65-29.3,28.63-36.91-6.48-9.84-10.29-19-10.29-28,0-16.77,13.87-28.85,31.09-28.85,15,0,27.74,7.83,27.74,24.15,0,18.57-16.78,26.85-33.33,35.12A210.11,210.11,0,0,0,1504,292.06c6,6.27,11.41,11.86,17.23,17.67A116.43,116.43,0,0,0,1535.3,280l10.06,4c-4.69,12.08-10.28,23.49-16.77,32.66,7.16,6.93,15.43,14.54,25.72,23.48Zm-23.94-21.92c-7.15-6.93-13.86-13.64-18.79-18.78-6.71-7.39-12.75-14.32-17.89-20.81-12.08,6.94-22.14,15-22.14,29.08,0,14.76,11.63,25.72,28.4,25.72C1495.71,333.44,1506,327.41,1514.27,318.23Zm-32.21-51.89c14.77-7.16,28.19-13.87,28.19-27.51,0-10.07-6.94-15.44-17-15.44-11.86,0-20.36,9-20.36,20.14C1472.89,250.46,1476.47,258.29,1482.06,266.34Z"/><path class="cls-3" d="M1599.24,265.67c0-45.85,34-77.17,76.5-77.17,29.3,0,47.64,14.09,59.27,31.54l-19,10.06a47.3,47.3,0,0,0-40.26-21.69c-30.2,0-53.46,23.71-53.46,57.26,0,33.33,23.26,57.26,53.46,57.26a47.28,47.28,0,0,0,40.26-21.7l19,10.07c-11.85,17.45-30,31.54-59.27,31.54C1633.24,342.84,1599.24,311.52,1599.24,265.67Z"/><path class="cls-3" d="M1756.93,232.12h20.14v16.55c8.27-10.74,21-19,35.34-19V250a31.58,31.58,0,0,0-6.94-.67c-10.06,0-23.71,7.61-28.4,15.66v75.15h-20.14Z"/><path class="cls-3" d="M1905.46,325.39c-8.28,8.95-21.92,17.45-38.47,17.45-23,0-34.45-11.63-34.45-34.45V232.12h20.13v69.56c0,17.9,8.95,23.26,22.82,23.26,12.52,0,23.93-7.15,30-15.21V232.12h20.13v108h-20.13Z"/><path class="cls-3" d="M1952.43,324.72l56.37-74.93h-56.37V232.12h83v15l-56.82,75.61h57.71v17.44h-83.88Z"/><path class="cls-3" d="M465.58,250.42a56.7,56.7,0,0,0,6.15,110.08l.74.13,1.45.23c.69.09,1.38.18,2.08.25l.9.08c.56.05,1.13.09,1.7.12l.81.05c.82,0,1.65.06,2.48.06a56.93,56.93,0,0,0,15.73-2.22A56.7,56.7,0,0,0,522,264.64a57.17,57.17,0,0,0-12.26-9.32C504.8,256.85,484.89,253.41,465.58,250.42Z"/><path class="cls-3" d="M481.89,389.76c-1.25,0-2.49,0-3.73-.09l-1.21-.06c-.85-.05-1.7-.11-2.54-.19l-1.35-.11c-1.05-.11-2.09-.24-3.13-.39-.72-.1-1.44-.22-2.16-.34l-1.12-.19a84.63,84.63,0,0,1-14.95-4.15l-54.24,94.11-.61,1.77v86.81c10.13,0,25.91,1.19,35.87-14.75L537,369.65s0-.16-.08-.08a84.16,84.16,0,0,1-31.42,16.87A85.15,85.15,0,0,1,481.89,389.76Z"/><path class="cls-3" d="M421.76,244.59A84.71,84.71,0,0,1,452.11,225c.08,0,0-.21,0-.21l-74.38-38.77c12.4,88.47-26.1,165.12-54.33,221.31-1.34,2.67-23.4,46.19-26,60.54-4.41,24.22.25,99,.25,99h56.69V469.49l1-5.32,61.44-104.75a85,85,0,0,1,5-114.83Z"/><path class="cls-3" d="M536.31,288.91a55.78,55.78,0,0,0-1.87-5.46A56.51,56.51,0,0,0,522,264.64a57.17,57.17,0,0,0-12.26-9.32A56.36,56.36,0,0,0,481.89,248c-1.78,0-3.56.09-5.31.25a57.08,57.08,0,0,0-11,2.14,56.7,56.7,0,0,0,6.15,110.08l.74.13,1.45.23c.69.09,1.38.18,2.08.25l.9.08c.56.05,1.13.09,1.7.12l.81.05c.82,0,1.65.06,2.48.06a56.93,56.93,0,0,0,15.73-2.22,56.68,56.68,0,0,0,38.69-70.29Z"/><circle class="cls-3" cx="120.14" cy="384.31" r="44.15"/><path class="cls-3" d="M120.14,448.25A63.75,63.75,0,0,1,74,428.46s0,0,0,0l64.13,124.3A29,29,0,0,0,163,566.93h7.11l0-104.53-1.7-3.54-17.63-18.43h0A63.46,63.46,0,0,1,120.14,448.25Z"/><path class="cls-3" d="M242.65,390.42c-9.56-33.47-37.87-63.22-60.15-88.55l-1.35-1.53c-12.69-14.44-23.31-28.57-30.05-38L90.38,327.48s-.08.3.13.19A63.92,63.92,0,0,1,176,415.59l27.8,29.1,1.69,3.54v118.7H248S258.66,446.46,242.65,390.42Z"/><path class="cls-2" d="M273.26,215.53c-5.56-41.39-15.53-70.63-21.79-86-4.62-11.33-12.71-22.83-17.22-28.78-2-2.61-1.92-2.66.18-.14,4.76,5.72,13.46,16.73,19.31,27.47,7.92,14.54,18.22,39.08,28.35,79.6,18.4,73.61,12,166.86,5.17,223.24,32.54-74.61,81.8-146.24,67.1-245.82C343.77,116.93,238.21,69.86,210.3,56.91c-43.18,43.82-81.68,123.53-48,180.65,32.59,48.7,90.29,88.51,108.4,170.5C276.91,354.29,281.88,279.71,273.26,215.53Z"/></g></g></svg>