<svg id="Background" xmlns="http://www.w3.org/2000/svg" viewBox="0 0 260.15 260.15"><defs><style>.cls-1,.cls-2{fill:none;stroke-miterlimit:10;}.cls-1{stroke:#fff;stroke-width:3.36px;}.cls-2{stroke:#75b848;stroke-width:4.47px;}</style></defs><path class="cls-1" d="M129.22,202.11c-5.34-1.11-7.28-6.11-7.87-8.36-2.29-8.73-8.5-8.12-15.08-8.08-19.45.12-22.14,2.74-22.14,22.19,0,8.11.07,16.23,0,24.35-.06,4.65,1.6,6.76,6.67,6.73q39.11-.28,78.23,0c5.06,0,6.71-2.08,6.67-6.73-.09-10.82.18-21.65-.1-32.47-.22-8.73-6-13.89-14.69-14.06-4.18-.09-7.95-.86-12.57-.63-4.38.21-6,2.22-8.15,5.06C137,194.28,135.23,200.76,129.22,202.11Z"/><path class="cls-1" d="M130.62,168c13.33-.09,21.32-10.77,22.24-22.13,1.07-13.31-10.5-23.34-20.75-24.44-12.74-1.37-23.87,8.94-25,19.28-1.32,11.69,3.67,23.45,19.12,26.56A29.39,29.39,0,0,0,130.62,168Z"/><path class="cls-2" d="M129.88,66.9v33.94"/><path class="cls-2" d="M96.67,63.58c10.49,2.17,21.17.74,31.75,1.65a112.8,112.8,0,0,0,25-.83c3.7-.52,7.38-1,11.11-1.19.13-2.51-31.28-38.88-33.95-42C119.11,30.88,110,46.21,101.18,58,100.59,58.75,96.67,62.35,96.67,63.58Z"/><path class="cls-2" d="M207.73,144.37H173.78"/><path class="cls-2" d="M211.05,111.16c-2.17,10.48-.74,21.16-1.65,31.75a112.71,112.71,0,0,0,.83,25c.52,3.7,1,7.38,1.19,11.11,2.51.13,38.87-31.27,42-34-9.67-11.51-25-20.58-36.76-29.44C215.88,115.07,212.28,111.16,211.05,111.16Z"/><path class="cls-2" d="M52.41,144.75h34"/><path class="cls-2" d="M49.09,178c2.18-10.49.75-21.17,1.66-31.75a112.8,112.8,0,0,0-.83-25c-.52-3.7-1-7.38-1.2-11.11-2.5-.13-38.87,31.27-42,33.95,9.66,11.51,25,20.59,36.75,29.44C44.27,174,47.86,178,49.09,178Z"/></svg>