<svg id="Background" xmlns="http://www.w3.org/2000/svg" viewBox="0 0 260.15 260.15"><defs><style>.cls-1,.cls-2{fill:none;stroke-miterlimit:10;}.cls-1{stroke:#75b848;stroke-width:3.99px;}.cls-2{stroke:#fff;stroke-width:3px;}</style></defs><path class="cls-1" d="M24.08,36.21q0,51.81,0,103.63c0,9.84.69,10.53,10.53,10.53q46.55,0,93.1,0"/><path class="cls-1" d="M24.08,136.66q0-51.82,0-103.64c0-9.84.69-10.52,10.53-10.53q46.55,0,93.1,0"/><path class="cls-2" d="M91.73,233c-7.16-8.75-16.61-7.37-25.5-7.13-12.28.33-24.59-.06-36.88.13-9.27.14-14.43,4-15.8,11.37-2,10.46-1.06,16.34,13.17,15.92,16.09-.48,32.28.92,48.27-.43,13.6-1.14,27,.61,40.43.37s27.08,1.2,40.36-.4,26.37,1,39.57.46,26.35.09,39.51-.22c4.75-.11,11.52,2.75,12.31-6,1.07-11.92-2.14-17.83-10.52-20.29-4.15-1.21-8.23-.69-12.33-.74-11.12-.14-22.26.28-33.36-.16-8.12-.31-15.23,1.28-21.09,7.14"/><path class="cls-2" d="M218.18,146.87c12-.37,18.32-6.53,18.4-18.45q.22-29,0-58c-.08-11.69-5.19-16.63-16.65-16.69-1.75,0-3.52-.13-5.26,0-4.68.41-10.46-2.07-13.83,1.09-5.25,4.94-9,11.46-13.34,17.37L179,60.67c-2.63-6.42-6.84-7.05-12.62-7-18.44.22-36.92.78-55.32-.2A15.42,15.42,0,0,0,94.43,67.83c-.39,8.06,6.71,13.93,16.6,14,13.46.12,26.94.34,40.39-.11,6.87-.23,8.92,2.5,8.87,8.92-.19,24-.08,48-.08,72"/><path class="cls-2" d="M169.87,251.68c0-2.92,0-7.91,0-10.84,0-9.33-4.45-14.57-14.05-14.81q-25.45-.65-50.94,0c-9.6.24-14,5.53-14,14.81v10.84"/><path class="cls-2" d="M214.66,76.61c1.68,19.88,0,39.85,1.17,59.7.5,8.3-.79,16.41-.29,24.61"/><path class="cls-2" d="M112.33,193.9c1.38,13.46,10.85,17.87,20.65,16.18a18.15,18.15,0,0,0,15-18.42c-.33-9-6.63-16.44-15.89-17.53-7.9-.93-16.31,3.74-19.31,14A22.33,22.33,0,0,0,112.33,193.9Z"/><path class="cls-2" d="M185.63,6.59c-8.46.31-14.76,6.52-15.75,15.82-1.19,11.17,6,18,14,19.39,8.95,1.62,17.41-2.91,20.21-11.5,3-9.29-.54-17.64-9.7-21.87A21.58,21.58,0,0,0,185.63,6.59Z"/><path class="cls-2" d="M50.43,174.09c-8.61,2.4-15.72,6-15.86,16.69s4.49,16.52,15,18.44a16.65,16.65,0,0,0,19.32-11.41,17.54,17.54,0,0,0-9.7-21.88c-2.39-1.1-5.23-1.25-7.86-1.84Z"/><path class="cls-2" d="M201.64,174.22c-8.77,1.76-15.77,5.92-15.91,16.56s4.49,16.52,15,18.44A16.66,16.66,0,0,0,220,197.81a17.54,17.54,0,0,0-9.7-21.88,20,20,0,0,0-7.27-1.82A8.53,8.53,0,0,0,201.64,174.22Z"/></svg>