<svg xmlns="http://www.w3.org/2000/svg" viewBox="0 0 260.15 260.15"><defs><style>.cls-1,.cls-2{fill:none;stroke-miterlimit:10;}.cls-1{stroke:#fff;stroke-width:3.43px;}.cls-2{stroke:#75b848;stroke-width:5.12px;}</style></defs><g id="Background"><circle class="cls-1" cx="130.07" cy="163.59" r="56.4"/><polyline class="cls-2" points="100.86 167.27 122.84 188.67 159.28 146.44"/><path class="cls-1" d="M97.83,44.55H83.16a2,2,0,0,1-2-2V9.08a3,3,0,0,1,3-3H94.83a3,3,0,0,1,3,3V19.31"/><path class="cls-1" d="M179,44.55H164.32a2,2,0,0,1-2-2V9.08a3,3,0,0,1,3-3H176a3,3,0,0,1,3,3V19.31"/></g><g id="Camada_5" data-name="Camada 5"><path class="cls-1" d="M174.13,19.31h65.75a16,16,0,0,1,16,16V242.23a16,16,0,0,1-16,16H20.26a16,16,0,0,1-16-16V35.31a16,16,0,0,1,16-16h62"/><line class="cls-1" x1="93.22" y1="19.31" x2="162.32" y2="19.31"/><line class="cls-1" x1="4.26" y1="79.12" x2="255.88" y2="79.12"/></g></svg>