<svg xmlns="http://www.w3.org/2000/svg" viewBox="0 0 260.15 260.15"><defs><style>.cls-1,.cls-2{fill:none;stroke-miterlimit:10;stroke-width:3px;}.cls-1{stroke:#75b847;}.cls-2{stroke:#fff;}</style></defs><g id="Camada_5" data-name="Camada 5"><path class="cls-1" d="M132.06,58.52A41.06,41.06,0,0,0,119,60a66.21,66.21,0,0,0-11.9,4.39,26,26,0,0,0-3,1.71,61.4,61.4,0,0,0-10.35,9A15.57,15.57,0,0,0,91.59,79"/><path class="cls-2" d="M146,223.47H114.89"/><path class="cls-2" d="M144.77,240a15.29,15.29,0,0,0-5.93-.87c-5.79.06-11.59.05-17.38,0a8.22,8.22,0,0,0-4.66,1.08"/><path class="cls-2" d="M157.69,184.91c1.3,5.66.11,10.55-4.21,14.65-2.61,2.47-5,5.2-7.45,7.8-.37.39-.6.9-.39,1.26.9,1.5.59,3.11.6,4.68,0,5.65,0,11.3,0,16.95,0,2.83.13,5.65.2,8.48v.15a1.9,1.9,0,0,0-1.39,1.35c-.85,3.54-3.66,5.69-5.6,8.45-.69,1-1.68,1.76-2.3,2.77-2.56,4.21-10,4.51-13,.23-1.79-2.54-3.88-4.86-5.91-7.22a7.78,7.78,0,0,1-1.67-3.19,3,3,0,0,0-1.71-2.23v-.1q0-14,0-28c0-2.88.33-3.18,3.17-3.18h24.16a7.94,7.94,0,0,1,3.17.43"/><path class="cls-1" d="M83.4,91.75a15.26,15.26,0,0,0-2.26,5c-1.51,4.55-1.83,8.6-1.82,14"/><path class="cls-2" d="M95.61,169c-1.9-1.55-3.75-3.18-5.73-4.65-6.74-5-11.84-11.52-16.2-18.51a61.64,61.64,0,0,1-7.56-17.72,49.76,49.76,0,0,1-2-10.4c-.17-5.49-.57-11,.46-16.53A82.37,82.37,0,0,1,68.28,87a70.37,70.37,0,0,1,7.41-14.41A66,66,0,0,1,95.58,53.28,71.07,71.07,0,0,1,117,44.36c3.94-1,7.92-.94,11.88-1.36,2.31-.25,4.68.24,7,.29a51.49,51.49,0,0,1,15,2.9,63.71,63.71,0,0,1,21,11.59c12.41,10.27,21.14,23.07,23.71,39a148.64,148.64,0,0,1,1.89,16.52c.11,10-3.06,19.66-7.81,28.61A77.29,77.29,0,0,1,180.79,155a68.75,68.75,0,0,1-14,12.74,2.48,2.48,0,0,0-1.18,2.75,32.6,32.6,0,0,1,.06,7.39,6,6,0,0,1-2.94,4.64c-2,1.27-4.13,2.58-6.77,1.75a5.94,5.94,0,0,0-1.69,0H111.5a17,17,0,0,1-3-.12c-1.3-.21-3.73-.07-5,1-.37.33.06.85-.87,1.51C101,187.88,110,202,113.83,205.89c.62.65,1.13,1.41,1.7,2.11"/><path class="cls-2" d="M103.33,184.91c-1-.39-3.76-.34-4.65-.92a5.17,5.17,0,0,1-.63-.63A16.28,16.28,0,0,1,95.16,172c.22-3.45,1-3.6,3.63-3.6h63.56a4.87,4.87,0,0,1,3,.64"/><line class="cls-2" x1="192.17" y1="53.2" x2="210.47" y2="37.63"/><line class="cls-2" x1="209.95" y1="90.76" x2="231.35" y2="84.35"/><line class="cls-2" x1="212.39" y1="127.75" x2="233.33" y2="130.89"/><line class="cls-2" x1="67.98" y1="53.2" x2="49.68" y2="37.63"/><line class="cls-2" x1="50.2" y1="90.76" x2="28.8" y2="84.35"/><line class="cls-2" x1="47.76" y1="127.75" x2="26.81" y2="130.89"/><line class="cls-2" x1="97.19" y1="5.4" x2="105.13" y2="25.69"/><line class="cls-2" x1="159.84" y1="5.73" x2="152.71" y2="24.78"/></g></svg>