<svg xmlns="http://www.w3.org/2000/svg" viewBox="0 0 96 96"><defs><style>.cls-1{fill:#fff;}.cls-2{fill:#75b848;stroke:#75b848;stroke-miterlimit:10;stroke-width:1.08px;}</style></defs><g id="Camada_2" data-name="Camada 2"><g id="Conteúdo"><path class="cls-1" d="M82.29,68.57l-.22,0-8.4-14a13.25,13.25,0,0,0,0-13.2l8.4-14,.22,0A13.72,13.72,0,1,0,70.47,6.86H25.53A13.67,13.67,0,1,0,6.86,25.53V70.47A13.67,13.67,0,1,0,25.53,89.14H70.47A13.69,13.69,0,1,0,82.29,68.57Zm-61.72,1.9V25.53a13.71,13.71,0,0,0,5-5H70.17L61.93,34.31l-.22,0a13.71,13.71,0,0,0,0,27.42l.22,0,8.24,13.74H25.53A13.71,13.71,0,0,0,20.57,70.47Z"/><circle class="cls-2" cx="82.29" cy="13.71" r="6.86"/><circle class="cls-2" cx="13.71" cy="13.71" r="6.86"/><circle class="cls-2" cx="13.71" cy="82.29" r="6.86"/><circle class="cls-2" cx="82.29" cy="82.29" r="6.86"/><circle class="cls-2" cx="61.71" cy="48" r="6.86"/></g></g></svg>