<svg xmlns="http://www.w3.org/2000/svg" viewBox="0 0 260.15 260.15"><defs><style>.cls-1{fill:#194090;}.cls-2,.cls-3,.cls-4{fill:none;}.cls-3{stroke:#75b847;}.cls-3,.cls-4{stroke-miterlimit:10;stroke-width:3px;}.cls-4{stroke:#fff;}</style></defs><g id="Camada_5" data-name="Camada 5"><rect class="cls-1" x="-533.18" y="-139.17" width="1481.18" height="472.93"/><rect class="cls-2" width="260.15" height="260.15"/><path class="cls-3" d="M88.82,54.24a34.35,34.35,0,0,0-10.95,1.25,55.34,55.34,0,0,0-9.94,3.67,20.13,20.13,0,0,0-2.5,1.43,50.28,50.28,0,0,0-8.65,7.55A12.91,12.91,0,0,0,55,71.32"/><path class="cls-4" d="M100.5,192.05h-26"/><path class="cls-4" d="M99.44,205.85a12.83,12.83,0,0,0-5-.72c-4.84.05-9.67,0-14.51,0a6.86,6.86,0,0,0-3.9.9"/><path class="cls-4" d="M110.24,159.83c1.08,4.73.09,8.81-3.52,12.24-2.18,2.06-4.15,4.35-6.23,6.52-.31.32-.5.75-.32,1,.75,1.25.49,2.6.5,3.91,0,4.72,0,9.44,0,14.16,0,2.36.11,4.72.16,7.08v.13a1.6,1.6,0,0,0-1.16,1.13c-.71,3-3.05,4.75-4.68,7-.58.82-1.4,1.48-1.91,2.33-2.14,3.51-8.33,3.76-10.85.18-1.49-2.12-3.25-4.06-4.94-6a6.53,6.53,0,0,1-1.39-2.67,2.49,2.49,0,0,0-1.43-1.86V205q0-11.68,0-23.37c0-2.4.28-2.65,2.65-2.65H97.31a6.65,6.65,0,0,1,2.66.35"/><path class="cls-3" d="M48.17,82a12.88,12.88,0,0,0-1.89,4.19,34.6,34.6,0,0,0-1.52,11.7"/><path class="cls-4" d="M58.37,146.55c-1.59-1.29-3.14-2.66-4.79-3.88C48,138.49,43.69,133.05,40,127.21a51.88,51.88,0,0,1-6.31-14.81,41.3,41.3,0,0,1-1.63-8.69c-.15-4.59-.48-9.2.38-13.81a69,69,0,0,1,3.05-11.85,59.07,59.07,0,0,1,6.19-12A55.29,55.29,0,0,1,58.34,49.86a59.33,59.33,0,0,1,17.9-7.45c3.29-.8,6.62-.79,9.93-1.14a45.71,45.71,0,0,1,5.84.24,43.3,43.3,0,0,1,12.55,2.42,53.59,53.59,0,0,1,17.54,9.68c10.37,8.58,17.66,19.28,19.81,32.58A125.77,125.77,0,0,1,143.48,100c.1,8.37-2.55,16.42-6.52,23.89a63.8,63.8,0,0,1-7.43,11,57.3,57.3,0,0,1-11.67,10.64,2.05,2.05,0,0,0-1,2.3,26.6,26.6,0,0,1,0,6.18,5,5,0,0,1-2.45,3.87c-1.7,1.06-3.45,2.15-5.66,1.46a4.73,4.73,0,0,0-1.41,0H71.65a14.4,14.4,0,0,1-2.52-.1,5.63,5.63,0,0,0-4.14.86c-.31.27,0,.7-.73,1.25-1.39,1,6.11,12.76,9.33,16.05.52.54,1,1.17,1.42,1.76"/><path class="cls-4" d="M64.82,159.83c-.83-.32-3.14-.28-3.88-.77a4.54,4.54,0,0,1-.54-.53A13.56,13.56,0,0,1,58,149c.17-2.89.83-3,3-3h53.1a4.12,4.12,0,0,1,2.48.53"/><line class="cls-4" x1="139.04" y1="49.79" x2="154.33" y2="36.78"/><line class="cls-4" x1="153.9" y1="81.17" x2="171.77" y2="75.81"/><line class="cls-4" x1="155.93" y1="112.07" x2="173.43" y2="114.69"/><line class="cls-4" x1="35.28" y1="49.79" x2="19.99" y2="36.78"/><line class="cls-4" x1="20.43" y1="81.17" x2="2.55" y2="75.81"/><line class="cls-4" x1="18.39" y1="112.07" x2="0.89" y2="114.69"/><line class="cls-4" x1="59.68" y1="9.85" x2="66.32" y2="26.8"/><line class="cls-4" x1="112.03" y1="10.13" x2="106.07" y2="26.05"/></g></svg>