<svg xmlns="http://www.w3.org/2000/svg" viewBox="0 0 260.15 260.15"><defs><style>.cls-1,.cls-2{fill:none;stroke-miterlimit:10;stroke-width:3px;}.cls-1{stroke:#75b847;}.cls-2{stroke:#fff;}</style></defs><g id="Camada_5" data-name="Camada 5"><path class="cls-1" d="M106.13,63A40.81,40.81,0,0,0,93,64.48a66.49,66.49,0,0,0-11.9,4.39,25.33,25.33,0,0,0-3,1.71,60.59,60.59,0,0,0-10.35,9,15.91,15.91,0,0,0-2.13,3.82"/><path class="cls-2" d="M120.12,227.93H89"/><path class="cls-2" d="M118.85,244.45a15.32,15.32,0,0,0-5.94-.87c-5.79.07-11.58,0-17.37,0a8.12,8.12,0,0,0-4.66,1.08"/><path class="cls-2" d="M131.77,189.37c1.29,5.65.11,10.54-4.21,14.64-2.61,2.47-5,5.21-7.45,7.81-.37.38-.61.89-.39,1.26.89,1.49.59,3.11.6,4.68,0,5.65,0,11.3,0,17,0,2.82.13,5.65.2,8.47l0,.16a1.87,1.87,0,0,0-1.38,1.35c-.85,3.54-3.66,5.69-5.6,8.44-.7,1-1.68,1.77-2.3,2.78-2.56,4.2-10,4.5-13,.22-1.79-2.53-3.89-4.86-5.92-7.21a7.92,7.92,0,0,1-1.66-3.2A3,3,0,0,0,89,243.49v-.1q0-14,0-28c0-2.88.33-3.18,3.17-3.18H116.3a8,8,0,0,1,3.18.42"/><path class="cls-1" d="M57.47,96.2a15.49,15.49,0,0,0-2.26,5c-1.5,4.56-1.82,8.61-1.82,14"/><path class="cls-2" d="M69.69,173.47c-1.91-1.55-3.76-3.18-5.73-4.64-6.74-5-11.84-11.52-16.21-18.51a61.84,61.84,0,0,1-7.55-17.73,49.67,49.67,0,0,1-2-10.39c-.17-5.5-.57-11,.46-16.54a81.1,81.1,0,0,1,3.65-14.18,71.21,71.21,0,0,1,7.41-14.42,66.2,66.2,0,0,1,19.9-19.32,70.86,70.86,0,0,1,21.41-8.92c4-1,7.93-.94,11.89-1.37,2.31-.24,4.67.25,7,.29a51.82,51.82,0,0,1,15,2.9,64.07,64.07,0,0,1,21,11.59c12.41,10.27,21.14,23.07,23.71,39a148.07,148.07,0,0,1,1.88,16.52c.12,10-3.05,19.66-7.8,28.6a76.84,76.84,0,0,1-8.9,13.14,68.18,68.18,0,0,1-14,12.73,2.46,2.46,0,0,0-1.17,2.75,32.68,32.68,0,0,1,.06,7.4,6,6,0,0,1-2.94,4.64c-2,1.26-4.13,2.58-6.77,1.74a6,6,0,0,0-1.69,0H85.58a17.11,17.11,0,0,1-3-.12c-1.3-.21-3.72-.08-5,1-.37.33.06.84-.87,1.5-1.66,1.19,7.32,15.27,11.16,19.21a27.13,27.13,0,0,1,1.71,2.11"/><path class="cls-2" d="M77.41,189.37c-1-.39-3.76-.34-4.65-.92a6.22,6.22,0,0,1-.64-.64,16.3,16.3,0,0,1-2.88-11.37c.21-3.46,1-3.6,3.63-3.6h63.56a4.81,4.81,0,0,1,3,.63"/><line class="cls-2" x1="166.24" y1="57.65" x2="184.55" y2="42.08"/><line class="cls-2" x1="184.03" y1="95.21" x2="205.43" y2="88.8"/><line class="cls-2" x1="186.47" y1="132.2" x2="207.41" y2="135.34"/><line class="cls-2" x1="42.06" y1="57.65" x2="23.75" y2="42.08"/><line class="cls-2" x1="24.27" y1="95.21" x2="2.87" y2="88.8"/><line class="cls-2" x1="21.84" y1="132.2" x2="0.89" y2="135.34"/><line class="cls-2" x1="71.26" y1="9.85" x2="79.2" y2="30.14"/><line class="cls-2" x1="133.92" y1="10.19" x2="126.79" y2="29.24"/></g></svg>