<svg xmlns="http://www.w3.org/2000/svg" viewBox="0 0 124.23 96.62"><defs><style>.cls-1{fill:#fff;}.cls-2{fill:#75b848;stroke:#75b848;stroke-miterlimit:10;stroke-width:1.09px;}.cls-3{fill:#194090;}</style></defs><g id="Camada_2" data-name="Camada 2"><g id="Conteúdo"><path class="cls-1" d="M120.78,0a3.47,3.47,0,0,0-1.28.25L82.82,13.8h0L45.72.71a13.74,13.74,0,0,0-8.63,0L4.34,12.07A6.9,6.9,0,0,0,0,18.48V93.17a3.44,3.44,0,0,0,4.73,3.2L41.41,82.82l37.1,13.09a13.8,13.8,0,0,0,8.64,0l32.74-11.39a6.91,6.91,0,0,0,4.34-6.41V3.46A3.45,3.45,0,0,0,120.78,0Z"/><polygon class="cls-2" points="48.31 12.6 75.92 22.35 75.92 84.02 48.31 74.28 48.31 12.6"/><polygon class="cls-3" points="10.35 83.26 10.35 20.94 37.96 11.33 37.96 73.06 37.82 73.11 10.35 83.26"/><polygon class="cls-3" points="113.88 75.69 86.27 85.29 86.27 23.57 86.41 23.51 113.88 13.36 113.88 75.69"/></g></g></svg>