<svg xmlns="http://www.w3.org/2000/svg" viewBox="0 0 103.5 92.5"><defs><style>.cls-1{fill:#75b848;stroke:#75b848;stroke-miterlimit:10;stroke-width:1px;}.cls-2{fill:#fff;}</style></defs><g id="Camada_2" data-name="Camada 2"><g id="Conteúdo"><path class="cls-1" d="M48.71,26.43,58.46,29a1.54,1.54,0,0,1,1.19,1.45A1.59,1.59,0,0,1,58,32h-6.4a5.33,5.33,0,0,1-2-.39,2.56,2.56,0,0,0-2.75.36l-3.41,3.14a2.06,2.06,0,0,0,.28,3.3h0a15,15,0,0,0,6.2,2.06v3.19a3,3,0,0,0,3.12,2.87h3.13a3,3,0,0,0,3.12-2.87V40.46c5.92-.64,10.39-5.57,9.61-11.32-.56-4.13-4-7.42-8.36-8.57L50.79,18a1.54,1.54,0,0,1-1.19-1.45A1.59,1.59,0,0,1,51.24,15h6.4a5.38,5.38,0,0,1,2,.39,2.56,2.56,0,0,0,2.75-.36l3.41-3.14a2.22,2.22,0,0,0,.39-.47,2.06,2.06,0,0,0-.67-2.82h0a15,15,0,0,0-6.2-2.07V3.38A3,3,0,0,0,56.2.5H53.07A3,3,0,0,0,50,3.38V6.54c-5.91.64-10.39,5.57-9.61,11.32C40.9,22,44.38,25.28,48.71,26.43Z"/><path class="cls-2" d="M101.57,59.46a5.93,5.93,0,0,0-7.65,0L77.31,72.73a11.36,11.36,0,0,1-7.18,2.52H48.87a2.88,2.88,0,0,1,0-5.75H62.94a6,6,0,0,0,6-4.78,6.37,6.37,0,0,0,.08-1A5.76,5.76,0,0,0,63.25,58H34.5a21.13,21.13,0,0,0-13.31,4.72L12.83,69.5h-10A2.88,2.88,0,0,0,0,72.38V89.63A2.88,2.88,0,0,0,2.87,92.5H67A11.47,11.47,0,0,0,74.17,90l27.17-21.74a5.74,5.74,0,0,0,.9-8.08,4.92,4.92,0,0,0-.67-.7Z"/></g></g></svg>