<svg xmlns="http://www.w3.org/2000/svg" viewBox="0 0 841.45 403.04"><defs><style>.cls-1{fill:#fff;}.cls-2{fill:#75b848;stroke-miterlimit:10;stroke-width:2.5px;}.cls-2,.cls-4{stroke:#fff;}.cls-3{opacity:0.76;}.cls-4,.cls-5{fill:none;stroke-linejoin:round;stroke-width:2.14px;stroke-dasharray:2.14;}.cls-5{stroke:#75b848;}</style></defs><g id="Camada_2" data-name="Camada 2"><g id="Conteúdo"><path class="cls-1" d="M468.36,199.63h4.5a3.51,3.51,0,1,1,0,7h-3.47v5h-1Zm4.39.94h-3.36v5.15h3.36a2.58,2.58,0,1,0,0-5.15Z"/><path class="cls-1" d="M483.77,210.61a3.78,3.78,0,0,1-2.95,1.25,2.92,2.92,0,0,1-3.05-2.9,2.88,2.88,0,0,1,3.05-2.88,3.76,3.76,0,0,1,2.95,1.24v-1.77c0-1.29-1-2-2.34-2a3.38,3.38,0,0,0-2.72,1.27l-.52-.64a4.2,4.2,0,0,1,3.35-1.46c1.76,0,3.17.84,3.17,2.79v6.12h-.94Zm0-2.59a3.27,3.27,0,0,0-2.63-1.21,2.16,2.16,0,1,0,0,4.31,3.25,3.25,0,0,0,2.63-1.19Z"/><path class="cls-1" d="M487.37,200.75a.72.72,0,1,1,.72.72A.73.73,0,0,1,487.37,200.75Zm.25,2.19h.94v8.7h-.94Z"/><path class="cls-1" d="M494.34,207.8l-2.9,3.84h-1.12l3.44-4.47-3.24-4.23h1.11l2.71,3.59,2.68-3.59h1.11l-3.24,4.23,3.44,4.47h-1.11Z"/><path class="cls-1" d="M505.62,210.61a3.76,3.76,0,0,1-2.95,1.25,2.91,2.91,0,0,1-3-2.9,2.87,2.87,0,0,1,3-2.88,3.73,3.73,0,0,1,2.95,1.24v-1.77c0-1.29-1-2-2.34-2a3.38,3.38,0,0,0-2.72,1.27l-.52-.64a4.2,4.2,0,0,1,3.35-1.46c1.76,0,3.17.84,3.17,2.79v6.12h-.94Zm0-2.59a3.27,3.27,0,0,0-2.63-1.21,2.16,2.16,0,1,0,0,4.31,3.25,3.25,0,0,0,2.63-1.19Zm-3.36-8.21c-.54,0-1,.52-1,1.75h-.63c0-1.35.6-2.42,1.68-2.42.72,0,1,.54,1.35,1.05s.47.79.9.79.95-.52.95-1.73h.65c0,1.35-.58,2.42-1.66,2.42-.75,0-1.06-.54-1.36-1S502.69,199.81,502.26,199.81Z"/><path class="cls-1" d="M509,207.28c0-2.54,1.64-4.55,4.18-4.55s4.19,2,4.19,4.55-1.62,4.58-4.19,4.58S509,209.82,509,207.28Zm7.36,0c0-1.92-1.13-3.71-3.18-3.71s-3.17,1.79-3.17,3.71,1.15,3.73,3.17,3.73S516.33,209.23,516.33,207.28Z"/><path class="cls-1" d="M524.41,215v-12h.94v1.37a3.74,3.74,0,0,1,3-1.58c2.33,0,3.89,1.76,3.89,4.55s-1.56,4.58-3.89,4.58a3.71,3.71,0,0,1-3-1.62V215Zm3.8-11.38a3.51,3.51,0,0,0-2.86,1.55v4.31a3.56,3.56,0,0,0,2.86,1.58c1.95,0,3-1.62,3-3.73S530.16,203.57,528.21,203.57Z"/><path class="cls-1" d="M538.36,202.73c2.65,0,4.11,2.1,4.11,4.61v.25h-7.28a3.4,3.4,0,0,0,3.41,3.46,3.82,3.82,0,0,0,2.84-1.21l.49.61a4.49,4.49,0,0,1-3.4,1.41,4.58,4.58,0,0,1-.17-9.13Zm-3.17,4.12h6.33a3.19,3.19,0,0,0-3.17-3.31A3.28,3.28,0,0,0,535.19,206.85Z"/><path class="cls-1" d="M544.88,199.63h.93v12h-.93Z"/><path class="cls-1" d="M548.23,207.28c0-2.54,1.63-4.55,4.17-4.55s4.2,2,4.2,4.55-1.62,4.58-4.2,4.58S548.23,209.82,548.23,207.28Zm7.36,0c0-1.92-1.13-3.71-3.19-3.71s-3.17,1.79-3.17,3.71,1.16,3.73,3.17,3.73S555.59,209.23,555.59,207.28Z"/><path class="cls-1" d="M563.85,210v-6.2h-1.44v-.83h1.44v-2.37h1v2.37h1.76v.83h-1.76v6c0,.7.28,1.19.9,1.19a1.39,1.39,0,0,0,1-.41l.36.72a2,2,0,0,1-1.48.54C564.41,211.86,563.85,211.15,563.85,210Z"/><path class="cls-1" d="M568.62,202.94h.94v1.5a3.75,3.75,0,0,1,2.93-1.68v1a1.79,1.79,0,0,0-.47,0,3.31,3.31,0,0,0-2.46,1.55v6.34h-.94Z"/><path class="cls-1" d="M579.85,210.61a3.76,3.76,0,0,1-3,1.25,2.91,2.91,0,0,1-3-2.9,2.87,2.87,0,0,1,3-2.88,3.73,3.73,0,0,1,3,1.24v-1.77c0-1.29-1-2-2.34-2a3.36,3.36,0,0,0-2.71,1.27l-.53-.64a4.2,4.2,0,0,1,3.35-1.46c1.77,0,3.17.84,3.17,2.79v6.12h-.94Zm0-2.59a3.26,3.26,0,0,0-2.62-1.21,2.17,2.17,0,1,0,0,4.31,3.24,3.24,0,0,0,2.62-1.19Z"/><path class="cls-1" d="M583.7,199.63h.94v4.72a3.71,3.71,0,0,1,3-1.62c2.32,0,3.89,1.82,3.89,4.57s-1.59,4.56-3.89,4.56a3.71,3.71,0,0,1-3-1.61v1.39h-.94ZM587.5,211c2,0,3-1.6,3-3.71s-1.1-3.73-3-3.73a3.54,3.54,0,0,0-2.86,1.59v4.3A3.51,3.51,0,0,0,587.5,211Z"/><path class="cls-1" d="M599.51,210.61a3.78,3.78,0,0,1-3,1.25,2.91,2.91,0,0,1-3-2.9,2.87,2.87,0,0,1,3-2.88,3.76,3.76,0,0,1,3,1.24v-1.77c0-1.29-1-2-2.34-2a3.38,3.38,0,0,0-2.72,1.27l-.52-.64a4.2,4.2,0,0,1,3.35-1.46c1.76,0,3.17.84,3.17,2.79v6.12h-.94Zm0-2.59a3.27,3.27,0,0,0-2.63-1.21,2.16,2.16,0,1,0,0,4.31,3.25,3.25,0,0,0,2.63-1.19Z"/><path class="cls-1" d="M603.36,199.63h.94v12h-.94Z"/><path class="cls-1" d="M613.08,205.72c0-1.68-.84-2.15-2.1-2.15a3.74,3.74,0,0,0-2.83,1.5v6.57h-.94v-12h.94v4.63a4.39,4.39,0,0,1,3.13-1.53c1.77,0,2.74.83,2.74,2.79v6.12h-.94Z"/><path class="cls-1" d="M616.43,207.28c0-2.54,1.64-4.55,4.18-4.55s4.19,2,4.19,4.55-1.62,4.58-4.19,4.58S616.43,209.82,616.43,207.28Zm7.36,0c0-1.92-1.13-3.71-3.18-3.71s-3.17,1.79-3.17,3.71,1.15,3.73,3.17,3.73S623.79,209.23,623.79,207.28Z"/><path class="cls-1" d="M635.56,202.73c2.65,0,4.11,2.1,4.11,4.61v.25h-7.28a3.4,3.4,0,0,0,3.41,3.46,3.82,3.82,0,0,0,2.84-1.21l.49.61a4.48,4.48,0,0,1-3.4,1.41,4.58,4.58,0,0,1-.17-9.13Zm-3.17,4.12h6.33a3.19,3.19,0,0,0-3.17-3.31A3.28,3.28,0,0,0,632.39,206.85Z"/><path class="cls-1" d="M646.78,199.63h1v12h-1Z"/><path class="cls-1" d="M656.62,205.75c0-1.67-.84-2.18-2.1-2.18a3.74,3.74,0,0,0-2.83,1.5v6.57h-.94v-8.7h.94v1.32a4.39,4.39,0,0,1,3.13-1.53c1.77,0,2.74.86,2.74,2.82v6.09h-.94Z"/><path class="cls-1" d="M660.65,210v-6.2h-1.44v-.83h1.44v-2.37h1v2.37h1.76v.83h-1.76v6c0,.7.29,1.19.9,1.19a1.39,1.39,0,0,0,1-.41l.36.72a2,2,0,0,1-1.48.54C661.21,211.86,660.65,211.15,660.65,210Z"/><path class="cls-1" d="M669.12,202.73c2.64,0,4.1,2.1,4.1,4.61v.25H666a3.39,3.39,0,0,0,3.4,3.46,3.81,3.81,0,0,0,2.84-1.21l.49.61a4.48,4.48,0,0,1-3.4,1.41,4.58,4.58,0,0,1-.16-9.13ZM666,206.85h6.32a3.19,3.19,0,0,0-3.17-3.31A3.27,3.27,0,0,0,666,206.85Z"/><path class="cls-1" d="M676.19,213.13a3.32,3.32,0,0,0,2.88,1.23,2.65,2.65,0,0,0,3-2.79V210.2a3.77,3.77,0,0,1-3,1.62c-2.31,0-3.89-1.75-3.89-4.54s1.58-4.55,3.89-4.55a3.68,3.68,0,0,1,3,1.62v-1.41h1v8.61c0,2.67-1.8,3.62-3.92,3.62a4.16,4.16,0,0,1-3.42-1.32Zm5.85-8a3.49,3.49,0,0,0-2.86-1.59c-1.93,0-3,1.61-3,3.71s1.11,3.69,3,3.69a3.48,3.48,0,0,0,2.86-1.58Z"/><path class="cls-1" d="M685.89,202.94h.94v1.5a3.74,3.74,0,0,1,2.93-1.68v1a1.79,1.79,0,0,0-.47,0,3.31,3.31,0,0,0-2.46,1.55v6.34h-.94Z"/><path class="cls-1" d="M691.34,200.75a.74.74,0,0,1,.72-.72.72.72,0,1,1,0,1.44A.74.74,0,0,1,691.34,200.75Zm.26,2.19h.93v8.7h-.93Z"/><path class="cls-1" d="M701.86,210.25a3.71,3.71,0,0,1-3,1.61c-2.3,0-3.89-1.77-3.89-4.56s1.59-4.57,3.89-4.57a3.69,3.69,0,0,1,3,1.62v-4.72h.95v12h-.95Zm0-5.09a3.48,3.48,0,0,0-2.86-1.59c-1.93,0-3,1.62-3,3.73s1.12,3.71,3,3.71a3.49,3.49,0,0,0,2.86-1.55Z"/><path class="cls-1" d="M711.25,210.61a3.76,3.76,0,0,1-3,1.25,2.91,2.91,0,0,1-3-2.9,2.87,2.87,0,0,1,3-2.88,3.73,3.73,0,0,1,3,1.24v-1.77c0-1.29-1-2-2.34-2a3.39,3.39,0,0,0-2.72,1.27l-.52-.64a4.2,4.2,0,0,1,3.35-1.46c1.77,0,3.17.84,3.17,2.79v6.12h-.94Zm0-2.59a3.26,3.26,0,0,0-2.62-1.21,2.17,2.17,0,1,0,0,4.31,3.24,3.24,0,0,0,2.62-1.19Z"/><path class="cls-1" d="M721.51,210.25a3.69,3.69,0,0,1-3,1.61c-2.31,0-3.89-1.77-3.89-4.56s1.58-4.57,3.89-4.57a3.68,3.68,0,0,1,3,1.62v-4.72h1v12h-1Zm0-5.09a3.45,3.45,0,0,0-2.86-1.59c-1.92,0-3,1.62-3,3.73s1.12,3.71,3,3.71a3.47,3.47,0,0,0,2.86-1.55Z"/><path class="cls-1" d="M729.07,202.73c2.65,0,4.11,2.1,4.11,4.61v.25H725.9a3.4,3.4,0,0,0,3.41,3.46,3.82,3.82,0,0,0,2.84-1.21l.49.61a4.49,4.49,0,0,1-3.4,1.41,4.58,4.58,0,0,1-.17-9.13Zm-3.17,4.12h6.33a3.19,3.19,0,0,0-3.17-3.31A3.28,3.28,0,0,0,725.9,206.85Z"/><path class="cls-1" d="M468.36,109.14H476v.93h-6.59v4.45h6.46v.94h-6.46v5.69h-1Z"/><path class="cls-1" d="M477.58,116.79c0-2.54,1.63-4.56,4.17-4.56s4.2,2,4.2,4.56-1.62,4.57-4.2,4.57S477.58,119.33,477.58,116.79Zm7.36,0c0-1.93-1.13-3.71-3.19-3.71s-3.17,1.78-3.17,3.71,1.16,3.73,3.17,3.73S484.94,118.73,484.94,116.79Z"/><path class="cls-1" d="M492.09,112.23a3.58,3.58,0,0,1,3.07,1.48l-.64.58a2.75,2.75,0,0,0-2.38-1.21c-2,0-3.28,1.62-3.28,3.71s1.24,3.73,3.28,3.73a2.77,2.77,0,0,0,2.38-1.23l.64.58a3.54,3.54,0,0,1-3.07,1.49,4.58,4.58,0,0,1,0-9.13Z"/><path class="cls-1" d="M496.75,116.79c0-2.54,1.63-4.56,4.17-4.56s4.2,2,4.2,4.56-1.62,4.57-4.2,4.57S496.75,119.33,496.75,116.79Zm7.36,0c0-1.93-1.13-3.71-3.19-3.71s-3.17,1.78-3.17,3.71,1.16,3.73,3.17,3.73S504.11,118.73,504.11,116.79Z"/><path class="cls-1" d="M518.06,115.26c0-1.68-.85-2.18-2.11-2.18a3.71,3.71,0,0,0-2.82,1.49v6.58h-.94v-8.7h.94v1.31a4.42,4.42,0,0,1,3.13-1.53c1.76,0,2.74.87,2.74,2.83v6.09h-.94Z"/><path class="cls-1" d="M527.44,120.12a3.79,3.79,0,0,1-3,1.24,2.91,2.91,0,0,1-3-2.9,2.87,2.87,0,0,1,3-2.88,3.8,3.8,0,0,1,3,1.24v-1.76a2.07,2.07,0,0,0-2.34-2,3.39,3.39,0,0,0-2.72,1.28l-.52-.65a4.23,4.23,0,0,1,3.34-1.46c1.77,0,3.17.85,3.17,2.79v6.13h-.93Zm0-2.59a3.25,3.25,0,0,0-2.63-1.21,2.16,2.16,0,1,0,0,4.3,3.23,3.23,0,0,0,2.63-1.19Z"/><path class="cls-1" d="M539.64,112.23c2.65,0,4.11,2.11,4.11,4.61v.25h-7.28a3.39,3.39,0,0,0,3.41,3.46,3.8,3.8,0,0,0,2.84-1.21l.49.62a4.51,4.51,0,0,1-3.41,1.4,4.58,4.58,0,0,1-.16-9.13Zm-3.17,4.13h6.32a3.19,3.19,0,0,0-3.17-3.32A3.27,3.27,0,0,0,536.47,116.36Z"/><path class="cls-1" d="M548.55,117.31l-2.9,3.84h-1.11l3.44-4.47-3.25-4.23h1.12l2.7,3.58,2.68-3.58h1.12l-3.24,4.23,3.44,4.47h-1.12Z"/><path class="cls-1" d="M557.39,112.23a3.6,3.6,0,0,1,3.08,1.48l-.65.58a2.74,2.74,0,0,0-2.38-1.21c-2,0-3.27,1.62-3.27,3.71s1.24,3.73,3.27,3.73a2.76,2.76,0,0,0,2.38-1.23l.65.58a3.56,3.56,0,0,1-3.08,1.49,4.58,4.58,0,0,1,0-9.13Z"/><path class="cls-1" d="M566.25,112.23c2.64,0,4.1,2.11,4.1,4.61v.25h-7.27a3.39,3.39,0,0,0,3.4,3.46,3.77,3.77,0,0,0,2.84-1.21l.49.62a4.47,4.47,0,0,1-3.4,1.4,4.58,4.58,0,0,1-.16-9.13Zm-3.17,4.13h6.32a3.19,3.19,0,0,0-3.17-3.32A3.27,3.27,0,0,0,563.08,116.36Z"/><path class="cls-1" d="M572.76,109.14h.94v12h-.94Z"/><path class="cls-1" d="M580.3,112.23c2.65,0,4.11,2.11,4.11,4.61v.25h-7.28a3.39,3.39,0,0,0,3.41,3.46,3.79,3.79,0,0,0,2.84-1.21l.49.62a4.49,4.49,0,0,1-3.4,1.4,4.58,4.58,0,0,1-.17-9.13Zm-3.17,4.13h6.32a3.18,3.18,0,0,0-3.16-3.32A3.28,3.28,0,0,0,577.13,116.36Zm3.16-7.26-1.53,2h-.71l1.75-2.59h1l1.78,2.59h-.72Z"/><path class="cls-1" d="M592.69,115.26c0-1.68-.85-2.18-2.11-2.18a3.75,3.75,0,0,0-2.83,1.49v6.58h-.93v-8.7h.93v1.31a4.45,4.45,0,0,1,3.14-1.53c1.76,0,2.73.87,2.73,2.83v6.09h-.93Z"/><path class="cls-1" d="M600.27,112.23a3.58,3.58,0,0,1,3.07,1.48l-.64.58a2.75,2.75,0,0,0-2.38-1.21c-2,0-3.28,1.62-3.28,3.71s1.24,3.73,3.28,3.73a2.77,2.77,0,0,0,2.38-1.23l.64.58a3.54,3.54,0,0,1-3.07,1.49,4.58,4.58,0,0,1,0-9.13Z"/><path class="cls-1" d="M605.18,110.25a.72.72,0,0,1,1.44,0,.72.72,0,1,1-1.44,0Zm.25,2.2h.94v8.7h-.94Z"/><path class="cls-1" d="M614.81,120.12a3.78,3.78,0,0,1-2.95,1.24,2.91,2.91,0,0,1-3.05-2.9,2.88,2.88,0,0,1,3.05-2.88,3.79,3.79,0,0,1,2.95,1.24v-1.76a2.07,2.07,0,0,0-2.34-2,3.39,3.39,0,0,0-2.72,1.28l-.52-.65a4.23,4.23,0,0,1,3.35-1.46c1.76,0,3.17.85,3.17,2.79v6.13h-.94Zm0-2.59a3.25,3.25,0,0,0-2.63-1.21,2.16,2.16,0,1,0,0,4.3,3.23,3.23,0,0,0,2.63-1.19Z"/><path class="cls-1" d="M627,112.23c2.65,0,4.11,2.11,4.11,4.61v.25h-7.28a3.39,3.39,0,0,0,3.41,3.46,3.79,3.79,0,0,0,2.84-1.21l.49.62a4.51,4.51,0,0,1-3.41,1.4,4.58,4.58,0,0,1-.16-9.13Zm-3.17,4.13h6.32A3.19,3.19,0,0,0,627,113,3.28,3.28,0,0,0,623.84,116.36Z"/><path class="cls-1" d="M644.6,124.46v-4.72a3.69,3.69,0,0,1-3,1.62c-2.32,0-3.89-1.8-3.89-4.57s1.57-4.56,3.89-4.56a3.72,3.72,0,0,1,3,1.59v-1.37h.95v12Zm0-9.83a3.51,3.51,0,0,0-2.86-1.55c-1.93,0-3,1.6-3,3.71s1.12,3.73,3,3.73a3.54,3.54,0,0,0,2.86-1.59Z"/><path class="cls-1" d="M654.32,119.87a4.41,4.41,0,0,1-3.13,1.49c-1.79,0-2.74-.83-2.74-2.79v-6.12h.94v5.9c0,1.7.84,2.17,2.1,2.17a3.78,3.78,0,0,0,2.83-1.44v-6.63h.94v8.7h-.94Z"/><path class="cls-1" d="M663.7,120.12a3.79,3.79,0,0,1-3,1.24,2.91,2.91,0,0,1-3-2.9,2.87,2.87,0,0,1,3-2.88,3.8,3.8,0,0,1,3,1.24v-1.76a2.07,2.07,0,0,0-2.34-2,3.39,3.39,0,0,0-2.72,1.28l-.53-.65a4.25,4.25,0,0,1,3.35-1.46c1.77,0,3.17.85,3.17,2.79v6.13h-.93Zm0-2.59a3.26,3.26,0,0,0-2.63-1.21,2.16,2.16,0,1,0,0,4.3,3.25,3.25,0,0,0,2.63-1.19Z"/><path class="cls-1" d="M667.55,109.14h.93v12h-.93Z"/><path class="cls-1" d="M671.15,110.25a.72.72,0,0,1,1.44,0,.72.72,0,0,1-1.44,0Zm.25,2.2h.93v8.7h-.93Z"/><path class="cls-1" d="M681.66,119.76a3.7,3.7,0,0,1-3,1.6c-2.31,0-3.89-1.76-3.89-4.55s1.58-4.58,3.89-4.58a3.68,3.68,0,0,1,3,1.62v-4.71h1v12h-1Zm0-5.1a3.48,3.48,0,0,0-2.86-1.58c-1.93,0-3,1.62-3,3.73s1.12,3.71,3,3.71a3.48,3.48,0,0,0,2.86-1.55Z"/><path class="cls-1" d="M691.06,120.12a3.79,3.79,0,0,1-3,1.24,2.91,2.91,0,0,1-3-2.9,2.87,2.87,0,0,1,3-2.88,3.8,3.8,0,0,1,3,1.24v-1.76a2.07,2.07,0,0,0-2.34-2,3.39,3.39,0,0,0-2.72,1.28l-.53-.65a4.23,4.23,0,0,1,3.35-1.46c1.77,0,3.17.85,3.17,2.79v6.13h-.93Zm0-2.59a3.26,3.26,0,0,0-2.63-1.21,2.16,2.16,0,1,0,0,4.3,3.25,3.25,0,0,0,2.63-1.19Z"/><path class="cls-1" d="M701.32,119.76a3.72,3.72,0,0,1-3,1.6c-2.3,0-3.89-1.76-3.89-4.55s1.59-4.58,3.89-4.58a3.71,3.71,0,0,1,3,1.62v-4.71h.95v12h-.95Zm0-5.1a3.5,3.5,0,0,0-2.87-1.58c-1.92,0-3,1.62-3,3.73s1.12,3.71,3,3.71a3.5,3.5,0,0,0,2.87-1.55Z"/><path class="cls-1" d="M708.88,112.23c2.64,0,4.1,2.11,4.1,4.61v.25h-7.27a3.39,3.39,0,0,0,3.4,3.46,3.77,3.77,0,0,0,2.84-1.21l.49.62a4.47,4.47,0,0,1-3.4,1.4,4.58,4.58,0,0,1-.16-9.13Zm-3.17,4.13H712a3.19,3.19,0,0,0-3.17-3.32A3.27,3.27,0,0,0,705.71,116.36Z"/><path class="cls-1" d="M468.36,366h4.5a3.51,3.51,0,1,1,0,7h-3.47v5h-1Zm4.39.93h-3.36v5.15h3.36a2.58,2.58,0,1,0,0-5.15Z"/><path class="cls-1" d="M482.08,369.12c2.64,0,4.1,2.11,4.1,4.61V374h-7.27a3.38,3.38,0,0,0,3.4,3.45,3.84,3.84,0,0,0,2.85-1.2l.48.61a4.47,4.47,0,0,1-3.4,1.4,4.58,4.58,0,0,1-.16-9.13Zm-3.17,4.13h6.32a3.19,3.19,0,0,0-3.17-3.32A3.28,3.28,0,0,0,478.91,373.25Z"/><path class="cls-1" d="M494.46,372.15c0-1.68-.85-2.18-2.11-2.18a3.7,3.7,0,0,0-2.82,1.5V378h-.94v-8.7h.94v1.32a4.4,4.4,0,0,1,3.13-1.54c1.77,0,2.74.87,2.74,2.83V378h-.94Z"/><path class="cls-1" d="M498.11,376.18a3.64,3.64,0,0,0,2.81,1.28c1.46,0,2.32-.72,2.32-1.73s-1.18-1.44-2.43-1.76c-1.45-.36-3.06-.74-3.06-2.43,0-1.33,1.14-2.42,3.1-2.42A4,4,0,0,1,504,370.4l-.53.67a3.14,3.14,0,0,0-2.59-1.15c-1.35,0-2.18.66-2.18,1.56s1.12,1.26,2.32,1.57c1.5.38,3.17.79,3.17,2.65,0,1.4-1.08,2.55-3.26,2.55a4.18,4.18,0,0,1-3.34-1.37Z"/><path class="cls-1" d="M512.1,377a3.77,3.77,0,0,1-3,1.24,2.89,2.89,0,1,1,0-5.78,3.75,3.75,0,0,1,3,1.25V372a2.07,2.07,0,0,0-2.34-2,3.39,3.39,0,0,0-2.72,1.28l-.52-.65a4.23,4.23,0,0,1,3.35-1.46c1.76,0,3.17.85,3.17,2.8V378h-.94Zm0-2.59a3.27,3.27,0,0,0-2.63-1.21,2.16,2.16,0,1,0,0,4.3,3.24,3.24,0,0,0,2.63-1.18Z"/><path class="cls-1" d="M526.3,372c0-1.22-.52-2-1.74-2a3.25,3.25,0,0,0-2.49,1.48V378h-1V372c0-1.22-.51-2-1.75-2a3.31,3.31,0,0,0-2.48,1.5V378H516v-8.7h.94v1.32a3.83,3.83,0,0,1,2.81-1.54,2.18,2.18,0,0,1,2.28,1.64,3.63,3.63,0,0,1,2.88-1.64c1.61,0,2.38.9,2.38,2.65V378h-.94Z"/><path class="cls-1" d="M533.84,369.12c2.65,0,4.11,2.11,4.11,4.61V374h-7.27a3.38,3.38,0,0,0,3.4,3.45,3.81,3.81,0,0,0,2.84-1.2l.49.61a4.47,4.47,0,0,1-3.4,1.4,4.58,4.58,0,0,1-.17-9.13Zm-3.16,4.13H537a3.18,3.18,0,0,0-3.16-3.32A3.27,3.27,0,0,0,530.68,373.25Z"/><path class="cls-1" d="M546.23,372.15c0-1.68-.85-2.18-2.11-2.18a3.72,3.72,0,0,0-2.83,1.5V378h-.93v-8.7h.93v1.32a4.44,4.44,0,0,1,3.14-1.54c1.76,0,2.73.87,2.73,2.83V378h-.93Z"/><path class="cls-1" d="M550.26,376.36v-6.19h-1.44v-.83h1.44V367h1v2.38H553v.83h-1.77v6.05c0,.7.29,1.19.9,1.19a1.36,1.36,0,0,0,1-.42l.36.72a2,2,0,0,1-1.48.54C550.82,378.25,550.26,377.55,550.26,376.36Z"/><path class="cls-1" d="M554.52,373.68c0-2.54,1.64-4.56,4.18-4.56s4.2,2,4.2,4.56-1.62,4.57-4.2,4.57S554.52,376.22,554.52,373.68Zm7.37,0c0-1.93-1.14-3.71-3.19-3.71s-3.17,1.78-3.17,3.71,1.15,3.73,3.17,3.73S561.89,375.62,561.89,373.68Z"/><path class="cls-1" d="M570,366h.93v4.72a3.74,3.74,0,0,1,3-1.63c2.32,0,3.89,1.82,3.89,4.58s-1.59,4.55-3.89,4.55a3.72,3.72,0,0,1-3-1.6V378H570Zm3.8,11.38c1.94,0,3-1.61,3-3.71s-1.1-3.73-3-3.73a3.58,3.58,0,0,0-2.87,1.58v4.31A3.53,3.53,0,0,0,573.77,377.41Z"/><path class="cls-1" d="M585.77,377a3.76,3.76,0,0,1-2.95,1.24,2.91,2.91,0,0,1-3-2.9,2.87,2.87,0,0,1,3-2.88,3.74,3.74,0,0,1,2.95,1.25V372a2.07,2.07,0,0,0-2.34-2,3.4,3.4,0,0,0-2.72,1.28l-.52-.65a4.23,4.23,0,0,1,3.35-1.46c1.77,0,3.17.85,3.17,2.8V378h-.94Zm0-2.59a3.27,3.27,0,0,0-2.63-1.21,2.16,2.16,0,1,0,0,4.3,3.24,3.24,0,0,0,2.63-1.18Z"/><path class="cls-1" d="M589.43,376.18a3.61,3.61,0,0,0,2.8,1.28c1.46,0,2.33-.72,2.33-1.73s-1.19-1.44-2.43-1.76c-1.46-.36-3.07-.74-3.07-2.43,0-1.33,1.14-2.42,3.1-2.42a4,4,0,0,1,3.12,1.28l-.53.67a3.14,3.14,0,0,0-2.59-1.15c-1.35,0-2.18.66-2.18,1.56s1.12,1.26,2.33,1.57c1.49.38,3.17.79,3.17,2.65,0,1.4-1.09,2.55-3.26,2.55a4.18,4.18,0,0,1-3.35-1.37Z"/><path class="cls-1" d="M601.58,369.12c2.64,0,4.1,2.11,4.1,4.61V374h-7.27a3.38,3.38,0,0,0,3.4,3.45,3.84,3.84,0,0,0,2.85-1.2l.48.61a4.47,4.47,0,0,1-3.4,1.4,4.58,4.58,0,0,1-.16-9.13Zm-3.17,4.13h6.32a3.19,3.19,0,0,0-3.17-3.32A3.28,3.28,0,0,0,598.41,373.25Z"/><path class="cls-1" d="M613.62,377a3.78,3.78,0,0,1-3,1.24,2.91,2.91,0,0,1-3-2.9,2.88,2.88,0,0,1,3-2.88,3.76,3.76,0,0,1,3,1.25V372a2.08,2.08,0,0,0-2.34-2,3.39,3.39,0,0,0-2.72,1.28l-.52-.65a4.23,4.23,0,0,1,3.35-1.46c1.76,0,3.17.85,3.17,2.8V378h-.94Zm0-2.59a3.28,3.28,0,0,0-2.63-1.21,2.16,2.16,0,1,0,0,4.3,3.26,3.26,0,0,0,2.63-1.18Z"/><path class="cls-1" d="M623.88,376.65a3.7,3.7,0,0,1-3,1.6c-2.3,0-3.89-1.76-3.89-4.55s1.59-4.58,3.89-4.58a3.7,3.7,0,0,1,3,1.63V366h1v12h-1Zm0-5.1A3.49,3.49,0,0,0,621,370c-1.93,0-3,1.62-3,3.73s1.12,3.71,3,3.71a3.49,3.49,0,0,0,2.86-1.55Z"/><path class="cls-1" d="M627.24,373.68c0-2.54,1.64-4.56,4.18-4.56s4.19,2,4.19,4.56-1.62,4.57-4.19,4.57S627.24,376.22,627.24,373.68Zm7.37,0c0-1.93-1.14-3.71-3.19-3.71s-3.17,1.78-3.17,3.71,1.15,3.73,3.17,3.73S634.61,375.62,634.61,373.68Z"/><path class="cls-1" d="M646.38,369.12c2.64,0,4.1,2.11,4.1,4.61V374h-7.27a3.38,3.38,0,0,0,3.4,3.45,3.84,3.84,0,0,0,2.85-1.2l.48.61a4.47,4.47,0,0,1-3.4,1.4,4.58,4.58,0,0,1-.16-9.13Zm-3.17,4.13h6.32a3.19,3.19,0,0,0-3.17-3.32A3.28,3.28,0,0,0,643.21,373.25Z"/><path class="cls-1" d="M663.24,372c0-1.22-.52-2-1.74-2a3.25,3.25,0,0,0-2.49,1.48V378h-1V372c0-1.22-.5-2-1.75-2a3.31,3.31,0,0,0-2.48,1.5V378h-.94v-8.7h.94v1.32a3.83,3.83,0,0,1,2.81-1.54,2.18,2.18,0,0,1,2.28,1.64,3.63,3.63,0,0,1,2.88-1.64c1.61,0,2.38.9,2.38,2.65V378h-.94Z"/><path class="cls-1" d="M671.76,381.35v-12h.93v1.37a3.75,3.75,0,0,1,3-1.59c2.32,0,3.88,1.77,3.88,4.56s-1.56,4.57-3.88,4.57a3.71,3.71,0,0,1-3-1.62v4.72ZM675.55,370a3.52,3.52,0,0,0-2.86,1.55v4.3a3.56,3.56,0,0,0,2.86,1.59c2,0,3.05-1.62,3.05-3.73S677.5,370,675.55,370Z"/><path class="cls-1" d="M682,369.34H683v1.5a3.73,3.73,0,0,1,2.94-1.68v1a1.83,1.83,0,0,0-.47,0A3.32,3.32,0,0,0,683,371.7V378H682Z"/><path class="cls-1" d="M687.47,367.14a.72.72,0,1,1,1.44,0,.72.72,0,0,1-1.44,0Zm.25,2.2h.94V378h-.94Z"/><path class="cls-1" d="M697.44,372.15c0-1.68-.84-2.18-2.1-2.18a3.71,3.71,0,0,0-2.83,1.5V378h-.94v-8.7h.94v1.32a4.4,4.4,0,0,1,3.13-1.54c1.77,0,2.74.87,2.74,2.83V378h-.94Z"/><path class="cls-1" d="M705,369.12a3.6,3.6,0,0,1,3.08,1.48l-.65.58a2.74,2.74,0,0,0-2.38-1.21c-2,0-3.27,1.62-3.27,3.71s1.24,3.73,3.27,3.73a2.76,2.76,0,0,0,2.38-1.23l.65.58a3.56,3.56,0,0,1-3.08,1.49,4.58,4.58,0,0,1,0-9.13Z"/><path class="cls-1" d="M710.18,369.34h.94V378h-.94Zm0-1.31,2.77-2.6h1.12L711,368Z"/><path class="cls-1" d="M714,381.35v-12H715v1.37a3.75,3.75,0,0,1,3-1.59c2.32,0,3.89,1.77,3.89,4.56s-1.57,4.57-3.89,4.57a3.71,3.71,0,0,1-3-1.62v4.72Zm3.8-11.38a3.52,3.52,0,0,0-2.86,1.55v4.3a3.56,3.56,0,0,0,2.86,1.59c1.95,0,3-1.62,3-3.73S719.78,370,717.83,370Z"/><path class="cls-1" d="M724,367.14a.74.74,0,0,1,.72-.72.72.72,0,1,1-.72.72Zm.25,2.2h.94V378h-.94Z"/><path class="cls-1" d="M727.64,373.68c0-2.54,1.64-4.56,4.18-4.56s4.19,2,4.19,4.56-1.62,4.57-4.19,4.57S727.64,376.22,727.64,373.68Zm7.37,0c0-1.93-1.14-3.71-3.19-3.71s-3.17,1.78-3.17,3.71,1.15,3.73,3.17,3.73S735,375.62,735,373.68Z"/><path class="cls-1" d="M738.23,376.18a3.61,3.61,0,0,0,2.8,1.28c1.46,0,2.33-.72,2.33-1.73s-1.19-1.44-2.43-1.76c-1.46-.36-3.06-.74-3.06-2.43,0-1.33,1.13-2.42,3.09-2.42a4,4,0,0,1,3.12,1.28l-.52.67a3.18,3.18,0,0,0-2.6-1.15c-1.35,0-2.18.66-2.18,1.56s1.12,1.26,2.33,1.57c1.49.38,3.17.79,3.17,2.65,0,1.4-1.08,2.55-3.26,2.55a4.18,4.18,0,0,1-3.35-1.37Z"/><path class="cls-1" d="M757.76,376.65a3.7,3.7,0,0,1-3,1.6c-2.3,0-3.89-1.76-3.89-4.55s1.59-4.58,3.89-4.58a3.7,3.7,0,0,1,3,1.63V366h1v12h-1Zm0-5.1a3.5,3.5,0,0,0-2.87-1.58c-1.92,0-3,1.62-3,3.73s1.12,3.71,3,3.71a3.5,3.5,0,0,0,2.87-1.55Z"/><path class="cls-1" d="M765.32,369.12c2.64,0,4.1,2.11,4.1,4.61V374h-7.27a3.38,3.38,0,0,0,3.4,3.45,3.84,3.84,0,0,0,2.85-1.2l.48.61a4.47,4.47,0,0,1-3.4,1.4,4.58,4.58,0,0,1-.16-9.13Zm-3.17,4.13h6.32a3.19,3.19,0,0,0-3.17-3.32A3.28,3.28,0,0,0,762.15,373.25Z"/><path class="cls-1" d="M776.49,369.34h.94v1.5a3.73,3.73,0,0,1,2.93-1.68v1a1.72,1.72,0,0,0-.46,0,3.3,3.3,0,0,0-2.47,1.55V378h-.94Z"/><path class="cls-1" d="M785.89,369.12c2.65,0,4.1,2.11,4.1,4.61V374h-7.27a3.38,3.38,0,0,0,3.4,3.45,3.84,3.84,0,0,0,2.85-1.2l.48.61a4.47,4.47,0,0,1-3.4,1.4,4.58,4.58,0,0,1-.16-9.13Zm-3.17,4.13H789a3.19,3.19,0,0,0-3.17-3.32A3.28,3.28,0,0,0,782.72,373.25Z"/><path class="cls-1" d="M792.21,376.18a3.61,3.61,0,0,0,2.81,1.28c1.45,0,2.32-.72,2.32-1.73s-1.19-1.44-2.43-1.76c-1.46-.36-3.06-.74-3.06-2.43,0-1.33,1.13-2.42,3.09-2.42a4,4,0,0,1,3.12,1.28l-.52.67a3.16,3.16,0,0,0-2.6-1.15c-1.35,0-2.18.66-2.18,1.56s1.12,1.26,2.33,1.57c1.49.38,3.17.79,3.17,2.65,0,1.4-1.08,2.55-3.26,2.55a4.18,4.18,0,0,1-3.35-1.37Z"/><path class="cls-1" d="M800.67,381.35v-12h.93v1.37a3.75,3.75,0,0,1,3-1.59c2.32,0,3.89,1.77,3.89,4.56s-1.57,4.57-3.89,4.57a3.73,3.73,0,0,1-3-1.62v4.72Zm3.8-11.38a3.53,3.53,0,0,0-2.87,1.55v4.3a3.56,3.56,0,0,0,2.87,1.59c1.94,0,3-1.62,3-3.73S806.41,370,804.47,370Z"/><path class="cls-1" d="M814.62,369.12c2.64,0,4.1,2.11,4.1,4.61V374h-7.27a3.38,3.38,0,0,0,3.4,3.45,3.84,3.84,0,0,0,2.85-1.2l.48.61a4.47,4.47,0,0,1-3.4,1.4,4.58,4.58,0,0,1-.16-9.13Zm-3.17,4.13h6.32a3.19,3.19,0,0,0-3.17-3.32A3.28,3.28,0,0,0,811.45,373.25Z"/><path class="cls-1" d="M820.88,367.14a.74.74,0,0,1,.72-.72.72.72,0,1,1-.72.72Zm.25,2.2h.94V378h-.94Z"/><path class="cls-1" d="M825.16,376.36v-6.19h-1.44v-.83h1.44V367h1v2.38h1.76v.83h-1.76v6.05c0,.7.29,1.19.9,1.19a1.35,1.35,0,0,0,1-.42l.36.72a1.94,1.94,0,0,1-1.48.54C825.72,378.25,825.16,377.55,825.16,376.36Z"/><path class="cls-1" d="M829.43,373.68c0-2.54,1.64-4.56,4.18-4.56s4.19,2,4.19,4.56-1.62,4.57-4.19,4.57S829.43,376.22,829.43,373.68Zm7.36,0c0-1.93-1.13-3.71-3.18-3.71s-3.17,1.78-3.17,3.71,1.15,3.73,3.17,3.73S836.79,375.62,836.79,373.68Z"/><path class="cls-1" d="M839.64,379.8a2.47,2.47,0,0,0,1-1.65h-.18a.72.72,0,0,1-.74-.75.78.78,0,0,1,.78-.78c.48,0,.91.42.91,1.16a3.18,3.18,0,0,1-1.29,2.46Z"/><path class="cls-1" d="M468.5,398v-6.19h-1.44v-.83h1.44v-2.38h1v2.38h1.76v.83h-1.76v6.05c0,.7.29,1.19.9,1.19a1.35,1.35,0,0,0,1-.42l.36.72a1.94,1.94,0,0,1-1.48.54C469.06,399.85,468.5,399.15,468.5,398Z"/><path class="cls-1" d="M473.27,390.94h.94v1.49a3.74,3.74,0,0,1,2.93-1.67v1a1.72,1.72,0,0,0-.46,0,3.3,3.3,0,0,0-2.47,1.55v6.34h-.94Z"/><path class="cls-1" d="M484.51,398.61a3.79,3.79,0,0,1-3,1.24,2.91,2.91,0,0,1-3-2.9,2.87,2.87,0,0,1,3-2.88,3.77,3.77,0,0,1,3,1.25v-1.77a2.08,2.08,0,0,0-2.34-2,3.39,3.39,0,0,0-2.72,1.28l-.52-.65a4.21,4.21,0,0,1,3.34-1.46c1.77,0,3.17.85,3.17,2.79v6.13h-.93Zm0-2.59a3.29,3.29,0,0,0-2.63-1.21,2.16,2.16,0,1,0,0,4.3,3.27,3.27,0,0,0,2.63-1.18Z"/><path class="cls-1" d="M494.23,393.75c0-1.68-.85-2.18-2.11-2.18a3.73,3.73,0,0,0-2.83,1.49v6.58h-.93v-8.7h.93v1.32a4.42,4.42,0,0,1,3.14-1.54c1.76,0,2.73.87,2.73,2.83v6.09h-.93Z"/><path class="cls-1" d="M497.88,397.78a3.63,3.63,0,0,0,2.81,1.28c1.46,0,2.32-.72,2.32-1.73s-1.19-1.44-2.43-1.76c-1.46-.36-3.06-.74-3.06-2.43,0-1.34,1.13-2.42,3.1-2.42a4,4,0,0,1,3.11,1.28l-.52.67a3.16,3.16,0,0,0-2.59-1.15c-1.35,0-2.18.66-2.18,1.56s1.11,1.26,2.32,1.57c1.49.38,3.17.79,3.17,2.65,0,1.4-1.08,2.55-3.26,2.55a4.2,4.2,0,0,1-3.35-1.37Z"/><path class="cls-1" d="M506.34,403v-12h.93v1.37a3.76,3.76,0,0,1,3-1.59c2.32,0,3.89,1.77,3.89,4.56s-1.57,4.57-3.89,4.57a3.74,3.74,0,0,1-3-1.62V403Zm3.8-11.38a3.53,3.53,0,0,0-2.87,1.55v4.3a3.56,3.56,0,0,0,2.87,1.59c1.94,0,3-1.62,3-3.73S512.08,391.57,510.14,391.57Z"/><path class="cls-1" d="M522.13,398.61a3.79,3.79,0,0,1-3,1.24,2.91,2.91,0,0,1-3-2.9,2.87,2.87,0,0,1,3-2.88,3.77,3.77,0,0,1,3,1.25v-1.77a2.08,2.08,0,0,0-2.34-2,3.39,3.39,0,0,0-2.72,1.28l-.53-.65a4.23,4.23,0,0,1,3.35-1.46c1.77,0,3.17.85,3.17,2.79v6.13h-.93Zm0-2.59a3.29,3.29,0,0,0-2.63-1.21,2.16,2.16,0,1,0,0,4.3,3.27,3.27,0,0,0,2.63-1.18Z"/><path class="cls-1" d="M526,390.94h.93v1.49a3.74,3.74,0,0,1,2.94-1.67v1a1.79,1.79,0,0,0-.47,0,3.32,3.32,0,0,0-2.47,1.55v6.34H526Z"/><path class="cls-1" d="M535.37,390.72c2.65,0,4.11,2.11,4.11,4.61v.26H532.2a3.39,3.39,0,0,0,3.41,3.45,3.81,3.81,0,0,0,2.84-1.2l.49.61a4.49,4.49,0,0,1-3.4,1.4,4.58,4.58,0,0,1-.17-9.13Zm-3.17,4.13h6.32a3.19,3.19,0,0,0-3.17-3.32A3.29,3.29,0,0,0,532.2,394.85Zm3.15-7.26-1.53,2h-.7l1.75-2.6h1l1.78,2.6h-.72Z"/><path class="cls-1" d="M547.76,393.75c0-1.68-.85-2.18-2.11-2.18a3.73,3.73,0,0,0-2.83,1.49v6.58h-.93v-8.7h.93v1.32a4.42,4.42,0,0,1,3.14-1.54c1.76,0,2.73.87,2.73,2.83v6.09h-.93Z"/><path class="cls-1" d="M555.33,390.72a3.59,3.59,0,0,1,3.08,1.48l-.64.58a2.75,2.75,0,0,0-2.38-1.21c-2,0-3.28,1.62-3.28,3.71s1.24,3.73,3.28,3.73a2.77,2.77,0,0,0,2.38-1.23l.64.58a3.54,3.54,0,0,1-3.08,1.49,4.58,4.58,0,0,1,0-9.13Z"/><path class="cls-1" d="M560.25,388.74a.72.72,0,0,1,1.44,0,.72.72,0,0,1-1.44,0Zm.25,2.2h.93v8.7h-.93Z"/><path class="cls-1" d="M569.88,398.61a3.78,3.78,0,0,1-3,1.24,2.91,2.91,0,0,1-3-2.9,2.88,2.88,0,0,1,3-2.88,3.76,3.76,0,0,1,3,1.25v-1.77a2.08,2.08,0,0,0-2.34-2,3.39,3.39,0,0,0-2.72,1.28l-.52-.65a4.23,4.23,0,0,1,3.35-1.46c1.76,0,3.16.85,3.16,2.79v6.13h-.93Zm0-2.59a3.28,3.28,0,0,0-2.63-1.21,2.16,2.16,0,1,0,0,4.3,3.26,3.26,0,0,0,2.63-1.18Z"/><path class="cls-1" d="M582.08,390.72c2.65,0,4.11,2.11,4.11,4.61v.26h-7.28a3.39,3.39,0,0,0,3.41,3.45,3.83,3.83,0,0,0,2.84-1.2l.49.61a4.51,4.51,0,0,1-3.41,1.4,4.58,4.58,0,0,1-.16-9.13Zm-3.17,4.13h6.32a3.19,3.19,0,0,0-3.17-3.32A3.28,3.28,0,0,0,578.91,394.85Z"/><path class="cls-1" d="M597,390.72a3.59,3.59,0,0,1,3.08,1.48l-.64.58a2.75,2.75,0,0,0-2.38-1.21c-2,0-3.28,1.62-3.28,3.71S595,399,597,399a2.77,2.77,0,0,0,2.38-1.23l.64.58a3.54,3.54,0,0,1-3.08,1.49,4.58,4.58,0,0,1,0-9.13Z"/><path class="cls-1" d="M601.64,395.28c0-2.54,1.64-4.56,4.18-4.56s4.2,2,4.2,4.56-1.62,4.57-4.2,4.57S601.64,397.82,601.64,395.28Zm7.37,0c0-1.93-1.13-3.71-3.19-3.71s-3.17,1.78-3.17,3.71,1.16,3.73,3.17,3.73S609,397.22,609,395.28Z"/><path class="cls-1" d="M612.43,387.63h.93v12h-.93Z"/><path class="cls-1" d="M621.81,398.61a3.79,3.79,0,0,1-3,1.24,2.91,2.91,0,0,1-3-2.9,2.87,2.87,0,0,1,3-2.88,3.77,3.77,0,0,1,3,1.25v-1.77a2.08,2.08,0,0,0-2.34-2,3.39,3.39,0,0,0-2.72,1.28l-.52-.65a4.21,4.21,0,0,1,3.34-1.46c1.77,0,3.17.85,3.17,2.79v6.13h-.93Zm0-2.59a3.29,3.29,0,0,0-2.63-1.21,2.16,2.16,0,1,0,0,4.3,3.27,3.27,0,0,0,2.63-1.18Z"/><path class="cls-1" d="M625.66,387.63h.93v4.71a3.73,3.73,0,0,1,3-1.62c2.32,0,3.89,1.82,3.89,4.58s-1.59,4.55-3.89,4.55a3.72,3.72,0,0,1-3-1.6v1.39h-.93Zm3.8,11.38c1.94,0,3-1.61,3-3.71s-1.1-3.73-3-3.73a3.58,3.58,0,0,0-2.87,1.58v4.31A3.53,3.53,0,0,0,629.46,399Z"/><path class="cls-1" d="M635.43,395.28c0-2.54,1.64-4.56,4.18-4.56s4.19,2,4.19,4.56-1.62,4.57-4.19,4.57S635.43,397.82,635.43,395.28Zm7.36,0c0-1.93-1.13-3.71-3.18-3.71s-3.17,1.78-3.17,3.71,1.15,3.73,3.17,3.73S642.79,397.22,642.79,395.28Z"/><path class="cls-1" d="M646.21,390.94h.94v1.49a3.74,3.74,0,0,1,2.93-1.67v1a1.72,1.72,0,0,0-.46,0,3.3,3.3,0,0,0-2.47,1.55v6.34h-.94Z"/><path class="cls-1" d="M657.45,398.61a3.79,3.79,0,0,1-3,1.24,2.91,2.91,0,0,1-3-2.9,2.87,2.87,0,0,1,3-2.88,3.77,3.77,0,0,1,3,1.25v-1.77a2.08,2.08,0,0,0-2.35-2,3.37,3.37,0,0,0-2.71,1.28l-.53-.65a4.23,4.23,0,0,1,3.35-1.46c1.77,0,3.17.85,3.17,2.79v6.13h-.93Zm0-2.59a3.29,3.29,0,0,0-2.63-1.21,2.16,2.16,0,1,0,0,4.3,3.27,3.27,0,0,0,2.63-1.18Z"/><path class="cls-1" d="M667.45,397.78l.65.58a3.49,3.49,0,0,1-2.79,1.49l-.3.81a1.08,1.08,0,0,1,.66-.21,1.11,1.11,0,0,1,1.19,1.13c0,.9-.81,1.46-1.82,1.46a2.94,2.94,0,0,1-1.75-.52l.29-.58a2.29,2.29,0,0,0,1.44.51c.63,0,1.17-.29,1.17-.87,0-.38-.23-.65-.73-.65a1,1,0,0,0-.73.31l-.5-.29.41-1.11a4.6,4.6,0,0,1,.38-9.12,3.59,3.59,0,0,1,3.08,1.48l-.65.58a2.73,2.73,0,0,0-2.37-1.21c-2,0-3.28,1.62-3.28,3.71S663,399,665.08,399A2.75,2.75,0,0,0,667.45,397.78Z"/><path class="cls-1" d="M675.72,398.61a3.79,3.79,0,0,1-3,1.24,2.91,2.91,0,0,1-3-2.9,2.87,2.87,0,0,1,3-2.88,3.77,3.77,0,0,1,3,1.25v-1.77a2.08,2.08,0,0,0-2.35-2,3.37,3.37,0,0,0-2.71,1.28l-.53-.65a4.23,4.23,0,0,1,3.35-1.46c1.77,0,3.17.85,3.17,2.79v6.13h-.93Zm0-2.59a3.29,3.29,0,0,0-2.63-1.21,2.16,2.16,0,1,0,0,4.3,3.27,3.27,0,0,0,2.63-1.18Zm-3.37-8.21c-.54,0-1,.52-1,1.74h-.63c0-1.35.59-2.41,1.67-2.41.72,0,1,.54,1.35,1.05s.47.79.9.79,1-.52,1-1.73h.64c0,1.35-.57,2.41-1.65,2.41-.76,0-1.06-.54-1.37-1S672.78,387.81,672.35,387.81Z"/><path class="cls-1" d="M679.06,395.28c0-2.54,1.64-4.56,4.18-4.56s4.19,2,4.19,4.56-1.62,4.57-4.19,4.57S679.06,397.82,679.06,395.28Zm7.37,0c0-1.93-1.14-3.71-3.19-3.71s-3.17,1.78-3.17,3.71,1.15,3.73,3.17,3.73S686.43,397.22,686.43,395.28Z"/><path class="cls-1" d="M698.23,390.72a3.6,3.6,0,0,1,3.08,1.48l-.65.58a2.73,2.73,0,0,0-2.37-1.21c-2,0-3.28,1.62-3.28,3.71s1.24,3.73,3.28,3.73a2.75,2.75,0,0,0,2.37-1.23l.65.58a3.56,3.56,0,0,1-3.08,1.49,4.58,4.58,0,0,1,0-9.13Z"/><path class="cls-1" d="M702.89,395.28c0-2.54,1.64-4.56,4.18-4.56s4.2,2,4.2,4.56-1.63,4.57-4.2,4.57S702.89,397.82,702.89,395.28Zm7.37,0c0-1.93-1.14-3.71-3.19-3.71s-3.17,1.78-3.17,3.71,1.15,3.73,3.17,3.73S710.26,397.22,710.26,395.28Z"/><path class="cls-1" d="M724,393.55c0-1.22-.52-2-1.75-2a3.23,3.23,0,0,0-2.48,1.48v6.59h-1v-6.09c0-1.22-.5-2-1.74-2a3.34,3.34,0,0,0-2.49,1.49v6.58h-.94v-8.7h.94v1.32a3.83,3.83,0,0,1,2.81-1.54,2.2,2.2,0,0,1,2.29,1.64,3.6,3.6,0,0,1,2.88-1.64c1.6,0,2.37.9,2.37,2.65v6.27H724Z"/><path class="cls-1" d="M732,395.28c0-2.54,1.64-4.56,4.18-4.56s4.2,2,4.2,4.56-1.62,4.57-4.2,4.57S732,397.82,732,395.28Zm7.37,0c0-1.93-1.14-3.71-3.19-3.71s-3.17,1.78-3.17,3.71,1.15,3.73,3.17,3.73S739.4,397.22,739.4,395.28Z"/><path class="cls-1" d="M742.62,397.78a3.63,3.63,0,0,0,2.81,1.28c1.46,0,2.32-.72,2.32-1.73s-1.19-1.44-2.43-1.76c-1.46-.36-3.06-.74-3.06-2.43,0-1.34,1.13-2.42,3.09-2.42a4,4,0,0,1,3.12,1.28l-.52.67a3.16,3.16,0,0,0-2.6-1.15c-1.35,0-2.17.66-2.17,1.56s1.11,1.26,2.32,1.57c1.49.38,3.17.79,3.17,2.65,0,1.4-1.08,2.55-3.26,2.55a4.18,4.18,0,0,1-3.35-1.37Z"/><path class="cls-1" d="M755.74,403v-12h.94v1.37a3.73,3.73,0,0,1,3-1.59c2.32,0,3.89,1.77,3.89,4.56s-1.57,4.57-3.89,4.57a3.71,3.71,0,0,1-3-1.62V403Zm3.8-11.38a3.49,3.49,0,0,0-2.86,1.55v4.3a3.53,3.53,0,0,0,2.86,1.59c1.94,0,3-1.62,3-3.73S761.48,391.57,759.54,391.57Z"/><path class="cls-1" d="M771.53,398.61a3.79,3.79,0,0,1-3,1.24,2.91,2.91,0,0,1-3-2.9,2.87,2.87,0,0,1,3-2.88,3.77,3.77,0,0,1,3,1.25v-1.77a2.08,2.08,0,0,0-2.34-2,3.39,3.39,0,0,0-2.72,1.28l-.53-.65a4.25,4.25,0,0,1,3.35-1.46c1.77,0,3.17.85,3.17,2.79v6.13h-.93Zm0-2.59a3.29,3.29,0,0,0-2.63-1.21,2.16,2.16,0,1,0,0,4.3,3.27,3.27,0,0,0,2.63-1.18Z"/><path class="cls-1" d="M775.38,390.94h.93v1.49a3.74,3.74,0,0,1,2.94-1.67v1a1.79,1.79,0,0,0-.47,0,3.32,3.32,0,0,0-2.47,1.55v6.34h-.93Z"/><path class="cls-1" d="M784.81,390.72a3.6,3.6,0,0,1,3.08,1.48l-.65.58a2.74,2.74,0,0,0-2.38-1.21c-2,0-3.27,1.62-3.27,3.71s1.24,3.73,3.27,3.73a2.76,2.76,0,0,0,2.38-1.23l.65.58a3.56,3.56,0,0,1-3.08,1.49,4.58,4.58,0,0,1,0-9.13Z"/><path class="cls-1" d="M793.67,390.72c2.64,0,4.1,2.11,4.1,4.61v.26H790.5a3.38,3.38,0,0,0,3.4,3.45,3.8,3.8,0,0,0,2.84-1.2l.49.61a4.47,4.47,0,0,1-3.4,1.4,4.58,4.58,0,0,1-.16-9.13Zm-3.17,4.13h6.32a3.19,3.19,0,0,0-3.17-3.32A3.28,3.28,0,0,0,790.5,394.85Z"/><path class="cls-1" d="M799.93,388.74a.72.72,0,1,1,1.44,0,.72.72,0,1,1-1.44,0Zm.25,2.2h.94v8.7h-.94Z"/><path class="cls-1" d="M804,390.94H805v1.49a3.74,3.74,0,0,1,2.93-1.67v1a1.79,1.79,0,0,0-.47,0A3.29,3.29,0,0,0,805,393.3v6.34H804Z"/><path class="cls-1" d="M809.23,395.28c0-2.54,1.64-4.56,4.18-4.56s4.2,2,4.2,4.56-1.62,4.57-4.2,4.57S809.23,397.82,809.23,395.28Zm7.37,0c0-1.93-1.14-3.71-3.19-3.71s-3.17,1.78-3.17,3.71,1.15,3.73,3.17,3.73S816.6,397.22,816.6,395.28Z"/><path class="cls-1" d="M819.82,397.78a3.63,3.63,0,0,0,2.81,1.28c1.45,0,2.32-.72,2.32-1.73s-1.19-1.44-2.43-1.76c-1.46-.36-3.06-.74-3.06-2.43,0-1.34,1.13-2.42,3.09-2.42a4,4,0,0,1,3.12,1.28l-.52.67a3.16,3.16,0,0,0-2.6-1.15c-1.35,0-2.17.66-2.17,1.56s1.11,1.26,2.32,1.57c1.49.38,3.17.79,3.17,2.65,0,1.4-1.08,2.55-3.26,2.55a4.18,4.18,0,0,1-3.35-1.37Z"/><path class="cls-1" d="M471.42,5H467.5V4.05h8.89V5h-3.92V16.06h-1.05Z"/><path class="cls-1" d="M476.8,7.37h.94V8.86a3.74,3.74,0,0,1,2.93-1.67v1a2.32,2.32,0,0,0-.47,0,3.3,3.3,0,0,0-2.46,1.54v6.34h-.94Z"/><path class="cls-1" d="M488,15a3.82,3.82,0,0,1-3,1.24,2.91,2.91,0,0,1-3-2.9,2.87,2.87,0,0,1,3-2.88,3.76,3.76,0,0,1,3,1.24V10c0-1.3-1.05-2-2.35-2A3.37,3.37,0,0,0,483,9.26l-.53-.65a4.23,4.23,0,0,1,3.35-1.46c1.77,0,3.17.85,3.17,2.79v6.12H488Zm0-2.6a3.29,3.29,0,0,0-2.63-1.2,2.16,2.16,0,1,0,0,4.3A3.28,3.28,0,0,0,488,14.35Z"/><path class="cls-1" d="M497.76,10.18c0-1.68-.85-2.18-2.11-2.18a3.73,3.73,0,0,0-2.83,1.49v6.57h-.93V7.37h.93V8.68A4.39,4.39,0,0,1,496,7.15c1.77,0,2.74.86,2.74,2.83v6.08h-.93Z"/><path class="cls-1" d="M501.41,14.21a3.63,3.63,0,0,0,2.81,1.28c1.45,0,2.32-.72,2.32-1.73s-1.19-1.44-2.43-1.77c-1.46-.36-3.06-.73-3.06-2.43,0-1.33,1.13-2.41,3.09-2.41a4,4,0,0,1,3.12,1.28l-.52.66a3.19,3.19,0,0,0-2.6-1.15c-1.35,0-2.17.67-2.17,1.57s1.11,1.26,2.32,1.57c1.49.37,3.17.79,3.17,2.64,0,1.41-1.08,2.56-3.26,2.56a4.22,4.22,0,0,1-3.35-1.37Z"/><path class="cls-1" d="M510.17,8.19h-1.44V7.37h1.44v-.8c0-1.71.92-2.7,2.36-2.7a2.38,2.38,0,0,1,1.17.27l-.29.74a1.54,1.54,0,0,0-.79-.2c-1,0-1.51.69-1.51,1.89v.8h1.76v.82h-1.76v7.87h-.94Z"/><path class="cls-1" d="M514.13,11.71c0-2.54,1.64-4.56,4.18-4.56s4.2,2,4.2,4.56-1.62,4.57-4.2,4.57S514.13,14.24,514.13,11.71Zm7.37,0c0-1.93-1.14-3.71-3.19-3.71s-3.17,1.78-3.17,3.71,1.15,3.72,3.17,3.72S521.5,13.65,521.5,11.71Z"/><path class="cls-1" d="M524.92,7.37h.93V8.86a3.74,3.74,0,0,1,2.94-1.67v1a2.42,2.42,0,0,0-.47,0,3.34,3.34,0,0,0-2.47,1.54v6.34h-.93Z"/><path class="cls-1" d="M541,10c0-1.23-.52-2-1.74-2a3.24,3.24,0,0,0-2.49,1.47v6.59h-1V10c0-1.23-.51-2-1.75-2a3.32,3.32,0,0,0-2.48,1.49v6.57h-.94V7.37h.94V8.68a3.82,3.82,0,0,1,2.81-1.53,2.17,2.17,0,0,1,2.28,1.64,3.63,3.63,0,0,1,2.88-1.64c1.61,0,2.38.9,2.38,2.65v6.26H541Z"/><path class="cls-1" d="M550.35,15a3.8,3.8,0,0,1-3,1.24,2.92,2.92,0,0,1-3-2.9,2.88,2.88,0,0,1,3-2.88,3.76,3.76,0,0,1,3,1.24V10A2.07,2.07,0,0,0,548,8a3.39,3.39,0,0,0-2.72,1.28l-.52-.65a4.23,4.23,0,0,1,3.35-1.46c1.76,0,3.17.85,3.17,2.79v6.12h-.94Zm0-2.6a3.26,3.26,0,0,0-2.63-1.2,2.16,2.16,0,1,0,0,4.3,3.25,3.25,0,0,0,2.63-1.19Z"/><path class="cls-1" d="M560.36,14.21l.65.57a3.5,3.5,0,0,1-2.79,1.5l-.31.81a1.06,1.06,0,0,1,.67-.22A1.11,1.11,0,0,1,559.76,18c0,.9-.81,1.46-1.81,1.46a2.91,2.91,0,0,1-1.75-.53l.29-.57a2.26,2.26,0,0,0,1.44.5c.63,0,1.17-.29,1.17-.86,0-.38-.24-.65-.74-.65a1,1,0,0,0-.72.31l-.5-.29.41-1.12a4.29,4.29,0,0,1-3.85-4.55,4.25,4.25,0,0,1,4.23-4.56A3.59,3.59,0,0,1,561,8.63l-.65.57A2.75,2.75,0,0,0,558,8c-2,0-3.28,1.62-3.28,3.71S556,15.43,558,15.43A2.77,2.77,0,0,0,560.36,14.21Z"/><path class="cls-1" d="M568.62,15a3.8,3.8,0,0,1-3,1.24,2.92,2.92,0,0,1-3-2.9,2.88,2.88,0,0,1,3-2.88,3.76,3.76,0,0,1,3,1.24V10a2.07,2.07,0,0,0-2.34-2,3.39,3.39,0,0,0-2.72,1.28L563,8.61a4.23,4.23,0,0,1,3.35-1.46c1.76,0,3.17.85,3.17,2.79v6.12h-.94Zm0-2.6a3.26,3.26,0,0,0-2.63-1.2,2.16,2.16,0,1,0,0,4.3,3.25,3.25,0,0,0,2.63-1.19Zm-3.37-8.21c-.54,0-1,.53-1,1.75h-.63c0-1.35.59-2.41,1.67-2.41.72,0,1,.54,1.36,1s.46.79.9.79.95-.52.95-1.72h.65c0,1.35-.58,2.41-1.66,2.41-.75,0-1.06-.54-1.37-1S565.68,4.23,565.25,4.23Z"/><path class="cls-1" d="M572,11.71c0-2.54,1.63-4.56,4.17-4.56s4.2,2,4.2,4.56-1.62,4.57-4.2,4.57S572,14.24,572,11.71Zm7.36,0c0-1.93-1.13-3.71-3.19-3.71S573,9.78,573,11.71s1.16,3.72,3.17,3.72S579.33,13.65,579.33,11.71Z"/><path class="cls-1" d="M591.14,7.15a3.59,3.59,0,0,1,3.08,1.48l-.65.57A2.77,2.77,0,0,0,591.19,8c-2,0-3.28,1.62-3.28,3.71s1.25,3.72,3.28,3.72a2.79,2.79,0,0,0,2.38-1.22l.65.57a3.58,3.58,0,0,1-3.08,1.5,4.27,4.27,0,0,1-4.24-4.57A4.26,4.26,0,0,1,591.14,7.15Z"/><path class="cls-1" d="M595.8,11.71c0-2.54,1.63-4.56,4.17-4.56s4.2,2,4.2,4.56-1.62,4.57-4.2,4.57S595.8,14.24,595.8,11.71Zm7.36,0C603.16,9.78,602,8,600,8s-3.16,1.78-3.16,3.71S598,15.43,600,15.43,603.16,13.65,603.16,11.71Z"/><path class="cls-1" d="M612.45,10.18c0-1.68-.85-2.18-2.11-2.18a3.71,3.71,0,0,0-2.82,1.49v6.57h-.94V7.37h.94V8.68a4.37,4.37,0,0,1,3.13-1.53c1.76,0,2.74.86,2.74,2.83v6.08h-.94Z"/><path class="cls-1" d="M616.48,14.39V8.19H615V7.37h1.44V5h.95V7.37h1.77v.82h-1.77v6.05c0,.71.29,1.19.9,1.19a1.39,1.39,0,0,0,1-.41l.36.72a2,2,0,0,1-1.48.54C617,16.28,616.48,15.58,616.48,14.39Z"/><path class="cls-1" d="M621.25,7.37h.93v8.69h-.93Zm0-1.32,2.78-2.59h1.11l-3.09,2.59Z"/><path class="cls-1" d="M631,10.18C631,8.5,630.12,8,628.86,8A3.73,3.73,0,0,0,626,9.49v6.57h-.94V7.37H626V8.68a4.39,4.39,0,0,1,3.13-1.53c1.76,0,2.74.86,2.74,2.83v6.08H631Z"/><path class="cls-1" d="M640.69,14.78a4.38,4.38,0,0,1-3.13,1.5c-1.79,0-2.74-.83-2.74-2.79V7.37h.94v5.9c0,1.69.84,2.16,2.1,2.16A3.75,3.75,0,0,0,640.69,14V7.37h.94v8.69h-.94Z"/><path class="cls-1" d="M650.07,15a3.82,3.82,0,0,1-3,1.24,2.91,2.91,0,0,1-3-2.9,2.87,2.87,0,0,1,3-2.88,3.76,3.76,0,0,1,3,1.24V10a2.07,2.07,0,0,0-2.34-2A3.39,3.39,0,0,0,645,9.26l-.52-.65a4.21,4.21,0,0,1,3.34-1.46c1.77,0,3.17.85,3.17,2.79v6.12h-.93Zm0-2.6a3.27,3.27,0,0,0-2.63-1.2,2.16,2.16,0,1,0,0,4.3,3.26,3.26,0,0,0,2.63-1.19Z"/><path class="cls-1" d="M472,28.75c2.64,0,4.1,2.11,4.1,4.61v.25h-7.27a3.39,3.39,0,0,0,3.4,3.46,3.81,3.81,0,0,0,2.84-1.21l.49.61a4.48,4.48,0,0,1-3.4,1.41,4.3,4.3,0,0,1-4.36-4.58A4.32,4.32,0,0,1,472,28.75Zm-3.17,4.12h6.32A3.19,3.19,0,0,0,472,29.56,3.26,3.26,0,0,0,468.85,32.87Z"/><path class="cls-1" d="M486.92,28.75A3.57,3.57,0,0,1,490,30.23l-.65.57A2.75,2.75,0,0,0,487,29.6c-2,0-3.28,1.62-3.28,3.7S484.94,37,487,37a2.77,2.77,0,0,0,2.38-1.22l.65.57a3.56,3.56,0,0,1-3.08,1.5,4.27,4.27,0,0,1-4.23-4.58A4.25,4.25,0,0,1,486.92,28.75Z"/><path class="cls-1" d="M491.58,33.3c0-2.53,1.64-4.55,4.18-4.55s4.19,2,4.19,4.55-1.62,4.58-4.19,4.58S491.58,35.84,491.58,33.3Zm7.36,0c0-1.92-1.13-3.7-3.18-3.7s-3.17,1.78-3.17,3.7S493.74,37,495.76,37,498.94,35.25,498.94,33.3Z"/><path class="cls-1" d="M501.44,32.87h4.32v.87h-4.32Z"/><path class="cls-1" d="M511.45,28.75c2.65,0,4.11,2.11,4.11,4.61v.25h-7.28a3.39,3.39,0,0,0,3.41,3.46,3.84,3.84,0,0,0,2.84-1.21l.49.61a4.52,4.52,0,0,1-3.41,1.41,4.29,4.29,0,0,1-4.35-4.58A4.32,4.32,0,0,1,511.45,28.75Zm-3.17,4.12h6.32a3.19,3.19,0,0,0-3.17-3.31A3.27,3.27,0,0,0,508.28,32.87Z"/><path class="cls-1" d="M516.63,29h1l3.17,7.59L524,29H525l-3.67,8.69h-1.06Z"/><path class="cls-1" d="M526.12,33.3c0-2.53,1.64-4.55,4.18-4.55s4.19,2,4.19,4.55-1.62,4.58-4.19,4.58S526.12,35.84,526.12,33.3Zm7.36,0c0-1.92-1.13-3.7-3.18-3.7s-3.17,1.78-3.17,3.7S528.28,37,530.3,37,533.48,35.25,533.48,33.3Z"/><path class="cls-1" d="M536.9,25.65h.94v12h-.94Z"/><path class="cls-1" d="M546.62,36.38a4.38,4.38,0,0,1-3.13,1.5c-1.78,0-2.74-.83-2.74-2.79V29h.94v5.9c0,1.69.85,2.16,2.11,2.16a3.73,3.73,0,0,0,2.82-1.44V29h.94v8.69h-.94Z"/><path class="cls-1" d="M556.63,35.81l.65.57a3.5,3.5,0,0,1-2.79,1.5l-.31.81a1.06,1.06,0,0,1,.67-.22A1.12,1.12,0,0,1,556,39.61c0,.9-.81,1.46-1.82,1.46a2.91,2.91,0,0,1-1.75-.53l.29-.57a2.26,2.26,0,0,0,1.44.5c.63,0,1.17-.29,1.17-.86,0-.38-.23-.65-.74-.65a1,1,0,0,0-.72.3l-.5-.28.41-1.12A4.29,4.29,0,0,1,550,33.3a4.25,4.25,0,0,1,4.23-4.55,3.57,3.57,0,0,1,3.08,1.48l-.65.57a2.75,2.75,0,0,0-2.38-1.2c-2,0-3.27,1.62-3.27,3.7S552.22,37,554.25,37A2.77,2.77,0,0,0,556.63,35.81Z"/><path class="cls-1" d="M564.89,36.64a3.79,3.79,0,0,1-2.95,1.24,2.91,2.91,0,0,1-3-2.9,2.87,2.87,0,0,1,3-2.88,3.73,3.73,0,0,1,2.95,1.24V31.58a2.07,2.07,0,0,0-2.34-2,3.4,3.4,0,0,0-2.72,1.28l-.52-.65a4.23,4.23,0,0,1,3.35-1.46c1.76,0,3.17.85,3.17,2.79v6.12h-.94Zm0-2.6a3.26,3.26,0,0,0-2.63-1.2,2.16,2.16,0,1,0,0,4.3A3.25,3.25,0,0,0,564.89,36Zm-3.36-8.21c-.54,0-1,.52-1,1.75h-.63c0-1.35.6-2.41,1.68-2.41.72,0,1,.54,1.35,1s.47.79.9.79.95-.52.95-1.73h.65c0,1.36-.58,2.42-1.66,2.42-.75,0-1.06-.54-1.36-1.05S562,25.83,561.53,25.83Z"/><path class="cls-1" d="M568.24,33.3c0-2.53,1.64-4.55,4.18-4.55s4.19,2,4.19,4.55-1.62,4.58-4.19,4.58S568.24,35.84,568.24,33.3Zm7.36,0c0-1.92-1.13-3.7-3.18-3.7s-3.17,1.78-3.17,3.7S570.4,37,572.42,37,575.6,35.25,575.6,33.3Z"/><path class="cls-1" d="M583.18,33.3c0-2.53,1.64-4.55,4.17-4.55s4.2,2,4.2,4.55-1.62,4.58-4.2,4.58S583.18,35.84,583.18,33.3Zm7.36,0c0-1.92-1.13-3.7-3.19-3.7s-3.16,1.78-3.16,3.7S585.34,37,587.35,37,590.54,35.25,590.54,33.3Z"/><path class="cls-1" d="M594,29h.94v1.49a3.71,3.71,0,0,1,2.93-1.67v1a2.37,2.37,0,0,0-.47,0,3.3,3.3,0,0,0-2.46,1.54v6.34H594Z"/><path class="cls-1" d="M600.22,39.16a3.34,3.34,0,0,0,2.88,1.22c1.59,0,3-.79,3-2.79V36.22a3.79,3.79,0,0,1-3,1.62c-2.3,0-3.89-1.74-3.89-4.54s1.59-4.55,3.89-4.55a3.71,3.71,0,0,1,3,1.62V29H607v8.6c0,2.67-1.8,3.62-3.93,3.62a4.2,4.2,0,0,1-3.42-1.31Zm5.86-8a3.5,3.5,0,0,0-2.87-1.58c-1.92,0-3,1.6-3,3.7s1.12,3.7,3,3.7a3.51,3.51,0,0,0,2.87-1.59Z"/><path class="cls-1" d="M615.45,36.64a3.79,3.79,0,0,1-3,1.24,2.91,2.91,0,0,1-3-2.9,2.87,2.87,0,0,1,3-2.88,3.73,3.73,0,0,1,3,1.24V31.58a2.07,2.07,0,0,0-2.34-2,3.4,3.4,0,0,0-2.72,1.28l-.52-.65a4.23,4.23,0,0,1,3.35-1.46c1.76,0,3.17.85,3.17,2.79v6.12h-.94Zm0-2.6a3.26,3.26,0,0,0-2.63-1.2,2.16,2.16,0,1,0,0,4.3A3.25,3.25,0,0,0,615.45,36Z"/><path class="cls-1" d="M625.17,31.77c0-1.67-.84-2.17-2.1-2.17a3.73,3.73,0,0,0-2.83,1.49v6.57h-.94V29h.94v1.31a4.39,4.39,0,0,1,3.13-1.53c1.77,0,2.74.86,2.74,2.83v6.08h-.94Z"/><path class="cls-1" d="M628.77,26.77a.73.73,0,0,1,.72-.72.72.72,0,1,1,0,1.44A.73.73,0,0,1,628.77,26.77ZM629,29H630v8.69H629Z"/><path class="cls-1" d="M632.42,36.89l5.15-7.1h-5.15V29h6.36v.75l-5.2,7.11h5.27v.83h-6.43Z"/><path class="cls-1" d="M646.84,36.64a3.79,3.79,0,0,1-3,1.24,2.91,2.91,0,0,1-3-2.9,2.87,2.87,0,0,1,3-2.88,3.73,3.73,0,0,1,3,1.24V31.58a2.07,2.07,0,0,0-2.34-2,3.4,3.4,0,0,0-2.72,1.28l-.52-.65a4.23,4.23,0,0,1,3.35-1.46c1.77,0,3.17.85,3.17,2.79v6.12h-.94Zm0-2.6a3.25,3.25,0,0,0-2.62-1.2,2.16,2.16,0,1,0,0,4.3A3.24,3.24,0,0,0,646.84,36Z"/><path class="cls-1" d="M654.42,28.75a3.57,3.57,0,0,1,3.08,1.48l-.65.57a2.75,2.75,0,0,0-2.37-1.2c-2,0-3.28,1.62-3.28,3.7S652.44,37,654.48,37a2.77,2.77,0,0,0,2.37-1.22l.65.57a3.56,3.56,0,0,1-3.08,1.5,4.27,4.27,0,0,1-4.23-4.58A4.25,4.25,0,0,1,654.42,28.75Z"/><path class="cls-1" d="M659.33,26.77a.74.74,0,0,1,.72-.72.72.72,0,1,1,0,1.44A.74.74,0,0,1,659.33,26.77Zm.26,2.2h.93v8.69h-.93Z"/><path class="cls-1" d="M662.93,33.3c0-2.53,1.64-4.55,4.18-4.55s4.2,2,4.2,4.55-1.62,4.58-4.2,4.58S662.93,35.84,662.93,33.3Zm7.37,0c0-1.92-1.14-3.7-3.19-3.7s-3.17,1.78-3.17,3.7S665.09,37,667.11,37,670.3,35.25,670.3,33.3Z"/><path class="cls-1" d="M679.59,31.77c0-1.67-.85-2.17-2.11-2.17a3.73,3.73,0,0,0-2.83,1.49v6.57h-.93V29h.93v1.31a4.39,4.39,0,0,1,3.14-1.53c1.76,0,2.73.86,2.73,2.83v6.08h-.93Z"/><path class="cls-1" d="M689,36.64a3.79,3.79,0,0,1-3,1.24,2.91,2.91,0,0,1-3-2.9,2.87,2.87,0,0,1,3-2.88,3.73,3.73,0,0,1,3,1.24V31.58a2.07,2.07,0,0,0-2.34-2,3.4,3.4,0,0,0-2.72,1.28l-.52-.65a4.23,4.23,0,0,1,3.35-1.46c1.77,0,3.17.85,3.17,2.79v6.12H689Zm0-2.6a3.26,3.26,0,0,0-2.63-1.2,2.16,2.16,0,1,0,0,4.3A3.25,3.25,0,0,0,689,36Z"/><path class="cls-1" d="M692.81,25.65h.94v12h-.94Z"/><path class="cls-1" d="M467.91,281.55a6,6,0,0,1,6-6.21,5.42,5.42,0,0,1,4.41,2.12l-.86.56a4.38,4.38,0,0,0-3.55-1.75,5.28,5.28,0,0,0,0,10.55,4.4,4.4,0,0,0,3.55-1.74l.86.54a5.41,5.41,0,0,1-4.41,2.14A6,6,0,0,1,467.91,281.55Z"/><path class="cls-1" d="M486.29,286.27a4.41,4.41,0,0,1-3.13,1.49c-1.79,0-2.74-.83-2.74-2.79v-6.12h.94v5.9c0,1.7.84,2.16,2.1,2.16a3.75,3.75,0,0,0,2.83-1.44v-6.62h.94v8.69h-.94Z"/><path class="cls-1" d="M490.14,275.53h.94v12h-.94Z"/><path class="cls-1" d="M494.17,285.87v-6.19h-1.44v-.83h1.44v-2.38h1v2.38h1.76v.83h-1.76v6.05c0,.7.28,1.18.9,1.18a1.35,1.35,0,0,0,1-.41l.36.72a2,2,0,0,1-1.48.54C494.73,287.76,494.17,287.06,494.17,285.87Z"/><path class="cls-1" d="M498.69,276.65a.74.74,0,0,1,.72-.72.72.72,0,1,1-.72.72Zm.25,2.2h.94v8.69h-.94Z"/><path class="cls-1" d="M501.46,278.85h1l3.17,7.6,3.14-7.6h1.06l-3.67,8.69h-1.07Z"/><path class="cls-1" d="M511,283.19c0-2.54,1.64-4.56,4.17-4.56s4.2,2,4.2,4.56-1.62,4.57-4.2,4.57S511,285.73,511,283.19Zm7.36,0c0-1.93-1.13-3.71-3.19-3.71s-3.16,1.78-3.16,3.71,1.15,3.72,3.16,3.72S518.31,285.13,518.31,283.19Z"/><path class="cls-1" d="M532.8,286.16a3.7,3.7,0,0,1-3,1.6c-2.31,0-3.89-1.76-3.89-4.55s1.58-4.58,3.89-4.58a3.68,3.68,0,0,1,3,1.62v-4.72h1v12h-1Zm0-5.1a3.48,3.48,0,0,0-2.86-1.58c-1.93,0-3,1.62-3,3.73s1.11,3.7,3,3.7a3.5,3.5,0,0,0,2.86-1.54Z"/><path class="cls-1" d="M540.36,278.63c2.65,0,4.11,2.11,4.11,4.61v.25h-7.28A3.39,3.39,0,0,0,540.6,287a3.8,3.8,0,0,0,2.84-1.21l.49.62a4.51,4.51,0,0,1-3.41,1.4,4.58,4.58,0,0,1-.16-9.13Zm-3.17,4.13h6.32a3.19,3.19,0,0,0-3.17-3.32A3.27,3.27,0,0,0,537.19,282.76Z"/><path class="cls-1" d="M551.54,278.85h.93v1.49a3.74,3.74,0,0,1,2.94-1.67v1a2.37,2.37,0,0,0-.47,0,3.32,3.32,0,0,0-2.47,1.55v6.33h-.93Z"/><path class="cls-1" d="M560.93,278.63c2.65,0,4.11,2.11,4.11,4.61v.25h-7.27a3.39,3.39,0,0,0,3.4,3.46,3.77,3.77,0,0,0,2.84-1.21l.49.62a4.47,4.47,0,0,1-3.4,1.4,4.58,4.58,0,0,1-.17-9.13Zm-3.16,4.13h6.32a3.19,3.19,0,0,0-3.17-3.32A3.27,3.27,0,0,0,557.77,282.76Z"/><path class="cls-1" d="M567.45,275.53h.94v12h-.94Z"/><path class="cls-1" d="M576.83,286.52a3.8,3.8,0,0,1-3,1.24,2.92,2.92,0,0,1-3-2.9,2.88,2.88,0,0,1,3-2.88,3.79,3.79,0,0,1,3,1.24v-1.76a2.07,2.07,0,0,0-2.34-2,3.39,3.39,0,0,0-2.72,1.28l-.52-.65a4.23,4.23,0,0,1,3.35-1.46c1.76,0,3.17.85,3.17,2.79v6.12h-.94Zm0-2.59a3.25,3.25,0,0,0-2.63-1.21,2.16,2.16,0,1,0,0,4.3,3.23,3.23,0,0,0,2.63-1.19Z"/><path class="cls-1" d="M586.84,285.69l.65.58a3.52,3.52,0,0,1-2.8,1.49l-.3.81a1.12,1.12,0,0,1,.67-.22,1.11,1.11,0,0,1,1.18,1.14c0,.9-.81,1.46-1.82,1.46a3,3,0,0,1-1.74-.52l.29-.58a2.26,2.26,0,0,0,1.44.5c.63,0,1.17-.29,1.17-.86,0-.38-.24-.65-.74-.65a1,1,0,0,0-.72.31l-.51-.29.42-1.12a4.59,4.59,0,0,1,.38-9.11,3.61,3.61,0,0,1,3.08,1.48l-.65.57a2.77,2.77,0,0,0-2.38-1.2c-2,0-3.28,1.62-3.28,3.71s1.25,3.72,3.28,3.72A2.79,2.79,0,0,0,586.84,285.69Z"/><path class="cls-1" d="M589.07,283.19c0-2.54,1.64-4.56,4.17-4.56s4.2,2,4.2,4.56-1.62,4.57-4.2,4.57S589.07,285.73,589.07,283.19Zm7.36,0c0-1.93-1.13-3.71-3.19-3.71s-3.16,1.78-3.16,3.71,1.15,3.72,3.16,3.72S596.43,285.13,596.43,283.19Zm-4.34-7.47c-.54,0-1,.52-1,1.74h-.63c0-1.35.59-2.41,1.67-2.41.72,0,1.05.54,1.35,1s.47.79.9.79,1-.52,1-1.72H596c0,1.35-.58,2.41-1.66,2.41-.76,0-1.06-.54-1.37-1.05S592.52,275.72,592.09,275.72Z"/><path class="cls-1" d="M603.54,278.63c2.65,0,4.11,2.11,4.11,4.61v.25h-7.28a3.39,3.39,0,0,0,3.4,3.46,3.81,3.81,0,0,0,2.85-1.21l.49.62a4.51,4.51,0,0,1-3.41,1.4,4.58,4.58,0,0,1-.16-9.13Zm-3.17,4.13h6.32a3.19,3.19,0,0,0-3.17-3.32A3.27,3.27,0,0,0,600.37,282.76Z"/><path class="cls-1" d="M609.86,285.69a3.63,3.63,0,0,0,2.81,1.28c1.45,0,2.32-.72,2.32-1.73s-1.19-1.44-2.43-1.77c-1.46-.36-3.06-.73-3.06-2.43,0-1.33,1.13-2.41,3.09-2.41a4,4,0,0,1,3.12,1.28l-.52.67a3.17,3.17,0,0,0-2.6-1.16c-1.35,0-2.17.67-2.17,1.57s1.11,1.26,2.32,1.57c1.49.37,3.17.79,3.17,2.64,0,1.41-1.08,2.56-3.26,2.56a4.18,4.18,0,0,1-3.35-1.37Z"/><path class="cls-1" d="M629.39,286.16a3.7,3.7,0,0,1-3,1.6c-2.3,0-3.88-1.76-3.88-4.55s1.58-4.58,3.88-4.58a3.69,3.69,0,0,1,3,1.62v-4.72h1v12h-1Zm0-5.1a3.48,3.48,0,0,0-2.86-1.58c-1.93,0-3,1.62-3,3.73s1.12,3.7,3,3.7a3.5,3.5,0,0,0,2.86-1.54Z"/><path class="cls-1" d="M637,278.63c2.65,0,4.1,2.11,4.1,4.61v.25h-7.27a3.39,3.39,0,0,0,3.4,3.46,3.81,3.81,0,0,0,2.85-1.21l.48.62a4.47,4.47,0,0,1-3.4,1.4,4.58,4.58,0,0,1-.16-9.13Zm-3.17,4.13h6.32a3.19,3.19,0,0,0-3.17-3.32A3.27,3.27,0,0,0,633.78,282.76Z"/><path class="cls-1" d="M648.13,275.53h.93v12h-.93Z"/><path class="cls-1" d="M651.47,283.19c0-2.54,1.64-4.56,4.18-4.56s4.2,2,4.2,4.56-1.62,4.57-4.2,4.57S651.47,285.73,651.47,283.19Zm7.37,0c0-1.93-1.14-3.71-3.19-3.71s-3.17,1.78-3.17,3.71,1.15,3.72,3.17,3.72S658.84,285.13,658.84,283.19Z"/><path class="cls-1" d="M668.13,281.66c0-1.68-.85-2.18-2.11-2.18a3.73,3.73,0,0,0-2.83,1.49v6.57h-.93v-8.69h.93v1.31a4.42,4.42,0,0,1,3.13-1.53c1.77,0,2.74.87,2.74,2.83v6.08h-.93Z"/><path class="cls-1" d="M672.53,289a3.34,3.34,0,0,0,2.88,1.22c1.59,0,3-.79,3-2.79V286.1a3.76,3.76,0,0,1-3,1.62c-2.3,0-3.89-1.74-3.89-4.53s1.59-4.56,3.89-4.56a3.71,3.71,0,0,1,3,1.62v-1.4h1v8.6c0,2.67-1.8,3.62-3.93,3.62a4.2,4.2,0,0,1-3.42-1.31Zm5.86-8a3.53,3.53,0,0,0-2.87-1.58c-1.92,0-3,1.6-3,3.71s1.12,3.69,3,3.69a3.51,3.51,0,0,0,2.87-1.59Z"/><path class="cls-1" d="M681.73,283.19c0-2.54,1.64-4.56,4.18-4.56s4.19,2,4.19,4.56-1.62,4.57-4.19,4.57S681.73,285.73,681.73,283.19Zm7.37,0c0-1.93-1.14-3.71-3.19-3.71s-3.17,1.78-3.17,3.71,1.15,3.72,3.17,3.72S689.1,285.13,689.1,283.19Z"/><path class="cls-1" d="M697.18,290.86v-12h.93v1.37a3.72,3.72,0,0,1,3-1.59c2.32,0,3.89,1.77,3.89,4.56s-1.57,4.57-3.89,4.57a3.71,3.71,0,0,1-3-1.62v4.72Zm3.8-11.38a3.53,3.53,0,0,0-2.87,1.55v4.3a3.55,3.55,0,0,0,2.87,1.58c1.94,0,3-1.62,3-3.72S702.92,279.48,701,279.48Z"/><path class="cls-1" d="M707.43,278.85h.94v1.49a3.74,3.74,0,0,1,2.94-1.67v1a2.42,2.42,0,0,0-.47,0,3.32,3.32,0,0,0-2.47,1.55v6.33h-.94Z"/><path class="cls-1" d="M718.67,286.52a3.82,3.82,0,0,1-2.95,1.24,2.92,2.92,0,0,1-3.05-2.9,2.88,2.88,0,0,1,3.05-2.88,3.79,3.79,0,0,1,2.95,1.24v-1.76a2.07,2.07,0,0,0-2.34-2,3.39,3.39,0,0,0-2.72,1.28l-.52-.65a4.23,4.23,0,0,1,3.35-1.46c1.76,0,3.17.85,3.17,2.79v6.12h-.94Zm0-2.59a3.25,3.25,0,0,0-2.63-1.21,2.16,2.16,0,1,0,0,4.3,3.23,3.23,0,0,0,2.63-1.19Z"/><path class="cls-1" d="M722.07,286.77l5.15-7.09h-5.15v-.83h6.36v.75l-5.21,7.12h5.28v.82h-6.43Z"/><path class="cls-1" d="M730.46,283.19c0-2.54,1.64-4.56,4.17-4.56s4.2,2,4.2,4.56-1.62,4.57-4.2,4.57S730.46,285.73,730.46,283.19Zm7.36,0c0-1.93-1.13-3.71-3.19-3.71s-3.16,1.78-3.16,3.71,1.15,3.72,3.16,3.72S737.82,285.13,737.82,283.19Z"/><path class="cls-1" d="M472.05,300.23a3.6,3.6,0,0,1,3.08,1.48l-.65.57a2.75,2.75,0,0,0-2.38-1.2c-2,0-3.27,1.62-3.27,3.71s1.24,3.72,3.27,3.72a2.77,2.77,0,0,0,2.38-1.22l.65.58a3.56,3.56,0,0,1-3.08,1.49,4.58,4.58,0,0,1,0-9.13Z"/><path class="cls-1" d="M476.71,304.79c0-2.54,1.64-4.56,4.18-4.56s4.19,2,4.19,4.56-1.62,4.57-4.19,4.57S476.71,307.33,476.71,304.79Zm7.37,0c0-1.93-1.14-3.71-3.19-3.71s-3.17,1.78-3.17,3.71,1.15,3.72,3.17,3.72S484.08,306.73,484.08,304.79Z"/><path class="cls-1" d="M497.85,303.06c0-1.23-.53-2-1.75-2a3.2,3.2,0,0,0-2.48,1.47v6.59h-1v-6.08c0-1.23-.5-2-1.74-2a3.34,3.34,0,0,0-2.49,1.49v6.57h-.94v-8.69h.94v1.31a3.82,3.82,0,0,1,2.81-1.53,2.19,2.19,0,0,1,2.29,1.64,3.6,3.6,0,0,1,2.88-1.64c1.6,0,2.37.9,2.37,2.65v6.26h-.93Z"/><path class="cls-1" d="M512.23,303.26c0-1.68-.85-2.18-2.11-2.18a3.75,3.75,0,0,0-2.83,1.49v6.57h-.93v-8.69h.93v1.31a4.45,4.45,0,0,1,3.14-1.53c1.76,0,2.73.86,2.73,2.83v6.08h-.93Z"/><path class="cls-1" d="M515.57,304.79c0-2.54,1.64-4.56,4.18-4.56s4.2,2,4.2,4.56-1.62,4.57-4.2,4.57S515.57,307.33,515.57,304.79Zm7.37,0c0-1.93-1.14-3.71-3.19-3.71s-3.17,1.78-3.17,3.71,1.15,3.72,3.17,3.72S522.94,306.73,522.94,304.79Z"/><path class="cls-1" d="M526.16,307.29a3.63,3.63,0,0,0,2.81,1.28c1.46,0,2.32-.72,2.32-1.73s-1.19-1.44-2.43-1.77c-1.46-.36-3.06-.73-3.06-2.43,0-1.33,1.13-2.41,3.09-2.41a4,4,0,0,1,3.12,1.28l-.52.67a3.17,3.17,0,0,0-2.6-1.16c-1.35,0-2.17.67-2.17,1.57s1.11,1.26,2.32,1.57c1.49.37,3.17.79,3.17,2.64,0,1.41-1.08,2.56-3.26,2.56A4.18,4.18,0,0,1,525.6,308Z"/><path class="cls-1" d="M534.42,307.29a3.63,3.63,0,0,0,2.81,1.28c1.46,0,2.32-.72,2.32-1.73s-1.19-1.44-2.43-1.77c-1.46-.36-3.06-.73-3.06-2.43,0-1.33,1.13-2.41,3.1-2.41a4,4,0,0,1,3.11,1.28l-.52.67a3.15,3.15,0,0,0-2.59-1.16c-1.35,0-2.18.67-2.18,1.57s1.11,1.26,2.32,1.57c1.5.37,3.17.79,3.17,2.64,0,1.41-1.08,2.56-3.26,2.56a4.21,4.21,0,0,1-3.35-1.37Z"/><path class="cls-1" d="M542.38,304.79c0-2.54,1.63-4.56,4.17-4.56s4.2,2,4.2,4.56-1.62,4.57-4.2,4.57S542.38,307.33,542.38,304.79Zm7.36,0c0-1.93-1.13-3.71-3.19-3.71s-3.17,1.78-3.17,3.71,1.16,3.72,3.17,3.72S549.74,306.73,549.74,304.79Z"/><path class="cls-1" d="M553,307.29a3.63,3.63,0,0,0,2.81,1.28c1.46,0,2.32-.72,2.32-1.73s-1.19-1.44-2.43-1.77c-1.46-.36-3.06-.73-3.06-2.43,0-1.33,1.13-2.41,3.1-2.41a4,4,0,0,1,3.11,1.28l-.52.67A3.15,3.15,0,0,0,555.7,301c-1.35,0-2.18.67-2.18,1.57s1.11,1.26,2.32,1.57c1.5.37,3.17.79,3.17,2.64,0,1.41-1.08,2.56-3.26,2.56A4.21,4.21,0,0,1,552.4,308Z"/><path class="cls-1" d="M569.81,300.23a3.6,3.6,0,0,1,3.08,1.48l-.65.57a2.75,2.75,0,0,0-2.38-1.2c-2,0-3.27,1.62-3.27,3.71s1.24,3.72,3.27,3.72a2.77,2.77,0,0,0,2.38-1.22l.65.58a3.56,3.56,0,0,1-3.08,1.49,4.58,4.58,0,0,1,0-9.13Z"/><path class="cls-1" d="M575,297.13h.94v12H575Z"/><path class="cls-1" d="M578.57,298.25a.74.74,0,0,1,.72-.72.72.72,0,0,1,0,1.44A.74.74,0,0,1,578.57,298.25Zm.25,2.2h.94v8.69h-.94Z"/><path class="cls-1" d="M586.37,300.23c2.64,0,4.1,2.11,4.1,4.61v.25H583.2a3.39,3.39,0,0,0,3.4,3.46,3.84,3.84,0,0,0,2.85-1.21l.48.62a4.47,4.47,0,0,1-3.4,1.4,4.58,4.58,0,0,1-.16-9.13Zm-3.17,4.12h6.32a3.19,3.19,0,0,0-3.17-3.31A3.27,3.27,0,0,0,583.2,304.35Z"/><path class="cls-1" d="M598.75,303.26c0-1.68-.84-2.18-2.1-2.18a3.73,3.73,0,0,0-2.83,1.49v6.57h-.94v-8.69h.94v1.31a4.42,4.42,0,0,1,3.13-1.53c1.77,0,2.74.86,2.74,2.83v6.08h-.94Z"/><path class="cls-1" d="M602.78,307.47v-6.19h-1.44v-.83h1.44v-2.38h1v2.38h1.76v.83h-1.76v6.05c0,.7.28,1.18.9,1.18a1.35,1.35,0,0,0,1-.41l.36.72a2,2,0,0,1-1.48.54C603.34,309.36,602.78,308.66,602.78,307.47Z"/><path class="cls-1" d="M611.24,300.23c2.65,0,4.11,2.11,4.11,4.61v.25h-7.28a3.4,3.4,0,0,0,3.41,3.46,3.82,3.82,0,0,0,2.84-1.21l.49.62a4.49,4.49,0,0,1-3.4,1.4,4.58,4.58,0,0,1-.17-9.13Zm-3.17,4.12h6.32a3.18,3.18,0,0,0-3.16-3.31A3.28,3.28,0,0,0,608.07,304.35Z"/><path class="cls-1" d="M617.56,307.29a3.63,3.63,0,0,0,2.81,1.28c1.46,0,2.32-.72,2.32-1.73s-1.19-1.44-2.43-1.77c-1.46-.36-3.06-.73-3.06-2.43,0-1.33,1.13-2.41,3.1-2.41a4,4,0,0,1,3.11,1.28l-.52.67A3.15,3.15,0,0,0,620.3,301c-1.35,0-2.18.67-2.18,1.57s1.11,1.26,2.32,1.57c1.5.37,3.17.79,3.17,2.64,0,1.41-1.08,2.56-3.26,2.56A4.21,4.21,0,0,1,617,308Z"/><circle class="cls-2" cx="427.4" cy="22.1" r="7"/><circle class="cls-2" cx="427.4" cy="119.98" r="7"/><circle class="cls-2" cx="427.4" cy="206.88" r="7"/><circle class="cls-2" cx="427.4" cy="293.58" r="7"/><circle class="cls-2" cx="427.4" cy="384.08" r="7"/><g class="cls-3"><path class="cls-4" d="M318.69,260.21c-1,0-1.94,0-2.91-.07l-.94-.05c-.66,0-1.32-.08-2-.14l-1.05-.09c-.82-.09-1.63-.19-2.44-.3l-1.68-.27-.87-.15a66.2,66.2,0,0,1-11.64-3.22L253,329.18l-.47,1.38v67.59c7.88,0,20.17.93,27.93-11.48l81.17-142.11s0-.13-.07-.07a65.6,65.6,0,0,1-24.45,13.14A66.65,66.65,0,0,1,318.69,260.21Z"/><path class="cls-4" d="M271.87,147.19A66,66,0,0,1,295.5,132c.06,0,0-.16,0-.16l-57.91-30.19c9.66,68.88-20.32,128.56-42.3,172.31-1,2.07-18.22,35.95-20.25,47.13-3.43,18.86.2,77.1.2,77.1h44.13V322.28l.8-4.13L268,236.59a66.2,66.2,0,0,1,3.87-89.4Z"/><path class="cls-4" d="M361.06,181.69c-.21-.72-.43-1.43-.68-2.14s-.5-1.41-.78-2.11a44.21,44.21,0,0,0-5.31-9.52c-.43-.6-.89-1.19-1.36-1.77a43.21,43.21,0,0,0-3-3.35c-.72-.72-1.46-1.42-2.23-2.08a45.21,45.21,0,0,0-4.78-3.63c-.83-.54-1.68-1.06-2.54-1.55h0a44,44,0,0,0-21.66-5.67c-1.39,0-2.77.07-4.14.19a43.8,43.8,0,0,0-8.56,1.67h0a43.84,43.84,0,0,0-18.52,11.07,44.48,44.48,0,0,0-6.69,8.55,43.56,43.56,0,0,0-4.34,9.8,41.87,41.87,0,0,0-1.05,4.18,44.66,44.66,0,0,0-.84,8.68h0a43.87,43.87,0,0,0,12.92,31.21,48.19,48.19,0,0,0,3.79,3.38,44.29,44.29,0,0,0,10,6,43.29,43.29,0,0,0,7.9,2.53c.54.12,1.09.23,1.63.33l.59.1,1.12.18,1.62.2.7.06,1.32.1.63,0c.64,0,1.29,0,1.94,0a44.18,44.18,0,0,0,42.37-56.45Z"/><circle class="cls-4" cx="37.05" cy="255.97" r="34.38"/><path class="cls-4" d="M37.05,305.75a49.65,49.65,0,0,1-36-15.41s0,0,0,0L51,387.15a22.63,22.63,0,0,0,19.42,11h5.53l0-81.38L74.6,314,60.88,299.66h0A49.49,49.49,0,0,1,37.05,305.75Z"/><path class="cls-4" d="M132.43,260.72c-7.45-26.05-29.49-49.21-46.84-68.93l-1-1.2C74.66,179.35,66.4,168.35,61.15,161L13.87,211.72s-.06.24.1.15A49.92,49.92,0,0,1,87,256a49.35,49.35,0,0,1-6.41,24.35L102.19,303l1.32,2.76v92.42h33.1S144.89,304.35,132.43,260.72Z"/><path class="cls-5" d="M156.25,124.56c-4.33-32.22-12.08-55-17-66.92-3.6-8.83-9.9-17.77-13.4-22.41q-2.31-3,.13-.11c3.71,4.46,10.48,13,15,21.39,6.17,11.32,14.18,30.43,22.07,62,14.33,57.3,9.31,129.91,4,173.8,25.34-58.09,63.69-113.86,52.25-191.39C211.15,47.8,129,11.15,107.24,1.07,73.62,35.18,43.65,97.25,69.91,141.72c25.37,37.91,70.29,68.91,84.39,132.74C159.09,232.6,163,174.53,156.25,124.56Z"/></g></g></g></svg>