<svg xmlns="http://www.w3.org/2000/svg" viewBox="0 0 776.47 442.59"><defs><style>.cls-1{fill:#fff;}.cls-2{fill:#75b848;stroke-miterlimit:10;stroke-width:2.5px;}.cls-2,.cls-4{stroke:#fff;}.cls-3{opacity:0.76;}.cls-4,.cls-5{fill:none;stroke-linejoin:round;stroke-width:2.14px;}.cls-5{stroke:#75b848;}</style></defs><g id="Camada_2" data-name="Camada 2"><g id="Conteúdo"><path class="cls-1" d="M1.68,407.16h4.5a3.51,3.51,0,1,1,0,7H2.7v5h-1Zm4.39.93H2.7v5.15H6.07a2.58,2.58,0,1,0,0-5.15Z" transform="translate(-0.95 -2.39)"/><path class="cls-1" d="M17.09,418.14a3.79,3.79,0,0,1-3,1.24,2.91,2.91,0,0,1-3-2.9,2.87,2.87,0,0,1,3-2.88,3.8,3.8,0,0,1,3,1.24v-1.76a2.07,2.07,0,0,0-2.34-2A3.39,3.39,0,0,0,12,412.36l-.52-.65a4.21,4.21,0,0,1,3.34-1.46c1.77,0,3.17.85,3.17,2.79v6.13h-.93Zm0-2.59a3.25,3.25,0,0,0-2.63-1.21,2.16,2.16,0,1,0,0,4.3,3.26,3.26,0,0,0,2.63-1.18Z" transform="translate(-0.95 -2.39)"/><path class="cls-1" d="M20.69,408.27a.72.72,0,0,1,1.44,0,.72.72,0,0,1-1.44,0Zm.25,2.2h.93v8.7h-.93Z" transform="translate(-0.95 -2.39)"/><path class="cls-1" d="M27.65,415.33l-2.9,3.84H23.64l3.44-4.47-3.25-4.23H25l2.7,3.58,2.68-3.58h1.12l-3.24,4.23,3.44,4.47H30.53Z" transform="translate(-0.95 -2.39)"/><path class="cls-1" d="M38.94,418.14A3.78,3.78,0,0,1,36,419.38a2.91,2.91,0,0,1-3.05-2.9A2.88,2.88,0,0,1,36,413.6a3.79,3.79,0,0,1,2.95,1.24v-1.76a2.07,2.07,0,0,0-2.34-2,3.39,3.39,0,0,0-2.72,1.28l-.52-.65a4.23,4.23,0,0,1,3.35-1.46c1.76,0,3.17.85,3.17,2.79v6.13h-.94Zm0-2.59a3.25,3.25,0,0,0-2.63-1.21,2.16,2.16,0,1,0,0,4.3,3.26,3.26,0,0,0,2.63-1.18Zm-3.37-8.21c-.54,0-1,.52-1,1.74H34c0-1.35.59-2.41,1.67-2.41.72,0,1,.54,1.35,1s.47.8.9.8,1-.53,1-1.73h.65c0,1.35-.58,2.41-1.66,2.41-.76,0-1.06-.54-1.37-1S36,407.34,35.57,407.34Z" transform="translate(-0.95 -2.39)"/><path class="cls-1" d="M42.28,414.81c0-2.54,1.64-4.56,4.18-4.56s4.2,2,4.2,4.56-1.62,4.57-4.2,4.57S42.28,417.35,42.28,414.81Zm7.37,0c0-1.93-1.13-3.71-3.19-3.71s-3.17,1.78-3.17,3.71,1.16,3.73,3.17,3.73S49.65,416.75,49.65,414.81Z" transform="translate(-0.95 -2.39)"/><path class="cls-1" d="M57.73,422.48v-12h.94v1.37a3.73,3.73,0,0,1,3-1.59c2.32,0,3.89,1.77,3.89,4.56s-1.57,4.57-3.89,4.57a3.71,3.71,0,0,1-3-1.62v4.72Zm3.8-11.38a3.49,3.49,0,0,0-2.86,1.55V417a3.53,3.53,0,0,0,2.86,1.59c1.94,0,3-1.62,3-3.73S63.47,411.1,61.53,411.1Z" transform="translate(-0.95 -2.39)"/><path class="cls-1" d="M71.68,410.25c2.65,0,4.11,2.11,4.11,4.61v.26H68.51a3.38,3.38,0,0,0,3.4,3.45,3.84,3.84,0,0,0,2.85-1.2l.49.61a4.51,4.51,0,0,1-3.41,1.4,4.58,4.58,0,0,1-.16-9.13Zm-3.17,4.13h6.32a3.19,3.19,0,0,0-3.17-3.32A3.27,3.27,0,0,0,68.51,414.38Z" transform="translate(-0.95 -2.39)"/><path class="cls-1" d="M78.19,407.16h.94v12h-.94Z" transform="translate(-0.95 -2.39)"/><path class="cls-1" d="M81.54,414.81c0-2.54,1.64-4.56,4.18-4.56s4.2,2,4.2,4.56-1.63,4.57-4.2,4.57S81.54,417.35,81.54,414.81Zm7.37,0c0-1.93-1.14-3.71-3.19-3.71s-3.17,1.78-3.17,3.71,1.15,3.73,3.17,3.73S88.91,416.75,88.91,414.81Z" transform="translate(-0.95 -2.39)"/><path class="cls-1" d="M97.17,417.49V411.3H95.73v-.83h1.44v-2.38h1v2.38h1.77v.83H98.12v6.05c0,.7.29,1.19.9,1.19a1.32,1.32,0,0,0,1-.42l.36.72a1.91,1.91,0,0,1-1.47.54C97.73,419.38,97.17,418.68,97.17,417.49Z" transform="translate(-0.95 -2.39)"/><path class="cls-1" d="M101.94,410.47h.93V412a3.74,3.74,0,0,1,2.94-1.67v1a1.79,1.79,0,0,0-.47,0,3.32,3.32,0,0,0-2.47,1.55v6.34h-.93Z" transform="translate(-0.95 -2.39)"/><path class="cls-1" d="M113.17,418.14a3.77,3.77,0,0,1-3,1.24,2.89,2.89,0,1,1,0-5.78,3.79,3.79,0,0,1,3,1.24v-1.76a2.07,2.07,0,0,0-2.34-2,3.39,3.39,0,0,0-2.72,1.28l-.52-.65a4.23,4.23,0,0,1,3.35-1.46c1.76,0,3.17.85,3.17,2.79v6.13h-.94Zm0-2.59a3.24,3.24,0,0,0-2.63-1.21,2.16,2.16,0,1,0,0,4.3,3.24,3.24,0,0,0,2.63-1.18Z" transform="translate(-0.95 -2.39)"/><path class="cls-1" d="M117,407.16H118v4.71a3.71,3.71,0,0,1,3-1.62c2.33,0,3.89,1.82,3.89,4.58s-1.58,4.55-3.89,4.55a3.7,3.7,0,0,1-3-1.6v1.39H117Zm3.8,11.38c2,0,3-1.61,3-3.71s-1.09-3.73-3-3.73a3.54,3.54,0,0,0-2.86,1.58V417A3.49,3.49,0,0,0,120.82,418.54Z" transform="translate(-0.95 -2.39)"/><path class="cls-1" d="M132.83,418.14a3.79,3.79,0,0,1-3,1.24,2.91,2.91,0,0,1-3-2.9,2.87,2.87,0,0,1,3-2.88,3.8,3.8,0,0,1,3,1.24v-1.76a2.07,2.07,0,0,0-2.34-2,3.39,3.39,0,0,0-2.72,1.28l-.52-.65a4.21,4.21,0,0,1,3.34-1.46c1.77,0,3.17.85,3.17,2.79v6.13h-.93Zm0-2.59a3.25,3.25,0,0,0-2.63-1.21,2.16,2.16,0,1,0,0,4.3,3.26,3.26,0,0,0,2.63-1.18Z" transform="translate(-0.95 -2.39)"/><path class="cls-1" d="M136.68,407.16h.93v12h-.93Z" transform="translate(-0.95 -2.39)"/><path class="cls-1" d="M146.4,413.24c0-1.67-.85-2.14-2.11-2.14a3.71,3.71,0,0,0-2.82,1.49v6.58h-.94v-12h.94v4.62a4.42,4.42,0,0,1,3.13-1.53c1.76,0,2.74.83,2.74,2.79v6.13h-.94Z" transform="translate(-0.95 -2.39)"/><path class="cls-1" d="M149.74,414.81c0-2.54,1.64-4.56,4.18-4.56s4.2,2,4.2,4.56-1.62,4.57-4.2,4.57S149.74,417.35,149.74,414.81Zm7.37,0c0-1.93-1.13-3.71-3.19-3.71s-3.17,1.78-3.17,3.71,1.16,3.73,3.17,3.73S157.11,416.75,157.11,414.81Z" transform="translate(-0.95 -2.39)"/><path class="cls-1" d="M5.33,431.85c2.65,0,4.11,2.11,4.11,4.61v.25H2.16a3.39,3.39,0,0,0,3.41,3.46A3.8,3.8,0,0,0,8.41,439l.49.62A4.51,4.51,0,0,1,5.49,441a4.58,4.58,0,0,1-.16-9.13ZM2.16,436H8.48a3.19,3.19,0,0,0-3.17-3.32A3.27,3.27,0,0,0,2.16,436Z" transform="translate(-0.95 -2.39)"/><path class="cls-1" d="M16.54,428.76h1v12h-1Z" transform="translate(-0.95 -2.39)"/><path class="cls-1" d="M26.39,434.88c0-1.68-.84-2.18-2.1-2.18a3.73,3.73,0,0,0-2.83,1.49v6.58h-.94v-8.7h.94v1.31a4.42,4.42,0,0,1,3.13-1.53c1.77,0,2.74.87,2.74,2.83v6.09h-.94Z" transform="translate(-0.95 -2.39)"/><path class="cls-1" d="M30.42,439.09V432.9H29v-.83h1.44v-2.38h1v2.38h1.76v.83H31.38V439c0,.7.28,1.19.9,1.19a1.35,1.35,0,0,0,1-.42l.36.72a1.94,1.94,0,0,1-1.48.54C31,441,30.42,440.28,30.42,439.09Z" transform="translate(-0.95 -2.39)"/><path class="cls-1" d="M38.88,431.85c2.65,0,4.11,2.11,4.11,4.61v.25H35.71a3.39,3.39,0,0,0,3.41,3.46A3.79,3.79,0,0,0,42,439l.49.62a4.49,4.49,0,0,1-3.4,1.4,4.58,4.58,0,0,1-.17-9.13ZM35.71,436H42a3.18,3.18,0,0,0-3.16-3.32A3.28,3.28,0,0,0,35.71,436Z" transform="translate(-0.95 -2.39)"/><path class="cls-1" d="M46,442.26a3.32,3.32,0,0,0,2.88,1.22,2.65,2.65,0,0,0,3-2.79v-1.36a3.77,3.77,0,0,1-3,1.62c-2.3,0-3.89-1.75-3.89-4.54s1.59-4.56,3.89-4.56a3.69,3.69,0,0,1,3,1.62v-1.4h.95v8.61c0,2.66-1.8,3.61-3.92,3.61A4.17,4.17,0,0,1,45.42,443Zm5.85-8A3.52,3.52,0,0,0,49,432.7c-1.93,0-3.05,1.6-3.05,3.71S47,440.1,49,440.1a3.51,3.51,0,0,0,2.86-1.59Z" transform="translate(-0.95 -2.39)"/><path class="cls-1" d="M55.66,432.07h.93v1.49a3.74,3.74,0,0,1,2.94-1.67v1a1.79,1.79,0,0,0-.47,0,3.32,3.32,0,0,0-2.47,1.55v6.34h-.93Z" transform="translate(-0.95 -2.39)"/><path class="cls-1" d="M61.11,429.87a.74.74,0,0,1,.72-.72.72.72,0,1,1-.72.72Zm.25,2.2h.94v8.7h-.94Z" transform="translate(-0.95 -2.39)"/><path class="cls-1" d="M71.63,439.38a3.72,3.72,0,0,1-3,1.6c-2.3,0-3.89-1.76-3.89-4.55s1.59-4.58,3.89-4.58a3.71,3.71,0,0,1,3,1.62v-4.71h1v12h-1Zm0-5.1a3.5,3.5,0,0,0-2.87-1.58c-1.92,0-3,1.62-3,3.73s1.12,3.71,3,3.71a3.5,3.5,0,0,0,2.87-1.55Z" transform="translate(-0.95 -2.39)"/><path class="cls-1" d="M81,439.74a3.77,3.77,0,0,1-3,1.24,2.89,2.89,0,1,1,0-5.78,3.77,3.77,0,0,1,3,1.24v-1.76a2.07,2.07,0,0,0-2.34-2A3.39,3.39,0,0,0,76,434l-.52-.65a4.23,4.23,0,0,1,3.35-1.46c1.76,0,3.17.85,3.17,2.79v6.13H81Zm0-2.59a3.24,3.24,0,0,0-2.63-1.21,2.16,2.16,0,1,0,0,4.3A3.22,3.22,0,0,0,81,439.05Z" transform="translate(-0.95 -2.39)"/><path class="cls-1" d="M91.28,439.38a3.7,3.7,0,0,1-3,1.6c-2.31,0-3.89-1.76-3.89-4.55s1.58-4.58,3.89-4.58a3.68,3.68,0,0,1,3,1.62v-4.71h1v12h-1Zm0-5.1a3.48,3.48,0,0,0-2.86-1.58c-1.93,0-3,1.62-3,3.73s1.11,3.71,3,3.71a3.48,3.48,0,0,0,2.86-1.55Z" transform="translate(-0.95 -2.39)"/><path class="cls-1" d="M98.84,431.85c2.65,0,4.11,2.11,4.11,4.61v.25H95.67a3.39,3.39,0,0,0,3.41,3.46,3.8,3.8,0,0,0,2.84-1.21l.49.62A4.51,4.51,0,0,1,99,441a4.58,4.58,0,0,1-.16-9.13ZM95.67,436H102a3.19,3.19,0,0,0-3.17-3.32A3.27,3.27,0,0,0,95.67,436Z" transform="translate(-0.95 -2.39)"/><path class="cls-1" d="M625.75,173.27h7.61v.93h-6.59v4.45h6.47v.94h-6.47v5.69h-1Z" transform="translate(-0.95 -2.39)"/><path class="cls-1" d="M635,180.92c0-2.54,1.64-4.56,4.18-4.56s4.2,2,4.2,4.56-1.62,4.57-4.2,4.57S635,183.46,635,180.92Zm7.37,0c0-1.93-1.14-3.71-3.19-3.71S636,179,636,180.92s1.15,3.73,3.17,3.73S642.33,182.86,642.33,180.92Z" transform="translate(-0.95 -2.39)"/><path class="cls-1" d="M649.47,176.36a3.59,3.59,0,0,1,3.08,1.48l-.65.58a2.73,2.73,0,0,0-2.37-1.21c-2,0-3.28,1.62-3.28,3.71s1.24,3.73,3.28,3.73a2.75,2.75,0,0,0,2.37-1.23l.65.58a3.54,3.54,0,0,1-3.08,1.49,4.58,4.58,0,0,1,0-9.13Z" transform="translate(-0.95 -2.39)"/><path class="cls-1" d="M654.13,180.92c0-2.54,1.64-4.56,4.18-4.56s4.2,2,4.2,4.56-1.62,4.57-4.2,4.57S654.13,183.46,654.13,180.92Zm7.37,0c0-1.93-1.14-3.71-3.19-3.71s-3.17,1.78-3.17,3.71,1.15,3.73,3.17,3.73S661.5,182.86,661.5,180.92Z" transform="translate(-0.95 -2.39)"/><path class="cls-1" d="M675.45,179.39c0-1.68-.85-2.18-2.11-2.18a3.72,3.72,0,0,0-2.83,1.5v6.57h-.93v-8.7h.93v1.32a4.42,4.42,0,0,1,3.14-1.54c1.76,0,2.73.87,2.73,2.83v6.09h-.93Z" transform="translate(-0.95 -2.39)"/><path class="cls-1" d="M684.83,184.25a3.79,3.79,0,0,1-3,1.24,2.91,2.91,0,0,1-3-2.9,2.87,2.87,0,0,1,3-2.88,3.77,3.77,0,0,1,3,1.25v-1.77a2.08,2.08,0,0,0-2.35-2,3.37,3.37,0,0,0-2.71,1.28l-.53-.65a4.23,4.23,0,0,1,3.35-1.46c1.77,0,3.17.85,3.17,2.8v6.12h-.93Zm0-2.59a3.29,3.29,0,0,0-2.63-1.21,2.16,2.16,0,1,0,0,4.3,3.27,3.27,0,0,0,2.63-1.18Z" transform="translate(-0.95 -2.39)"/><path class="cls-1" d="M697,176.36c2.65,0,4.1,2.11,4.1,4.61v.26h-7.27a3.38,3.38,0,0,0,3.4,3.45,3.84,3.84,0,0,0,2.85-1.2l.48.61a4.47,4.47,0,0,1-3.4,1.4,4.58,4.58,0,0,1-.16-9.13Zm-3.17,4.13h6.32a3.19,3.19,0,0,0-3.17-3.32A3.28,3.28,0,0,0,693.86,180.49Z" transform="translate(-0.95 -2.39)"/><path class="cls-1" d="M705.94,181.44l-2.9,3.84h-1.12l3.44-4.47-3.24-4.23h1.12l2.7,3.58,2.68-3.58h1.12l-3.24,4.23,3.44,4.47h-1.12Z" transform="translate(-0.95 -2.39)"/><path class="cls-1" d="M714.78,176.36a3.61,3.61,0,0,1,3.08,1.48l-.65.58a2.74,2.74,0,0,0-2.38-1.21c-2,0-3.27,1.62-3.27,3.71s1.24,3.73,3.27,3.73a2.76,2.76,0,0,0,2.38-1.23l.65.58a3.57,3.57,0,0,1-3.08,1.49,4.58,4.58,0,0,1,0-9.13Z" transform="translate(-0.95 -2.39)"/><path class="cls-1" d="M723.63,176.36c2.65,0,4.11,2.11,4.11,4.61v.26h-7.28a3.39,3.39,0,0,0,3.41,3.45,3.81,3.81,0,0,0,2.84-1.2l.49.61a4.49,4.49,0,0,1-3.4,1.4,4.58,4.58,0,0,1-.17-9.13Zm-3.17,4.13h6.32a3.18,3.18,0,0,0-3.16-3.32A3.29,3.29,0,0,0,720.46,180.49Z" transform="translate(-0.95 -2.39)"/><path class="cls-1" d="M730.15,173.27h.93v12h-.93Z" transform="translate(-0.95 -2.39)"/><path class="cls-1" d="M737.69,176.36c2.65,0,4.11,2.11,4.11,4.61v.26h-7.28a3.39,3.39,0,0,0,3.41,3.45,3.83,3.83,0,0,0,2.84-1.2l.49.61a4.51,4.51,0,0,1-3.41,1.4,4.58,4.58,0,0,1-.16-9.13Zm-3.17,4.13h6.32a3.19,3.19,0,0,0-3.17-3.32A3.28,3.28,0,0,0,734.52,180.49Zm3.15-7.26-1.53,2h-.7l1.75-2.6h1l1.78,2.6h-.72Z" transform="translate(-0.95 -2.39)"/><path class="cls-1" d="M750.08,179.39c0-1.68-.85-2.18-2.11-2.18a3.71,3.71,0,0,0-2.83,1.5v6.57h-.93v-8.7h.93v1.32a4.41,4.41,0,0,1,3.13-1.54c1.77,0,2.74.87,2.74,2.83v6.09h-.93Z" transform="translate(-0.95 -2.39)"/><path class="cls-1" d="M757.65,176.36a3.59,3.59,0,0,1,3.08,1.48l-.65.58a2.73,2.73,0,0,0-2.37-1.21c-2,0-3.28,1.62-3.28,3.71s1.24,3.73,3.28,3.73a2.75,2.75,0,0,0,2.37-1.23l.65.58a3.54,3.54,0,0,1-3.08,1.49,4.58,4.58,0,0,1,0-9.13Z" transform="translate(-0.95 -2.39)"/><path class="cls-1" d="M762.56,174.38a.75.75,0,0,1,.73-.72.72.72,0,1,1,0,1.44A.74.74,0,0,1,762.56,174.38Zm.26,2.2h.93v8.7h-.93Z" transform="translate(-0.95 -2.39)"/><path class="cls-1" d="M772.2,184.25a3.79,3.79,0,0,1-3,1.24,2.91,2.91,0,0,1-3-2.9,2.87,2.87,0,0,1,3-2.88,3.77,3.77,0,0,1,3,1.25v-1.77a2.08,2.08,0,0,0-2.34-2,3.39,3.39,0,0,0-2.72,1.28l-.53-.65a4.25,4.25,0,0,1,3.35-1.46c1.77,0,3.17.85,3.17,2.8v6.12h-.93Zm0-2.59a3.29,3.29,0,0,0-2.63-1.21,2.16,2.16,0,1,0,0,4.3,3.27,3.27,0,0,0,2.63-1.18Z" transform="translate(-0.95 -2.39)"/><path class="cls-1" d="M629.4,198c2.65,0,4.11,2.11,4.11,4.61v.26h-7.28a3.39,3.39,0,0,0,3.41,3.45,3.81,3.81,0,0,0,2.84-1.2l.49.61a4.49,4.49,0,0,1-3.41,1.4,4.58,4.58,0,0,1-.16-9.13Zm-3.17,4.13h6.32a3.18,3.18,0,0,0-3.16-3.32A3.29,3.29,0,0,0,626.23,202.09Z" transform="translate(-0.95 -2.39)"/><path class="cls-1" d="M647,210.19v-4.72a3.68,3.68,0,0,1-3,1.62c-2.33,0-3.89-1.8-3.89-4.57S641.64,198,644,198a3.74,3.74,0,0,1,3,1.59v-1.37h1v12Zm0-9.83a3.51,3.51,0,0,0-2.86-1.55c-1.93,0-3,1.6-3,3.71s1.12,3.73,3,3.73a3.54,3.54,0,0,0,2.86-1.59Z" transform="translate(-0.95 -2.39)"/><path class="cls-1" d="M656.71,205.6a4.41,4.41,0,0,1-3.13,1.49c-1.79,0-2.74-.83-2.74-2.79v-6.12h.94v5.91c0,1.69.84,2.16,2.1,2.16a3.78,3.78,0,0,0,2.83-1.44v-6.63h.94v8.7h-.94Z" transform="translate(-0.95 -2.39)"/><path class="cls-1" d="M666.09,205.85a3.79,3.79,0,0,1-3,1.24,2.91,2.91,0,0,1-3-2.9,2.87,2.87,0,0,1,3-2.88,3.77,3.77,0,0,1,3,1.25v-1.77a2.08,2.08,0,0,0-2.34-2,3.39,3.39,0,0,0-2.72,1.28l-.52-.65a4.21,4.21,0,0,1,3.34-1.46c1.77,0,3.17.85,3.17,2.79v6.13h-.93Zm0-2.59a3.28,3.28,0,0,0-2.63-1.21,2.16,2.16,0,1,0,0,4.3,3.26,3.26,0,0,0,2.63-1.18Z" transform="translate(-0.95 -2.39)"/><path class="cls-1" d="M669.94,194.87h.93v12h-.93Z" transform="translate(-0.95 -2.39)"/><path class="cls-1" d="M673.54,196a.72.72,0,0,1,1.44,0,.72.72,0,1,1-1.44,0Zm.25,2.2h.94v8.7h-.94Z" transform="translate(-0.95 -2.39)"/><path class="cls-1" d="M684.05,205.49a3.7,3.7,0,0,1-3,1.6c-2.31,0-3.89-1.76-3.89-4.55S678.72,198,681,198a3.68,3.68,0,0,1,3,1.62v-4.71h1v12h-1Zm0-5.09a3.46,3.46,0,0,0-2.86-1.59c-1.93,0-3,1.62-3,3.73s1.11,3.71,3,3.71a3.48,3.48,0,0,0,2.86-1.55Z" transform="translate(-0.95 -2.39)"/><path class="cls-1" d="M693.45,205.85a3.79,3.79,0,0,1-3,1.24,2.91,2.91,0,0,1-3-2.9,2.87,2.87,0,0,1,3-2.88,3.77,3.77,0,0,1,3,1.25v-1.77a2.08,2.08,0,0,0-2.34-2,3.39,3.39,0,0,0-2.72,1.28l-.53-.65a4.25,4.25,0,0,1,3.35-1.46c1.77,0,3.17.85,3.17,2.79v6.13h-.93Zm0-2.59a3.29,3.29,0,0,0-2.63-1.21,2.16,2.16,0,1,0,0,4.3,3.27,3.27,0,0,0,2.63-1.18Z" transform="translate(-0.95 -2.39)"/><path class="cls-1" d="M703.71,205.49a3.72,3.72,0,0,1-3,1.6c-2.3,0-3.89-1.76-3.89-4.55s1.59-4.58,3.89-4.58a3.71,3.71,0,0,1,3,1.62v-4.71h.95v12h-.95Zm0-5.09a3.48,3.48,0,0,0-2.87-1.59c-1.92,0-3,1.62-3,3.73s1.12,3.71,3,3.71a3.5,3.5,0,0,0,2.87-1.55Z" transform="translate(-0.95 -2.39)"/><path class="cls-1" d="M711.27,198c2.64,0,4.1,2.11,4.1,4.61v.26H708.1a3.38,3.38,0,0,0,3.4,3.45,3.84,3.84,0,0,0,2.85-1.2l.48.61a4.47,4.47,0,0,1-3.4,1.4,4.58,4.58,0,0,1-.16-9.13Zm-3.17,4.13h6.32a3.19,3.19,0,0,0-3.17-3.32A3.28,3.28,0,0,0,708.1,202.09Z" transform="translate(-0.95 -2.39)"/><path class="cls-1" d="M573.07,418.2h-2.64v5h-1v-12h4.49a3.4,3.4,0,0,1,3.65,3.51,3.32,3.32,0,0,1-3.33,3.46l3.47,5h-1.24Zm.72-6.11h-3.36v5.17h3.36a2.59,2.59,0,1,0,0-5.17Z" transform="translate(-0.95 -2.39)"/><path class="cls-1" d="M583.21,414.25c2.64,0,4.1,2.11,4.1,4.61v.26H580a3.38,3.38,0,0,0,3.4,3.45,3.84,3.84,0,0,0,2.85-1.2l.48.61a4.47,4.47,0,0,1-3.4,1.4,4.58,4.58,0,0,1-.16-9.13ZM580,418.38h6.32a3.19,3.19,0,0,0-3.17-3.32A3.28,3.28,0,0,0,580,418.38Z" transform="translate(-0.95 -2.39)"/><path class="cls-1" d="M589.52,421.31a3.64,3.64,0,0,0,2.81,1.28c1.46,0,2.33-.72,2.33-1.73s-1.19-1.44-2.43-1.76c-1.46-.36-3.07-.74-3.07-2.43,0-1.34,1.14-2.42,3.1-2.42a4,4,0,0,1,3.12,1.28l-.53.67a3.14,3.14,0,0,0-2.59-1.15c-1.35,0-2.18.66-2.18,1.56s1.12,1.26,2.33,1.57c1.49.38,3.16.79,3.16,2.65,0,1.4-1.08,2.55-3.25,2.55A4.18,4.18,0,0,1,589,422Z" transform="translate(-0.95 -2.39)"/><path class="cls-1" d="M598,426.48v-12h.94v1.37a3.75,3.75,0,0,1,3-1.59c2.32,0,3.89,1.77,3.89,4.56s-1.57,4.57-3.89,4.57a3.71,3.71,0,0,1-3-1.62v4.72Zm3.8-11.38a3.52,3.52,0,0,0-2.86,1.55V421a3.56,3.56,0,0,0,2.86,1.59c2,0,3.05-1.62,3.05-3.73S603.73,415.1,601.78,415.1Z" transform="translate(-0.95 -2.39)"/><path class="cls-1" d="M611.94,414.25c2.64,0,4.1,2.11,4.1,4.61v.26h-7.27a3.38,3.38,0,0,0,3.4,3.45,3.84,3.84,0,0,0,2.85-1.2l.48.61a4.47,4.47,0,0,1-3.4,1.4,4.58,4.58,0,0,1-.16-9.13Zm-3.17,4.13h6.32a3.19,3.19,0,0,0-3.17-3.32A3.28,3.28,0,0,0,608.77,418.38Z" transform="translate(-0.95 -2.39)"/><path class="cls-1" d="M618.2,412.27a.72.72,0,0,1,1.44,0,.72.72,0,1,1-1.44,0Zm.25,2.2h.94v8.7h-.94Z" transform="translate(-0.95 -2.39)"/><path class="cls-1" d="M622.48,421.49V415.3H621v-.83h1.44v-2.38h1v2.38h1.76v.83h-1.76v6.05c0,.7.29,1.19.9,1.19a1.35,1.35,0,0,0,1-.42l.36.72a1.94,1.94,0,0,1-1.48.54C623,423.38,622.48,422.68,622.48,421.49Z" transform="translate(-0.95 -2.39)"/><path class="cls-1" d="M626.75,418.81c0-2.54,1.64-4.56,4.18-4.56s4.19,2,4.19,4.56-1.62,4.57-4.19,4.57S626.75,421.35,626.75,418.81Zm7.36,0c0-1.93-1.13-3.71-3.18-3.71s-3.17,1.78-3.17,3.71,1.15,3.73,3.17,3.73S634.11,420.75,634.11,418.81Z" transform="translate(-0.95 -2.39)"/><path class="cls-1" d="M637,424.93a2.45,2.45,0,0,0,1-1.65h-.18a.72.72,0,0,1-.74-.75.78.78,0,0,1,.77-.78c.49,0,.92.42.92,1.16a3.18,3.18,0,0,1-1.29,2.46Z" transform="translate(-0.95 -2.39)"/><path class="cls-1" d="M646.15,421.49V415.3h-1.44v-.83h1.44v-2.38h1v2.38h1.76v.83h-1.76v6.05c0,.7.28,1.19.9,1.19a1.35,1.35,0,0,0,1-.42l.36.72a1.94,1.94,0,0,1-1.48.54C646.71,423.38,646.15,422.68,646.15,421.49Z" transform="translate(-0.95 -2.39)"/><path class="cls-1" d="M650.92,414.47h.94V416a3.74,3.74,0,0,1,2.93-1.67v1a1.79,1.79,0,0,0-.47,0,3.29,3.29,0,0,0-2.46,1.55v6.34h-.94Z" transform="translate(-0.95 -2.39)"/><path class="cls-1" d="M662.15,422.14a3.76,3.76,0,0,1-2.95,1.24,2.91,2.91,0,0,1-3-2.9,2.87,2.87,0,0,1,3-2.88,3.74,3.74,0,0,1,2.95,1.25v-1.77a2.07,2.07,0,0,0-2.34-2,3.37,3.37,0,0,0-2.71,1.28l-.53-.65a4.23,4.23,0,0,1,3.35-1.46c1.77,0,3.17.85,3.17,2.79v6.13h-.94Zm0-2.59a3.26,3.26,0,0,0-2.62-1.21,2.16,2.16,0,1,0,0,4.3,3.24,3.24,0,0,0,2.62-1.18Z" transform="translate(-0.95 -2.39)"/><path class="cls-1" d="M671.87,417.28c0-1.68-.84-2.18-2.1-2.18a3.73,3.73,0,0,0-2.83,1.49v6.58H666v-8.7h.93v1.32a4.4,4.4,0,0,1,3.13-1.54c1.77,0,2.74.87,2.74,2.83v6.09h-.94Z" transform="translate(-0.95 -2.39)"/><path class="cls-1" d="M675.53,421.31a3.61,3.61,0,0,0,2.81,1.28c1.45,0,2.32-.72,2.32-1.73s-1.19-1.44-2.43-1.76c-1.46-.36-3.06-.74-3.06-2.43,0-1.34,1.13-2.42,3.09-2.42a4,4,0,0,1,3.12,1.28l-.52.67a3.16,3.16,0,0,0-2.6-1.15c-1.35,0-2.18.66-2.18,1.56s1.12,1.26,2.33,1.57c1.49.38,3.17.79,3.17,2.65,0,1.4-1.08,2.55-3.26,2.55A4.18,4.18,0,0,1,675,422Z" transform="translate(-0.95 -2.39)"/><path class="cls-1" d="M684,426.48v-12h.93v1.37a3.76,3.76,0,0,1,3-1.59c2.32,0,3.89,1.77,3.89,4.56s-1.57,4.57-3.89,4.57a3.73,3.73,0,0,1-3-1.62v4.72Zm3.8-11.38a3.53,3.53,0,0,0-2.87,1.55V421a3.56,3.56,0,0,0,2.87,1.59c1.94,0,3-1.62,3-3.73S689.73,415.1,687.79,415.1Z" transform="translate(-0.95 -2.39)"/><path class="cls-1" d="M699.77,422.14a3.76,3.76,0,0,1-2.95,1.24,2.91,2.91,0,0,1-3-2.9,2.87,2.87,0,0,1,3-2.88,3.74,3.74,0,0,1,2.95,1.25v-1.77a2.07,2.07,0,0,0-2.34-2,3.37,3.37,0,0,0-2.71,1.28l-.53-.65a4.23,4.23,0,0,1,3.35-1.46c1.77,0,3.17.85,3.17,2.79v6.13h-.94Zm0-2.59a3.26,3.26,0,0,0-2.62-1.21,2.16,2.16,0,1,0,0,4.3,3.24,3.24,0,0,0,2.62-1.18Z" transform="translate(-0.95 -2.39)"/><path class="cls-1" d="M703.62,414.47h.94V416a3.74,3.74,0,0,1,2.94-1.67v1a1.83,1.83,0,0,0-.47,0,3.32,3.32,0,0,0-2.47,1.55v6.34h-.94Z" transform="translate(-0.95 -2.39)"/><path class="cls-1" d="M713,414.25c2.65,0,4.11,2.11,4.11,4.61v.26h-7.28a3.39,3.39,0,0,0,3.41,3.45,3.83,3.83,0,0,0,2.84-1.2l.49.61a4.51,4.51,0,0,1-3.41,1.4,4.58,4.58,0,0,1-.16-9.13Zm-3.17,4.13h6.32a3.19,3.19,0,0,0-3.17-3.32A3.28,3.28,0,0,0,709.85,418.38Zm3.15-7.26-1.53,2h-.7l1.75-2.6h1l1.78,2.6h-.72Z" transform="translate(-0.95 -2.39)"/><path class="cls-1" d="M725.41,417.28c0-1.68-.85-2.18-2.11-2.18a3.73,3.73,0,0,0-2.83,1.49v6.58h-.93v-8.7h.93v1.32a4.4,4.4,0,0,1,3.13-1.54c1.77,0,2.74.87,2.74,2.83v6.09h-.93Z" transform="translate(-0.95 -2.39)"/><path class="cls-1" d="M733,414.25a3.59,3.59,0,0,1,3.08,1.48l-.65.58A2.73,2.73,0,0,0,733,415.1c-2,0-3.28,1.62-3.28,3.71s1.24,3.73,3.28,3.73a2.75,2.75,0,0,0,2.37-1.23l.65.58a3.54,3.54,0,0,1-3.08,1.49,4.58,4.58,0,0,1,0-9.13Z" transform="translate(-0.95 -2.39)"/><path class="cls-1" d="M737.9,412.27a.72.72,0,0,1,1.44,0,.72.72,0,0,1-1.44,0Zm.25,2.2h.93v8.7h-.93Z" transform="translate(-0.95 -2.39)"/><path class="cls-1" d="M747.53,422.14a3.79,3.79,0,0,1-3,1.24,2.91,2.91,0,0,1-3-2.9,2.87,2.87,0,0,1,3-2.88,3.77,3.77,0,0,1,3,1.25v-1.77a2.08,2.08,0,0,0-2.34-2,3.39,3.39,0,0,0-2.72,1.28l-.53-.65a4.25,4.25,0,0,1,3.35-1.46c1.77,0,3.17.85,3.17,2.79v6.13h-.93Zm0-2.59a3.29,3.29,0,0,0-2.63-1.21,2.16,2.16,0,1,0,0,4.3,3.27,3.27,0,0,0,2.63-1.18Z" transform="translate(-0.95 -2.39)"/><path class="cls-1" d="M573.06,435.85c2.64,0,4.1,2.11,4.1,4.61v.26h-7.27a3.38,3.38,0,0,0,3.4,3.45,3.84,3.84,0,0,0,2.85-1.2l.48.61a4.47,4.47,0,0,1-3.4,1.4,4.58,4.58,0,0,1-.16-9.13ZM569.89,440h6.32a3.19,3.19,0,0,0-3.17-3.32A3.27,3.27,0,0,0,569.89,440Z" transform="translate(-0.95 -2.39)"/><path class="cls-1" d="M588,435.85a3.6,3.6,0,0,1,3.08,1.48l-.65.58A2.74,2.74,0,0,0,588,436.7c-2,0-3.27,1.62-3.27,3.71s1.24,3.73,3.27,3.73a2.76,2.76,0,0,0,2.38-1.23l.65.58A3.56,3.56,0,0,1,588,445a4.58,4.58,0,0,1,0-9.13Z" transform="translate(-0.95 -2.39)"/><path class="cls-1" d="M593.12,436.07h.94v1.49a3.74,3.74,0,0,1,2.94-1.67v1a1.83,1.83,0,0,0-.47,0,3.32,3.32,0,0,0-2.47,1.55v6.34h-.94Z" transform="translate(-0.95 -2.39)"/><path class="cls-1" d="M602.52,435.85c2.65,0,4.11,2.11,4.11,4.61v.26h-7.28a3.39,3.39,0,0,0,3.41,3.45,3.83,3.83,0,0,0,2.84-1.2l.49.61a4.51,4.51,0,0,1-3.41,1.4,4.58,4.58,0,0,1-.16-9.13ZM599.35,440h6.32a3.19,3.19,0,0,0-3.17-3.32A3.27,3.27,0,0,0,599.35,440Z" transform="translate(-0.95 -2.39)"/><path class="cls-1" d="M608.84,442.91a3.63,3.63,0,0,0,2.81,1.28c1.45,0,2.32-.72,2.32-1.73s-1.19-1.44-2.43-1.76c-1.46-.36-3.06-.74-3.06-2.43,0-1.34,1.13-2.42,3.09-2.42a4,4,0,0,1,3.12,1.28l-.52.67a3.16,3.16,0,0,0-2.6-1.15c-1.35,0-2.17.66-2.17,1.56s1.11,1.26,2.32,1.57c1.49.38,3.17.79,3.17,2.65,0,1.4-1.08,2.55-3.26,2.55a4.18,4.18,0,0,1-3.35-1.37Z" transform="translate(-0.95 -2.39)"/><path class="cls-1" d="M621,435.85a3.59,3.59,0,0,1,3.08,1.48l-.64.58a2.75,2.75,0,0,0-2.38-1.21c-2,0-3.28,1.62-3.28,3.71s1.24,3.73,3.28,3.73a2.77,2.77,0,0,0,2.38-1.23l.64.58A3.54,3.54,0,0,1,621,445a4.58,4.58,0,0,1,0-9.13Z" transform="translate(-0.95 -2.39)"/><path class="cls-1" d="M625.94,433.87a.72.72,0,1,1,1.44,0,.72.72,0,0,1-1.44,0Zm.25,2.2h.94v8.7h-.94Z" transform="translate(-0.95 -2.39)"/><path class="cls-1" d="M640.39,438.68c0-1.22-.52-2-1.74-2a3.22,3.22,0,0,0-2.49,1.48v6.59h-.95v-6.09c0-1.22-.51-2-1.75-2a3.32,3.32,0,0,0-2.48,1.49v6.58H630v-8.7H631v1.31a3.86,3.86,0,0,1,2.81-1.53,2.18,2.18,0,0,1,2.28,1.64,3.63,3.63,0,0,1,2.88-1.64c1.61,0,2.38.9,2.38,2.65v6.27h-.94Z" transform="translate(-0.95 -2.39)"/><path class="cls-1" d="M647.93,435.85c2.65,0,4.11,2.11,4.11,4.61v.26h-7.28a3.39,3.39,0,0,0,3.41,3.45A3.81,3.81,0,0,0,651,443l.49.61a4.49,4.49,0,0,1-3.4,1.4,4.58,4.58,0,0,1-.17-9.13ZM644.76,440h6.32a3.18,3.18,0,0,0-3.16-3.32A3.28,3.28,0,0,0,644.76,440Z" transform="translate(-0.95 -2.39)"/><path class="cls-1" d="M660.32,438.88c0-1.68-.85-2.18-2.11-2.18a3.75,3.75,0,0,0-2.83,1.49v6.58h-.93v-8.7h.93v1.31a4.45,4.45,0,0,1,3.14-1.53c1.76,0,2.73.87,2.73,2.83v6.09h-.93Z" transform="translate(-0.95 -2.39)"/><path class="cls-1" d="M664.35,443.09V436.9h-1.44v-.83h1.44v-2.38h.95v2.38h1.77v.83H665.3V443c0,.7.29,1.19.9,1.19a1.32,1.32,0,0,0,1-.42l.36.72a1.91,1.91,0,0,1-1.47.54C664.91,445,664.35,444.28,664.35,443.09Z" transform="translate(-0.95 -2.39)"/><path class="cls-1" d="M668.61,440.41c0-2.54,1.64-4.56,4.18-4.56s4.2,2,4.2,4.56-1.62,4.57-4.2,4.57S668.61,443,668.61,440.41Zm7.37,0c0-1.93-1.14-3.71-3.19-3.71s-3.17,1.78-3.17,3.71,1.15,3.73,3.17,3.73S676,442.35,676,440.41Z" transform="translate(-0.95 -2.39)"/><path class="cls-1" d="M687.78,435.85a3.59,3.59,0,0,1,3.08,1.48l-.65.58a2.73,2.73,0,0,0-2.37-1.21c-2,0-3.28,1.62-3.28,3.71s1.24,3.73,3.28,3.73a2.75,2.75,0,0,0,2.37-1.23l.65.58a3.54,3.54,0,0,1-3.08,1.49,4.58,4.58,0,0,1,0-9.13Z" transform="translate(-0.95 -2.39)"/><path class="cls-1" d="M692.44,440.41c0-2.54,1.64-4.56,4.18-4.56s4.2,2,4.2,4.56-1.62,4.57-4.2,4.57S692.44,443,692.44,440.41Zm7.37,0c0-1.93-1.14-3.71-3.19-3.71s-3.17,1.78-3.17,3.71,1.15,3.73,3.17,3.73S699.81,442.35,699.81,440.41Z" transform="translate(-0.95 -2.39)"/><path class="cls-1" d="M703.23,432.76h.93v12h-.93Z" transform="translate(-0.95 -2.39)"/><path class="cls-1" d="M712.61,443.74a3.79,3.79,0,0,1-3,1.24,2.91,2.91,0,0,1-3-2.9,2.87,2.87,0,0,1,3-2.88,3.77,3.77,0,0,1,3,1.25v-1.77a2.07,2.07,0,0,0-2.34-2,3.37,3.37,0,0,0-2.72,1.28l-.53-.65a4.23,4.23,0,0,1,3.35-1.46c1.77,0,3.17.85,3.17,2.79v6.13h-.93Zm0-2.59a3.29,3.29,0,0,0-2.63-1.21,2.16,2.16,0,1,0,0,4.3,3.27,3.27,0,0,0,2.63-1.18Z" transform="translate(-0.95 -2.39)"/><path class="cls-1" d="M716.46,432.76h.93v4.71a3.71,3.71,0,0,1,3-1.62c2.32,0,3.89,1.82,3.89,4.58s-1.59,4.55-3.89,4.55a3.7,3.7,0,0,1-3-1.6v1.39h-.93Zm3.8,11.38c1.94,0,3-1.61,3-3.71s-1.1-3.73-3-3.73a3.58,3.58,0,0,0-2.87,1.58v4.31A3.53,3.53,0,0,0,720.26,444.14Z" transform="translate(-0.95 -2.39)"/><path class="cls-1" d="M726.23,440.41c0-2.54,1.64-4.56,4.18-4.56s4.19,2,4.19,4.56S733,445,730.41,445,726.23,443,726.23,440.41Zm7.36,0c0-1.93-1.13-3.71-3.18-3.71s-3.17,1.78-3.17,3.71,1.15,3.73,3.17,3.73S733.59,442.35,733.59,440.41Z" transform="translate(-0.95 -2.39)"/><path class="cls-1" d="M737,436.07H738v1.49a3.74,3.74,0,0,1,2.93-1.67v1a1.79,1.79,0,0,0-.47,0,3.29,3.29,0,0,0-2.46,1.55v6.34H737Z" transform="translate(-0.95 -2.39)"/><path class="cls-1" d="M748.24,443.74a3.76,3.76,0,0,1-3,1.24,2.91,2.91,0,0,1-3-2.9,2.87,2.87,0,0,1,3-2.88,3.74,3.74,0,0,1,3,1.25v-1.77a2.07,2.07,0,0,0-2.34-2,3.37,3.37,0,0,0-2.71,1.28l-.53-.65a4.23,4.23,0,0,1,3.35-1.46c1.77,0,3.17.85,3.17,2.79v6.13h-.94Zm0-2.59a3.26,3.26,0,0,0-2.62-1.21,2.16,2.16,0,1,0,0,4.3,3.24,3.24,0,0,0,2.62-1.18Z" transform="translate(-0.95 -2.39)"/><path class="cls-1" d="M752.27,443.09V436.9h-1.44v-.83h1.44v-2.38h1v2.38H755v.83h-1.76V443c0,.7.29,1.19.9,1.19a1.35,1.35,0,0,0,1-.42l.36.72A1.91,1.91,0,0,1,754,445C752.83,445,752.27,444.28,752.27,443.09Z" transform="translate(-0.95 -2.39)"/><path class="cls-1" d="M756.79,433.87a.74.74,0,0,1,.72-.72.72.72,0,1,1-.72.72Zm.25,2.2H758v8.7H757Z" transform="translate(-0.95 -2.39)"/><path class="cls-1" d="M759.56,436.07h1.05l3.17,7.6,3.13-7.6H768l-3.67,8.7h-1.06Z" transform="translate(-0.95 -2.39)"/><path class="cls-1" d="M769.05,440.41c0-2.54,1.64-4.56,4.18-4.56s4.19,2,4.19,4.56S775.8,445,773.23,445,769.05,443,769.05,440.41Zm7.36,0c0-1.93-1.13-3.71-3.18-3.71s-3.17,1.78-3.17,3.71,1.15,3.73,3.17,3.73S776.41,442.35,776.41,440.41Z" transform="translate(-0.95 -2.39)"/><path class="cls-1" d="M359,3.92h-3.92V3H364v.94h-3.93V15h-1Z" transform="translate(-0.95 -2.39)"/><path class="cls-1" d="M364.39,6.3h.94V7.79a3.74,3.74,0,0,1,2.93-1.67v1a2.37,2.37,0,0,0-.47,0,3.29,3.29,0,0,0-2.46,1.55V15h-.94Z" transform="translate(-0.95 -2.39)"/><path class="cls-1" d="M375.62,14a3.79,3.79,0,0,1-2.95,1.24,2.91,2.91,0,0,1-3-2.9,2.87,2.87,0,0,1,3-2.88,3.76,3.76,0,0,1,2.95,1.24V8.91a2.07,2.07,0,0,0-2.34-2,3.37,3.37,0,0,0-2.71,1.28L370,7.54a4.23,4.23,0,0,1,3.35-1.46c1.77,0,3.17.85,3.17,2.79V15h-.94Zm0-2.59A3.23,3.23,0,0,0,373,10.17a2.16,2.16,0,1,0,0,4.3,3.22,3.22,0,0,0,2.62-1.19Z" transform="translate(-0.95 -2.39)"/><path class="cls-1" d="M385.34,9.11c0-1.68-.84-2.18-2.1-2.18a3.73,3.73,0,0,0-2.83,1.49V15h-.93V6.3h.93V7.61a4.42,4.42,0,0,1,3.13-1.53c1.77,0,2.74.87,2.74,2.83V15h-.94Z" transform="translate(-0.95 -2.39)"/><path class="cls-1" d="M389,13.14a3.61,3.61,0,0,0,2.81,1.28c1.45,0,2.32-.72,2.32-1.73s-1.19-1.44-2.43-1.77c-1.46-.36-3.06-.73-3.06-2.43,0-1.33,1.13-2.41,3.09-2.41a4,4,0,0,1,3.12,1.28l-.52.67a3.17,3.17,0,0,0-2.6-1.16c-1.35,0-2.18.67-2.18,1.57s1.12,1.26,2.33,1.57c1.49.37,3.17.79,3.17,2.64,0,1.41-1.08,2.56-3.26,2.56a4.18,4.18,0,0,1-3.35-1.37Z" transform="translate(-0.95 -2.39)"/><path class="cls-1" d="M397.76,7.13h-1.44V6.3h1.44V5.5c0-1.71.92-2.7,2.36-2.7a2.38,2.38,0,0,1,1.17.27l-.29.74a1.54,1.54,0,0,0-.79-.19c-1,0-1.51.68-1.51,1.88v.8h1.76v.83H398.7V15h-.94Z" transform="translate(-0.95 -2.39)"/><path class="cls-1" d="M401.72,10.64c0-2.54,1.64-4.56,4.18-4.56s4.2,2,4.2,4.56-1.62,4.57-4.2,4.57S401.72,13.18,401.72,10.64Zm7.37,0c0-1.93-1.14-3.71-3.19-3.71s-3.17,1.78-3.17,3.71,1.15,3.72,3.17,3.72S409.09,12.58,409.09,10.64Z" transform="translate(-0.95 -2.39)"/><path class="cls-1" d="M412.5,6.3h.94V7.79a3.74,3.74,0,0,1,2.94-1.67v1a2.42,2.42,0,0,0-.47,0,3.3,3.3,0,0,0-2.47,1.55V15h-.94Z" transform="translate(-0.95 -2.39)"/><path class="cls-1" d="M428.56,8.91c0-1.23-.52-2-1.74-2a3.24,3.24,0,0,0-2.49,1.47V15h-.95V8.91c0-1.23-.51-2-1.75-2a3.32,3.32,0,0,0-2.48,1.49V15h-.94V6.3h.94V7.61A3.8,3.8,0,0,1,422,6.08a2.17,2.17,0,0,1,2.28,1.64,3.63,3.63,0,0,1,2.88-1.64c1.61,0,2.38.9,2.38,2.65V15h-.94Z" transform="translate(-0.95 -2.39)"/><path class="cls-1" d="M437.94,14A3.8,3.8,0,0,1,435,15.21a2.92,2.92,0,0,1-3.05-2.9A2.88,2.88,0,0,1,435,9.43a3.79,3.79,0,0,1,2.95,1.24V8.91a2.07,2.07,0,0,0-2.34-2,3.39,3.39,0,0,0-2.72,1.28l-.52-.65a4.23,4.23,0,0,1,3.35-1.46c1.76,0,3.17.85,3.17,2.79V15h-.94Zm0-2.59a3.25,3.25,0,0,0-2.63-1.21,2.16,2.16,0,1,0,0,4.3,3.23,3.23,0,0,0,2.63-1.19Z" transform="translate(-0.95 -2.39)"/><path class="cls-1" d="M448,13.14l.65.58a3.51,3.51,0,0,1-2.79,1.49l-.31.81a1.12,1.12,0,0,1,.67-.22,1.11,1.11,0,0,1,1.18,1.14c0,.9-.81,1.46-1.82,1.46a3,3,0,0,1-1.74-.52l.29-.58a2.26,2.26,0,0,0,1.44.5c.63,0,1.17-.29,1.17-.86,0-.38-.24-.65-.74-.65a1,1,0,0,0-.72.31l-.5-.29.41-1.12a4.29,4.29,0,0,1-3.85-4.55,4.25,4.25,0,0,1,4.23-4.56,3.61,3.61,0,0,1,3.08,1.48l-.65.57a2.77,2.77,0,0,0-2.38-1.2c-2,0-3.28,1.62-3.28,3.71s1.25,3.72,3.28,3.72A2.79,2.79,0,0,0,448,13.14Z" transform="translate(-0.95 -2.39)"/><path class="cls-1" d="M456.21,14a3.8,3.8,0,0,1-2.95,1.24,2.92,2.92,0,0,1-3.05-2.9,2.88,2.88,0,0,1,3.05-2.88,3.79,3.79,0,0,1,2.95,1.24V8.91a2.07,2.07,0,0,0-2.34-2,3.39,3.39,0,0,0-2.72,1.28l-.52-.65A4.23,4.23,0,0,1,454,6.08c1.76,0,3.17.85,3.17,2.79V15h-.94Zm0-2.59a3.25,3.25,0,0,0-2.63-1.21,2.16,2.16,0,1,0,0,4.3,3.23,3.23,0,0,0,2.63-1.19Zm-3.37-8.21c-.54,0-1,.52-1,1.74h-.63c0-1.35.59-2.41,1.67-2.41.72,0,1,.54,1.35,1s.47.79.9.79,1-.52,1-1.72h.65c0,1.35-.58,2.41-1.66,2.41-.76,0-1.06-.54-1.37-1S453.27,3.17,452.84,3.17Z" transform="translate(-0.95 -2.39)"/><path class="cls-1" d="M459.56,10.64c0-2.54,1.63-4.56,4.17-4.56s4.2,2,4.2,4.56-1.62,4.57-4.2,4.57S459.56,13.18,459.56,10.64Zm7.36,0c0-1.93-1.14-3.71-3.19-3.71s-3.17,1.78-3.17,3.71,1.16,3.72,3.17,3.72S466.92,12.58,466.92,10.64Z" transform="translate(-0.95 -2.39)"/><path class="cls-1" d="M478.73,6.08a3.61,3.61,0,0,1,3.08,1.48l-.65.57a2.77,2.77,0,0,0-2.38-1.2c-2,0-3.28,1.62-3.28,3.71s1.25,3.72,3.28,3.72a2.79,2.79,0,0,0,2.38-1.22l.65.58a3.57,3.57,0,0,1-3.08,1.49,4.27,4.27,0,0,1-4.24-4.57A4.26,4.26,0,0,1,478.73,6.08Z" transform="translate(-0.95 -2.39)"/><path class="cls-1" d="M483.39,10.64c0-2.54,1.63-4.56,4.17-4.56s4.2,2,4.2,4.56-1.62,4.57-4.2,4.57S483.39,13.18,483.39,10.64Zm7.36,0c0-1.93-1.13-3.71-3.19-3.71s-3.17,1.78-3.17,3.71,1.16,3.72,3.17,3.72S490.75,12.58,490.75,10.64Z" transform="translate(-0.95 -2.39)"/><path class="cls-1" d="M500,9.11c0-1.68-.85-2.18-2.11-2.18a3.73,3.73,0,0,0-2.83,1.49V15h-.93V6.3h.93V7.61a4.45,4.45,0,0,1,3.14-1.53C500,6.08,501,7,501,8.91V15H500Z" transform="translate(-0.95 -2.39)"/><path class="cls-1" d="M504.07,13.32V7.13h-1.44V6.3h1.44V3.92H505V6.3h1.77v.83H505v6.05c0,.7.29,1.18.9,1.18a1.35,1.35,0,0,0,1-.41l.36.72a2,2,0,0,1-1.48.54C504.63,15.21,504.07,14.51,504.07,13.32Z" transform="translate(-0.95 -2.39)"/><path class="cls-1" d="M508.84,6.3h.93V15h-.93Zm0-1.32,2.78-2.59h1.11L509.67,5Z" transform="translate(-0.95 -2.39)"/><path class="cls-1" d="M518.56,9.11c0-1.68-.85-2.18-2.11-2.18a3.71,3.71,0,0,0-2.82,1.49V15h-.94V6.3h.94V7.61a4.42,4.42,0,0,1,3.13-1.53c1.76,0,2.74.87,2.74,2.83V15h-.94Z" transform="translate(-0.95 -2.39)"/><path class="cls-1" d="M528.28,13.72a4.41,4.41,0,0,1-3.13,1.49c-1.79,0-2.74-.83-2.74-2.79V6.3h.94v5.9c0,1.7.84,2.16,2.1,2.16a3.75,3.75,0,0,0,2.83-1.44V6.3h.94V15h-.94Z" transform="translate(-0.95 -2.39)"/><path class="cls-1" d="M537.66,14a3.82,3.82,0,0,1-3,1.24,2.91,2.91,0,0,1-3-2.9,2.87,2.87,0,0,1,3-2.88,3.8,3.8,0,0,1,3,1.24V8.91a2.07,2.07,0,0,0-2.34-2,3.37,3.37,0,0,0-2.72,1.28l-.53-.65a4.25,4.25,0,0,1,3.35-1.46c1.77,0,3.17.85,3.17,2.79V15h-.93Zm0-2.59A3.26,3.26,0,0,0,535,10.17a2.16,2.16,0,1,0,0,4.3,3.25,3.25,0,0,0,2.63-1.19Z" transform="translate(-0.95 -2.39)"/><path class="cls-1" d="M359.6,27.68c2.65,0,4.11,2.11,4.11,4.61v.25h-7.27a3.39,3.39,0,0,0,3.4,3.46,3.77,3.77,0,0,0,2.84-1.21l.49.62a4.47,4.47,0,0,1-3.4,1.4,4.3,4.3,0,0,1-4.36-4.57A4.32,4.32,0,0,1,359.6,27.68Zm-3.16,4.12h6.32a3.19,3.19,0,0,0-3.17-3.31A3.26,3.26,0,0,0,356.44,31.8Z" transform="translate(-0.95 -2.39)"/><path class="cls-1" d="M374.51,27.68a3.61,3.61,0,0,1,3.08,1.48l-.65.57a2.75,2.75,0,0,0-2.38-1.2c-2,0-3.28,1.62-3.28,3.71S372.53,36,374.56,36a2.77,2.77,0,0,0,2.38-1.22l.65.58a3.57,3.57,0,0,1-3.08,1.49,4.26,4.26,0,0,1-4.23-4.57A4.25,4.25,0,0,1,374.51,27.68Z" transform="translate(-0.95 -2.39)"/><path class="cls-1" d="M379.17,32.24c0-2.54,1.64-4.56,4.18-4.56s4.19,2,4.19,4.56-1.62,4.57-4.19,4.57S379.17,34.78,379.17,32.24Zm7.36,0c0-1.93-1.13-3.71-3.18-3.71s-3.17,1.78-3.17,3.71S381.33,36,383.35,36,386.53,34.18,386.53,32.24Z" transform="translate(-0.95 -2.39)"/><path class="cls-1" d="M389,31.8h4.32v.87H389Z" transform="translate(-0.95 -2.39)"/><path class="cls-1" d="M399,27.68c2.65,0,4.11,2.11,4.11,4.61v.25h-7.28A3.39,3.39,0,0,0,399.28,36a3.8,3.8,0,0,0,2.84-1.21l.49.62a4.51,4.51,0,0,1-3.41,1.4,4.29,4.29,0,0,1-4.35-4.57A4.32,4.32,0,0,1,399,27.68Zm-3.17,4.12h6.32A3.19,3.19,0,0,0,399,28.49,3.27,3.27,0,0,0,395.87,31.8Z" transform="translate(-0.95 -2.39)"/><path class="cls-1" d="M404.22,27.9h1l3.17,7.6,3.13-7.6h1.06L409,36.59H407.9Z" transform="translate(-0.95 -2.39)"/><path class="cls-1" d="M413.71,32.24c0-2.54,1.64-4.56,4.18-4.56s4.19,2,4.19,4.56-1.62,4.57-4.19,4.57S413.71,34.78,413.71,32.24Zm7.36,0c0-1.93-1.13-3.71-3.18-3.71s-3.17,1.78-3.17,3.71S415.87,36,417.89,36,421.07,34.18,421.07,32.24Z" transform="translate(-0.95 -2.39)"/><path class="cls-1" d="M424.49,24.58h.94v12h-.94Z" transform="translate(-0.95 -2.39)"/><path class="cls-1" d="M434.21,35.32a4.41,4.41,0,0,1-3.13,1.49c-1.78,0-2.74-.83-2.74-2.79V27.9h.94v5.9c0,1.7.85,2.16,2.11,2.16a3.73,3.73,0,0,0,2.82-1.44V27.9h.94v8.69h-.94Z" transform="translate(-0.95 -2.39)"/><path class="cls-1" d="M444.22,34.74l.65.58a3.51,3.51,0,0,1-2.79,1.49l-.31.81a1.18,1.18,0,0,1,1.86.92c0,.9-.81,1.46-1.82,1.46a2.91,2.91,0,0,1-1.75-.53l.29-.57a2.26,2.26,0,0,0,1.44.5c.63,0,1.17-.29,1.17-.86,0-.38-.23-.65-.74-.65a1,1,0,0,0-.72.31l-.5-.29.41-1.12a4.29,4.29,0,0,1-3.85-4.55,4.25,4.25,0,0,1,4.23-4.56,3.6,3.6,0,0,1,3.08,1.48l-.65.57a2.75,2.75,0,0,0-2.38-1.2c-2,0-3.27,1.62-3.27,3.71S439.81,36,441.84,36A2.77,2.77,0,0,0,444.22,34.74Z" transform="translate(-0.95 -2.39)"/><path class="cls-1" d="M452.48,35.57a3.8,3.8,0,0,1-3,1.24,2.91,2.91,0,0,1-3-2.9,2.87,2.87,0,0,1,3-2.88,3.77,3.77,0,0,1,3,1.24V30.51a2.07,2.07,0,0,0-2.34-2,3.39,3.39,0,0,0-2.72,1.28l-.52-.65a4.23,4.23,0,0,1,3.35-1.46c1.76,0,3.17.85,3.17,2.79v6.12h-.94Zm0-2.6a3.26,3.26,0,0,0-2.63-1.2,2.16,2.16,0,1,0,0,4.3,3.22,3.22,0,0,0,2.63-1.19Zm-3.37-8.21c-.54,0-1,.53-1,1.75h-.63c0-1.35.6-2.41,1.68-2.41.72,0,1,.54,1.35,1s.47.79.9.79.95-.52.95-1.72H453c0,1.35-.58,2.41-1.66,2.41-.75,0-1.06-.54-1.36-1.05S449.55,24.76,449.11,24.76Z" transform="translate(-0.95 -2.39)"/><path class="cls-1" d="M455.83,32.24c0-2.54,1.64-4.56,4.17-4.56s4.2,2,4.2,4.56-1.62,4.57-4.2,4.57S455.83,34.78,455.83,32.24Zm7.36,0c0-1.93-1.13-3.71-3.19-3.71s-3.16,1.78-3.16,3.71S458,36,460,36,463.19,34.18,463.19,32.24Z" transform="translate(-0.95 -2.39)"/><path class="cls-1" d="M470.77,32.24c0-2.54,1.64-4.56,4.17-4.56s4.2,2,4.2,4.56-1.62,4.57-4.2,4.57S470.77,34.78,470.77,32.24Zm7.36,0c0-1.93-1.13-3.71-3.19-3.71s-3.17,1.78-3.17,3.71S472.93,36,474.94,36,478.13,34.18,478.13,32.24Z" transform="translate(-0.95 -2.39)"/><path class="cls-1" d="M481.55,27.9h.93v1.49a3.74,3.74,0,0,1,2.94-1.67v1a2.37,2.37,0,0,0-.47,0,3.32,3.32,0,0,0-2.47,1.55v6.33h-.93Z" transform="translate(-0.95 -2.39)"/><path class="cls-1" d="M487.81,38.09a3.34,3.34,0,0,0,2.88,1.22,2.65,2.65,0,0,0,3-2.79V35.15a3.73,3.73,0,0,1-3,1.62c-2.31,0-3.89-1.74-3.89-4.53s1.58-4.56,3.89-4.56a3.68,3.68,0,0,1,3,1.62V27.9h1v8.6c0,2.67-1.8,3.62-3.93,3.62a4.18,4.18,0,0,1-3.42-1.31Zm5.85-8a3.49,3.49,0,0,0-2.86-1.58c-1.92,0-3,1.6-3,3.71s1.12,3.69,3,3.69a3.48,3.48,0,0,0,2.86-1.59Z" transform="translate(-0.95 -2.39)"/><path class="cls-1" d="M503,35.57a3.79,3.79,0,0,1-3,1.24,2.91,2.91,0,0,1-3-2.9,2.87,2.87,0,0,1,3-2.88,3.76,3.76,0,0,1,3,1.24V30.51a2.07,2.07,0,0,0-2.34-2A3.39,3.39,0,0,0,498,29.79l-.52-.65a4.23,4.23,0,0,1,3.35-1.46c1.76,0,3.17.85,3.17,2.79v6.12H503Zm0-2.6a3.26,3.26,0,0,0-2.63-1.2,2.16,2.16,0,1,0,0,4.3A3.22,3.22,0,0,0,503,34.88Z" transform="translate(-0.95 -2.39)"/><path class="cls-1" d="M512.76,30.71c0-1.68-.84-2.18-2.1-2.18A3.73,3.73,0,0,0,507.83,30v6.57h-.94V27.9h.94v1.31A4.42,4.42,0,0,1,511,27.68c1.77,0,2.74.86,2.74,2.83v6.08h-.94Z" transform="translate(-0.95 -2.39)"/><path class="cls-1" d="M516.36,25.7a.73.73,0,0,1,.72-.72.72.72,0,0,1,0,1.44A.73.73,0,0,1,516.36,25.7Zm.25,2.2h.94v8.69h-.94Z" transform="translate(-0.95 -2.39)"/><path class="cls-1" d="M520,35.82l5.15-7.09H520V27.9h6.36v.75l-5.2,7.12h5.27v.82H520Z" transform="translate(-0.95 -2.39)"/><path class="cls-1" d="M534.43,35.57a3.79,3.79,0,0,1-2.95,1.24,2.91,2.91,0,0,1-3-2.9,2.87,2.87,0,0,1,3-2.88,3.76,3.76,0,0,1,2.95,1.24V30.51a2.07,2.07,0,0,0-2.34-2,3.4,3.4,0,0,0-2.72,1.28l-.52-.65a4.23,4.23,0,0,1,3.35-1.46c1.77,0,3.17.85,3.17,2.79v6.12h-.94Zm0-2.6a3.26,3.26,0,0,0-2.63-1.2,2.16,2.16,0,1,0,0,4.3,3.22,3.22,0,0,0,2.63-1.19Z" transform="translate(-0.95 -2.39)"/><path class="cls-1" d="M542,27.68a3.6,3.6,0,0,1,3.08,1.48l-.65.57a2.75,2.75,0,0,0-2.38-1.2c-2,0-3.27,1.62-3.27,3.71S540,36,542.06,36a2.77,2.77,0,0,0,2.38-1.22l.65.58A3.56,3.56,0,0,1,542,36.81a4.26,4.26,0,0,1-4.23-4.57A4.25,4.25,0,0,1,542,27.68Z" transform="translate(-0.95 -2.39)"/><path class="cls-1" d="M546.92,25.7a.74.74,0,0,1,.72-.72.72.72,0,1,1,0,1.44A.74.74,0,0,1,546.92,25.7Zm.26,2.2h.93v8.69h-.93Z" transform="translate(-0.95 -2.39)"/><path class="cls-1" d="M550.52,32.24c0-2.54,1.64-4.56,4.18-4.56s4.2,2,4.2,4.56-1.63,4.57-4.2,4.57S550.52,34.78,550.52,32.24Zm7.37,0c0-1.93-1.14-3.71-3.19-3.71s-3.17,1.78-3.17,3.71S552.68,36,554.7,36,557.89,34.18,557.89,32.24Z" transform="translate(-0.95 -2.39)"/><path class="cls-1" d="M567.17,30.71c0-1.68-.84-2.18-2.1-2.18A3.73,3.73,0,0,0,562.24,30v6.57h-.93V27.9h.93v1.31a4.42,4.42,0,0,1,3.13-1.53c1.77,0,2.74.86,2.74,2.83v6.08h-.94Z" transform="translate(-0.95 -2.39)"/><path class="cls-1" d="M576.55,35.57a3.79,3.79,0,0,1-2.95,1.24,2.91,2.91,0,0,1-3-2.9,2.87,2.87,0,0,1,3-2.88,3.76,3.76,0,0,1,2.95,1.24V30.51a2.07,2.07,0,0,0-2.34-2,3.39,3.39,0,0,0-2.72,1.28l-.52-.65a4.23,4.23,0,0,1,3.35-1.46c1.76,0,3.17.85,3.17,2.79v6.12h-.94Zm0-2.6a3.26,3.26,0,0,0-2.63-1.2,2.16,2.16,0,1,0,0,4.3,3.22,3.22,0,0,0,2.63-1.19Z" transform="translate(-0.95 -2.39)"/><path class="cls-1" d="M580.4,24.58h.94v12h-.94Z" transform="translate(-0.95 -2.39)"/><path class="cls-1" d="M1,237a6,6,0,0,1,6.05-6.21A5.44,5.44,0,0,1,11.51,233l-.87.56a4.4,4.4,0,0,0-3.55-1.75,5.29,5.29,0,0,0,0,10.56,4.4,4.4,0,0,0,3.55-1.75l.87.54a5.43,5.43,0,0,1-4.42,2.14A6,6,0,0,1,1,237Z" transform="translate(-0.95 -2.39)"/><path class="cls-1" d="M19.42,241.76a4.41,4.41,0,0,1-3.13,1.49c-1.78,0-2.74-.83-2.74-2.79v-6.12h.94v5.91c0,1.69.85,2.16,2.11,2.16A3.76,3.76,0,0,0,19.42,241v-6.63h.94V243h-.94Z" transform="translate(-0.95 -2.39)"/><path class="cls-1" d="M23.27,231h.94v12h-.94Z" transform="translate(-0.95 -2.39)"/><path class="cls-1" d="M27.31,241.36v-6.19H25.87v-.83h1.44V232h1v2.38H30v.83H28.26v6.05c0,.7.29,1.19.9,1.19a1.35,1.35,0,0,0,1-.42l.36.72a1.91,1.91,0,0,1-1.47.54C27.86,243.25,27.31,242.55,27.31,241.36Z" transform="translate(-0.95 -2.39)"/><path class="cls-1" d="M31.82,232.14a.74.74,0,0,1,.72-.72.72.72,0,0,1,0,1.44A.74.74,0,0,1,31.82,232.14Zm.26,2.2H33V243h-.93Z" transform="translate(-0.95 -2.39)"/><path class="cls-1" d="M34.59,234.34h1l3.17,7.6,3.13-7.6H43L39.33,243H38.27Z" transform="translate(-0.95 -2.39)"/><path class="cls-1" d="M44.08,238.68c0-2.54,1.64-4.56,4.18-4.56s4.19,2,4.19,4.56-1.62,4.57-4.19,4.57S44.08,241.22,44.08,238.68Zm7.37,0c0-1.93-1.14-3.71-3.19-3.71s-3.17,1.78-3.17,3.71,1.15,3.73,3.17,3.73S51.45,240.62,51.45,238.68Z" transform="translate(-0.95 -2.39)"/><path class="cls-1" d="M65.94,241.65a3.72,3.72,0,0,1-3,1.6c-2.3,0-3.89-1.76-3.89-4.55s1.59-4.58,3.89-4.58a3.71,3.71,0,0,1,3,1.62V231h1v12h-1Zm0-5.1A3.5,3.5,0,0,0,63.07,235c-1.92,0-3,1.62-3,3.73s1.12,3.71,3,3.71a3.5,3.5,0,0,0,2.87-1.55Z" transform="translate(-0.95 -2.39)"/><path class="cls-1" d="M73.5,234.12c2.64,0,4.1,2.11,4.1,4.61V239H70.33a3.38,3.38,0,0,0,3.4,3.45,3.8,3.8,0,0,0,2.84-1.2l.49.61a4.47,4.47,0,0,1-3.4,1.4,4.58,4.58,0,0,1-.16-9.13Zm-3.17,4.13h6.32a3.19,3.19,0,0,0-3.17-3.32A3.27,3.27,0,0,0,70.33,238.25Z" transform="translate(-0.95 -2.39)"/><path class="cls-1" d="M84.67,234.34h.94v1.49a3.74,3.74,0,0,1,2.93-1.67v1a1.72,1.72,0,0,0-.46,0,3.29,3.29,0,0,0-2.47,1.55V243h-.94Z" transform="translate(-0.95 -2.39)"/><path class="cls-1" d="M94.07,234.12c2.65,0,4.1,2.11,4.1,4.61V239H90.9a3.38,3.38,0,0,0,3.4,3.45,3.84,3.84,0,0,0,2.85-1.2l.48.61a4.47,4.47,0,0,1-3.4,1.4,4.58,4.58,0,0,1-.16-9.13Zm-3.17,4.13h6.32a3.19,3.19,0,0,0-3.17-3.32A3.27,3.27,0,0,0,90.9,238.25Z" transform="translate(-0.95 -2.39)"/><path class="cls-1" d="M100.58,231h.94v12h-.94Z" transform="translate(-0.95 -2.39)"/><path class="cls-1" d="M110,242a3.76,3.76,0,0,1-2.95,1.24,2.91,2.91,0,0,1-3-2.9,2.87,2.87,0,0,1,3-2.88,3.76,3.76,0,0,1,2.95,1.24V237a2.07,2.07,0,0,0-2.34-2,3.4,3.4,0,0,0-2.72,1.28l-.52-.65a4.23,4.23,0,0,1,3.35-1.46c1.77,0,3.17.85,3.17,2.79V243H110Zm0-2.59a3.27,3.27,0,0,0-2.63-1.21,2.16,2.16,0,1,0,0,4.3,3.24,3.24,0,0,0,2.63-1.18Z" transform="translate(-0.95 -2.39)"/><path class="cls-1" d="M120,241.18l.65.58a3.51,3.51,0,0,1-2.79,1.49l-.31.81a1.13,1.13,0,0,1,.67-.21,1.11,1.11,0,0,1,1.19,1.13c0,.9-.81,1.46-1.82,1.46a2.91,2.91,0,0,1-1.75-.52l.29-.58a2.26,2.26,0,0,0,1.44.5c.63,0,1.17-.28,1.17-.86,0-.38-.23-.65-.74-.65a1,1,0,0,0-.72.31l-.5-.29.41-1.12a4.59,4.59,0,0,1,.38-9.11,3.6,3.6,0,0,1,3.08,1.48l-.65.58a2.74,2.74,0,0,0-2.38-1.21c-2,0-3.27,1.62-3.27,3.71s1.24,3.73,3.27,3.73A2.76,2.76,0,0,0,120,241.18Z" transform="translate(-0.95 -2.39)"/><path class="cls-1" d="M122.2,238.68c0-2.54,1.64-4.56,4.18-4.56s4.19,2,4.19,4.56-1.62,4.57-4.19,4.57S122.2,241.22,122.2,238.68Zm7.37,0c0-1.93-1.14-3.71-3.19-3.71s-3.17,1.78-3.17,3.71,1.15,3.73,3.17,3.73S129.57,240.62,129.57,238.68Zm-4.34-7.47c-.54,0-1,.52-1,1.74h-.63c0-1.35.6-2.41,1.68-2.41.72,0,1,.54,1.35,1s.47.8.9.8,1-.53,1-1.73h.65c0,1.35-.57,2.41-1.65,2.41-.76,0-1.07-.54-1.37-1S125.66,231.21,125.23,231.21Z" transform="translate(-0.95 -2.39)"/><path class="cls-1" d="M136.67,234.12c2.65,0,4.11,2.11,4.11,4.61V239h-7.27a3.38,3.38,0,0,0,3.4,3.45,3.8,3.8,0,0,0,2.84-1.2l.49.61a4.47,4.47,0,0,1-3.4,1.4,4.58,4.58,0,0,1-.17-9.13Zm-3.16,4.13h6.32a3.19,3.19,0,0,0-3.17-3.32A3.27,3.27,0,0,0,133.51,238.25Z" transform="translate(-0.95 -2.39)"/><path class="cls-1" d="M143,241.18a3.64,3.64,0,0,0,2.81,1.28c1.46,0,2.32-.72,2.32-1.73s-1.19-1.44-2.43-1.76c-1.46-.36-3.06-.74-3.06-2.43,0-1.34,1.14-2.42,3.1-2.42a4,4,0,0,1,3.11,1.28l-.52.67a3.14,3.14,0,0,0-2.59-1.15c-1.35,0-2.18.66-2.18,1.56s1.12,1.26,2.32,1.57c1.5.38,3.17.79,3.17,2.65,0,1.4-1.08,2.55-3.26,2.55a4.21,4.21,0,0,1-3.35-1.37Z" transform="translate(-0.95 -2.39)"/><path class="cls-1" d="M7.87,263.25a3.7,3.7,0,0,1-3,1.6c-2.3,0-3.89-1.76-3.89-4.55s1.59-4.58,3.89-4.58a3.69,3.69,0,0,1,3,1.62v-4.71h1v12h-1Zm0-5.1A3.49,3.49,0,0,0,5,256.57c-1.93,0-3,1.62-3,3.73S3.08,264,5,264a3.49,3.49,0,0,0,2.86-1.55Z" transform="translate(-0.95 -2.39)"/><path class="cls-1" d="M15.43,255.72c2.64,0,4.1,2.11,4.1,4.61v.25H12.26a3.39,3.39,0,0,0,3.4,3.46,3.81,3.81,0,0,0,2.85-1.21l.48.62a4.47,4.47,0,0,1-3.4,1.4,4.58,4.58,0,0,1-.16-9.13Zm-3.17,4.13h6.32a3.19,3.19,0,0,0-3.17-3.32A3.27,3.27,0,0,0,12.26,259.85Z" transform="translate(-0.95 -2.39)"/><path class="cls-1" d="M26.6,252.63h.94v12H26.6Z" transform="translate(-0.95 -2.39)"/><path class="cls-1" d="M30,260.28c0-2.54,1.64-4.56,4.18-4.56s4.2,2,4.2,4.56-1.63,4.57-4.2,4.57S30,262.82,30,260.28Zm7.37,0c0-1.93-1.14-3.71-3.19-3.71S31,258.35,31,260.28,32.11,264,34.13,264,37.32,262.22,37.32,260.28Z" transform="translate(-0.95 -2.39)"/><path class="cls-1" d="M46.6,258.75c0-1.68-.84-2.18-2.1-2.18a3.73,3.73,0,0,0-2.83,1.49v6.58h-.94v-8.7h.94v1.31a4.42,4.42,0,0,1,3.13-1.53c1.77,0,2.74.87,2.74,2.83v6.09H46.6Z" transform="translate(-0.95 -2.39)"/><path class="cls-1" d="M51,266.13a3.34,3.34,0,0,0,2.88,1.22,2.65,2.65,0,0,0,3-2.79V263.2a3.75,3.75,0,0,1-3,1.62c-2.3,0-3.89-1.75-3.89-4.54s1.59-4.56,3.89-4.56a3.68,3.68,0,0,1,3,1.62v-1.4h1v8.61c0,2.66-1.8,3.62-3.93,3.62a4.2,4.2,0,0,1-3.42-1.32Zm5.85-8A3.49,3.49,0,0,0,54,256.57c-1.92,0-3,1.6-3,3.71S52.08,264,54,264a3.48,3.48,0,0,0,2.86-1.59Z" transform="translate(-0.95 -2.39)"/><path class="cls-1" d="M60.21,260.28c0-2.54,1.64-4.56,4.18-4.56s4.19,2,4.19,4.56-1.62,4.57-4.19,4.57S60.21,262.82,60.21,260.28Zm7.36,0c0-1.93-1.13-3.71-3.18-3.71s-3.17,1.78-3.17,3.71S62.37,264,64.39,264,67.57,262.22,67.57,260.28Z" transform="translate(-0.95 -2.39)"/><path class="cls-1" d="M75.65,268v-12h.94v1.37a3.75,3.75,0,0,1,3-1.59c2.32,0,3.88,1.77,3.88,4.56s-1.56,4.57-3.88,4.57a3.71,3.71,0,0,1-3-1.62V268Zm3.8-11.38a3.51,3.51,0,0,0-2.86,1.55v4.3A3.54,3.54,0,0,0,79.45,264c2,0,3-1.63,3-3.73S81.4,256.57,79.45,256.57Z" transform="translate(-0.95 -2.39)"/><path class="cls-1" d="M85.91,255.94h.94v1.49a3.74,3.74,0,0,1,2.94-1.67v1a1.83,1.83,0,0,0-.47,0,3.32,3.32,0,0,0-2.47,1.55v6.34h-.94Z" transform="translate(-0.95 -2.39)"/><path class="cls-1" d="M97.15,263.61a3.78,3.78,0,0,1-3,1.24,2.91,2.91,0,0,1-3-2.9,2.88,2.88,0,0,1,3-2.88,3.79,3.79,0,0,1,3,1.24v-1.76a2.07,2.07,0,0,0-2.34-2,3.39,3.39,0,0,0-2.72,1.28l-.52-.65a4.22,4.22,0,0,1,3.35-1.46c1.76,0,3.16.85,3.16,2.79v6.13h-.93Zm0-2.59a3.25,3.25,0,0,0-2.63-1.21,2.16,2.16,0,1,0,0,4.3,3.23,3.23,0,0,0,2.63-1.19Z" transform="translate(-0.95 -2.39)"/><path class="cls-1" d="M100.55,263.86l5.15-7.09h-5.15v-.83h6.35v.76l-5.2,7.11H107v.83h-6.43Z" transform="translate(-0.95 -2.39)"/><path class="cls-1" d="M108.94,260.28c0-2.54,1.64-4.56,4.17-4.56s4.2,2,4.2,4.56-1.62,4.57-4.2,4.57S108.94,262.82,108.94,260.28Zm7.36,0c0-1.93-1.13-3.71-3.19-3.71s-3.16,1.78-3.16,3.71,1.15,3.73,3.16,3.73S116.3,262.22,116.3,260.28Z" transform="translate(-0.95 -2.39)"/><circle class="cls-2" cx="309.85" cy="18.64" r="7"/><circle class="cls-2" cx="577.99" cy="188.93" r="7"/><circle class="cls-2" cx="217.86" cy="422.81" r="7"/><circle class="cls-2" cx="183.07" cy="270.84" r="7"/><circle class="cls-2" cx="527.49" cy="426.81" r="7"/><g class="cls-3"><path class="cls-4" d="M527.83,304.85c-1,0-1.93,0-2.9-.07l-.94,0-2-.14-1.06-.1c-.81-.08-1.62-.18-2.43-.29l-1.68-.27-.87-.15a65.48,65.48,0,0,1-11.65-3.23L462.1,373.82l-.48,1.38v67.58c7.89,0,20.17.93,27.93-11.48l81.18-142.11s0-.12-.07-.06a65.79,65.79,0,0,1-24.46,13.14A66.6,66.6,0,0,1,527.83,304.85Z" transform="translate(-0.95 -2.39)"/><path class="cls-4" d="M481,191.83a65.87,65.87,0,0,1,23.63-15.23c.06,0,0-.17,0-.17l-57.91-30.18c9.66,68.88-20.32,128.56-42.3,172.3-1.05,2.08-18.22,36-20.25,47.13-3.44,18.87.19,77.1.19,77.1h44.14V366.92l.8-4.14,47.83-81.55a66.17,66.17,0,0,1,3.87-89.4Z" transform="translate(-0.95 -2.39)"/><path class="cls-4" d="M570.2,226.33c-.2-.72-.43-1.43-.67-2.14s-.51-1.41-.79-2.11a43.29,43.29,0,0,0-5.3-9.52c-.44-.6-.89-1.19-1.36-1.77q-1.43-1.74-3-3.36-1.08-1.08-2.22-2.07a43.59,43.59,0,0,0-4.78-3.63c-.83-.54-1.68-1.06-2.54-1.55h0a43.85,43.85,0,0,0-21.67-5.67c-1.39,0-2.77.06-4.13.19a44,44,0,0,0-8.57,1.67h0a43.78,43.78,0,0,0-18.51,11.06,44.85,44.85,0,0,0-6.69,8.56,43.12,43.12,0,0,0-4.34,9.8,41.87,41.87,0,0,0-1,4.18,44.56,44.56,0,0,0-.85,8.67h0a43.82,43.82,0,0,0,12.93,31.21,44.79,44.79,0,0,0,3.79,3.39,44.07,44.07,0,0,0,10,6,43.44,43.44,0,0,0,7.89,2.53c.55.12,1.09.23,1.64.33l.58.1,1.12.18c.54.07,1.08.14,1.63.19l.7.07,1.32.09.63,0c.64,0,1.28,0,1.93,0a44.26,44.26,0,0,0,12.25-1.72,44.14,44.14,0,0,0,31.59-37.49,44.12,44.12,0,0,0-1.47-17.24Z" transform="translate(-0.95 -2.39)"/><circle class="cls-4" cx="245.24" cy="298.22" r="34.38"/><path class="cls-4" d="M246.19,350.39A49.64,49.64,0,0,1,210.24,335s0,0,0,0l49.92,96.77a22.58,22.58,0,0,0,19.41,11h5.54l0-81.38-1.32-2.75L270,344.3h0A49.46,49.46,0,0,1,246.19,350.39Z" transform="translate(-0.95 -2.39)"/><path class="cls-4" d="M341.57,305.36c-7.44-26.05-29.49-49.22-46.83-68.94l-1.05-1.19c-9.88-11.24-18.14-22.24-23.4-29.59L223,256.36s-.06.23.1.15A49.77,49.77,0,0,1,289.7,325l21.64,22.65,1.32,2.76v92.41h33.1S354,349,341.57,305.36Z" transform="translate(-0.95 -2.39)"/><path class="cls-5" d="M365.4,169.2c-4.33-32.23-12.09-55-17-66.92-3.6-8.83-9.9-17.77-13.41-22.41-1.53-2-1.49-2.07.14-.11,3.71,4.45,10.48,13,15,21.39,6.16,11.32,14.18,30.43,22.07,62,14.32,57.31,9.3,129.91,4,173.81,25.33-58.09,63.69-113.86,52.24-191.39-8.24-53.1-90.42-89.75-112.16-99.83-33.61,34.11-63.59,96.17-37.33,140.64,25.38,37.92,70.3,68.91,84.4,132.74C368.24,277.24,372.11,219.17,365.4,169.2Z" transform="translate(-0.95 -2.39)"/></g></g></g></svg>