<svg xmlns="http://www.w3.org/2000/svg" viewBox="0 0 809.33 458.16"><defs><style>.cls-1{fill:#194090;}.cls-2{fill:#fff;}.cls-3{fill:#75b848;stroke-miterlimit:10;stroke-width:2.5px;}.cls-3,.cls-5{stroke:#fff;}.cls-4{opacity:0.76;}.cls-5,.cls-6{fill:none;stroke-linejoin:round;stroke-width:2.14px;stroke-dasharray:2.14;}.cls-6{stroke:#75b848;}</style></defs><g id="Camada_2" data-name="Camada 2"><g id="Conteúdo"><rect class="cls-1" y="228.04" width="168.89" height="53.98"/><rect class="cls-1" y="404.17" width="188.84" height="53.98"/><rect class="cls-1" x="579.27" y="404.17" width="230.06" height="53.98"/><rect class="cls-1" x="354.62" width="246.35" height="53.98"/><rect class="cls-1" x="623.08" y="170.28" width="186.25" height="53.98"/><path class="cls-2" d="M10.22,413.12h4.5a3.51,3.51,0,1,1,0,7H11.25v5h-1Zm4.4.93H11.25v5.15h3.37a2.58,2.58,0,1,0,0-5.15Z"/><path class="cls-2" d="M25.63,424.1a3.76,3.76,0,0,1-2.95,1.24,2.91,2.91,0,0,1-3-2.9,2.87,2.87,0,0,1,3-2.88,3.74,3.74,0,0,1,2.95,1.25V419a2.07,2.07,0,0,0-2.34-2,3.4,3.4,0,0,0-2.72,1.28l-.52-.65a4.23,4.23,0,0,1,3.35-1.46c1.76,0,3.17.85,3.17,2.79v6.13h-.94Zm0-2.59A3.27,3.27,0,0,0,23,420.3a2.16,2.16,0,1,0,0,4.3,3.24,3.24,0,0,0,2.63-1.18Z"/><path class="cls-2" d="M29.23,414.23a.74.74,0,0,1,.72-.72.72.72,0,1,1-.72.72Zm.25,2.2h.94v8.7h-.94Z"/><path class="cls-2" d="M36.2,421.29l-2.9,3.84H32.18l3.44-4.47-3.24-4.23H33.5L36.2,420l2.68-3.58H40l-3.24,4.23,3.44,4.47H39.08Z"/><path class="cls-2" d="M47.49,424.1a3.79,3.79,0,0,1-3,1.24,2.91,2.91,0,0,1-3-2.9,2.87,2.87,0,0,1,3-2.88,3.77,3.77,0,0,1,3,1.25V419c0-1.3-1.05-2-2.35-2a3.37,3.37,0,0,0-2.71,1.28l-.53-.65a4.23,4.23,0,0,1,3.35-1.46c1.77,0,3.17.85,3.17,2.79v6.13h-.93Zm0-2.59a3.29,3.29,0,0,0-2.63-1.21,2.16,2.16,0,1,0,0,4.3,3.27,3.27,0,0,0,2.63-1.18Zm-3.37-8.21c-.54,0-1,.52-1,1.74h-.63c0-1.35.59-2.41,1.67-2.41.72,0,1,.54,1.35,1.05s.47.79.9.79,1-.52,1-1.73H48c0,1.35-.57,2.41-1.65,2.41-.76,0-1.07-.54-1.37-1S44.55,413.3,44.12,413.3Z"/><path class="cls-2" d="M50.83,420.77c0-2.54,1.64-4.56,4.18-4.56s4.19,2,4.19,4.56-1.62,4.57-4.19,4.57S50.83,423.31,50.83,420.77Zm7.37,0c0-1.93-1.14-3.71-3.19-3.71s-3.17,1.78-3.17,3.71S53,424.5,55,424.5,58.2,422.71,58.2,420.77Z"/><path class="cls-2" d="M66.28,428.44v-12h.93v1.37a3.75,3.75,0,0,1,3-1.59c2.32,0,3.89,1.77,3.89,4.56s-1.57,4.57-3.89,4.57a3.71,3.71,0,0,1-3-1.62v4.72Zm3.8-11.38a3.53,3.53,0,0,0-2.87,1.55v4.3a3.56,3.56,0,0,0,2.87,1.59c1.94,0,3-1.62,3-3.73S72,417.06,70.08,417.06Z"/><path class="cls-2" d="M80.23,416.21c2.64,0,4.1,2.11,4.1,4.61v.26H77.06a3.38,3.38,0,0,0,3.4,3.45,3.84,3.84,0,0,0,2.85-1.2l.48.61a4.47,4.47,0,0,1-3.4,1.4,4.58,4.58,0,0,1-.16-9.13Zm-3.17,4.13h6.32A3.19,3.19,0,0,0,80.21,417,3.27,3.27,0,0,0,77.06,420.34Z"/><path class="cls-2" d="M86.74,413.12h.94v12h-.94Z"/><path class="cls-2" d="M90.09,420.77c0-2.54,1.64-4.56,4.18-4.56s4.19,2,4.19,4.56-1.62,4.57-4.19,4.57S90.09,423.31,90.09,420.77Zm7.36,0c0-1.93-1.13-3.71-3.18-3.71s-3.17,1.78-3.17,3.71,1.15,3.73,3.17,3.73S97.45,422.71,97.45,420.77Z"/><path class="cls-2" d="M105.71,423.45v-6.19h-1.44v-.83h1.44v-2.38h1v2.38h1.76v.83h-1.76v6.05c0,.7.29,1.19.9,1.19a1.35,1.35,0,0,0,1-.42l.36.72a1.94,1.94,0,0,1-1.48.54C106.27,425.34,105.71,424.64,105.71,423.45Z"/><path class="cls-2" d="M110.48,416.43h.94v1.49a3.74,3.74,0,0,1,2.94-1.67v1a1.83,1.83,0,0,0-.47,0,3.3,3.3,0,0,0-2.47,1.55v6.34h-.94Z"/><path class="cls-2" d="M121.72,424.1a3.79,3.79,0,0,1-3,1.24,2.91,2.91,0,0,1-3-2.9,2.87,2.87,0,0,1,3-2.88,3.77,3.77,0,0,1,3,1.25V419a2.07,2.07,0,0,0-2.34-2,3.39,3.39,0,0,0-2.72,1.28l-.52-.65a4.21,4.21,0,0,1,3.34-1.46c1.77,0,3.17.85,3.17,2.79v6.13h-.93Zm0-2.59a3.28,3.28,0,0,0-2.63-1.21,2.16,2.16,0,1,0,0,4.3,3.26,3.26,0,0,0,2.63-1.18Z"/><path class="cls-2" d="M125.57,413.12h.93v4.71a3.73,3.73,0,0,1,3-1.62c2.32,0,3.89,1.82,3.89,4.58s-1.59,4.55-3.89,4.55a3.72,3.72,0,0,1-3-1.6v1.39h-.93Zm3.8,11.38c1.94,0,3-1.61,3-3.71s-1.1-3.73-3-3.73a3.56,3.56,0,0,0-2.87,1.59V423A3.53,3.53,0,0,0,129.37,424.5Z"/><path class="cls-2" d="M141.37,424.1a3.76,3.76,0,0,1-3,1.24,2.91,2.91,0,0,1-3-2.9,2.87,2.87,0,0,1,3-2.88,3.74,3.74,0,0,1,3,1.25V419a2.07,2.07,0,0,0-2.34-2,3.4,3.4,0,0,0-2.72,1.28l-.52-.65a4.23,4.23,0,0,1,3.35-1.46c1.77,0,3.17.85,3.17,2.79v6.13h-.94Zm0-2.59a3.26,3.26,0,0,0-2.62-1.21,2.16,2.16,0,1,0,0,4.3,3.24,3.24,0,0,0,2.62-1.18Z"/><path class="cls-2" d="M145.22,413.12h.94v12h-.94Z"/><path class="cls-2" d="M155,419.2c0-1.67-.85-2.14-2.11-2.14a3.73,3.73,0,0,0-2.83,1.49v6.58h-.93v-12H150v4.62a4.42,4.42,0,0,1,3.13-1.53c1.77,0,2.74.83,2.74,2.79v6.13H155Z"/><path class="cls-2" d="M158.29,420.77c0-2.54,1.64-4.56,4.18-4.56s4.19,2,4.19,4.56-1.62,4.57-4.19,4.57S158.29,423.31,158.29,420.77Zm7.37,0c0-1.93-1.14-3.71-3.19-3.71s-3.17,1.78-3.17,3.71,1.15,3.73,3.17,3.73S165.66,422.71,165.66,420.77Z"/><path class="cls-2" d="M13.88,437.81c2.64,0,4.1,2.11,4.1,4.61v.26H10.71a3.38,3.38,0,0,0,3.4,3.45,3.84,3.84,0,0,0,2.85-1.2l.48.61a4.47,4.47,0,0,1-3.4,1.4,4.58,4.58,0,0,1-.16-9.13Zm-3.17,4.13H17a3.19,3.19,0,0,0-3.17-3.32A3.27,3.27,0,0,0,10.71,441.94Z"/><path class="cls-2" d="M25.09,434.72h1v12h-1Z"/><path class="cls-2" d="M34.94,440.84c0-1.68-.85-2.18-2.11-2.18A3.75,3.75,0,0,0,30,440.15v6.58h-.93V438H30v1.31a4.45,4.45,0,0,1,3.14-1.53c1.76,0,2.73.87,2.73,2.83v6.09h-.93Z"/><path class="cls-2" d="M39,445.05v-6.19H37.53V438H39v-2.38h1V438h1.77v.83H39.92v6.05c0,.7.29,1.19.9,1.19a1.32,1.32,0,0,0,1-.42l.37.72a2,2,0,0,1-1.48.54C39.53,446.94,39,446.24,39,445.05Z"/><path class="cls-2" d="M47.43,437.81c2.65,0,4.11,2.11,4.11,4.61v.26H44.26a3.38,3.38,0,0,0,3.4,3.45,3.84,3.84,0,0,0,2.85-1.2l.49.61a4.51,4.51,0,0,1-3.41,1.4,4.58,4.58,0,0,1-.16-9.13Zm-3.17,4.13h6.32a3.19,3.19,0,0,0-3.17-3.32A3.27,3.27,0,0,0,44.26,441.94Z"/><path class="cls-2" d="M54.5,448.22a3.35,3.35,0,0,0,2.88,1.23,2.66,2.66,0,0,0,3-2.8v-1.36a3.75,3.75,0,0,1-3,1.62c-2.3,0-3.89-1.75-3.89-4.54s1.59-4.56,3.89-4.56a3.68,3.68,0,0,1,3,1.62V438h1v8.61c0,2.66-1.8,3.62-3.93,3.62A4.17,4.17,0,0,1,54,448.94Zm5.85-8a3.49,3.49,0,0,0-2.86-1.58c-1.92,0-3,1.6-3,3.71s1.12,3.69,3,3.69a3.49,3.49,0,0,0,2.86-1.58Z"/><path class="cls-2" d="M64.2,438h.94v1.49a3.74,3.74,0,0,1,2.94-1.67v1a1.83,1.83,0,0,0-.47,0,3.32,3.32,0,0,0-2.47,1.55v6.34H64.2Z"/><path class="cls-2" d="M69.66,435.83a.72.72,0,0,1,1.44,0,.72.72,0,1,1-1.44,0Zm.25,2.2h.94v8.7h-.94Z"/><path class="cls-2" d="M80.17,445.34a3.7,3.7,0,0,1-3,1.6c-2.31,0-3.89-1.76-3.89-4.55s1.58-4.58,3.89-4.58a3.68,3.68,0,0,1,3,1.62v-4.71h1v12h-1Zm0-5.1a3.48,3.48,0,0,0-2.86-1.58c-1.93,0-3,1.62-3,3.73s1.11,3.71,3,3.71a3.48,3.48,0,0,0,2.86-1.55Z"/><path class="cls-2" d="M89.57,445.7a3.78,3.78,0,0,1-2.95,1.24,2.91,2.91,0,0,1-3.05-2.9,2.88,2.88,0,0,1,3.05-2.88,3.76,3.76,0,0,1,2.95,1.25v-1.77a2.07,2.07,0,0,0-2.34-2,3.39,3.39,0,0,0-2.72,1.28l-.52-.65a4.22,4.22,0,0,1,3.35-1.46c1.76,0,3.16.85,3.16,2.79v6.13h-.93Zm0-2.59a3.28,3.28,0,0,0-2.63-1.21,2.16,2.16,0,1,0,0,4.3A3.26,3.26,0,0,0,89.57,445Z"/><path class="cls-2" d="M99.83,445.34a3.7,3.7,0,0,1-3,1.6c-2.3,0-3.89-1.76-3.89-4.55s1.59-4.58,3.89-4.58a3.69,3.69,0,0,1,3,1.62v-4.71h1v12h-1Zm0-5.1A3.49,3.49,0,0,0,97,438.66c-1.93,0-3,1.62-3,3.73s1.12,3.71,3,3.71a3.49,3.49,0,0,0,2.86-1.55Z"/><path class="cls-2" d="M107.39,437.81c2.64,0,4.1,2.11,4.1,4.61v.26h-7.27a3.38,3.38,0,0,0,3.4,3.45,3.84,3.84,0,0,0,2.85-1.2l.48.61a4.47,4.47,0,0,1-3.4,1.4,4.58,4.58,0,0,1-.16-9.13Zm-3.17,4.13h6.32a3.19,3.19,0,0,0-3.17-3.32A3.27,3.27,0,0,0,104.22,441.94Z"/><path class="cls-2" d="M634.29,179.23h7.62v.93h-6.59v4.45h6.46v.94h-6.46v5.69h-1Z"/><path class="cls-2" d="M643.51,186.88c0-2.54,1.64-4.56,4.18-4.56s4.19,2,4.19,4.56-1.62,4.57-4.19,4.57S643.51,189.42,643.51,186.88Zm7.36,0c0-1.93-1.13-3.71-3.18-3.71s-3.17,1.78-3.17,3.71,1.15,3.73,3.17,3.73S650.87,188.82,650.87,186.88Z"/><path class="cls-2" d="M658,182.32a3.6,3.6,0,0,1,3.08,1.48l-.65.58a2.74,2.74,0,0,0-2.38-1.21c-2,0-3.27,1.62-3.27,3.71s1.24,3.73,3.27,3.73a2.76,2.76,0,0,0,2.38-1.23l.65.58a3.56,3.56,0,0,1-3.08,1.49,4.58,4.58,0,0,1,0-9.13Z"/><path class="cls-2" d="M662.68,186.88c0-2.54,1.64-4.56,4.18-4.56s4.19,2,4.19,4.56-1.62,4.57-4.19,4.57S662.68,189.42,662.68,186.88Zm7.36,0c0-1.93-1.13-3.71-3.18-3.71s-3.17,1.78-3.17,3.71,1.15,3.73,3.17,3.73S670,188.82,670,186.88Z"/><path class="cls-2" d="M684,185.35c0-1.68-.84-2.18-2.1-2.18a3.73,3.73,0,0,0-2.83,1.49v6.58h-.94v-8.7h.94v1.32a4.4,4.4,0,0,1,3.13-1.54c1.77,0,2.74.87,2.74,2.83v6.09H684Z"/><path class="cls-2" d="M693.37,190.21a3.77,3.77,0,0,1-3,1.24,2.89,2.89,0,1,1,0-5.78,3.75,3.75,0,0,1,3,1.25v-1.77a2.07,2.07,0,0,0-2.34-2,3.39,3.39,0,0,0-2.72,1.28l-.52-.65a4.23,4.23,0,0,1,3.35-1.46c1.76,0,3.17.85,3.17,2.79v6.13h-.94Zm0-2.59a3.27,3.27,0,0,0-2.63-1.21,2.16,2.16,0,1,0,0,4.3,3.24,3.24,0,0,0,2.63-1.18Z"/><path class="cls-2" d="M705.58,182.32c2.64,0,4.1,2.11,4.1,4.61v.26h-7.27a3.38,3.38,0,0,0,3.4,3.45,3.8,3.8,0,0,0,2.84-1.2l.49.61a4.47,4.47,0,0,1-3.4,1.4,4.58,4.58,0,0,1-.16-9.13Zm-3.17,4.13h6.32a3.19,3.19,0,0,0-3.17-3.32A3.27,3.27,0,0,0,702.41,186.45Z"/><path class="cls-2" d="M714.49,187.4l-2.9,3.84h-1.12l3.44-4.47-3.24-4.23h1.11l2.71,3.58,2.68-3.58h1.11L715,186.77l3.44,4.47h-1.11Z"/><path class="cls-2" d="M723.32,182.32a3.59,3.59,0,0,1,3.08,1.48l-.65.58a2.73,2.73,0,0,0-2.37-1.21c-2,0-3.28,1.62-3.28,3.71s1.24,3.73,3.28,3.73a2.75,2.75,0,0,0,2.37-1.23l.65.58a3.54,3.54,0,0,1-3.08,1.49,4.58,4.58,0,0,1,0-9.13Z"/><path class="cls-2" d="M732.18,182.32c2.65,0,4.11,2.11,4.11,4.61v.26H729a3.38,3.38,0,0,0,3.4,3.45,3.84,3.84,0,0,0,2.85-1.2l.49.61a4.51,4.51,0,0,1-3.41,1.4,4.58,4.58,0,0,1-.16-9.13ZM729,186.45h6.32a3.19,3.19,0,0,0-3.17-3.32A3.28,3.28,0,0,0,729,186.45Z"/><path class="cls-2" d="M738.69,179.23h.94v12h-.94Z"/><path class="cls-2" d="M746.24,182.32c2.64,0,4.1,2.11,4.1,4.61v.26h-7.27a3.38,3.38,0,0,0,3.4,3.45,3.84,3.84,0,0,0,2.85-1.2l.48.61a4.47,4.47,0,0,1-3.4,1.4,4.58,4.58,0,0,1-.16-9.13Zm-3.17,4.13h6.32a3.19,3.19,0,0,0-3.17-3.32A3.28,3.28,0,0,0,743.07,186.45Zm3.15-7.26-1.53,2H744l1.74-2.6h1l1.78,2.6h-.72Z"/><path class="cls-2" d="M758.62,185.35c0-1.68-.84-2.18-2.1-2.18a3.73,3.73,0,0,0-2.83,1.49v6.58h-.94v-8.7h.94v1.32a4.4,4.4,0,0,1,3.13-1.54c1.77,0,2.74.87,2.74,2.83v6.09h-.94Z"/><path class="cls-2" d="M766.2,182.32a3.6,3.6,0,0,1,3.08,1.48l-.65.58a2.74,2.74,0,0,0-2.38-1.21c-2,0-3.27,1.62-3.27,3.71s1.24,3.73,3.27,3.73a2.76,2.76,0,0,0,2.38-1.23l.65.58a3.56,3.56,0,0,1-3.08,1.49,4.58,4.58,0,0,1,0-9.13Z"/><path class="cls-2" d="M771.11,180.34a.74.74,0,0,1,.72-.72.72.72,0,1,1-.72.72Zm.25,2.2h.94v8.7h-.94Z"/><path class="cls-2" d="M780.74,190.21a3.76,3.76,0,0,1-3,1.24,2.91,2.91,0,0,1-3-2.9,2.87,2.87,0,0,1,3-2.88,3.74,3.74,0,0,1,3,1.25v-1.77a2.07,2.07,0,0,0-2.34-2,3.4,3.4,0,0,0-2.72,1.28l-.52-.65a4.23,4.23,0,0,1,3.35-1.46c1.76,0,3.17.85,3.17,2.79v6.13h-.94Zm0-2.59a3.27,3.27,0,0,0-2.63-1.21,2.16,2.16,0,1,0,0,4.3,3.24,3.24,0,0,0,2.63-1.18Z"/><path class="cls-2" d="M638,203.92c2.65,0,4.1,2.11,4.1,4.61v.26h-7.27a3.38,3.38,0,0,0,3.4,3.45A3.84,3.84,0,0,0,641,211l.48.61a4.47,4.47,0,0,1-3.4,1.4,4.58,4.58,0,0,1-.16-9.13Zm-3.17,4.13h6.32a3.19,3.19,0,0,0-3.17-3.32A3.27,3.27,0,0,0,634.78,208.05Z"/><path class="cls-2" d="M655.54,216.15v-4.72a3.71,3.71,0,0,1-3,1.62c-2.32,0-3.89-1.8-3.89-4.57s1.57-4.56,3.89-4.56a3.76,3.76,0,0,1,3,1.59v-1.37h1v12Zm0-9.83a3.53,3.53,0,0,0-2.87-1.55c-1.92,0-3,1.6-3,3.71s1.12,3.73,3,3.73a3.56,3.56,0,0,0,2.87-1.59Z"/><path class="cls-2" d="M665.26,211.56a4.43,4.43,0,0,1-3.14,1.49c-1.78,0-2.73-.83-2.73-2.79v-6.12h.93v5.91c0,1.69.85,2.16,2.11,2.16a3.78,3.78,0,0,0,2.83-1.44v-6.63h.93v8.7h-.93Z"/><path class="cls-2" d="M674.63,211.81a3.76,3.76,0,0,1-3,1.24,2.91,2.91,0,0,1-3-2.9,2.87,2.87,0,0,1,3-2.88,3.74,3.74,0,0,1,3,1.25v-1.77a2.07,2.07,0,0,0-2.34-2,3.4,3.4,0,0,0-2.72,1.28l-.52-.65a4.23,4.23,0,0,1,3.35-1.46c1.76,0,3.17.85,3.17,2.79v6.13h-.94Zm0-2.59A3.27,3.27,0,0,0,672,208a2.16,2.16,0,1,0,0,4.3,3.24,3.24,0,0,0,2.63-1.18Z"/><path class="cls-2" d="M678.48,200.83h.94v12h-.94Z"/><path class="cls-2" d="M682.08,201.94a.74.74,0,0,1,.72-.72.72.72,0,1,1,0,1.44A.74.74,0,0,1,682.08,201.94Zm.25,2.2h.94v8.7h-.94Z"/><path class="cls-2" d="M692.6,211.45a3.72,3.72,0,0,1-3,1.6c-2.3,0-3.89-1.76-3.89-4.55s1.59-4.58,3.89-4.58a3.71,3.71,0,0,1,3,1.62v-4.71h.95v12h-.95Zm0-5.09a3.48,3.48,0,0,0-2.87-1.59c-1.92,0-3,1.62-3,3.73s1.12,3.71,3,3.71a3.5,3.5,0,0,0,2.87-1.55Z"/><path class="cls-2" d="M702,211.81a3.76,3.76,0,0,1-3,1.24,2.91,2.91,0,0,1-3-2.9,2.87,2.87,0,0,1,3-2.88,3.74,3.74,0,0,1,3,1.25v-1.77a2.07,2.07,0,0,0-2.34-2,3.4,3.4,0,0,0-2.72,1.28l-.52-.65a4.23,4.23,0,0,1,3.35-1.46c1.76,0,3.17.85,3.17,2.79v6.13H702Zm0-2.59a3.27,3.27,0,0,0-2.63-1.21,2.16,2.16,0,1,0,0,4.3,3.24,3.24,0,0,0,2.63-1.18Z"/><path class="cls-2" d="M712.25,211.45a3.7,3.7,0,0,1-3,1.6c-2.31,0-3.89-1.76-3.89-4.55s1.58-4.58,3.89-4.58a3.68,3.68,0,0,1,3,1.62v-4.71h1v12h-1Zm0-5.09a3.46,3.46,0,0,0-2.86-1.59c-1.93,0-3,1.62-3,3.73s1.11,3.71,3,3.71a3.48,3.48,0,0,0,2.86-1.55Z"/><path class="cls-2" d="M719.81,203.92c2.65,0,4.11,2.11,4.11,4.61v.26h-7.28a3.39,3.39,0,0,0,3.41,3.45,3.81,3.81,0,0,0,2.84-1.2l.49.61a4.51,4.51,0,0,1-3.41,1.4,4.58,4.58,0,0,1-.16-9.13Zm-3.17,4.13H723a3.19,3.19,0,0,0-3.17-3.32A3.28,3.28,0,0,0,716.64,208.05Z"/><path class="cls-2" d="M592.62,420.16H590v5h-1v-12h4.48a3.4,3.4,0,0,1,3.66,3.51,3.32,3.32,0,0,1-3.34,3.46l3.48,5H596Zm.72-6.11H590v5.17h3.37a2.59,2.59,0,1,0,0-5.17Z"/><path class="cls-2" d="M602.75,416.21c2.65,0,4.11,2.11,4.11,4.61v.26h-7.27a3.38,3.38,0,0,0,3.4,3.45,3.8,3.8,0,0,0,2.84-1.2l.49.61a4.47,4.47,0,0,1-3.4,1.4,4.58,4.58,0,0,1-.17-9.13Zm-3.16,4.13h6.32a3.2,3.2,0,0,0-3.17-3.32A3.27,3.27,0,0,0,599.59,420.34Z"/><path class="cls-2" d="M609.07,423.27a3.64,3.64,0,0,0,2.81,1.28c1.46,0,2.32-.72,2.32-1.73s-1.19-1.44-2.43-1.76c-1.46-.36-3.06-.74-3.06-2.43,0-1.34,1.14-2.42,3.1-2.42a4,4,0,0,1,3.11,1.28l-.52.67a3.14,3.14,0,0,0-2.59-1.15c-1.35,0-2.18.66-2.18,1.56s1.12,1.26,2.32,1.57c1.5.38,3.17.79,3.17,2.65,0,1.4-1.08,2.55-3.26,2.55a4.21,4.21,0,0,1-3.35-1.37Z"/><path class="cls-2" d="M617.53,428.44v-12h.94v1.37a3.74,3.74,0,0,1,3-1.59c2.33,0,3.89,1.77,3.89,4.56s-1.56,4.57-3.89,4.57a3.71,3.71,0,0,1-3-1.62v4.72Zm3.8-11.38a3.49,3.49,0,0,0-2.86,1.55v4.3a3.53,3.53,0,0,0,2.86,1.59c1.95,0,3-1.62,3-3.73S623.28,417.06,621.33,417.06Z"/><path class="cls-2" d="M631.48,416.21c2.65,0,4.11,2.11,4.11,4.61v.26h-7.28a3.39,3.39,0,0,0,3.41,3.45,3.83,3.83,0,0,0,2.84-1.2l.49.61a4.51,4.51,0,0,1-3.41,1.4,4.58,4.58,0,0,1-.16-9.13Zm-3.17,4.13h6.32a3.19,3.19,0,0,0-3.17-3.32A3.28,3.28,0,0,0,628.31,420.34Z"/><path class="cls-2" d="M637.75,414.23a.72.72,0,1,1,1.44,0,.72.72,0,1,1-1.44,0Zm.25,2.2h.93v8.7H638Z"/><path class="cls-2" d="M642,423.45v-6.19h-1.44v-.83H642v-2.38h1v2.38h1.77v.83H643v6.05c0,.7.29,1.19.9,1.19a1.36,1.36,0,0,0,1-.42l.36.72a2,2,0,0,1-1.48.54C642.59,425.34,642,424.64,642,423.45Z"/><path class="cls-2" d="M646.29,420.77c0-2.54,1.64-4.56,4.18-4.56s4.2,2,4.2,4.56-1.62,4.57-4.2,4.57S646.29,423.31,646.29,420.77Zm7.37,0c0-1.93-1.14-3.71-3.19-3.71s-3.17,1.78-3.17,3.71,1.15,3.73,3.17,3.73S653.66,422.71,653.66,420.77Z"/><path class="cls-2" d="M656.5,426.89a2.42,2.42,0,0,0,1-1.65h-.17a.72.72,0,0,1-.74-.75.78.78,0,0,1,.77-.78c.49,0,.92.42.92,1.15a3.19,3.19,0,0,1-1.3,2.47Z"/><path class="cls-2" d="M665.7,423.45v-6.19h-1.44v-.83h1.44v-2.38h.95v2.38h1.77v.83h-1.77v6.05c0,.7.29,1.19.9,1.19a1.36,1.36,0,0,0,1-.42l.36.72a2,2,0,0,1-1.48.54C666.26,425.34,665.7,424.64,665.7,423.45Z"/><path class="cls-2" d="M670.47,416.43h.93v1.49a3.74,3.74,0,0,1,2.94-1.67v1a1.79,1.79,0,0,0-.47,0,3.32,3.32,0,0,0-2.47,1.55v6.34h-.93Z"/><path class="cls-2" d="M681.7,424.1a3.77,3.77,0,0,1-3,1.24,2.89,2.89,0,1,1,0-5.78,3.75,3.75,0,0,1,3,1.25V419a2.07,2.07,0,0,0-2.34-2,3.39,3.39,0,0,0-2.72,1.28l-.52-.65a4.23,4.23,0,0,1,3.35-1.46c1.76,0,3.17.85,3.17,2.79v6.13h-.94Zm0-2.59a3.27,3.27,0,0,0-2.63-1.21,2.16,2.16,0,1,0,0,4.3,3.24,3.24,0,0,0,2.63-1.18Z"/><path class="cls-2" d="M691.42,419.24c0-1.68-.84-2.18-2.11-2.18a3.73,3.73,0,0,0-2.82,1.49v6.58h-.94v-8.7h.94v1.31a4.42,4.42,0,0,1,3.13-1.53c1.76,0,2.74.87,2.74,2.83v6.09h-.94Z"/><path class="cls-2" d="M695.07,423.27a3.64,3.64,0,0,0,2.81,1.28c1.46,0,2.32-.72,2.32-1.73s-1.18-1.44-2.43-1.76c-1.45-.36-3.06-.74-3.06-2.43,0-1.34,1.14-2.42,3.1-2.42a4,4,0,0,1,3.11,1.28l-.52.67a3.14,3.14,0,0,0-2.59-1.15c-1.35,0-2.18.66-2.18,1.56s1.12,1.26,2.32,1.57c1.5.38,3.17.79,3.17,2.65,0,1.4-1.08,2.55-3.26,2.55a4.21,4.21,0,0,1-3.35-1.37Z"/><path class="cls-2" d="M703.53,428.44v-12h.94v1.37a3.74,3.74,0,0,1,3-1.59c2.33,0,3.89,1.77,3.89,4.56s-1.56,4.57-3.89,4.57a3.71,3.71,0,0,1-3-1.62v4.72Zm3.8-11.38a3.51,3.51,0,0,0-2.86,1.55v4.3a3.54,3.54,0,0,0,2.86,1.59c1.95,0,3-1.62,3-3.73S709.28,417.06,707.33,417.06Z"/><path class="cls-2" d="M719.32,424.1a3.77,3.77,0,0,1-3,1.24,2.89,2.89,0,1,1,0-5.78,3.76,3.76,0,0,1,3,1.25V419a2.07,2.07,0,0,0-2.34-2,3.39,3.39,0,0,0-2.72,1.28l-.52-.65a4.23,4.23,0,0,1,3.35-1.46c1.76,0,3.17.85,3.17,2.79v6.13h-.94Zm0-2.59a3.27,3.27,0,0,0-2.63-1.21,2.16,2.16,0,1,0,0,4.3,3.24,3.24,0,0,0,2.63-1.18Z"/><path class="cls-2" d="M723.17,416.43h.94v1.49a3.74,3.74,0,0,1,2.93-1.67v1a1.79,1.79,0,0,0-.47,0,3.29,3.29,0,0,0-2.46,1.55v6.34h-.94Z"/><path class="cls-2" d="M732.57,416.21c2.64,0,4.1,2.11,4.1,4.61v.26H729.4a3.38,3.38,0,0,0,3.4,3.45,3.84,3.84,0,0,0,2.85-1.2l.48.61a4.47,4.47,0,0,1-3.4,1.4,4.58,4.58,0,0,1-.16-9.13Zm-3.17,4.13h6.32a3.19,3.19,0,0,0-3.17-3.32A3.27,3.27,0,0,0,729.4,420.34Zm3.15-7.26-1.53,2h-.7l1.74-2.6h1l1.78,2.6h-.72Z"/><path class="cls-2" d="M745,419.24c0-1.68-.84-2.18-2.1-2.18a3.73,3.73,0,0,0-2.83,1.49v6.58h-.94v-8.7H740v1.31a4.42,4.42,0,0,1,3.13-1.53c1.77,0,2.74.87,2.74,2.83v6.09H745Z"/><path class="cls-2" d="M752.53,416.21a3.6,3.6,0,0,1,3.08,1.48l-.65.58a2.74,2.74,0,0,0-2.38-1.21c-2,0-3.27,1.62-3.27,3.71s1.24,3.73,3.27,3.73a2.76,2.76,0,0,0,2.38-1.23l.65.58a3.56,3.56,0,0,1-3.08,1.49,4.58,4.58,0,0,1,0-9.13Z"/><path class="cls-2" d="M757.44,414.23a.74.74,0,0,1,.72-.72.72.72,0,1,1-.72.72Zm.25,2.2h.94v8.7h-.94Z"/><path class="cls-2" d="M767.07,424.1a3.76,3.76,0,0,1-3,1.24,2.91,2.91,0,0,1-3-2.9,2.87,2.87,0,0,1,3-2.88,3.74,3.74,0,0,1,3,1.25V419a2.07,2.07,0,0,0-2.34-2,3.4,3.4,0,0,0-2.72,1.28l-.52-.65a4.23,4.23,0,0,1,3.35-1.46c1.77,0,3.17.85,3.17,2.79v6.13h-.94Zm0-2.59a3.27,3.27,0,0,0-2.63-1.21,2.16,2.16,0,1,0,0,4.3,3.24,3.24,0,0,0,2.63-1.18Z"/><path class="cls-2" d="M592.6,437.81c2.65,0,4.11,2.11,4.11,4.61v.26h-7.28a3.39,3.39,0,0,0,3.41,3.45,3.81,3.81,0,0,0,2.84-1.2l.49.61a4.51,4.51,0,0,1-3.41,1.4,4.58,4.58,0,0,1-.16-9.13Zm-3.17,4.13h6.32a3.19,3.19,0,0,0-3.17-3.32A3.28,3.28,0,0,0,589.43,441.94Z"/><path class="cls-2" d="M607.51,437.81a3.58,3.58,0,0,1,3.07,1.48l-.64.58a2.75,2.75,0,0,0-2.38-1.21c-2,0-3.28,1.62-3.28,3.71s1.25,3.73,3.28,3.73a2.77,2.77,0,0,0,2.38-1.23l.64.58a3.54,3.54,0,0,1-3.07,1.49,4.58,4.58,0,0,1,0-9.13Z"/><path class="cls-2" d="M612.67,438h.94v1.49a3.71,3.71,0,0,1,2.93-1.67v1a1.79,1.79,0,0,0-.47,0,3.29,3.29,0,0,0-2.46,1.55v6.34h-.94Z"/><path class="cls-2" d="M622.07,437.81c2.64,0,4.1,2.11,4.1,4.61v.26H618.9a3.38,3.38,0,0,0,3.4,3.45,3.84,3.84,0,0,0,2.85-1.2l.48.61a4.47,4.47,0,0,1-3.4,1.4,4.58,4.58,0,0,1-.16-9.13Zm-3.17,4.13h6.32a3.19,3.19,0,0,0-3.17-3.32A3.27,3.27,0,0,0,618.9,441.94Z"/><path class="cls-2" d="M628.38,444.87a3.64,3.64,0,0,0,2.81,1.28c1.46,0,2.33-.72,2.33-1.73s-1.19-1.44-2.44-1.76c-1.45-.36-3.06-.74-3.06-2.43,0-1.34,1.14-2.42,3.1-2.42a4,4,0,0,1,3.12,1.28l-.53.67a3.14,3.14,0,0,0-2.59-1.15c-1.35,0-2.18.66-2.18,1.56s1.12,1.26,2.32,1.57c1.5.38,3.17.79,3.17,2.65,0,1.4-1.08,2.55-3.26,2.55a4.18,4.18,0,0,1-3.34-1.37Z"/><path class="cls-2" d="M640.57,437.81a3.6,3.6,0,0,1,3.08,1.48l-.65.58a2.74,2.74,0,0,0-2.38-1.21c-2,0-3.27,1.62-3.27,3.71s1.24,3.73,3.27,3.73a2.76,2.76,0,0,0,2.38-1.23l.65.58a3.56,3.56,0,0,1-3.08,1.49,4.58,4.58,0,0,1,0-9.13Z"/><path class="cls-2" d="M645.48,435.83a.74.74,0,0,1,.72-.72.72.72,0,0,1,0,1.44A.74.74,0,0,1,645.48,435.83Zm.26,2.2h.93v8.7h-.93Z"/><path class="cls-2" d="M659.94,440.64c0-1.22-.52-2-1.75-2a3.22,3.22,0,0,0-2.48,1.48v6.59h-1v-6.09c0-1.22-.5-2-1.74-2a3.36,3.36,0,0,0-2.49,1.49v6.58h-.93V438h.93v1.31a3.86,3.86,0,0,1,2.81-1.53,2.2,2.2,0,0,1,2.29,1.64,3.63,3.63,0,0,1,2.88-1.64c1.6,0,2.38.9,2.38,2.65v6.27h-.94Z"/><path class="cls-2" d="M667.48,437.81c2.65,0,4.1,2.11,4.1,4.61v.26h-7.27a3.38,3.38,0,0,0,3.4,3.45,3.84,3.84,0,0,0,2.85-1.2l.48.61a4.47,4.47,0,0,1-3.4,1.4,4.58,4.58,0,0,1-.16-9.13Zm-3.17,4.13h6.32a3.19,3.19,0,0,0-3.17-3.32A3.27,3.27,0,0,0,664.31,441.94Z"/><path class="cls-2" d="M679.86,440.84c0-1.68-.84-2.18-2.1-2.18a3.73,3.73,0,0,0-2.83,1.49v6.58H674V438h.94v1.31a4.42,4.42,0,0,1,3.13-1.53c1.77,0,2.74.87,2.74,2.83v6.09h-.94Z"/><path class="cls-2" d="M683.89,445.05v-6.19h-1.44V438h1.44v-2.38h1V438h1.76v.83h-1.76v6.05c0,.7.29,1.19.9,1.19a1.35,1.35,0,0,0,1-.42l.36.72a1.92,1.92,0,0,1-1.48.54C684.45,446.94,683.89,446.24,683.89,445.05Z"/><path class="cls-2" d="M688.16,442.37c0-2.54,1.64-4.56,4.18-4.56s4.19,2,4.19,4.56-1.62,4.57-4.19,4.57S688.16,444.91,688.16,442.37Zm7.36,0c0-1.93-1.13-3.71-3.18-3.71s-3.17,1.78-3.17,3.71,1.15,3.73,3.17,3.73S695.52,444.31,695.52,442.37Z"/><path class="cls-2" d="M707.33,437.81a3.6,3.6,0,0,1,3.08,1.48l-.65.58a2.74,2.74,0,0,0-2.38-1.21c-2,0-3.27,1.62-3.27,3.71s1.24,3.73,3.27,3.73a2.76,2.76,0,0,0,2.38-1.23l.65.58a3.56,3.56,0,0,1-3.08,1.49,4.58,4.58,0,0,1,0-9.13Z"/><path class="cls-2" d="M712,442.37c0-2.54,1.64-4.56,4.18-4.56s4.19,2,4.19,4.56-1.62,4.57-4.19,4.57S712,444.91,712,442.37Zm7.36,0c0-1.93-1.13-3.71-3.18-3.71s-3.17,1.78-3.17,3.71,1.15,3.73,3.17,3.73S719.35,444.31,719.35,442.37Z"/><path class="cls-2" d="M722.77,434.72h.94v12h-.94Z"/><path class="cls-2" d="M732.15,445.7a3.76,3.76,0,0,1-2.95,1.24,2.89,2.89,0,1,1,0-5.78,3.74,3.74,0,0,1,2.95,1.25v-1.77a2.07,2.07,0,0,0-2.34-2,3.39,3.39,0,0,0-2.72,1.28l-.52-.65a4.23,4.23,0,0,1,3.35-1.46c1.76,0,3.17.85,3.17,2.79v6.13h-.94Zm0-2.59a3.27,3.27,0,0,0-2.63-1.21,2.16,2.16,0,1,0,0,4.3,3.24,3.24,0,0,0,2.63-1.18Z"/><path class="cls-2" d="M736,434.72h.94v4.71a3.71,3.71,0,0,1,3-1.62c2.33,0,3.89,1.82,3.89,4.58s-1.58,4.55-3.89,4.55a3.7,3.7,0,0,1-3-1.6v1.39H736Zm3.8,11.38c2,0,3-1.61,3-3.71s-1.09-3.73-3-3.73a3.54,3.54,0,0,0-2.86,1.58v4.31A3.49,3.49,0,0,0,739.8,446.1Z"/><path class="cls-2" d="M745.78,442.37c0-2.54,1.63-4.56,4.17-4.56s4.2,2,4.2,4.56-1.62,4.57-4.2,4.57S745.78,444.91,745.78,442.37Zm7.36,0c0-1.93-1.13-3.71-3.19-3.71s-3.17,1.78-3.17,3.71,1.16,3.73,3.17,3.73S753.14,444.31,753.14,442.37Z"/><path class="cls-2" d="M756.56,438h.93v1.49a3.74,3.74,0,0,1,2.94-1.67v1a1.79,1.79,0,0,0-.47,0,3.32,3.32,0,0,0-2.47,1.55v6.34h-.93Z"/><path class="cls-2" d="M767.79,445.7a3.77,3.77,0,0,1-2.95,1.24,2.89,2.89,0,1,1,0-5.78,3.75,3.75,0,0,1,2.95,1.25v-1.77a2.07,2.07,0,0,0-2.34-2,3.39,3.39,0,0,0-2.72,1.28l-.52-.65a4.23,4.23,0,0,1,3.35-1.46c1.76,0,3.17.85,3.17,2.79v6.13h-.94Zm0-2.59a3.27,3.27,0,0,0-2.63-1.21,2.16,2.16,0,1,0,0,4.3,3.24,3.24,0,0,0,2.63-1.18Z"/><path class="cls-2" d="M771.82,445.05v-6.19h-1.44V438h1.44v-2.38h1V438h1.76v.83h-1.76v6.05c0,.7.28,1.19.9,1.19a1.35,1.35,0,0,0,1-.42l.36.72a1.94,1.94,0,0,1-1.48.54C772.38,446.94,771.82,446.24,771.82,445.05Z"/><path class="cls-2" d="M776.34,435.83a.72.72,0,0,1,1.44,0,.72.72,0,1,1-1.44,0Zm.25,2.2h.94v8.7h-.94Z"/><path class="cls-2" d="M779.11,438h1l3.17,7.6,3.14-7.6h1.06l-3.67,8.7h-1.07Z"/><path class="cls-2" d="M788.6,442.37c0-2.54,1.63-4.56,4.17-4.56s4.2,2,4.2,4.56-1.62,4.57-4.2,4.57S788.6,444.91,788.6,442.37Zm7.36,0c0-1.93-1.13-3.71-3.19-3.71s-3.17,1.78-3.17,3.71,1.16,3.73,3.17,3.73S796,444.31,796,442.37Z"/><path class="cls-2" d="M367.56,9.88h-3.93V8.94h8.9v.94H368.6V21h-1Z"/><path class="cls-2" d="M372.94,12.26h.93v1.49a3.75,3.75,0,0,1,2.94-1.68v1a2.37,2.37,0,0,0-.47,0,3.34,3.34,0,0,0-2.47,1.54V21h-.93Z"/><path class="cls-2" d="M384.17,19.93a3.8,3.8,0,0,1-2.95,1.24,2.92,2.92,0,0,1-3.05-2.9,2.88,2.88,0,0,1,3.05-2.88,3.76,3.76,0,0,1,2.95,1.24V14.87a2.07,2.07,0,0,0-2.34-2,3.39,3.39,0,0,0-2.72,1.28l-.52-.65A4.23,4.23,0,0,1,381.94,12c1.76,0,3.17.85,3.17,2.79V21h-.94Zm0-2.6a3.26,3.26,0,0,0-2.63-1.2,2.16,2.16,0,1,0,0,4.3,3.25,3.25,0,0,0,2.63-1.19Z"/><path class="cls-2" d="M393.89,15.06c0-1.67-.85-2.17-2.11-2.17A3.73,3.73,0,0,0,389,14.38V21H388V12.26H389v1.31A4.39,4.39,0,0,1,392.09,12c1.76,0,2.74.86,2.74,2.83V21h-.94Z"/><path class="cls-2" d="M397.54,19.1a3.64,3.64,0,0,0,2.81,1.28c1.46,0,2.32-.72,2.32-1.73s-1.18-1.44-2.43-1.77c-1.45-.36-3.06-.74-3.06-2.43,0-1.33,1.14-2.41,3.1-2.41a4,4,0,0,1,3.11,1.28l-.52.66a3.17,3.17,0,0,0-2.59-1.15c-1.35,0-2.18.67-2.18,1.57s1.12,1.26,2.32,1.56c1.5.38,3.17.8,3.17,2.65,0,1.41-1.08,2.56-3.26,2.56A4.24,4.24,0,0,1,397,19.8Z"/><path class="cls-2" d="M406.31,13.08h-1.44v-.82h1.44v-.8c0-1.71.92-2.7,2.36-2.7a2.27,2.27,0,0,1,1.17.27l-.29.74a1.49,1.49,0,0,0-.79-.2c-1,0-1.51.69-1.51,1.89v.8H409v.82h-1.76V21h-.94Z"/><path class="cls-2" d="M410.27,16.59c0-2.53,1.64-4.55,4.18-4.55s4.19,2,4.19,4.55-1.62,4.58-4.19,4.58S410.27,19.13,410.27,16.59Zm7.36,0c0-1.92-1.13-3.7-3.18-3.7s-3.17,1.78-3.17,3.7,1.15,3.73,3.17,3.73S417.63,18.54,417.63,16.59Z"/><path class="cls-2" d="M421.05,12.26H422v1.49a3.72,3.72,0,0,1,2.93-1.68v1a2.37,2.37,0,0,0-.47,0A3.3,3.3,0,0,0,422,14.61V21h-.94Z"/><path class="cls-2" d="M437.11,14.87c0-1.23-.52-2-1.75-2a3.22,3.22,0,0,0-2.48,1.47V21h-1V14.87c0-1.23-.5-2-1.74-2a3.34,3.34,0,0,0-2.49,1.49V21h-.93V12.26h.93v1.31A3.82,3.82,0,0,1,430.5,12a2.19,2.19,0,0,1,2.29,1.64A3.6,3.6,0,0,1,435.67,12c1.6,0,2.38.9,2.38,2.65V21h-.94Z"/><path class="cls-2" d="M446.49,19.93a3.82,3.82,0,0,1-3,1.24,2.91,2.91,0,0,1-3-2.9,2.87,2.87,0,0,1,3-2.88,3.76,3.76,0,0,1,3,1.24V14.87c0-1.3-1.05-2-2.35-2a3.37,3.37,0,0,0-2.71,1.28l-.53-.65A4.23,4.23,0,0,1,444.25,12c1.77,0,3.17.85,3.17,2.79V21h-.93Zm0-2.6a3.29,3.29,0,0,0-2.63-1.2,2.16,2.16,0,1,0,0,4.3,3.28,3.28,0,0,0,2.63-1.19Z"/><path class="cls-2" d="M456.49,19.1l.65.57a3.5,3.5,0,0,1-2.79,1.5L454,22a1.08,1.08,0,0,1,.67-.22,1.12,1.12,0,0,1,1.19,1.14c0,.9-.81,1.46-1.82,1.46a2.93,2.93,0,0,1-1.75-.53l.29-.57a2.27,2.27,0,0,0,1.44.5c.63,0,1.17-.29,1.17-.86,0-.38-.23-.65-.73-.65a1,1,0,0,0-.73.3l-.5-.28.41-1.12a4.29,4.29,0,0,1-3.85-4.56A4.26,4.26,0,0,1,454.06,12a3.56,3.56,0,0,1,3.08,1.48l-.65.57a2.75,2.75,0,0,0-2.37-1.2c-2,0-3.28,1.62-3.28,3.7s1.24,3.73,3.28,3.73A2.77,2.77,0,0,0,456.49,19.1Z"/><path class="cls-2" d="M464.75,19.93a3.79,3.79,0,0,1-2.95,1.24,2.91,2.91,0,0,1-3-2.9,2.87,2.87,0,0,1,3-2.88,3.73,3.73,0,0,1,2.95,1.24V14.87a2.07,2.07,0,0,0-2.34-2,3.37,3.37,0,0,0-2.71,1.28l-.53-.65A4.23,4.23,0,0,1,462.52,12c1.77,0,3.17.85,3.17,2.79V21h-.94Zm0-2.6a3.25,3.25,0,0,0-2.62-1.2,2.16,2.16,0,1,0,0,4.3,3.24,3.24,0,0,0,2.62-1.19Zm-3.36-8.21c-.54,0-1,.52-1,1.75h-.63c0-1.35.59-2.41,1.67-2.41.72,0,1,.54,1.35,1s.47.79.9.79,1-.52,1-1.73h.65c0,1.35-.57,2.42-1.65,2.42-.76,0-1.07-.54-1.37-1.05S461.82,9.12,461.39,9.12Z"/><path class="cls-2" d="M468.1,16.59c0-2.53,1.64-4.55,4.18-4.55s4.19,2,4.19,4.55-1.62,4.58-4.19,4.58S468.1,19.13,468.1,16.59Zm7.36,0c0-1.92-1.13-3.7-3.18-3.7s-3.17,1.78-3.17,3.7,1.15,3.73,3.17,3.73S475.46,18.54,475.46,16.59Z"/><path class="cls-2" d="M487.27,12a3.57,3.57,0,0,1,3.08,1.48l-.65.57a2.75,2.75,0,0,0-2.37-1.2c-2,0-3.28,1.62-3.28,3.7s1.24,3.73,3.28,3.73a2.77,2.77,0,0,0,2.37-1.22l.65.57a3.56,3.56,0,0,1-3.08,1.5A4.27,4.27,0,0,1,483,16.59,4.25,4.25,0,0,1,487.27,12Z"/><path class="cls-2" d="M491.93,16.59c0-2.53,1.64-4.55,4.18-4.55s4.19,2,4.19,4.55-1.62,4.58-4.19,4.58S491.93,19.13,491.93,16.59Zm7.37,0c0-1.92-1.14-3.7-3.19-3.7s-3.17,1.78-3.17,3.7,1.15,3.73,3.17,3.73S499.3,18.54,499.3,16.59Z"/><path class="cls-2" d="M508.58,15.06c0-1.67-.84-2.17-2.1-2.17a3.73,3.73,0,0,0-2.83,1.49V21h-.94V12.26h.94v1.31A4.39,4.39,0,0,1,506.78,12c1.77,0,2.74.86,2.74,2.83V21h-.94Z"/><path class="cls-2" d="M512.61,19.28v-6.2h-1.44v-.82h1.44V9.88h1v2.38h1.76v.82h-1.76v6c0,.71.29,1.19.9,1.19a1.39,1.39,0,0,0,1-.41l.36.72a2,2,0,0,1-1.48.54C513.17,21.17,512.61,20.47,512.61,19.28Z"/><path class="cls-2" d="M517.38,12.26h.94V21h-.94Zm0-1.32,2.77-2.59h1.12l-3.1,2.59Z"/><path class="cls-2" d="M527.11,15.06c0-1.67-.85-2.17-2.11-2.17a3.73,3.73,0,0,0-2.83,1.49V21h-.93V12.26h.93v1.31A4.39,4.39,0,0,1,525.3,12c1.77,0,2.74.86,2.74,2.83V21h-.93Z"/><path class="cls-2" d="M536.83,19.67a4.42,4.42,0,0,1-3.14,1.5c-1.78,0-2.74-.83-2.74-2.79V12.26h.94v5.9c0,1.69.85,2.16,2.11,2.16a3.77,3.77,0,0,0,2.83-1.44V12.26h.93V21h-.93Z"/><path class="cls-2" d="M546.2,19.93a3.79,3.79,0,0,1-3,1.24,2.91,2.91,0,0,1-3-2.9,2.87,2.87,0,0,1,3-2.88,3.73,3.73,0,0,1,3,1.24V14.87a2.07,2.07,0,0,0-2.34-2,3.4,3.4,0,0,0-2.72,1.28l-.52-.65A4.23,4.23,0,0,1,544,12c1.76,0,3.17.85,3.17,2.79V21h-.94Zm0-2.6a3.26,3.26,0,0,0-2.63-1.2,2.16,2.16,0,1,0,0,4.3,3.25,3.25,0,0,0,2.63-1.19Z"/><path class="cls-2" d="M368.15,33.64c2.65,0,4.11,2.11,4.11,4.61v.25H365a3.39,3.39,0,0,0,3.4,3.46,3.84,3.84,0,0,0,2.85-1.21l.49.61a4.52,4.52,0,0,1-3.41,1.41A4.3,4.3,0,0,1,364,38.19,4.32,4.32,0,0,1,368.15,33.64ZM365,37.76h6.32a3.19,3.19,0,0,0-3.17-3.31A3.27,3.27,0,0,0,365,37.76Z"/><path class="cls-2" d="M383.05,33.64a3.58,3.58,0,0,1,3.08,1.47l-.65.58a2.75,2.75,0,0,0-2.37-1.2c-2,0-3.28,1.62-3.28,3.7s1.24,3.73,3.28,3.73a2.77,2.77,0,0,0,2.37-1.22l.65.57a3.55,3.55,0,0,1-3.08,1.5,4.28,4.28,0,0,1-4.23-4.58A4.26,4.26,0,0,1,383.05,33.64Z"/><path class="cls-2" d="M387.71,38.19c0-2.53,1.64-4.55,4.18-4.55s4.2,2,4.2,4.55-1.62,4.58-4.2,4.58S387.71,40.73,387.71,38.19Zm7.37,0c0-1.92-1.14-3.7-3.19-3.7s-3.17,1.78-3.17,3.7,1.15,3.73,3.17,3.73S395.08,40.14,395.08,38.19Z"/><path class="cls-2" d="M397.58,37.76h4.32v.87h-4.32Z"/><path class="cls-2" d="M407.59,33.64c2.64,0,4.1,2.11,4.1,4.61v.25h-7.27a3.39,3.39,0,0,0,3.4,3.46,3.84,3.84,0,0,0,2.85-1.21l.48.61a4.48,4.48,0,0,1-3.4,1.41,4.3,4.3,0,0,1-4.36-4.58A4.32,4.32,0,0,1,407.59,33.64Zm-3.17,4.12h6.32a3.19,3.19,0,0,0-3.17-3.31A3.27,3.27,0,0,0,404.42,37.76Z"/><path class="cls-2" d="M412.77,33.86h1L417,41.45l3.14-7.59h1.06l-3.68,8.69h-1.06Z"/><path class="cls-2" d="M422.25,38.19c0-2.53,1.64-4.55,4.18-4.55s4.2,2,4.2,4.55-1.62,4.58-4.2,4.58S422.25,40.73,422.25,38.19Zm7.37,0c0-1.92-1.14-3.7-3.19-3.7s-3.17,1.78-3.17,3.7,1.15,3.73,3.17,3.73S429.62,40.14,429.62,38.19Z"/><path class="cls-2" d="M433,30.54H434v12H433Z"/><path class="cls-2" d="M442.76,41.27a4.38,4.38,0,0,1-3.13,1.5c-1.79,0-2.74-.83-2.74-2.79V33.86h.94v5.9c0,1.69.84,2.16,2.1,2.16a3.78,3.78,0,0,0,2.83-1.44V33.86h.94v8.69h-.94Z"/><path class="cls-2" d="M452.77,40.7l.64.57a3.46,3.46,0,0,1-2.79,1.5l-.3.81a1.05,1.05,0,0,1,.66-.22,1.11,1.11,0,0,1,1.19,1.14c0,.9-.81,1.45-1.82,1.45a2.88,2.88,0,0,1-1.74-.52l.29-.57a2.26,2.26,0,0,0,1.44.5c.63,0,1.17-.29,1.17-.86,0-.38-.24-.65-.74-.65a1,1,0,0,0-.72.3l-.51-.28.42-1.12a4.3,4.3,0,0,1-3.86-4.56,4.26,4.26,0,0,1,4.24-4.55,3.57,3.57,0,0,1,3.07,1.47l-.64.58a2.77,2.77,0,0,0-2.38-1.2c-2,0-3.28,1.62-3.28,3.7s1.25,3.73,3.28,3.73A2.79,2.79,0,0,0,452.77,40.7Z"/><path class="cls-2" d="M461,41.53a3.82,3.82,0,0,1-2.95,1.24,2.92,2.92,0,0,1-3.05-2.9A2.88,2.88,0,0,1,458.08,37,3.76,3.76,0,0,1,461,38.23V36.47a2.07,2.07,0,0,0-2.34-2A3.39,3.39,0,0,0,456,35.75l-.52-.65a4.18,4.18,0,0,1,3.34-1.46c1.77,0,3.17.85,3.17,2.79v6.12H461Zm0-2.6a3.27,3.27,0,0,0-2.63-1.2,2.16,2.16,0,1,0,0,4.3A3.26,3.26,0,0,0,461,40.84Zm-3.37-8.21c-.54,0-1,.52-1,1.75h-.63c0-1.35.59-2.41,1.67-2.41.72,0,1,.54,1.35,1s.47.79.9.79,1-.52,1-1.73h.65c0,1.35-.58,2.42-1.66,2.42-.76,0-1.06-.54-1.37-1S458.09,30.72,457.66,30.72Z"/><path class="cls-2" d="M464.37,38.19c0-2.53,1.64-4.55,4.18-4.55s4.2,2,4.2,4.55-1.62,4.58-4.2,4.58S464.37,40.73,464.37,38.19Zm7.37,0c0-1.92-1.14-3.7-3.19-3.7s-3.17,1.78-3.17,3.7,1.15,3.73,3.17,3.73S471.74,40.14,471.74,38.19Z"/><path class="cls-2" d="M479.31,38.19c0-2.53,1.64-4.55,4.18-4.55s4.2,2,4.2,4.55-1.62,4.58-4.2,4.58S479.31,40.73,479.31,38.19Zm7.37,0c0-1.92-1.14-3.7-3.19-3.7s-3.17,1.78-3.17,3.7,1.15,3.73,3.17,3.73S486.68,40.14,486.68,38.19Z"/><path class="cls-2" d="M490.1,33.86H491v1.49A3.75,3.75,0,0,1,494,33.67v1a1.83,1.83,0,0,0-.47,0A3.35,3.35,0,0,0,491,36.21v6.34h-.93Z"/><path class="cls-2" d="M496.36,44.05a3.33,3.33,0,0,0,2.88,1.22,2.65,2.65,0,0,0,3-2.79V41.11a3.77,3.77,0,0,1-3,1.62c-2.31,0-3.89-1.74-3.89-4.54s1.58-4.55,3.89-4.55a3.68,3.68,0,0,1,3,1.62v-1.4h1v8.6c0,2.67-1.8,3.62-3.92,3.62a4.18,4.18,0,0,1-3.42-1.31Zm5.85-8a3.48,3.48,0,0,0-2.86-1.58c-1.93,0-3.05,1.6-3.05,3.7s1.12,3.7,3.05,3.7a3.49,3.49,0,0,0,2.86-1.59Z"/><path class="cls-2" d="M511.59,41.53a3.82,3.82,0,0,1-2.95,1.24,2.92,2.92,0,0,1-3.05-2.9A2.88,2.88,0,0,1,508.64,37a3.76,3.76,0,0,1,2.95,1.24V36.47a2.07,2.07,0,0,0-2.34-2,3.39,3.39,0,0,0-2.72,1.28L506,35.1a4.19,4.19,0,0,1,3.35-1.46c1.76,0,3.16.85,3.16,2.79v6.12h-.93Zm0-2.6a3.27,3.27,0,0,0-2.63-1.2,2.16,2.16,0,1,0,0,4.3,3.26,3.26,0,0,0,2.63-1.19Z"/><path class="cls-2" d="M521.31,36.66c0-1.67-.85-2.17-2.11-2.17A3.75,3.75,0,0,0,516.37,36v6.57h-.93V33.86h.93v1.31a4.41,4.41,0,0,1,3.14-1.53c1.76,0,2.74.86,2.74,2.83v6.08h-.94Z"/><path class="cls-2" d="M524.91,31.66a.72.72,0,1,1,.72.72A.73.73,0,0,1,524.91,31.66Zm.25,2.2h.93v8.69h-.93Z"/><path class="cls-2" d="M528.56,41.78l5.15-7.1h-5.15v-.82h6.36v.75l-5.21,7.11H535v.83h-6.43Z"/><path class="cls-2" d="M543,41.53a3.82,3.82,0,0,1-3,1.24,2.92,2.92,0,0,1-3-2.9A2.88,2.88,0,0,1,540,37a3.76,3.76,0,0,1,3,1.24V36.47a2.07,2.07,0,0,0-2.34-2,3.39,3.39,0,0,0-2.72,1.28l-.52-.65a4.2,4.2,0,0,1,3.35-1.46c1.76,0,3.17.85,3.17,2.79v6.12H543Zm0-2.6a3.26,3.26,0,0,0-2.63-1.2,2.16,2.16,0,1,0,0,4.3A3.25,3.25,0,0,0,543,40.84Z"/><path class="cls-2" d="M550.56,33.64a3.61,3.61,0,0,1,3.08,1.47l-.65.58a2.75,2.75,0,0,0-2.38-1.2c-2,0-3.28,1.62-3.28,3.7s1.25,3.73,3.28,3.73A2.77,2.77,0,0,0,553,40.7l.65.57a3.58,3.58,0,0,1-3.08,1.5,4.27,4.27,0,0,1-4.23-4.58A4.25,4.25,0,0,1,550.56,33.64Z"/><path class="cls-2" d="M555.47,31.66a.73.73,0,0,1,.72-.72.72.72,0,0,1,0,1.44A.74.74,0,0,1,555.47,31.66Zm.25,2.2h.94v8.69h-.94Z"/><path class="cls-2" d="M559.07,38.19c0-2.53,1.64-4.55,4.18-4.55s4.19,2,4.19,4.55-1.62,4.58-4.19,4.58S559.07,40.73,559.07,38.19Zm7.36,0c0-1.92-1.13-3.7-3.18-3.7s-3.17,1.78-3.17,3.7,1.15,3.73,3.17,3.73S566.43,40.14,566.43,38.19Z"/><path class="cls-2" d="M575.72,36.66c0-1.67-.85-2.17-2.11-2.17A3.73,3.73,0,0,0,570.79,36v6.57h-.94V33.86h.94v1.31a4.39,4.39,0,0,1,3.13-1.53c1.76,0,2.74.86,2.74,2.83v6.08h-.94Z"/><path class="cls-2" d="M585.1,41.53a3.82,3.82,0,0,1-3,1.24,2.92,2.92,0,0,1-3-2.9,2.88,2.88,0,0,1,3-2.88,3.76,3.76,0,0,1,3,1.24V36.47a2.07,2.07,0,0,0-2.34-2A3.39,3.39,0,0,0,580,35.75l-.52-.65a4.2,4.2,0,0,1,3.35-1.46c1.76,0,3.17.85,3.17,2.79v6.12h-.94Zm0-2.6a3.27,3.27,0,0,0-2.63-1.2,2.16,2.16,0,1,0,0,4.3,3.26,3.26,0,0,0,2.63-1.19Z"/><path class="cls-2" d="M589,30.54h.93v12H589Z"/><path class="cls-2" d="M9.59,243a6,6,0,0,1,6.05-6.21,5.44,5.44,0,0,1,4.41,2.12l-.86.56a4.4,4.4,0,0,0-3.55-1.74,5.28,5.28,0,0,0,0,10.55,4.4,4.4,0,0,0,3.55-1.75l.86.54a5.4,5.4,0,0,1-4.41,2.14A6,6,0,0,1,9.59,243Z"/><path class="cls-2" d="M28,247.72a4.41,4.41,0,0,1-3.13,1.49c-1.78,0-2.74-.83-2.74-2.79V240.3H23v5.91c0,1.69.84,2.16,2.1,2.16A3.78,3.78,0,0,0,28,246.93V240.3h.94V249H28Z"/><path class="cls-2" d="M31.82,237h.94v12h-.94Z"/><path class="cls-2" d="M35.85,247.32v-6.19H34.41v-.83h1.44v-2.38h1v2.38h1.76v.83H36.81v6.05c0,.7.29,1.19.9,1.19a1.35,1.35,0,0,0,1-.42l.36.72a1.94,1.94,0,0,1-1.48.54C36.41,249.21,35.85,248.51,35.85,247.32Z"/><path class="cls-2" d="M40.37,238.1a.74.74,0,0,1,.72-.72.72.72,0,1,1-.72.72Zm.25,2.2h.94V249h-.94Z"/><path class="cls-2" d="M43.14,240.3h1l3.16,7.6,3.14-7.6h1.06L47.88,249H46.81Z"/><path class="cls-2" d="M52.63,244.64c0-2.54,1.64-4.56,4.18-4.56s4.19,2,4.19,4.56-1.62,4.57-4.19,4.57S52.63,247.18,52.63,244.64Zm7.36,0c0-1.93-1.13-3.71-3.18-3.71s-3.17,1.78-3.17,3.71,1.15,3.73,3.17,3.73S60,246.58,60,244.64Z"/><path class="cls-2" d="M74.48,247.61a3.7,3.7,0,0,1-3,1.6c-2.31,0-3.89-1.76-3.89-4.55s1.58-4.58,3.89-4.58a3.68,3.68,0,0,1,3,1.62V237h1v12h-1Zm0-5.1a3.48,3.48,0,0,0-2.86-1.58c-1.93,0-3,1.62-3,3.73s1.11,3.71,3,3.71a3.48,3.48,0,0,0,2.86-1.55Z"/><path class="cls-2" d="M82,240.08c2.65,0,4.11,2.11,4.11,4.61V245H78.87a3.39,3.39,0,0,0,3.41,3.45,3.83,3.83,0,0,0,2.84-1.2l.49.61a4.51,4.51,0,0,1-3.41,1.4,4.58,4.58,0,0,1-.16-9.13Zm-3.17,4.13h6.32A3.19,3.19,0,0,0,82,240.89,3.29,3.29,0,0,0,78.87,244.21Z"/><path class="cls-2" d="M93.22,240.3h.94v1.49a3.71,3.71,0,0,1,2.93-1.67v1a1.79,1.79,0,0,0-.47,0,3.29,3.29,0,0,0-2.46,1.55V249h-.94Z"/><path class="cls-2" d="M102.62,240.08c2.64,0,4.1,2.11,4.1,4.61V245H99.45a3.38,3.38,0,0,0,3.4,3.45,3.84,3.84,0,0,0,2.85-1.2l.48.61a4.47,4.47,0,0,1-3.4,1.4,4.58,4.58,0,0,1-.16-9.13Zm-3.17,4.13h6.32a3.19,3.19,0,0,0-3.17-3.32A3.28,3.28,0,0,0,99.45,244.21Z"/><path class="cls-2" d="M109.13,237h.94v12h-.94Z"/><path class="cls-2" d="M118.51,248a3.77,3.77,0,0,1-3,1.24,2.89,2.89,0,1,1,0-5.78,3.76,3.76,0,0,1,3,1.25v-1.77a2.07,2.07,0,0,0-2.34-2,3.39,3.39,0,0,0-2.72,1.28l-.52-.65a4.23,4.23,0,0,1,3.35-1.46c1.76,0,3.17.85,3.17,2.79V249h-.94Zm0-2.59a3.27,3.27,0,0,0-2.63-1.21,2.16,2.16,0,1,0,0,4.3,3.24,3.24,0,0,0,2.63-1.18Z"/><path class="cls-2" d="M128.52,247.14l.65.58a3.49,3.49,0,0,1-2.79,1.49l-.31.81a1.19,1.19,0,0,1,1.86.92c0,.9-.82,1.46-1.82,1.46a2.91,2.91,0,0,1-1.75-.52l.29-.58a2.27,2.27,0,0,0,1.44.51c.63,0,1.17-.29,1.17-.87,0-.38-.24-.65-.74-.65a1,1,0,0,0-.72.31l-.5-.29.41-1.11a4.6,4.6,0,0,1,.38-9.12,3.6,3.6,0,0,1,3.08,1.48l-.65.58a2.74,2.74,0,0,0-2.38-1.21c-2,0-3.27,1.62-3.27,3.71s1.24,3.73,3.27,3.73A2.76,2.76,0,0,0,128.52,247.14Z"/><path class="cls-2" d="M130.75,244.64c0-2.54,1.64-4.56,4.18-4.56s4.19,2,4.19,4.56-1.62,4.57-4.19,4.57S130.75,247.18,130.75,244.64Zm7.36,0c0-1.93-1.13-3.71-3.18-3.71s-3.17,1.78-3.17,3.71,1.15,3.73,3.17,3.73S138.11,246.58,138.11,244.64Zm-4.34-7.47c-.54,0-1,.52-1,1.74h-.63c0-1.35.6-2.41,1.68-2.41.72,0,1,.54,1.35,1.05s.46.79.9.79,1-.52,1-1.73h.65c0,1.35-.58,2.41-1.66,2.41-.75,0-1.06-.54-1.37-1S134.21,237.17,133.77,237.17Z"/><path class="cls-2" d="M145.22,240.08c2.65,0,4.11,2.11,4.11,4.61V245h-7.28a3.39,3.39,0,0,0,3.41,3.45,3.83,3.83,0,0,0,2.84-1.2l.49.61a4.51,4.51,0,0,1-3.41,1.4,4.58,4.58,0,0,1-.16-9.13Zm-3.17,4.13h6.32a3.19,3.19,0,0,0-3.17-3.32A3.29,3.29,0,0,0,142.05,244.21Z"/><path class="cls-2" d="M151.54,247.14a3.63,3.63,0,0,0,2.81,1.28c1.46,0,2.32-.72,2.32-1.73s-1.19-1.44-2.43-1.76c-1.46-.36-3.06-.74-3.06-2.43,0-1.34,1.13-2.42,3.1-2.42a4,4,0,0,1,3.11,1.28l-.52.67a3.16,3.16,0,0,0-2.59-1.15c-1.35,0-2.18.66-2.18,1.56s1.11,1.26,2.32,1.57c1.49.38,3.17.79,3.17,2.65,0,1.4-1.08,2.55-3.26,2.55a4.21,4.21,0,0,1-3.35-1.37Z"/><path class="cls-2" d="M16.42,269.21a3.72,3.72,0,0,1-3,1.6c-2.3,0-3.89-1.76-3.89-4.55s1.59-4.58,3.89-4.58a3.71,3.71,0,0,1,3,1.62v-4.71h.95v12h-.95Zm0-5.1a3.5,3.5,0,0,0-2.87-1.58c-1.92,0-3,1.62-3,3.73s1.12,3.71,3,3.71a3.5,3.5,0,0,0,2.87-1.55Z"/><path class="cls-2" d="M24,261.68c2.65,0,4.11,2.11,4.11,4.61v.26H20.81a3.38,3.38,0,0,0,3.4,3.45,3.8,3.8,0,0,0,2.84-1.2l.49.61a4.47,4.47,0,0,1-3.4,1.4,4.58,4.58,0,0,1-.17-9.13Zm-3.16,4.13h6.32A3.19,3.19,0,0,0,24,262.49,3.27,3.27,0,0,0,20.81,265.81Z"/><path class="cls-2" d="M35.15,258.59h.94v12h-.94Z"/><path class="cls-2" d="M38.5,266.24c0-2.54,1.64-4.56,4.18-4.56s4.19,2,4.19,4.56-1.62,4.57-4.19,4.57S38.5,268.78,38.5,266.24Zm7.36,0c0-1.93-1.13-3.71-3.18-3.71s-3.17,1.78-3.17,3.71S40.66,270,42.68,270,45.86,268.18,45.86,266.24Z"/><path class="cls-2" d="M55.15,264.71c0-1.68-.84-2.18-2.1-2.18A3.73,3.73,0,0,0,50.22,264v6.58h-.94v-8.7h.94v1.31a4.42,4.42,0,0,1,3.13-1.53c1.77,0,2.74.87,2.74,2.83v6.09h-.94Z"/><path class="cls-2" d="M59.56,272.09a3.34,3.34,0,0,0,2.88,1.23,2.66,2.66,0,0,0,3-2.8v-1.36a3.77,3.77,0,0,1-3,1.62c-2.31,0-3.89-1.75-3.89-4.54s1.58-4.56,3.89-4.56a3.68,3.68,0,0,1,3,1.62v-1.4h1v8.61c0,2.66-1.8,3.62-3.93,3.62A4.16,4.16,0,0,1,59,272.81Zm5.85-8a3.49,3.49,0,0,0-2.86-1.58c-1.93,0-3,1.6-3,3.71s1.11,3.69,3,3.69a3.49,3.49,0,0,0,2.86-1.58Z"/><path class="cls-2" d="M68.76,266.24c0-2.54,1.64-4.56,4.17-4.56s4.2,2,4.2,4.56-1.62,4.57-4.2,4.57S68.76,268.78,68.76,266.24Zm7.36,0c0-1.93-1.13-3.71-3.19-3.71s-3.16,1.78-3.16,3.71S70.92,270,72.93,270,76.12,268.18,76.12,266.24Z"/><path class="cls-2" d="M84.2,273.91v-12h.94v1.37a3.74,3.74,0,0,1,3-1.59c2.33,0,3.89,1.77,3.89,4.56s-1.56,4.57-3.89,4.57a3.71,3.71,0,0,1-3-1.62v4.72ZM88,262.53a3.49,3.49,0,0,0-2.86,1.55v4.3A3.53,3.53,0,0,0,88,270c2,0,3-1.62,3-3.73S90,262.53,88,262.53Z"/><path class="cls-2" d="M94.46,261.9h.94v1.49a3.74,3.74,0,0,1,2.93-1.67v1a1.79,1.79,0,0,0-.47,0,3.29,3.29,0,0,0-2.46,1.55v6.34h-.94Z"/><path class="cls-2" d="M105.7,269.57a3.79,3.79,0,0,1-3,1.24,2.91,2.91,0,0,1-3-2.9,2.87,2.87,0,0,1,3-2.88,3.77,3.77,0,0,1,3,1.25v-1.77c0-1.3-1-2-2.35-2a3.37,3.37,0,0,0-2.71,1.28l-.53-.65a4.23,4.23,0,0,1,3.35-1.46c1.77,0,3.17.85,3.17,2.79v6.13h-.93Zm0-2.59a3.29,3.29,0,0,0-2.63-1.21,2.16,2.16,0,1,0,0,4.3,3.27,3.27,0,0,0,2.63-1.18Z"/><path class="cls-2" d="M109.1,269.82l5.15-7.09H109.1v-.83h6.35v.76l-5.2,7.11h5.27v.83H109.1Z"/><path class="cls-2" d="M117.48,266.24c0-2.54,1.64-4.56,4.18-4.56s4.2,2,4.2,4.56-1.63,4.57-4.2,4.57S117.48,268.78,117.48,266.24Zm7.37,0c0-1.93-1.14-3.71-3.19-3.71s-3.17,1.78-3.17,3.71,1.15,3.73,3.17,3.73S124.85,268.18,124.85,266.24Z"/><circle class="cls-3" cx="319.35" cy="26.99" r="7"/><circle class="cls-3" cx="587.49" cy="197.28" r="7"/><circle class="cls-3" cx="227.36" cy="431.17" r="7"/><circle class="cls-3" cx="192.57" cy="279.19" r="7"/><circle class="cls-3" cx="547.99" cy="431.17" r="7"/><g class="cls-4"><path class="cls-5" d="M536.38,310.81c-1,0-1.94,0-2.9-.07l-1-.05-2-.14-1-.1c-.81-.08-1.63-.18-2.43-.29-.57-.08-1.13-.18-1.69-.27l-.87-.15a65.37,65.37,0,0,1-11.64-3.23l-42.22,73.27-.48,1.38v67.58c7.89,0,20.17.93,27.93-11.48l81.17-142.11s0-.12-.06-.06a65.86,65.86,0,0,1-24.46,13.14A66.65,66.65,0,0,1,536.38,310.81Z"/><path class="cls-5" d="M489.56,197.79a66,66,0,0,1,23.63-15.23c.06,0,0-.17,0-.17l-57.91-30.18c9.66,68.88-20.32,128.56-42.3,172.3-1,2.08-18.21,36-20.25,47.13-3.43,18.86.2,77.1.2,77.1h44.14V372.88l.79-4.14,47.84-81.55a66.18,66.18,0,0,1,3.86-89.4Z"/><path class="cls-5" d="M578.75,232.29c-.21-.72-.43-1.43-.67-2.14s-.51-1.42-.79-2.11a43.7,43.7,0,0,0-5.3-9.52c-.44-.6-.9-1.19-1.37-1.77a43.34,43.34,0,0,0-3-3.36q-1.08-1.08-2.22-2.07a43.59,43.59,0,0,0-4.78-3.63c-.84-.54-1.68-1.06-2.55-1.55h0a43.84,43.84,0,0,0-21.66-5.67c-1.39,0-2.77.06-4.14.19a44.69,44.69,0,0,0-8.56,1.66h0a44.2,44.2,0,0,0-29.55,29.43c-.41,1.37-.76,2.76-1,4.18a44.56,44.56,0,0,0-.85,8.67h0a43.82,43.82,0,0,0,12.93,31.21A44.79,44.79,0,0,0,509,279.2a43.86,43.86,0,0,0,10,6,43.19,43.19,0,0,0,7.89,2.53c.54.12,1.09.23,1.64.33l.58.1,1.12.17c.54.08,1.08.15,1.62.2l.7.07,1.32.09.63,0c.65,0,1.29,0,1.94,0A44.25,44.25,0,0,0,548.62,287a43,43,0,0,0,5.21-1.86,44.16,44.16,0,0,0,26.39-35.63,44.65,44.65,0,0,0,.26-5.78A44.17,44.17,0,0,0,578.75,232.29Z"/><circle class="cls-5" cx="254.74" cy="306.57" r="34.38"/><path class="cls-5" d="M254.74,356.35a49.61,49.61,0,0,1-36-15.41s0,0,0,0l49.93,96.77a22.58,22.58,0,0,0,19.41,11h5.53V367.36l-1.32-2.75-13.73-14.35h0A49.49,49.49,0,0,1,254.74,356.35Z"/><path class="cls-5" d="M350.12,311.32c-7.44-26.05-29.49-49.22-46.84-68.94l-1-1.19C292.35,230,284.09,219,278.84,211.6l-47.28,50.72s-.06.23.1.15a49.77,49.77,0,0,1,66.58,68.45l21.65,22.65,1.31,2.76v92.41h33.11S362.58,355,350.12,311.32Z"/><path class="cls-6" d="M374,175.16c-4.33-32.23-12.09-55-17-66.92-3.61-8.83-9.9-17.77-13.41-22.41q-2.31-3,.13-.11c3.72,4.45,10.49,13,15,21.39,6.17,11.32,14.19,30.43,22.07,62,14.33,57.31,9.31,129.91,4,173.8C410.18,284.8,448.54,229,437.09,151.5c-8.24-53.1-90.43-89.75-112.16-99.83-33.62,34.11-63.59,96.17-37.33,140.64C313,230.23,357.9,261.22,372,325.05,376.79,283.19,380.66,225.13,374,175.16Z"/></g></g></g></svg>