<svg xmlns="http://www.w3.org/2000/svg" viewBox="0 0 763.54 480.54"><defs><style>.cls-1{fill:#fff;}.cls-2{fill:#75b848;stroke-miterlimit:10;stroke-width:2.5px;}.cls-2,.cls-4{stroke:#fff;}.cls-3{opacity:0.76;}.cls-4,.cls-5{fill:none;stroke-linejoin:round;stroke-width:2.14px;}.cls-5{stroke:#75b848;}</style></defs><g id="Camada_2" data-name="Camada 2"><g id="Conteúdo"><path class="cls-1" d="M25.87,445.79h4.5a3.51,3.51,0,1,1,0,7H26.9v5h-1Zm4.39.94H26.9v5.15h3.36a2.58,2.58,0,1,0,0-5.15Z" transform="translate(-0.95 -2.39)"/><path class="cls-1" d="M41.28,456.77a3.78,3.78,0,0,1-3,1.25,2.92,2.92,0,0,1-3-2.9,2.88,2.88,0,0,1,3-2.88,3.76,3.76,0,0,1,3,1.24v-1.77c0-1.29-1-2-2.34-2A3.36,3.36,0,0,0,36.22,451l-.52-.65a4.2,4.2,0,0,1,3.35-1.46c1.76,0,3.17.84,3.17,2.79v6.12h-.94Zm0-2.59a3.26,3.26,0,0,0-2.63-1.2,2.16,2.16,0,1,0,0,4.3,3.25,3.25,0,0,0,2.63-1.19Z" transform="translate(-0.95 -2.39)"/><path class="cls-1" d="M44.88,446.91a.72.72,0,1,1,.72.72A.73.73,0,0,1,44.88,446.91Zm.25,2.19h.94v8.7h-.94Z" transform="translate(-0.95 -2.39)"/><path class="cls-1" d="M51.85,454,49,457.8H47.83l3.44-4.46L48,449.1h1.11l2.71,3.59,2.68-3.59h1.11l-3.24,4.24,3.44,4.46H54.73Z" transform="translate(-0.95 -2.39)"/><path class="cls-1" d="M63.13,456.77a3.76,3.76,0,0,1-3,1.25,2.91,2.91,0,0,1-3-2.9,2.87,2.87,0,0,1,3-2.88,3.73,3.73,0,0,1,3,1.24v-1.77c0-1.29-1-2-2.34-2A3.36,3.36,0,0,0,58.07,451l-.52-.65a4.2,4.2,0,0,1,3.35-1.46c1.76,0,3.17.84,3.17,2.79v6.12h-.94Zm0-2.59A3.26,3.26,0,0,0,60.5,453a2.16,2.16,0,1,0,0,4.3,3.25,3.25,0,0,0,2.63-1.19ZM59.77,446c-.54,0-1,.52-1,1.75h-.63c0-1.35.6-2.42,1.68-2.42.72,0,1,.55,1.35,1.05s.47.79.9.79.95-.52.95-1.73h.65c0,1.35-.58,2.42-1.66,2.42-.75,0-1.06-.54-1.36-1.05S60.2,446,59.77,446Z" transform="translate(-0.95 -2.39)"/><path class="cls-1" d="M66.48,453.44c0-2.54,1.64-4.55,4.18-4.55s4.19,2,4.19,4.55S73.23,458,70.66,458,66.48,456,66.48,453.44Zm7.36,0c0-1.92-1.13-3.71-3.18-3.71s-3.17,1.79-3.17,3.71,1.15,3.73,3.17,3.73S73.84,455.39,73.84,453.44Z" transform="translate(-0.95 -2.39)"/><path class="cls-1" d="M81.92,461.11v-12h.94v1.37a3.74,3.74,0,0,1,3-1.58c2.33,0,3.89,1.76,3.89,4.55S88.21,458,85.88,458a3.71,3.71,0,0,1-3-1.62v4.71Zm3.8-11.38a3.53,3.53,0,0,0-2.86,1.55v4.31a3.56,3.56,0,0,0,2.86,1.58c2,0,3-1.62,3-3.73S87.67,449.73,85.72,449.73Z" transform="translate(-0.95 -2.39)"/><path class="cls-1" d="M95.87,448.89c2.65,0,4.11,2.11,4.11,4.61v.25H92.7a3.4,3.4,0,0,0,3.41,3.46A3.82,3.82,0,0,0,99,456l.49.61A4.49,4.49,0,0,1,96,458a4.58,4.58,0,0,1-.17-9.13ZM92.7,453H99a3.18,3.18,0,0,0-3.16-3.31A3.28,3.28,0,0,0,92.7,453Z" transform="translate(-0.95 -2.39)"/><path class="cls-1" d="M102.39,445.79h.93v12h-.93Z" transform="translate(-0.95 -2.39)"/><path class="cls-1" d="M105.74,453.44c0-2.54,1.63-4.55,4.17-4.55s4.2,2,4.2,4.55-1.62,4.58-4.2,4.58S105.74,456,105.74,453.44Zm7.36,0c0-1.92-1.13-3.71-3.19-3.71s-3.17,1.79-3.17,3.71,1.16,3.73,3.17,3.73S113.1,455.39,113.1,453.44Z" transform="translate(-0.95 -2.39)"/><path class="cls-1" d="M121.36,456.13v-6.2h-1.44v-.83h1.44v-2.37h1v2.37h1.77v.83h-1.77V456c0,.7.29,1.19.91,1.19a1.39,1.39,0,0,0,1-.41l.36.72a2,2,0,0,1-1.48.54C121.92,458,121.36,457.31,121.36,456.13Z" transform="translate(-0.95 -2.39)"/><path class="cls-1" d="M126.13,449.1h.94v1.5a3.75,3.75,0,0,1,2.93-1.68v1a1.79,1.79,0,0,0-.47,0,3.31,3.31,0,0,0-2.46,1.55v6.34h-.94Z" transform="translate(-0.95 -2.39)"/><path class="cls-1" d="M137.36,456.77a3.76,3.76,0,0,1-3,1.25,2.91,2.91,0,0,1-3-2.9,2.87,2.87,0,0,1,3-2.88,3.73,3.73,0,0,1,3,1.24v-1.77c0-1.29-1-2-2.34-2a3.34,3.34,0,0,0-2.71,1.28l-.53-.65a4.2,4.2,0,0,1,3.35-1.46c1.77,0,3.17.84,3.17,2.79v6.12h-.94Zm0-2.59a3.25,3.25,0,0,0-2.62-1.2,2.16,2.16,0,1,0,0,4.3,3.24,3.24,0,0,0,2.62-1.19Z" transform="translate(-0.95 -2.39)"/><path class="cls-1" d="M141.21,445.79h.94v4.72a3.71,3.71,0,0,1,3-1.62c2.32,0,3.88,1.82,3.88,4.57s-1.58,4.56-3.88,4.56a3.71,3.71,0,0,1-3-1.61v1.39h-.94Zm3.8,11.38c2,0,3.05-1.6,3.05-3.71s-1.1-3.73-3.05-3.73a3.54,3.54,0,0,0-2.86,1.59v4.3A3.51,3.51,0,0,0,145,457.17Z" transform="translate(-0.95 -2.39)"/><path class="cls-1" d="M157,456.77a3.78,3.78,0,0,1-3,1.25,2.92,2.92,0,0,1-3-2.9,2.88,2.88,0,0,1,3-2.88,3.76,3.76,0,0,1,3,1.24v-1.77c0-1.29-1-2-2.34-2A3.36,3.36,0,0,0,152,451l-.52-.65a4.2,4.2,0,0,1,3.35-1.46c1.76,0,3.17.84,3.17,2.79v6.12H157Zm0-2.59a3.26,3.26,0,0,0-2.63-1.2,2.16,2.16,0,1,0,0,4.3,3.25,3.25,0,0,0,2.63-1.19Z" transform="translate(-0.95 -2.39)"/><path class="cls-1" d="M160.87,445.79h.94v12h-.94Z" transform="translate(-0.95 -2.39)"/><path class="cls-1" d="M170.59,451.88c0-1.68-.84-2.15-2.1-2.15a3.74,3.74,0,0,0-2.83,1.5v6.57h-.94v-12h.94v4.63a4.39,4.39,0,0,1,3.13-1.53c1.77,0,2.74.83,2.74,2.79v6.12h-.94Z" transform="translate(-0.95 -2.39)"/><path class="cls-1" d="M173.94,453.44c0-2.54,1.64-4.55,4.18-4.55s4.19,2,4.19,4.55-1.62,4.58-4.19,4.58S173.94,456,173.94,453.44Zm7.36,0c0-1.92-1.13-3.71-3.18-3.71s-3.17,1.79-3.17,3.71,1.15,3.73,3.17,3.73S181.3,455.39,181.3,453.44Z" transform="translate(-0.95 -2.39)"/><path class="cls-1" d="M29.52,470.49c2.65,0,4.11,2.1,4.11,4.61v.25H26.36a3.39,3.39,0,0,0,3.4,3.46,3.81,3.81,0,0,0,2.84-1.21l.49.61a4.48,4.48,0,0,1-3.4,1.41,4.58,4.58,0,0,1-.17-9.13Zm-3.16,4.12h6.32a3.19,3.19,0,0,0-3.17-3.31A3.26,3.26,0,0,0,26.36,474.61Z" transform="translate(-0.95 -2.39)"/><path class="cls-1" d="M40.74,467.39h1v12h-1Z" transform="translate(-0.95 -2.39)"/><path class="cls-1" d="M50.59,473.51c0-1.67-.85-2.18-2.11-2.18a3.74,3.74,0,0,0-2.83,1.5v6.57h-.93v-8.7h.93V472a4.39,4.39,0,0,1,3.13-1.53c1.77,0,2.74.86,2.74,2.82v6.09h-.93Z" transform="translate(-0.95 -2.39)"/><path class="cls-1" d="M54.62,477.73v-6.2H53.18v-.83h1.44v-2.37h1v2.37h1.76v.83H55.57v6.05c0,.7.29,1.19.9,1.19a1.39,1.39,0,0,0,1-.41l.36.72a2,2,0,0,1-1.47.54C55.17,479.62,54.62,478.91,54.62,477.73Z" transform="translate(-0.95 -2.39)"/><path class="cls-1" d="M63.08,470.49c2.64,0,4.1,2.1,4.1,4.61v.25H59.91a3.39,3.39,0,0,0,3.4,3.46,3.84,3.84,0,0,0,2.85-1.21l.48.61a4.48,4.48,0,0,1-3.4,1.41,4.58,4.58,0,0,1-.16-9.13Zm-3.17,4.12h6.32a3.19,3.19,0,0,0-3.17-3.31A3.27,3.27,0,0,0,59.91,474.61Z" transform="translate(-0.95 -2.39)"/><path class="cls-1" d="M70.15,480.89A3.34,3.34,0,0,0,73,482.12a2.65,2.65,0,0,0,3-2.79V478a3.77,3.77,0,0,1-3,1.62c-2.31,0-3.89-1.75-3.89-4.54s1.58-4.55,3.89-4.55a3.68,3.68,0,0,1,3,1.62V470.7h1v8.61c0,2.67-1.8,3.62-3.93,3.62a4.18,4.18,0,0,1-3.42-1.31Zm5.85-8a3.48,3.48,0,0,0-2.86-1.59c-1.93,0-3,1.61-3,3.71s1.11,3.69,3,3.69A3.47,3.47,0,0,0,76,477.15Z" transform="translate(-0.95 -2.39)"/><path class="cls-1" d="M79.85,470.7h.94v1.5a3.75,3.75,0,0,1,2.93-1.68v1a1.79,1.79,0,0,0-.47,0,3.31,3.31,0,0,0-2.46,1.55v6.34h-.94Z" transform="translate(-0.95 -2.39)"/><path class="cls-1" d="M85.31,468.51a.72.72,0,1,1,.72.72A.73.73,0,0,1,85.31,468.51Zm.25,2.19h.93v8.7h-.93Z" transform="translate(-0.95 -2.39)"/><path class="cls-1" d="M95.82,478a3.71,3.71,0,0,1-3,1.61c-2.3,0-3.89-1.77-3.89-4.56s1.59-4.57,3.89-4.57a3.69,3.69,0,0,1,3,1.62v-4.72h1v12h-1Zm0-5.09A3.48,3.48,0,0,0,93,471.33c-1.93,0-3,1.62-3,3.73s1.12,3.71,3,3.71a3.49,3.49,0,0,0,2.86-1.55Z" transform="translate(-0.95 -2.39)"/><path class="cls-1" d="M105.22,478.37a3.8,3.8,0,0,1-3,1.25,2.91,2.91,0,0,1-3-2.9,2.87,2.87,0,0,1,3-2.88,3.76,3.76,0,0,1,3,1.24v-1.77c0-1.29-1-2-2.35-2a3.36,3.36,0,0,0-2.71,1.27l-.53-.64a4.2,4.2,0,0,1,3.35-1.46c1.77,0,3.17.84,3.17,2.79v6.12h-.93Zm0-2.59a3.29,3.29,0,0,0-2.63-1.2,2.16,2.16,0,1,0,0,4.3,3.28,3.28,0,0,0,2.63-1.19Z" transform="translate(-0.95 -2.39)"/><path class="cls-1" d="M115.48,478a3.73,3.73,0,0,1-3,1.61c-2.3,0-3.89-1.77-3.89-4.56s1.59-4.57,3.89-4.57a3.71,3.71,0,0,1,3,1.62v-4.72h1v12h-1Zm0-5.09a3.48,3.48,0,0,0-2.87-1.59c-1.92,0-3,1.62-3,3.73s1.12,3.71,3,3.71a3.5,3.5,0,0,0,2.87-1.55Z" transform="translate(-0.95 -2.39)"/><path class="cls-1" d="M123,470.49c2.65,0,4.11,2.1,4.11,4.61v.25h-7.27a3.39,3.39,0,0,0,3.4,3.46,3.81,3.81,0,0,0,2.84-1.21l.49.61a4.48,4.48,0,0,1-3.4,1.41,4.58,4.58,0,0,1-.17-9.13Zm-3.16,4.12h6.32A3.19,3.19,0,0,0,123,471.3,3.26,3.26,0,0,0,119.87,474.61Z" transform="translate(-0.95 -2.39)"/><path class="cls-1" d="M617.11,173.27h7.62v.93h-6.59v4.45h6.46v.94h-6.46v5.69h-1Z" transform="translate(-0.95 -2.39)"/><path class="cls-1" d="M626.33,180.92c0-2.54,1.63-4.56,4.17-4.56s4.2,2,4.2,4.56-1.62,4.57-4.2,4.57S626.33,183.46,626.33,180.92Zm7.36,0c0-1.93-1.13-3.71-3.19-3.71s-3.17,1.78-3.17,3.71,1.16,3.73,3.17,3.73S633.69,182.86,633.69,180.92Z" transform="translate(-0.95 -2.39)"/><path class="cls-1" d="M640.84,176.36a3.61,3.61,0,0,1,3.08,1.48l-.65.58a2.75,2.75,0,0,0-2.38-1.21c-2,0-3.28,1.62-3.28,3.71s1.25,3.73,3.28,3.73a2.77,2.77,0,0,0,2.38-1.23l.65.58a3.57,3.57,0,0,1-3.08,1.49,4.58,4.58,0,0,1,0-9.13Z" transform="translate(-0.95 -2.39)"/><path class="cls-1" d="M645.5,180.92c0-2.54,1.63-4.56,4.17-4.56s4.2,2,4.2,4.56-1.62,4.57-4.2,4.57S645.5,183.46,645.5,180.92Zm7.36,0c0-1.93-1.13-3.71-3.19-3.71s-3.17,1.78-3.17,3.71,1.16,3.73,3.17,3.73S652.86,182.86,652.86,180.92Z" transform="translate(-0.95 -2.39)"/><path class="cls-1" d="M666.81,179.39c0-1.68-.85-2.18-2.11-2.18a3.7,3.7,0,0,0-2.82,1.5v6.57h-.94v-8.7h.94v1.32a4.4,4.4,0,0,1,3.13-1.54c1.76,0,2.74.87,2.74,2.83v6.09h-.94Z" transform="translate(-0.95 -2.39)"/><path class="cls-1" d="M676.19,184.25a3.78,3.78,0,0,1-3,1.24,2.91,2.91,0,0,1-3-2.9,2.88,2.88,0,0,1,3-2.88,3.76,3.76,0,0,1,3,1.25v-1.77a2.08,2.08,0,0,0-2.34-2,3.39,3.39,0,0,0-2.72,1.28l-.52-.65a4.22,4.22,0,0,1,3.35-1.46c1.76,0,3.16.85,3.16,2.8v6.12h-.93Zm0-2.59a3.28,3.28,0,0,0-2.63-1.21,2.16,2.16,0,1,0,0,4.3,3.26,3.26,0,0,0,2.63-1.18Z" transform="translate(-0.95 -2.39)"/><path class="cls-1" d="M688.39,176.36c2.65,0,4.11,2.11,4.11,4.61v.26h-7.28a3.39,3.39,0,0,0,3.41,3.45,3.83,3.83,0,0,0,2.84-1.2l.49.61a4.51,4.51,0,0,1-3.41,1.4,4.58,4.58,0,0,1-.16-9.13Zm-3.17,4.13h6.32a3.19,3.19,0,0,0-3.17-3.32A3.28,3.28,0,0,0,685.22,180.49Z" transform="translate(-0.95 -2.39)"/><path class="cls-1" d="M697.3,181.44l-2.9,3.84h-1.11l3.44-4.47-3.25-4.23h1.12l2.7,3.58,2.68-3.58h1.12l-3.24,4.23,3.44,4.47h-1.12Z" transform="translate(-0.95 -2.39)"/><path class="cls-1" d="M706.14,176.36a3.6,3.6,0,0,1,3.08,1.48l-.65.58a2.74,2.74,0,0,0-2.38-1.21c-2,0-3.27,1.62-3.27,3.71s1.24,3.73,3.27,3.73a2.76,2.76,0,0,0,2.38-1.23l.65.58a3.56,3.56,0,0,1-3.08,1.49,4.58,4.58,0,0,1,0-9.13Z" transform="translate(-0.95 -2.39)"/><path class="cls-1" d="M715,176.36c2.64,0,4.1,2.11,4.1,4.61v.26h-7.27a3.38,3.38,0,0,0,3.4,3.45,3.84,3.84,0,0,0,2.85-1.2l.48.61a4.47,4.47,0,0,1-3.4,1.4,4.58,4.58,0,0,1-.16-9.13Zm-3.17,4.13h6.32a3.19,3.19,0,0,0-3.17-3.32A3.28,3.28,0,0,0,711.83,180.49Z" transform="translate(-0.95 -2.39)"/><path class="cls-1" d="M721.51,173.27h.94v12h-.94Z" transform="translate(-0.95 -2.39)"/><path class="cls-1" d="M729.05,176.36c2.65,0,4.11,2.11,4.11,4.61v.26h-7.28a3.39,3.39,0,0,0,3.41,3.45,3.81,3.81,0,0,0,2.84-1.2l.49.61a4.49,4.49,0,0,1-3.4,1.4,4.58,4.58,0,0,1-.17-9.13Zm-3.17,4.13h6.33a3.2,3.2,0,0,0-3.17-3.32A3.29,3.29,0,0,0,725.88,180.49Zm3.16-7.26-1.54,2h-.7l1.75-2.6h1l1.78,2.6h-.72Z" transform="translate(-0.95 -2.39)"/><path class="cls-1" d="M741.44,179.39c0-1.68-.85-2.18-2.11-2.18a3.72,3.72,0,0,0-2.83,1.5v6.57h-.93v-8.7h.93v1.32a4.44,4.44,0,0,1,3.14-1.54c1.76,0,2.74.87,2.74,2.83v6.09h-.94Z" transform="translate(-0.95 -2.39)"/><path class="cls-1" d="M749,176.36a3.58,3.58,0,0,1,3.07,1.48l-.64.58a2.75,2.75,0,0,0-2.38-1.21c-2,0-3.28,1.62-3.28,3.71s1.25,3.73,3.28,3.73a2.77,2.77,0,0,0,2.38-1.23l.64.58a3.54,3.54,0,0,1-3.07,1.49,4.58,4.58,0,0,1,0-9.13Z" transform="translate(-0.95 -2.39)"/><path class="cls-1" d="M753.93,174.38a.72.72,0,0,1,1.44,0,.72.72,0,0,1-1.44,0Zm.25,2.2h.94v8.7h-.94Z" transform="translate(-0.95 -2.39)"/><path class="cls-1" d="M763.56,184.25a3.77,3.77,0,0,1-2.95,1.24,2.91,2.91,0,0,1-3.05-2.9,2.88,2.88,0,0,1,3.05-2.88,3.76,3.76,0,0,1,2.95,1.25v-1.77a2.08,2.08,0,0,0-2.34-2,3.39,3.39,0,0,0-2.72,1.28l-.52-.65a4.23,4.23,0,0,1,3.35-1.46c1.76,0,3.17.85,3.17,2.8v6.12h-.94Zm0-2.59a3.28,3.28,0,0,0-2.63-1.21,2.16,2.16,0,1,0,0,4.3,3.26,3.26,0,0,0,2.63-1.18Z" transform="translate(-0.95 -2.39)"/><path class="cls-1" d="M620.77,198c2.64,0,4.1,2.11,4.1,4.61v.26H617.6a3.38,3.38,0,0,0,3.4,3.45,3.8,3.8,0,0,0,2.84-1.2l.49.61a4.47,4.47,0,0,1-3.4,1.4,4.58,4.58,0,0,1-.16-9.13Zm-3.17,4.13h6.32a3.19,3.19,0,0,0-3.17-3.32A3.28,3.28,0,0,0,617.6,202.09Z" transform="translate(-0.95 -2.39)"/><path class="cls-1" d="M638.35,210.19v-4.72a3.68,3.68,0,0,1-3,1.62c-2.33,0-3.89-1.8-3.89-4.57S633,198,635.33,198a3.74,3.74,0,0,1,3,1.59v-1.37h1v12Zm0-9.83a3.49,3.49,0,0,0-2.86-1.55c-1.93,0-3,1.6-3,3.71s1.11,3.73,3,3.73a3.53,3.53,0,0,0,2.86-1.59Z" transform="translate(-0.95 -2.39)"/><path class="cls-1" d="M648.07,205.6a4.41,4.41,0,0,1-3.13,1.49c-1.78,0-2.74-.83-2.74-2.79v-6.12h.94v5.91c0,1.69.85,2.16,2.11,2.16a3.76,3.76,0,0,0,2.82-1.44v-6.63H649v8.7h-.94Z" transform="translate(-0.95 -2.39)"/><path class="cls-1" d="M657.45,205.85a3.77,3.77,0,0,1-3,1.24,2.91,2.91,0,0,1-3-2.9,2.88,2.88,0,0,1,3-2.88,3.76,3.76,0,0,1,3,1.25v-1.77a2.07,2.07,0,0,0-2.34-2,3.39,3.39,0,0,0-2.72,1.28l-.52-.65a4.23,4.23,0,0,1,3.35-1.46c1.76,0,3.17.85,3.17,2.79v6.13h-.94Zm0-2.59a3.27,3.27,0,0,0-2.63-1.21,2.16,2.16,0,1,0,0,4.3,3.24,3.24,0,0,0,2.63-1.18Z" transform="translate(-0.95 -2.39)"/><path class="cls-1" d="M661.3,194.87h.94v12h-.94Z" transform="translate(-0.95 -2.39)"/><path class="cls-1" d="M664.9,196a.74.74,0,0,1,.72-.72.72.72,0,1,1-.72.72Zm.25,2.2h.94v8.7h-.94Z" transform="translate(-0.95 -2.39)"/><path class="cls-1" d="M675.41,205.49a3.7,3.7,0,0,1-3,1.6c-2.31,0-3.89-1.76-3.89-4.55s1.58-4.58,3.89-4.58a3.68,3.68,0,0,1,3,1.62v-4.71h1v12h-1Zm0-5.09a3.46,3.46,0,0,0-2.86-1.59c-1.93,0-3,1.62-3,3.73s1.11,3.71,3,3.71a3.48,3.48,0,0,0,2.86-1.55Z" transform="translate(-0.95 -2.39)"/><path class="cls-1" d="M684.81,205.85a3.77,3.77,0,0,1-2.95,1.24,2.91,2.91,0,0,1-3.05-2.9,2.88,2.88,0,0,1,3.05-2.88,3.76,3.76,0,0,1,2.95,1.25v-1.77a2.08,2.08,0,0,0-2.34-2,3.39,3.39,0,0,0-2.72,1.28l-.52-.65a4.23,4.23,0,0,1,3.35-1.46c1.76,0,3.17.85,3.17,2.79v6.13h-.94Zm0-2.59a3.28,3.28,0,0,0-2.63-1.21,2.16,2.16,0,1,0,0,4.3,3.26,3.26,0,0,0,2.63-1.18Z" transform="translate(-0.95 -2.39)"/><path class="cls-1" d="M695.07,205.49a3.7,3.7,0,0,1-3,1.6c-2.3,0-3.88-1.76-3.88-4.55S689.74,198,692,198a3.69,3.69,0,0,1,3,1.62v-4.71H696v12h-.95Zm0-5.09a3.46,3.46,0,0,0-2.86-1.59c-1.93,0-3.05,1.62-3.05,3.73s1.12,3.71,3.05,3.71a3.48,3.48,0,0,0,2.86-1.55Z" transform="translate(-0.95 -2.39)"/><path class="cls-1" d="M702.63,198c2.65,0,4.1,2.11,4.1,4.61v.26h-7.27a3.38,3.38,0,0,0,3.4,3.45,3.84,3.84,0,0,0,2.85-1.2l.48.61a4.47,4.47,0,0,1-3.4,1.4,4.58,4.58,0,0,1-.16-9.13Zm-3.17,4.13h6.32a3.19,3.19,0,0,0-3.17-3.32A3.28,3.28,0,0,0,699.46,202.09Z" transform="translate(-0.95 -2.39)"/><path class="cls-1" d="M533.36,452.84h-2.64v5h-1v-12h4.48a3.4,3.4,0,0,1,3.66,3.51,3.3,3.3,0,0,1-3.33,3.45l3.47,5.05h-1.24Zm.72-6.11h-3.36v5.17h3.36a2.59,2.59,0,1,0,0-5.17Z" transform="translate(-0.95 -2.39)"/><path class="cls-1" d="M543.5,448.89c2.64,0,4.1,2.11,4.1,4.61v.25h-7.27a3.39,3.39,0,0,0,3.4,3.46,3.81,3.81,0,0,0,2.85-1.21l.48.62a4.47,4.47,0,0,1-3.4,1.4,4.58,4.58,0,0,1-.16-9.13ZM540.33,453h6.32a3.19,3.19,0,0,0-3.17-3.32A3.27,3.27,0,0,0,540.33,453Z" transform="translate(-0.95 -2.39)"/><path class="cls-1" d="M549.81,456a3.64,3.64,0,0,0,2.81,1.28c1.46,0,2.33-.72,2.33-1.73s-1.19-1.44-2.44-1.76c-1.45-.36-3.06-.74-3.06-2.43,0-1.34,1.14-2.42,3.1-2.42a4,4,0,0,1,3.12,1.28l-.53.67a3.14,3.14,0,0,0-2.59-1.15c-1.35,0-2.18.66-2.18,1.56s1.12,1.26,2.32,1.57c1.5.38,3.17.79,3.17,2.64,0,1.41-1.08,2.56-3.26,2.56a4.21,4.21,0,0,1-3.35-1.37Z" transform="translate(-0.95 -2.39)"/><path class="cls-1" d="M558.27,461.12v-12h.94v1.37a3.72,3.72,0,0,1,3-1.59c2.33,0,3.89,1.77,3.89,4.56s-1.56,4.57-3.89,4.57a3.71,3.71,0,0,1-3-1.62v4.72Zm3.8-11.38a3.51,3.51,0,0,0-2.86,1.55v4.3a3.54,3.54,0,0,0,2.86,1.59c1.95,0,3-1.63,3-3.73S564,449.74,562.07,449.74Z" transform="translate(-0.95 -2.39)"/><path class="cls-1" d="M572.22,448.89c2.65,0,4.11,2.11,4.11,4.61v.25h-7.27a3.39,3.39,0,0,0,3.4,3.46A3.77,3.77,0,0,0,575.3,456l.49.62a4.49,4.49,0,0,1-3.4,1.4,4.58,4.58,0,0,1-.17-9.13ZM569.06,453h6.32a3.2,3.2,0,0,0-3.17-3.32A3.27,3.27,0,0,0,569.06,453Z" transform="translate(-0.95 -2.39)"/><path class="cls-1" d="M578.49,446.91a.72.72,0,0,1,1.44,0,.72.72,0,1,1-1.44,0Zm.25,2.2h.93v8.7h-.93Z" transform="translate(-0.95 -2.39)"/><path class="cls-1" d="M582.77,456.13v-6.19h-1.44v-.83h1.44v-2.38h1v2.38h1.77v.83h-1.77V456c0,.7.29,1.19.91,1.19a1.35,1.35,0,0,0,1-.42l.36.72a1.94,1.94,0,0,1-1.48.54C583.33,458,582.77,457.32,582.77,456.13Z" transform="translate(-0.95 -2.39)"/><path class="cls-1" d="M587,453.45c0-2.54,1.63-4.56,4.17-4.56s4.2,2,4.2,4.56-1.62,4.57-4.2,4.57S587,456,587,453.45Zm7.36,0c0-1.93-1.13-3.71-3.19-3.71s-3.17,1.78-3.17,3.71,1.16,3.73,3.17,3.73S594.4,455.39,594.4,453.45Z" transform="translate(-0.95 -2.39)"/><path class="cls-1" d="M597.24,459.57a2.47,2.47,0,0,0,1-1.66l-.18,0a.72.72,0,0,1-.74-.75.78.78,0,0,1,.77-.78c.49,0,.92.42.92,1.15a3.16,3.16,0,0,1-1.3,2.47Z" transform="translate(-0.95 -2.39)"/><path class="cls-1" d="M606.44,456.13v-6.19H605v-.83h1.44v-2.38h.95v2.38h1.77v.83h-1.77V456c0,.7.29,1.19.9,1.19a1.36,1.36,0,0,0,1-.42l.36.72a1.94,1.94,0,0,1-1.48.54C607,458,606.44,457.32,606.44,456.13Z" transform="translate(-0.95 -2.39)"/><path class="cls-1" d="M611.21,449.11h.94v1.49a3.71,3.71,0,0,1,2.93-1.67v1a1.79,1.79,0,0,0-.47,0,3.29,3.29,0,0,0-2.46,1.55v6.34h-.94Z" transform="translate(-0.95 -2.39)"/><path class="cls-1" d="M622.44,456.78a3.76,3.76,0,0,1-3,1.24,2.91,2.91,0,0,1-3-2.9,2.87,2.87,0,0,1,3-2.88,3.76,3.76,0,0,1,3,1.24v-1.76a2.07,2.07,0,0,0-2.34-2,3.4,3.4,0,0,0-2.72,1.28l-.52-.65a4.23,4.23,0,0,1,3.35-1.46c1.76,0,3.17.85,3.17,2.79v6.13h-.94Zm0-2.59a3.24,3.24,0,0,0-2.63-1.21,2.16,2.16,0,1,0,0,4.3,3.22,3.22,0,0,0,2.63-1.19Z" transform="translate(-0.95 -2.39)"/><path class="cls-1" d="M632.16,451.92c0-1.68-.84-2.18-2.1-2.18a3.73,3.73,0,0,0-2.83,1.49v6.58h-.94v-8.7h.94v1.31a4.42,4.42,0,0,1,3.13-1.53c1.77,0,2.74.87,2.74,2.83v6.09h-.94Z" transform="translate(-0.95 -2.39)"/><path class="cls-1" d="M635.81,456a3.64,3.64,0,0,0,2.81,1.28c1.46,0,2.33-.72,2.33-1.73s-1.19-1.44-2.43-1.76c-1.46-.36-3.06-.74-3.06-2.43,0-1.34,1.13-2.42,3.09-2.42a4,4,0,0,1,3.12,1.28l-.53.67a3.14,3.14,0,0,0-2.59-1.15c-1.35,0-2.18.66-2.18,1.56s1.12,1.26,2.33,1.57c1.49.38,3.16.79,3.16,2.64,0,1.41-1.08,2.56-3.25,2.56a4.18,4.18,0,0,1-3.35-1.37Z" transform="translate(-0.95 -2.39)"/><path class="cls-1" d="M644.28,461.12v-12h.93v1.37a3.72,3.72,0,0,1,3-1.59c2.32,0,3.89,1.77,3.89,4.56s-1.57,4.57-3.89,4.57a3.71,3.71,0,0,1-3-1.62v4.72Zm3.79-11.38a3.52,3.52,0,0,0-2.86,1.55v4.3a3.56,3.56,0,0,0,2.86,1.59c1.95,0,3-1.63,3-3.73S650,449.74,648.07,449.74Z" transform="translate(-0.95 -2.39)"/><path class="cls-1" d="M660.06,456.78a3.76,3.76,0,0,1-2.95,1.24,2.91,2.91,0,0,1-3-2.9,2.87,2.87,0,0,1,3-2.88,3.76,3.76,0,0,1,2.95,1.24v-1.76a2.07,2.07,0,0,0-2.34-2A3.39,3.39,0,0,0,655,451l-.52-.65a4.23,4.23,0,0,1,3.35-1.46c1.76,0,3.17.85,3.17,2.79v6.13h-.94Zm0-2.59a3.24,3.24,0,0,0-2.63-1.21,2.16,2.16,0,1,0,0,4.3,3.22,3.22,0,0,0,2.63-1.19Z" transform="translate(-0.95 -2.39)"/><path class="cls-1" d="M663.91,449.11h.94v1.49a3.74,3.74,0,0,1,2.93-1.67v1a1.72,1.72,0,0,0-.46,0,3.3,3.3,0,0,0-2.47,1.55v6.34h-.94Z" transform="translate(-0.95 -2.39)"/><path class="cls-1" d="M673.31,448.89c2.65,0,4.11,2.11,4.11,4.61v.25h-7.28a3.39,3.39,0,0,0,3.4,3.46,3.81,3.81,0,0,0,2.85-1.21l.48.62a4.47,4.47,0,0,1-3.4,1.4,4.58,4.58,0,0,1-.16-9.13ZM670.14,453h6.32a3.19,3.19,0,0,0-3.17-3.32A3.27,3.27,0,0,0,670.14,453Zm3.15-7.26-1.53,2h-.7l1.75-2.59h1l1.78,2.59h-.72Z" transform="translate(-0.95 -2.39)"/><path class="cls-1" d="M685.69,451.92c0-1.68-.84-2.18-2.1-2.18a3.73,3.73,0,0,0-2.83,1.49v6.58h-.94v-8.7h.94v1.31a4.42,4.42,0,0,1,3.13-1.53c1.77,0,2.74.87,2.74,2.83v6.09h-.94Z" transform="translate(-0.95 -2.39)"/><path class="cls-1" d="M693.27,448.89a3.6,3.6,0,0,1,3.08,1.48l-.65.58a2.73,2.73,0,0,0-2.37-1.21c-2,0-3.28,1.62-3.28,3.71s1.24,3.73,3.28,3.73A2.75,2.75,0,0,0,695.7,456l.65.58a3.56,3.56,0,0,1-3.08,1.49,4.58,4.58,0,0,1,0-9.13Z" transform="translate(-0.95 -2.39)"/><path class="cls-1" d="M698.18,446.91a.74.74,0,0,1,.72-.72.72.72,0,0,1,0,1.44A.74.74,0,0,1,698.18,446.91Zm.26,2.2h.93v8.7h-.93Z" transform="translate(-0.95 -2.39)"/><path class="cls-1" d="M707.81,456.78a3.76,3.76,0,0,1-2.95,1.24,2.91,2.91,0,0,1-3-2.9,2.87,2.87,0,0,1,3-2.88,3.76,3.76,0,0,1,2.95,1.24v-1.76a2.07,2.07,0,0,0-2.34-2,3.37,3.37,0,0,0-2.71,1.28l-.53-.65a4.23,4.23,0,0,1,3.35-1.46c1.77,0,3.17.85,3.17,2.79v6.13h-.94Zm0-2.59a3.23,3.23,0,0,0-2.62-1.21,2.16,2.16,0,1,0,0,4.3,3.22,3.22,0,0,0,2.62-1.19Z" transform="translate(-0.95 -2.39)"/><path class="cls-1" d="M533.34,470.49c2.65,0,4.11,2.11,4.11,4.61v.25h-7.27a3.39,3.39,0,0,0,3.4,3.46,3.77,3.77,0,0,0,2.84-1.21l.49.62a4.47,4.47,0,0,1-3.4,1.4,4.58,4.58,0,0,1-.17-9.13Zm-3.16,4.13h6.32a3.19,3.19,0,0,0-3.17-3.32A3.27,3.27,0,0,0,530.18,474.62Z" transform="translate(-0.95 -2.39)"/><path class="cls-1" d="M548.25,470.49a3.6,3.6,0,0,1,3.08,1.48l-.65.57a2.75,2.75,0,0,0-2.38-1.2c-2,0-3.27,1.62-3.27,3.71s1.24,3.73,3.27,3.73a2.76,2.76,0,0,0,2.38-1.23l.65.58a3.56,3.56,0,0,1-3.08,1.49,4.58,4.58,0,0,1,0-9.13Z" transform="translate(-0.95 -2.39)"/><path class="cls-1" d="M553.41,470.71h.94v1.49a3.74,3.74,0,0,1,2.93-1.67v1a2.27,2.27,0,0,0-.46,0,3.3,3.3,0,0,0-2.47,1.55v6.34h-.94Z" transform="translate(-0.95 -2.39)"/><path class="cls-1" d="M562.81,470.49c2.65,0,4.11,2.11,4.11,4.61v.25h-7.28a3.39,3.39,0,0,0,3.4,3.46,3.81,3.81,0,0,0,2.85-1.21l.48.62a4.47,4.47,0,0,1-3.4,1.4,4.58,4.58,0,0,1-.16-9.13Zm-3.17,4.13H566a3.19,3.19,0,0,0-3.17-3.32A3.27,3.27,0,0,0,559.64,474.62Z" transform="translate(-0.95 -2.39)"/><path class="cls-1" d="M569.13,477.55a3.61,3.61,0,0,0,2.8,1.28c1.46,0,2.33-.72,2.33-1.73s-1.19-1.44-2.43-1.76c-1.46-.36-3.06-.74-3.06-2.43,0-1.34,1.13-2.42,3.09-2.42a4,4,0,0,1,3.12,1.28l-.52.67a3.18,3.18,0,0,0-2.6-1.15c-1.35,0-2.18.66-2.18,1.56s1.12,1.26,2.33,1.57c1.49.38,3.17.79,3.17,2.64,0,1.41-1.08,2.56-3.26,2.56a4.18,4.18,0,0,1-3.35-1.37Z" transform="translate(-0.95 -2.39)"/><path class="cls-1" d="M581.31,470.49a3.59,3.59,0,0,1,3.08,1.48l-.65.57a2.75,2.75,0,0,0-2.37-1.2c-2,0-3.28,1.62-3.28,3.71s1.24,3.73,3.28,3.73a2.75,2.75,0,0,0,2.37-1.23l.65.58a3.54,3.54,0,0,1-3.08,1.49,4.58,4.58,0,0,1,0-9.13Z" transform="translate(-0.95 -2.39)"/><path class="cls-1" d="M586.23,468.51a.72.72,0,1,1,1.44,0,.72.72,0,1,1-1.44,0Zm.25,2.2h.93v8.7h-.93Z" transform="translate(-0.95 -2.39)"/><path class="cls-1" d="M600.68,473.32c0-1.23-.52-2-1.74-2a3.22,3.22,0,0,0-2.49,1.48v6.59h-1v-6.09c0-1.23-.51-2-1.75-2a3.32,3.32,0,0,0-2.48,1.49v6.58h-.94v-8.7h.94V472a3.8,3.8,0,0,1,2.81-1.53,2.19,2.19,0,0,1,2.28,1.64,3.63,3.63,0,0,1,2.88-1.64c1.6,0,2.38.9,2.38,2.65v6.27h-.94Z" transform="translate(-0.95 -2.39)"/><path class="cls-1" d="M608.22,470.49c2.65,0,4.11,2.11,4.11,4.61v.25h-7.28a3.39,3.39,0,0,0,3.41,3.46,3.8,3.8,0,0,0,2.84-1.21l.49.62a4.49,4.49,0,0,1-3.41,1.4,4.58,4.58,0,0,1-.16-9.13Zm-3.17,4.13h6.32a3.19,3.19,0,0,0-3.17-3.32A3.28,3.28,0,0,0,605.05,474.62Z" transform="translate(-0.95 -2.39)"/><path class="cls-1" d="M620.61,473.52c0-1.68-.85-2.18-2.11-2.18a3.73,3.73,0,0,0-2.83,1.49v6.58h-.93v-8.7h.93V472a4.45,4.45,0,0,1,3.14-1.53c1.76,0,2.73.87,2.73,2.83v6.09h-.93Z" transform="translate(-0.95 -2.39)"/><path class="cls-1" d="M624.64,477.73v-6.19H623.2v-.83h1.44v-2.38h1v2.38h1.77v.83h-1.77v6c0,.7.29,1.19.9,1.19a1.32,1.32,0,0,0,1-.42l.36.72a1.91,1.91,0,0,1-1.47.54C625.2,479.62,624.64,478.92,624.64,477.73Z" transform="translate(-0.95 -2.39)"/><path class="cls-1" d="M628.9,475.05c0-2.54,1.64-4.56,4.18-4.56s4.19,2,4.19,4.56-1.62,4.57-4.19,4.57S628.9,477.59,628.9,475.05Zm7.37,0c0-1.93-1.14-3.71-3.19-3.71s-3.17,1.78-3.17,3.71,1.15,3.73,3.17,3.73S636.27,477,636.27,475.05Z" transform="translate(-0.95 -2.39)"/><path class="cls-1" d="M648.07,470.49a3.6,3.6,0,0,1,3.08,1.48l-.65.57a2.75,2.75,0,0,0-2.37-1.2c-2,0-3.28,1.62-3.28,3.71s1.24,3.73,3.28,3.73a2.75,2.75,0,0,0,2.37-1.23l.65.58a3.56,3.56,0,0,1-3.08,1.49,4.58,4.58,0,0,1,0-9.13Z" transform="translate(-0.95 -2.39)"/><path class="cls-1" d="M652.73,475.05c0-2.54,1.64-4.56,4.18-4.56s4.2,2,4.2,4.56-1.62,4.57-4.2,4.57S652.73,477.59,652.73,475.05Zm7.37,0c0-1.93-1.14-3.71-3.19-3.71s-3.17,1.78-3.17,3.71,1.15,3.73,3.17,3.73S660.1,477,660.1,475.05Z" transform="translate(-0.95 -2.39)"/><path class="cls-1" d="M663.52,467.4h.93v12h-.93Z" transform="translate(-0.95 -2.39)"/><path class="cls-1" d="M672.89,478.38a3.76,3.76,0,0,1-2.95,1.24,2.91,2.91,0,0,1-3-2.9,2.87,2.87,0,0,1,3-2.88,3.76,3.76,0,0,1,2.95,1.24v-1.76a2.07,2.07,0,0,0-2.34-2,3.4,3.4,0,0,0-2.72,1.28l-.52-.65a4.23,4.23,0,0,1,3.35-1.46c1.77,0,3.17.85,3.17,2.79v6.13h-.94Zm0-2.59a3.23,3.23,0,0,0-2.62-1.21,2.16,2.16,0,1,0,0,4.3,3.22,3.22,0,0,0,2.62-1.19Z" transform="translate(-0.95 -2.39)"/><path class="cls-1" d="M676.75,467.4h.93v4.71a3.71,3.71,0,0,1,3-1.62c2.32,0,3.88,1.82,3.88,4.58s-1.58,4.55-3.88,4.55a3.7,3.7,0,0,1-3-1.6v1.39h-.93Zm3.79,11.38c2,0,3.05-1.61,3.05-3.71s-1.1-3.73-3.05-3.73a3.55,3.55,0,0,0-2.86,1.58v4.31A3.55,3.55,0,0,0,680.54,478.78Z" transform="translate(-0.95 -2.39)"/><path class="cls-1" d="M686.52,475.05c0-2.54,1.64-4.56,4.18-4.56s4.19,2,4.19,4.56-1.62,4.57-4.19,4.57S686.52,477.59,686.52,475.05Zm7.36,0c0-1.93-1.13-3.71-3.18-3.71s-3.17,1.78-3.17,3.71,1.15,3.73,3.17,3.73S693.88,477,693.88,475.05Z" transform="translate(-0.95 -2.39)"/><path class="cls-1" d="M697.3,470.71h.94v1.49a3.71,3.71,0,0,1,2.93-1.67v1a2.37,2.37,0,0,0-.47,0,3.29,3.29,0,0,0-2.46,1.55v6.34h-.94Z" transform="translate(-0.95 -2.39)"/><path class="cls-1" d="M708.53,478.38a3.76,3.76,0,0,1-2.95,1.24,2.91,2.91,0,0,1-3-2.9,2.87,2.87,0,0,1,3-2.88,3.76,3.76,0,0,1,2.95,1.24v-1.76a2.07,2.07,0,0,0-2.34-2,3.4,3.4,0,0,0-2.72,1.28L703,472a4.23,4.23,0,0,1,3.35-1.46c1.77,0,3.17.85,3.17,2.79v6.13h-.94Zm0-2.59a3.23,3.23,0,0,0-2.62-1.21,2.16,2.16,0,1,0,0,4.3,3.22,3.22,0,0,0,2.62-1.19Z" transform="translate(-0.95 -2.39)"/><path class="cls-1" d="M712.56,477.73v-6.19h-1.44v-.83h1.44v-2.38h1v2.38h1.76v.83h-1.76v6c0,.7.29,1.19.9,1.19a1.35,1.35,0,0,0,1-.42l.36.72a1.92,1.92,0,0,1-1.48.54C713.12,479.62,712.56,478.92,712.56,477.73Z" transform="translate(-0.95 -2.39)"/><path class="cls-1" d="M717.08,468.51a.74.74,0,0,1,.72-.72.72.72,0,1,1-.72.72Zm.25,2.2h.94v8.7h-.94Z" transform="translate(-0.95 -2.39)"/><path class="cls-1" d="M719.85,470.71h1l3.17,7.6,3.13-7.6h1.06l-3.67,8.7h-1.06Z" transform="translate(-0.95 -2.39)"/><path class="cls-1" d="M729.34,475.05c0-2.54,1.64-4.56,4.18-4.56s4.19,2,4.19,4.56-1.62,4.57-4.19,4.57S729.34,477.59,729.34,475.05Zm7.36,0c0-1.93-1.13-3.71-3.18-3.71s-3.17,1.78-3.17,3.71,1.15,3.73,3.17,3.73S736.7,477,736.7,475.05Z" transform="translate(-0.95 -2.39)"/><path class="cls-1" d="M350.37,3.92h-3.92V3h8.89v.94h-3.92V15h-1.05Z" transform="translate(-0.95 -2.39)"/><path class="cls-1" d="M355.75,6.3h.94V7.79a3.74,3.74,0,0,1,2.94-1.67v1a2.42,2.42,0,0,0-.47,0,3.3,3.3,0,0,0-2.47,1.55V15h-.94Z" transform="translate(-0.95 -2.39)"/><path class="cls-1" d="M367,14a3.82,3.82,0,0,1-3,1.24,2.91,2.91,0,0,1-3-2.9,2.87,2.87,0,0,1,3-2.88,3.8,3.8,0,0,1,3,1.24V8.91a2.07,2.07,0,0,0-2.34-2,3.39,3.39,0,0,0-2.72,1.28l-.52-.65a4.21,4.21,0,0,1,3.34-1.46c1.77,0,3.17.85,3.17,2.79V15H367Zm0-2.59a3.25,3.25,0,0,0-2.63-1.21,2.16,2.16,0,1,0,0,4.3A3.23,3.23,0,0,0,367,13.28Z" transform="translate(-0.95 -2.39)"/><path class="cls-1" d="M376.71,9.11c0-1.68-.85-2.18-2.11-2.18a3.73,3.73,0,0,0-2.83,1.49V15h-.93V6.3h.93V7.61a4.45,4.45,0,0,1,3.14-1.53c1.76,0,2.73.87,2.73,2.83V15h-.93Z" transform="translate(-0.95 -2.39)"/><path class="cls-1" d="M380.36,13.14a3.63,3.63,0,0,0,2.81,1.28c1.46,0,2.32-.72,2.32-1.73s-1.19-1.44-2.43-1.77c-1.46-.36-3.06-.73-3.06-2.43,0-1.33,1.13-2.41,3.1-2.41a4,4,0,0,1,3.11,1.28l-.52.67a3.15,3.15,0,0,0-2.59-1.16c-1.35,0-2.18.67-2.18,1.57S382,9.7,383.24,10c1.49.37,3.17.79,3.17,2.64,0,1.41-1.08,2.56-3.26,2.56a4.21,4.21,0,0,1-3.35-1.37Z" transform="translate(-0.95 -2.39)"/><path class="cls-1" d="M389.13,7.13h-1.44V6.3h1.44V5.5c0-1.71.91-2.7,2.35-2.7a2.35,2.35,0,0,1,1.17.27l-.28.74a1.6,1.6,0,0,0-.8-.19c-1,0-1.51.68-1.51,1.88v.8h1.77v.83h-1.77V15h-.93Z" transform="translate(-0.95 -2.39)"/><path class="cls-1" d="M393.09,10.64c0-2.54,1.63-4.56,4.17-4.56s4.2,2,4.2,4.56-1.62,4.57-4.2,4.57S393.09,13.18,393.09,10.64Zm7.36,0c0-1.93-1.13-3.71-3.19-3.71s-3.17,1.78-3.17,3.71,1.16,3.72,3.17,3.72S400.45,12.58,400.45,10.64Z" transform="translate(-0.95 -2.39)"/><path class="cls-1" d="M403.87,6.3h.93V7.79a3.74,3.74,0,0,1,2.94-1.67v1a2.37,2.37,0,0,0-.47,0,3.32,3.32,0,0,0-2.47,1.55V15h-.93Z" transform="translate(-0.95 -2.39)"/><path class="cls-1" d="M419.93,8.91c0-1.23-.53-2-1.75-2a3.24,3.24,0,0,0-2.49,1.47V15h-.95V8.91c0-1.23-.5-2-1.75-2a3.34,3.34,0,0,0-2.48,1.49V15h-.94V6.3h.94V7.61a3.82,3.82,0,0,1,2.81-1.53,2.17,2.17,0,0,1,2.28,1.64,3.63,3.63,0,0,1,2.89-1.64c1.6,0,2.37.9,2.37,2.65V15h-.93Z" transform="translate(-0.95 -2.39)"/><path class="cls-1" d="M429.3,14a3.79,3.79,0,0,1-2.95,1.24,2.91,2.91,0,0,1-3-2.9,2.87,2.87,0,0,1,3-2.88,3.76,3.76,0,0,1,2.95,1.24V8.91a2.07,2.07,0,0,0-2.34-2,3.4,3.4,0,0,0-2.72,1.28l-.52-.65a4.23,4.23,0,0,1,3.35-1.46c1.76,0,3.17.85,3.17,2.79V15h-.94Zm0-2.59a3.24,3.24,0,0,0-2.63-1.21,2.16,2.16,0,1,0,0,4.3,3.22,3.22,0,0,0,2.63-1.19Z" transform="translate(-0.95 -2.39)"/><path class="cls-1" d="M439.31,13.14l.65.58a3.51,3.51,0,0,1-2.79,1.49l-.31.81a1.18,1.18,0,0,1,1.86.92c0,.9-.81,1.46-1.82,1.46a3,3,0,0,1-1.75-.52l.29-.58a2.26,2.26,0,0,0,1.44.5c.63,0,1.17-.29,1.17-.86,0-.38-.23-.65-.74-.65a1,1,0,0,0-.72.31l-.5-.29.41-1.12a4.29,4.29,0,0,1-3.85-4.55,4.25,4.25,0,0,1,4.23-4.56A3.6,3.6,0,0,1,440,7.56l-.65.57a2.75,2.75,0,0,0-2.38-1.2c-2,0-3.27,1.62-3.27,3.71s1.24,3.72,3.27,3.72A2.77,2.77,0,0,0,439.31,13.14Z" transform="translate(-0.95 -2.39)"/><path class="cls-1" d="M447.57,14a3.79,3.79,0,0,1-2.95,1.24,2.91,2.91,0,0,1-3-2.9,2.87,2.87,0,0,1,3-2.88,3.76,3.76,0,0,1,2.95,1.24V8.91a2.07,2.07,0,0,0-2.34-2,3.39,3.39,0,0,0-2.72,1.28L442,7.54a4.23,4.23,0,0,1,3.35-1.46c1.76,0,3.17.85,3.17,2.79V15h-.94Zm0-2.59a3.24,3.24,0,0,0-2.63-1.21,2.16,2.16,0,1,0,0,4.3,3.22,3.22,0,0,0,2.63-1.19Zm-3.36-8.21c-.54,0-1,.52-1,1.74h-.63c0-1.35.6-2.41,1.68-2.41.72,0,1,.54,1.35,1s.47.79.9.79,1-.52,1-1.72h.65c0,1.35-.58,2.41-1.66,2.41-.75,0-1.06-.54-1.36-1S444.64,3.17,444.21,3.17Z" transform="translate(-0.95 -2.39)"/><path class="cls-1" d="M450.92,10.64c0-2.54,1.64-4.56,4.17-4.56s4.2,2,4.2,4.56-1.62,4.57-4.2,4.57S450.92,13.18,450.92,10.64Zm7.36,0c0-1.93-1.13-3.71-3.19-3.71s-3.16,1.78-3.16,3.71,1.15,3.72,3.16,3.72S458.28,12.58,458.28,10.64Z" transform="translate(-0.95 -2.39)"/><path class="cls-1" d="M470.09,6.08a3.6,3.6,0,0,1,3.08,1.48l-.65.57a2.75,2.75,0,0,0-2.38-1.2c-2,0-3.27,1.62-3.27,3.71s1.24,3.72,3.27,3.72a2.77,2.77,0,0,0,2.38-1.22l.65.58a3.56,3.56,0,0,1-3.08,1.49,4.26,4.26,0,0,1-4.23-4.57A4.25,4.25,0,0,1,470.09,6.08Z" transform="translate(-0.95 -2.39)"/><path class="cls-1" d="M474.75,10.64c0-2.54,1.64-4.56,4.18-4.56s4.19,2,4.19,4.56-1.62,4.57-4.19,4.57S474.75,13.18,474.75,10.64Zm7.36,0c0-1.93-1.13-3.71-3.18-3.71s-3.17,1.78-3.17,3.71,1.15,3.72,3.17,3.72S482.11,12.58,482.11,10.64Z" transform="translate(-0.95 -2.39)"/><path class="cls-1" d="M491.4,9.11c0-1.68-.85-2.18-2.11-2.18a3.73,3.73,0,0,0-2.82,1.49V15h-.94V6.3h.94V7.61a4.42,4.42,0,0,1,3.13-1.53c1.76,0,2.74.87,2.74,2.83V15h-.94Z" transform="translate(-0.95 -2.39)"/><path class="cls-1" d="M495.43,13.32V7.13H494V6.3h1.44V3.92h.95V6.3h1.77v.83h-1.77v6.05c0,.7.29,1.18.91,1.18a1.35,1.35,0,0,0,1-.41l.36.72a2,2,0,0,1-1.48.54C496,15.21,495.43,14.51,495.43,13.32Z" transform="translate(-0.95 -2.39)"/><path class="cls-1" d="M500.2,6.3h.94V15h-.94Zm0-1.32L503,2.39h1.12L501,5Z" transform="translate(-0.95 -2.39)"/><path class="cls-1" d="M509.92,9.11c0-1.68-.84-2.18-2.1-2.18A3.73,3.73,0,0,0,505,8.42V15h-.94V6.3H505V7.61a4.42,4.42,0,0,1,3.13-1.53c1.77,0,2.74.87,2.74,2.83V15h-.94Z" transform="translate(-0.95 -2.39)"/><path class="cls-1" d="M519.64,13.72a4.41,4.41,0,0,1-3.13,1.49c-1.78,0-2.74-.83-2.74-2.79V6.3h.94v5.9c0,1.7.84,2.16,2.1,2.16a3.73,3.73,0,0,0,2.83-1.44V6.3h.94V15h-.94Z" transform="translate(-0.95 -2.39)"/><path class="cls-1" d="M529,14a3.8,3.8,0,0,1-2.95,1.24,2.92,2.92,0,0,1-3.05-2.9,2.88,2.88,0,0,1,3.05-2.88A3.79,3.79,0,0,1,529,10.67V8.91a2.07,2.07,0,0,0-2.34-2A3.39,3.39,0,0,0,524,8.19l-.52-.65a4.23,4.23,0,0,1,3.35-1.46c1.76,0,3.17.85,3.17,2.79V15H529Zm0-2.59a3.25,3.25,0,0,0-2.63-1.21,2.16,2.16,0,1,0,0,4.3A3.23,3.23,0,0,0,529,13.28Z" transform="translate(-0.95 -2.39)"/><path class="cls-1" d="M351,27.68c2.64,0,4.1,2.11,4.1,4.61v.25H347.8A3.39,3.39,0,0,0,351.2,36a3.81,3.81,0,0,0,2.85-1.21l.48.62a4.47,4.47,0,0,1-3.4,1.4,4.3,4.3,0,0,1-4.36-4.57A4.33,4.33,0,0,1,351,27.68ZM347.8,31.8h6.32A3.19,3.19,0,0,0,351,28.49,3.27,3.27,0,0,0,347.8,31.8Z" transform="translate(-0.95 -2.39)"/><path class="cls-1" d="M365.87,27.68A3.6,3.6,0,0,1,369,29.16l-.65.57a2.75,2.75,0,0,0-2.38-1.2c-2,0-3.27,1.62-3.27,3.71S363.89,36,365.92,36a2.77,2.77,0,0,0,2.38-1.22l.65.58a3.56,3.56,0,0,1-3.08,1.49,4.26,4.26,0,0,1-4.23-4.57A4.25,4.25,0,0,1,365.87,27.68Z" transform="translate(-0.95 -2.39)"/><path class="cls-1" d="M370.53,32.24c0-2.54,1.64-4.56,4.18-4.56s4.19,2,4.19,4.56-1.62,4.57-4.19,4.57S370.53,34.78,370.53,32.24Zm7.37,0c0-1.93-1.14-3.71-3.19-3.71s-3.17,1.78-3.17,3.71S372.69,36,374.71,36,377.9,34.18,377.9,32.24Z" transform="translate(-0.95 -2.39)"/><path class="cls-1" d="M380.39,31.8h4.33v.87h-4.33Z" transform="translate(-0.95 -2.39)"/><path class="cls-1" d="M390.4,27.68c2.65,0,4.11,2.11,4.11,4.61v.25h-7.28A3.41,3.41,0,0,0,390.64,36a3.79,3.79,0,0,0,2.84-1.21l.49.62a4.49,4.49,0,0,1-3.4,1.4,4.3,4.3,0,0,1-4.36-4.57A4.32,4.32,0,0,1,390.4,27.68Zm-3.17,4.12h6.32a3.18,3.18,0,0,0-3.16-3.31A3.28,3.28,0,0,0,387.23,31.8Z" transform="translate(-0.95 -2.39)"/><path class="cls-1" d="M395.59,27.9h1l3.17,7.6,3.13-7.6H404l-3.67,8.69h-1.06Z" transform="translate(-0.95 -2.39)"/><path class="cls-1" d="M405.07,32.24c0-2.54,1.64-4.56,4.18-4.56s4.19,2,4.19,4.56-1.62,4.57-4.19,4.57S405.07,34.78,405.07,32.24Zm7.37,0c0-1.93-1.14-3.71-3.19-3.71s-3.17,1.78-3.17,3.71S407.23,36,409.25,36,412.44,34.18,412.44,32.24Z" transform="translate(-0.95 -2.39)"/><path class="cls-1" d="M415.85,24.58h.94v12h-.94Z" transform="translate(-0.95 -2.39)"/><path class="cls-1" d="M425.58,35.32a4.45,4.45,0,0,1-3.14,1.49c-1.78,0-2.73-.83-2.73-2.79V27.9h.93v5.9c0,1.7.85,2.16,2.11,2.16a3.77,3.77,0,0,0,2.83-1.44V27.9h.93v8.69h-.93Z" transform="translate(-0.95 -2.39)"/><path class="cls-1" d="M435.58,34.74l.65.58a3.51,3.51,0,0,1-2.79,1.49l-.31.81a1.14,1.14,0,0,1,.67-.22A1.12,1.12,0,0,1,435,38.54c0,.9-.81,1.46-1.82,1.46a2.93,2.93,0,0,1-1.75-.53l.29-.57a2.27,2.27,0,0,0,1.44.5c.63,0,1.17-.29,1.17-.86,0-.38-.23-.65-.74-.65a1,1,0,0,0-.72.31l-.5-.29.41-1.12a4.29,4.29,0,0,1-3.85-4.55,4.26,4.26,0,0,1,4.23-4.56,3.59,3.59,0,0,1,3.08,1.48l-.65.57a2.75,2.75,0,0,0-2.37-1.2c-2,0-3.28,1.62-3.28,3.71S431.17,36,433.21,36A2.77,2.77,0,0,0,435.58,34.74Z" transform="translate(-0.95 -2.39)"/><path class="cls-1" d="M443.84,35.57a3.79,3.79,0,0,1-2.95,1.24,2.91,2.91,0,0,1-3-2.9,2.87,2.87,0,0,1,3-2.88,3.76,3.76,0,0,1,2.95,1.24V30.51a2.07,2.07,0,0,0-2.34-2,3.37,3.37,0,0,0-2.71,1.28l-.53-.65a4.23,4.23,0,0,1,3.35-1.46c1.77,0,3.17.85,3.17,2.79v6.12h-.94Zm0-2.6a3.25,3.25,0,0,0-2.62-1.2,2.16,2.16,0,1,0,0,4.3,3.22,3.22,0,0,0,2.62-1.19Zm-3.36-8.21c-.54,0-1,.53-1,1.75h-.62c0-1.35.59-2.41,1.67-2.41.72,0,1,.54,1.35,1s.47.79.9.79.95-.52.95-1.72h.65c0,1.35-.57,2.41-1.65,2.41-.76,0-1.07-.54-1.37-1.05S440.91,24.76,440.48,24.76Z" transform="translate(-0.95 -2.39)"/><path class="cls-1" d="M447.19,32.24c0-2.54,1.64-4.56,4.18-4.56s4.19,2,4.19,4.56-1.62,4.57-4.19,4.57S447.19,34.78,447.19,32.24Zm7.36,0c0-1.93-1.13-3.71-3.18-3.71s-3.17,1.78-3.17,3.71S449.35,36,451.37,36,454.55,34.18,454.55,32.24Z" transform="translate(-0.95 -2.39)"/><path class="cls-1" d="M462.13,32.24c0-2.54,1.64-4.56,4.18-4.56s4.19,2,4.19,4.56-1.62,4.57-4.19,4.57S462.13,34.78,462.13,32.24Zm7.36,0c0-1.93-1.13-3.71-3.18-3.71s-3.17,1.78-3.17,3.71S464.29,36,466.31,36,469.49,34.18,469.49,32.24Z" transform="translate(-0.95 -2.39)"/><path class="cls-1" d="M472.91,27.9h.94v1.49a3.74,3.74,0,0,1,2.93-1.67v1a2.32,2.32,0,0,0-.47,0,3.29,3.29,0,0,0-2.46,1.55v6.33h-.94Z" transform="translate(-0.95 -2.39)"/><path class="cls-1" d="M479.18,38.09a3.32,3.32,0,0,0,2.88,1.22,2.65,2.65,0,0,0,3-2.79V35.15a3.75,3.75,0,0,1-3,1.62c-2.3,0-3.89-1.74-3.89-4.53s1.59-4.56,3.89-4.56a3.69,3.69,0,0,1,3,1.62V27.9h1v8.6c0,2.67-1.8,3.62-3.92,3.62a4.17,4.17,0,0,1-3.42-1.31Zm5.85-8a3.53,3.53,0,0,0-2.87-1.58c-1.92,0-3,1.6-3,3.71s1.12,3.69,3,3.69A3.51,3.51,0,0,0,485,34.34Z" transform="translate(-0.95 -2.39)"/><path class="cls-1" d="M494.41,35.57a3.82,3.82,0,0,1-3,1.24,2.91,2.91,0,0,1-3-2.9,2.87,2.87,0,0,1,3-2.88,3.8,3.8,0,0,1,3,1.24V30.51c0-1.3-1.05-2-2.35-2a3.37,3.37,0,0,0-2.71,1.28l-.53-.65a4.23,4.23,0,0,1,3.35-1.46c1.77,0,3.17.85,3.17,2.79v6.12h-.93Zm0-2.6a3.29,3.29,0,0,0-2.63-1.2,2.16,2.16,0,1,0,0,4.3,3.25,3.25,0,0,0,2.63-1.19Z" transform="translate(-0.95 -2.39)"/><path class="cls-1" d="M504.13,30.71c0-1.68-.85-2.18-2.11-2.18A3.73,3.73,0,0,0,499.19,30v6.57h-.94V27.9h.94v1.31a4.42,4.42,0,0,1,3.13-1.53c1.77,0,2.74.86,2.74,2.83v6.08h-.93Z" transform="translate(-0.95 -2.39)"/><path class="cls-1" d="M507.72,25.7a.73.73,0,0,1,.72-.72.72.72,0,1,1,0,1.44A.73.73,0,0,1,507.72,25.7Zm.25,2.2h.94v8.69H508Z" transform="translate(-0.95 -2.39)"/><path class="cls-1" d="M511.38,35.82l5.15-7.09h-5.15V27.9h6.35v.75l-5.2,7.12h5.27v.82h-6.42Z" transform="translate(-0.95 -2.39)"/><path class="cls-1" d="M525.8,35.57a3.82,3.82,0,0,1-3,1.24,2.91,2.91,0,0,1-3-2.9,2.87,2.87,0,0,1,3-2.88,3.8,3.8,0,0,1,3,1.24V30.51a2.07,2.07,0,0,0-2.34-2,3.39,3.39,0,0,0-2.72,1.28l-.53-.65a4.23,4.23,0,0,1,3.35-1.46c1.77,0,3.17.85,3.17,2.79v6.12h-.93Zm0-2.6a3.29,3.29,0,0,0-2.63-1.2,2.16,2.16,0,1,0,0,4.3,3.25,3.25,0,0,0,2.63-1.19Z" transform="translate(-0.95 -2.39)"/><path class="cls-1" d="M533.37,27.68a3.59,3.59,0,0,1,3.08,1.48l-.65.57a2.75,2.75,0,0,0-2.37-1.2c-2,0-3.28,1.62-3.28,3.71S531.39,36,533.43,36a2.77,2.77,0,0,0,2.37-1.22l.65.58a3.54,3.54,0,0,1-3.08,1.49,4.27,4.27,0,0,1-4.23-4.57A4.26,4.26,0,0,1,533.37,27.68Z" transform="translate(-0.95 -2.39)"/><path class="cls-1" d="M538.29,25.7a.72.72,0,1,1,.72.72A.73.73,0,0,1,538.29,25.7Zm.25,2.2h.93v8.69h-.93Z" transform="translate(-0.95 -2.39)"/><path class="cls-1" d="M541.89,32.24c0-2.54,1.63-4.56,4.17-4.56s4.2,2,4.2,4.56-1.62,4.57-4.2,4.57S541.89,34.78,541.89,32.24Zm7.36,0c0-1.93-1.13-3.71-3.19-3.71s-3.17,1.78-3.17,3.71S544.05,36,546.06,36,549.25,34.18,549.25,32.24Z" transform="translate(-0.95 -2.39)"/><path class="cls-1" d="M558.54,30.71c0-1.68-.85-2.18-2.11-2.18A3.73,3.73,0,0,0,553.6,30v6.57h-.93V27.9h.93v1.31a4.45,4.45,0,0,1,3.14-1.53c1.76,0,2.73.86,2.73,2.83v6.08h-.93Z" transform="translate(-0.95 -2.39)"/><path class="cls-1" d="M567.92,35.57a3.82,3.82,0,0,1-3,1.24,2.91,2.91,0,0,1-3-2.9A2.87,2.87,0,0,1,565,31a3.8,3.8,0,0,1,3,1.24V30.51c0-1.3-1-2-2.35-2a3.37,3.37,0,0,0-2.71,1.28l-.53-.65a4.23,4.23,0,0,1,3.35-1.46c1.77,0,3.17.85,3.17,2.79v6.12h-.93Zm0-2.6a3.29,3.29,0,0,0-2.63-1.2,2.16,2.16,0,1,0,0,4.3,3.25,3.25,0,0,0,2.63-1.19Z" transform="translate(-0.95 -2.39)"/><path class="cls-1" d="M571.77,24.58h.93v12h-.93Z" transform="translate(-0.95 -2.39)"/><path class="cls-1" d="M1,245.92a6,6,0,0,1,6.05-6.21,5.45,5.45,0,0,1,4.42,2.13l-.87.56a4.38,4.38,0,0,0-3.55-1.75,5.29,5.29,0,0,0,0,10.55,4.38,4.38,0,0,0,3.55-1.75l.87.54a5.41,5.41,0,0,1-4.42,2.15A6,6,0,0,1,1,245.92Z" transform="translate(-0.95 -2.39)"/><path class="cls-1" d="M19.42,250.64a4.42,4.42,0,0,1-3.13,1.5c-1.78,0-2.74-.83-2.74-2.8v-6.12h.94v5.91c0,1.69.85,2.16,2.11,2.16a3.76,3.76,0,0,0,2.82-1.44v-6.63h.94v8.7h-.94Z" transform="translate(-0.95 -2.39)"/><path class="cls-1" d="M23.27,239.91h.94v12h-.94Z" transform="translate(-0.95 -2.39)"/><path class="cls-1" d="M27.31,250.25v-6.2H25.87v-.83h1.44v-2.37h1v2.37H30v.83H28.26v6c0,.7.29,1.19.9,1.19a1.39,1.39,0,0,0,1-.41l.36.72a2,2,0,0,1-1.47.54C27.86,252.14,27.31,251.43,27.31,250.25Z" transform="translate(-0.95 -2.39)"/><path class="cls-1" d="M31.82,241a.74.74,0,0,1,.72-.72.72.72,0,1,1,0,1.44A.74.74,0,0,1,31.82,241Zm.26,2.19H33v8.7h-.93Z" transform="translate(-0.95 -2.39)"/><path class="cls-1" d="M34.59,243.22h1l3.17,7.6,3.13-7.6H43l-3.67,8.7H38.27Z" transform="translate(-0.95 -2.39)"/><path class="cls-1" d="M44.08,247.56c0-2.54,1.64-4.55,4.18-4.55s4.19,2,4.19,4.55-1.62,4.58-4.19,4.58S44.08,250.1,44.08,247.56Zm7.37,0c0-1.92-1.14-3.71-3.19-3.71s-3.17,1.79-3.17,3.71,1.15,3.73,3.17,3.73S51.45,249.51,51.45,247.56Z" transform="translate(-0.95 -2.39)"/><path class="cls-1" d="M65.94,250.53a3.73,3.73,0,0,1-3,1.61c-2.3,0-3.89-1.77-3.89-4.56S60.61,243,62.91,243a3.71,3.71,0,0,1,3,1.62v-4.72h1v12h-1Zm0-5.09a3.48,3.48,0,0,0-2.87-1.59c-1.92,0-3,1.62-3,3.73s1.12,3.71,3,3.71a3.5,3.5,0,0,0,2.87-1.55Z" transform="translate(-0.95 -2.39)"/><path class="cls-1" d="M73.5,243c2.64,0,4.1,2.1,4.1,4.61v.25H70.33a3.39,3.39,0,0,0,3.4,3.46,3.81,3.81,0,0,0,2.84-1.21l.49.61a4.48,4.48,0,0,1-3.4,1.41A4.58,4.58,0,0,1,73.5,243Zm-3.17,4.12h6.32a3.19,3.19,0,0,0-3.17-3.31A3.26,3.26,0,0,0,70.33,247.13Z" transform="translate(-0.95 -2.39)"/><path class="cls-1" d="M84.67,243.22h.94v1.5A3.75,3.75,0,0,1,88.54,243v1a1.72,1.72,0,0,0-.46,0,3.31,3.31,0,0,0-2.47,1.55v6.34h-.94Z" transform="translate(-0.95 -2.39)"/><path class="cls-1" d="M94.07,243c2.65,0,4.1,2.1,4.1,4.61v.25H90.9a3.39,3.39,0,0,0,3.4,3.46,3.84,3.84,0,0,0,2.85-1.21l.48.61a4.48,4.48,0,0,1-3.4,1.41,4.58,4.58,0,0,1-.16-9.13Zm-3.17,4.12h6.32a3.19,3.19,0,0,0-3.17-3.31A3.27,3.27,0,0,0,90.9,247.13Z" transform="translate(-0.95 -2.39)"/><path class="cls-1" d="M100.58,239.91h.94v12h-.94Z" transform="translate(-0.95 -2.39)"/><path class="cls-1" d="M110,250.89a3.76,3.76,0,0,1-2.95,1.25,2.91,2.91,0,0,1-3-2.9,2.87,2.87,0,0,1,3-2.88A3.73,3.73,0,0,1,110,247.6v-1.77c0-1.29-1-2-2.34-2a3.39,3.39,0,0,0-2.72,1.27l-.52-.64a4.2,4.2,0,0,1,3.35-1.46c1.77,0,3.17.84,3.17,2.79v6.12H110Zm0-2.59a3.27,3.27,0,0,0-2.63-1.21,2.16,2.16,0,1,0,0,4.31,3.25,3.25,0,0,0,2.63-1.19Z" transform="translate(-0.95 -2.39)"/><path class="cls-1" d="M120,250.07l.65.57a3.52,3.52,0,0,1-2.79,1.5l-.31.81a1.08,1.08,0,0,1,.67-.22,1.11,1.11,0,0,1,1.19,1.13c0,.9-.81,1.46-1.82,1.46a2.91,2.91,0,0,1-1.75-.52l.29-.58a2.27,2.27,0,0,0,1.44.51c.63,0,1.17-.29,1.17-.87,0-.37-.23-.64-.74-.64a1,1,0,0,0-.72.3l-.5-.29.41-1.11a4.29,4.29,0,0,1-3.85-4.56,4.24,4.24,0,0,1,4.23-4.55,3.59,3.59,0,0,1,3.08,1.47l-.65.58a2.76,2.76,0,0,0-2.38-1.21c-2,0-3.27,1.62-3.27,3.71s1.24,3.73,3.27,3.73A2.77,2.77,0,0,0,120,250.07Z" transform="translate(-0.95 -2.39)"/><path class="cls-1" d="M122.2,247.56c0-2.54,1.64-4.55,4.18-4.55s4.19,2,4.19,4.55-1.62,4.58-4.19,4.58S122.2,250.1,122.2,247.56Zm7.37,0c0-1.92-1.14-3.71-3.19-3.71s-3.17,1.79-3.17,3.71,1.15,3.73,3.17,3.73S129.57,249.51,129.57,247.56Zm-4.34-7.47c-.54,0-1,.52-1,1.75h-.63c0-1.35.6-2.42,1.68-2.42.72,0,1,.54,1.35,1.05s.47.79.9.79,1-.52,1-1.73h.65c0,1.35-.57,2.42-1.65,2.42-.76,0-1.07-.55-1.37-1S125.66,240.09,125.23,240.09Z" transform="translate(-0.95 -2.39)"/><path class="cls-1" d="M136.67,243c2.65,0,4.11,2.1,4.11,4.61v.25h-7.27a3.39,3.39,0,0,0,3.4,3.46,3.81,3.81,0,0,0,2.84-1.21l.49.61a4.48,4.48,0,0,1-3.4,1.41,4.58,4.58,0,0,1-.17-9.13Zm-3.16,4.12h6.32a3.19,3.19,0,0,0-3.17-3.31A3.26,3.26,0,0,0,133.51,247.13Z" transform="translate(-0.95 -2.39)"/><path class="cls-1" d="M143,250.07a3.64,3.64,0,0,0,2.81,1.27c1.46,0,2.32-.72,2.32-1.72s-1.19-1.45-2.43-1.77c-1.46-.36-3.06-.74-3.06-2.43,0-1.33,1.14-2.41,3.1-2.41a4,4,0,0,1,3.11,1.28l-.52.66a3.17,3.17,0,0,0-2.59-1.15c-1.35,0-2.18.67-2.18,1.57s1.12,1.26,2.32,1.56c1.5.38,3.17.79,3.17,2.65,0,1.4-1.08,2.56-3.26,2.56a4.24,4.24,0,0,1-3.35-1.37Z" transform="translate(-0.95 -2.39)"/><path class="cls-1" d="M7.87,272.13a3.71,3.71,0,0,1-3,1.61C2.54,273.74,1,272,1,269.18s1.59-4.57,3.89-4.57a3.69,3.69,0,0,1,3,1.62v-4.72h1v12h-1Zm0-5.09A3.48,3.48,0,0,0,5,265.45c-1.93,0-3,1.62-3,3.73s1.12,3.71,3.05,3.71a3.49,3.49,0,0,0,2.86-1.55Z" transform="translate(-0.95 -2.39)"/><path class="cls-1" d="M15.43,264.61c2.64,0,4.1,2.1,4.1,4.61v.25H12.26a3.39,3.39,0,0,0,3.4,3.46,3.84,3.84,0,0,0,2.85-1.21l.48.61a4.48,4.48,0,0,1-3.4,1.41,4.58,4.58,0,0,1-.16-9.13Zm-3.17,4.12h6.32a3.19,3.19,0,0,0-3.17-3.31A3.27,3.27,0,0,0,12.26,268.73Z" transform="translate(-0.95 -2.39)"/><path class="cls-1" d="M26.6,261.51h.94v12H26.6Z" transform="translate(-0.95 -2.39)"/><path class="cls-1" d="M30,269.16c0-2.54,1.64-4.55,4.18-4.55s4.2,2,4.2,4.55-1.63,4.58-4.2,4.58S30,271.7,30,269.16Zm7.37,0c0-1.92-1.14-3.71-3.19-3.71S31,267.24,31,269.16s1.15,3.73,3.17,3.73S37.32,271.11,37.32,269.16Z" transform="translate(-0.95 -2.39)"/><path class="cls-1" d="M46.6,267.63c0-1.67-.84-2.18-2.1-2.18a3.74,3.74,0,0,0-2.83,1.5v6.57h-.94v-8.7h.94v1.32a4.39,4.39,0,0,1,3.13-1.53c1.77,0,2.74.86,2.74,2.82v6.09H46.6Z" transform="translate(-0.95 -2.39)"/><path class="cls-1" d="M51,275a3.35,3.35,0,0,0,2.88,1.23,2.65,2.65,0,0,0,3-2.79v-1.37a3.75,3.75,0,0,1-3,1.62c-2.3,0-3.89-1.75-3.89-4.54s1.59-4.55,3.89-4.55a3.68,3.68,0,0,1,3,1.62v-1.41h1v8.61c0,2.66-1.8,3.62-3.93,3.62a4.17,4.17,0,0,1-3.42-1.32Zm5.85-8A3.48,3.48,0,0,0,54,265.45c-1.92,0-3,1.61-3,3.71s1.12,3.69,3,3.69a3.47,3.47,0,0,0,2.86-1.58Z" transform="translate(-0.95 -2.39)"/><path class="cls-1" d="M60.21,269.16c0-2.54,1.64-4.55,4.18-4.55s4.19,2,4.19,4.55-1.62,4.58-4.19,4.58S60.21,271.7,60.21,269.16Zm7.36,0c0-1.92-1.13-3.71-3.18-3.71s-3.17,1.79-3.17,3.71,1.15,3.73,3.17,3.73S67.57,271.11,67.57,269.16Z" transform="translate(-0.95 -2.39)"/><path class="cls-1" d="M75.65,276.83v-12h.94v1.37a3.74,3.74,0,0,1,3-1.58c2.32,0,3.88,1.76,3.88,4.55s-1.56,4.58-3.88,4.58a3.71,3.71,0,0,1-3-1.62v4.71Zm3.8-11.38A3.51,3.51,0,0,0,76.59,267v4.3a3.54,3.54,0,0,0,2.86,1.59c2,0,3-1.62,3-3.73S81.4,265.45,79.45,265.45Z" transform="translate(-0.95 -2.39)"/><path class="cls-1" d="M85.91,264.82h.94v1.5a3.73,3.73,0,0,1,2.94-1.68v1a1.83,1.83,0,0,0-.47,0,3.35,3.35,0,0,0-2.47,1.55v6.34h-.94Z" transform="translate(-0.95 -2.39)"/><path class="cls-1" d="M97.15,272.49a3.79,3.79,0,0,1-3,1.25,2.92,2.92,0,0,1-3-2.9,2.88,2.88,0,0,1,3-2.88,3.76,3.76,0,0,1,3,1.24v-1.77a2.07,2.07,0,0,0-2.34-2,3.38,3.38,0,0,0-2.72,1.27l-.52-.64a4.19,4.19,0,0,1,3.35-1.46c1.76,0,3.16.84,3.16,2.79v6.12h-.93Zm0-2.59a3.28,3.28,0,0,0-2.63-1.21,2.17,2.17,0,1,0,0,4.31,3.26,3.26,0,0,0,2.63-1.19Z" transform="translate(-0.95 -2.39)"/><path class="cls-1" d="M100.55,272.75l5.15-7.1h-5.15v-.83h6.35v.76l-5.2,7.11H107v.83h-6.43Z" transform="translate(-0.95 -2.39)"/><path class="cls-1" d="M108.94,269.16c0-2.54,1.64-4.55,4.17-4.55s4.2,2,4.2,4.55-1.62,4.58-4.2,4.58S108.94,271.7,108.94,269.16Zm7.36,0c0-1.92-1.13-3.71-3.19-3.71s-3.16,1.79-3.16,3.71,1.15,3.73,3.16,3.73S116.3,271.11,116.3,269.16Z" transform="translate(-0.95 -2.39)"/><circle class="cls-2" cx="301.21" cy="18.64" r="7"/><circle class="cls-2" cx="569.35" cy="188.93" r="7"/><circle class="cls-2" cx="242.06" cy="461.44" r="7"/><circle class="cls-2" cx="177.76" cy="276.6" r="7"/><circle class="cls-2" cx="487.78" cy="461.45" r="7"/><g class="cls-3"><path class="cls-4" d="M519.19,304.85c-1,0-1.93,0-2.9-.07l-.94,0-2-.14-1-.1c-.82-.08-1.63-.18-2.44-.29l-1.68-.27-.87-.15a65.37,65.37,0,0,1-11.64-3.23l-42.23,73.27L453,375.2v67.58c7.88,0,20.17.93,27.92-11.48l81.18-142.11s0-.12-.07-.06a65.71,65.71,0,0,1-24.46,13.14A66.55,66.55,0,0,1,519.19,304.85Z" transform="translate(-0.95 -2.39)"/><path class="cls-4" d="M472.38,191.83A66,66,0,0,1,496,176.6c.06,0,0-.17,0-.17L438.1,146.25c9.66,68.88-20.32,128.56-42.3,172.3-1,2.08-18.22,36-20.25,47.13-3.43,18.87.19,77.1.19,77.1h44.14V366.92l.8-4.14,47.83-81.55a66.2,66.2,0,0,1,3.87-89.4Z" transform="translate(-0.95 -2.39)"/><path class="cls-4" d="M561.57,226.33c-.21-.72-.43-1.43-.68-2.14s-.5-1.41-.79-2.11a43.29,43.29,0,0,0-5.3-9.52c-.43-.6-.89-1.19-1.36-1.77-.94-1.16-2-2.28-3-3.36-.72-.72-1.47-1.41-2.23-2.07a42.66,42.66,0,0,0-4.78-3.63c-.83-.54-1.68-1.06-2.54-1.55h0a43.85,43.85,0,0,0-21.67-5.67c-1.38,0-2.76.06-4.13.19a44,44,0,0,0-8.57,1.67h0A43.84,43.84,0,0,0,488,207.43a44.85,44.85,0,0,0-6.69,8.56,43.56,43.56,0,0,0-4.34,9.8A41.87,41.87,0,0,0,475.9,230a44.56,44.56,0,0,0-.84,8.67h0A43.86,43.86,0,0,0,488,269.85a46.39,46.39,0,0,0,3.79,3.39,44.29,44.29,0,0,0,10,6,43.29,43.29,0,0,0,7.9,2.53c.54.12,1.09.23,1.63.33l.58.1,1.13.18c.54.07,1.08.14,1.62.19l.7.07,1.32.09.63,0c.64,0,1.29,0,1.93,0a44.26,44.26,0,0,0,12.25-1.72,42.86,42.86,0,0,0,5.2-1.86A44.14,44.14,0,0,0,563,243.57a44.7,44.7,0,0,0-1.47-17.24Z" transform="translate(-0.95 -2.39)"/><circle class="cls-4" cx="236.6" cy="298.22" r="34.38"/><path class="cls-4" d="M237.56,350.39a49.65,49.65,0,0,1-36-15.41s0,0,0,0l49.92,96.77a22.6,22.6,0,0,0,19.42,11h5.53l0-81.38-1.32-2.75L261.39,344.3h0A49.49,49.49,0,0,1,237.56,350.39Z" transform="translate(-0.95 -2.39)"/><path class="cls-4" d="M332.94,305.36c-7.45-26.05-29.49-49.22-46.84-68.94l-1.05-1.19c-9.88-11.24-18.14-22.24-23.4-29.59l-47.27,50.72s-.06.23.1.15A49.77,49.77,0,0,1,281.06,325l21.64,22.65,1.32,2.76v92.41h33.1S345.4,349,332.94,305.36Z" transform="translate(-0.95 -2.39)"/><path class="cls-5" d="M356.76,169.2c-4.33-32.23-12.08-55-17-66.92-3.6-8.83-9.9-17.77-13.4-22.41q-2.31-3,.13-.11c3.71,4.45,10.48,13,15,21.39,6.17,11.32,14.18,30.43,22.07,62C378,220.43,373,293,367.66,336.93c25.34-58.09,63.69-113.86,52.25-191.39-8.25-53.1-90.43-89.75-112.16-99.83-33.62,34.11-63.59,96.17-37.33,140.64,25.37,37.92,70.29,68.91,84.39,132.74C359.6,277.24,363.48,219.17,356.76,169.2Z" transform="translate(-0.95 -2.39)"/></g></g></g></svg>