<svg xmlns="http://www.w3.org/2000/svg" viewBox="0 0 1161.36 398.19"><defs><style>.cls-1,.cls-2,.cls-3{fill:none;stroke-miterlimit:10;}.cls-1,.cls-2{stroke:#fff;}.cls-2,.cls-3{stroke-width:2px;}.cls-3{stroke:#75b848;}.cls-4{fill:#fff;}</style></defs><g id="Camada_2" data-name="Camada 2"><g id="Background"><line class="cls-1" x1="232.75" y1="10.59" x2="499.28" y2="10.59"/><line class="cls-1" x1="499.28" y1="372.57" x2="374.88" y2="372.57"/><line class="cls-1" x1="377.94" y1="101.09" x2="499.28" y2="101.09"/><line class="cls-1" x1="463.5" y1="191.58" x2="499.28" y2="191.58"/><line class="cls-1" x1="437.57" y1="282.07" x2="499.28" y2="282.07"/><path class="cls-2" d="M298.21,256.08c-.91,0-1.81,0-2.71-.06l-.89,0c-.62,0-1.23-.08-1.85-.14l-1-.08c-.76-.08-1.52-.17-2.28-.28l-1.58-.25-.81-.14a61.4,61.4,0,0,1-10.89-3L236.7,320.62l-.44,1.29v63.24c7.38,0,18.87.87,26.13-10.74l76-133s0-.11-.06-.06a61.77,61.77,0,0,1-40.08,14.71Z" transform="translate(0 -3.23)"/><path class="cls-2" d="M254.4,150.32a61.73,61.73,0,0,1,22.12-14.25c.06,0,0-.16,0-.16l-54.19-28.24c9,64.45-19,120.3-39.59,161.23-1,2-17,33.65-18.94,44.11-3.22,17.65.18,72.14.18,72.14h41.3v-71l.75-3.87L250.79,234a61.94,61.94,0,0,1,3.61-83.66Z" transform="translate(0 -3.23)"/><path class="cls-2" d="M337.86,182.6c-.19-.67-.4-1.34-.63-2s-.47-1.32-.74-2a40.65,40.65,0,0,0-5-8.9c-.41-.56-.83-1.11-1.27-1.66-.89-1.08-1.83-2.13-2.84-3.14-.67-.67-1.37-1.32-2.08-1.94a41.38,41.38,0,0,0-4.47-3.39c-.78-.51-1.58-1-2.38-1.45h0a41.09,41.09,0,0,0-20.28-5.32c-1.3,0-2.59.07-3.87.19a41.55,41.55,0,0,0-8,1.55h0A41.1,41.1,0,0,0,269,164.92a41.69,41.69,0,0,0-6.27,8,41.07,41.07,0,0,0-4.06,9.17c-.39,1.28-.71,2.58-1,3.91a42,42,0,0,0-.79,8.12h0a41,41,0,0,0,12.1,29.2,42.21,42.21,0,0,0,3.54,3.17,40.75,40.75,0,0,0,9.34,5.58,41.36,41.36,0,0,0,7.39,2.38l1.53.3.54.1,1,.16,1.52.19.66.06,1.23.09.59,0c.6,0,1.21,0,1.81,0a41.23,41.23,0,0,0,16.33-3.35,41.21,41.21,0,0,0,24.94-38.76A41.6,41.6,0,0,0,337.86,182.6Z" transform="translate(0 -3.23)"/><circle class="cls-2" cx="34.67" cy="248.88" r="32.17"/><path class="cls-2" d="M34.67,298.69A46.46,46.46,0,0,1,1,284.28s0,0,0,0l46.72,90.56a21.12,21.12,0,0,0,18.16,10.29h5.18V309l-1.24-2.58L57,293h0A46.22,46.22,0,0,1,34.67,298.69Z" transform="translate(0 -3.23)"/><path class="cls-2" d="M123.92,256.56c-7-24.38-27.6-46.06-43.83-64.51l-1-1.12c-9.25-10.51-17-20.81-21.89-27.69L13,210.7s-.06.22.09.14a46.71,46.71,0,0,1,68.3,41.27,46.16,46.16,0,0,1-6,22.79l20.25,21.19,1.23,2.59v86.47h31S135.58,297.39,123.92,256.56Z" transform="translate(0 -3.23)"/><path class="cls-3" d="M146.22,129.15C142.16,99,134.9,77.69,130.35,66.52c-3.38-8.26-9.27-16.63-12.55-21-1.44-1.9-1.4-1.94.13-.1a136.76,136.76,0,0,1,14.07,20c5.77,10.6,13.27,28.48,20.65,58,13.41,53.62,8.71,121.56,3.77,162.64C180.12,231.74,216,179.55,205.3,107c-7.71-49.69-84.62-84-105-93.42-31.46,31.93-59.51,90-34.93,131.62,23.74,35.47,65.78,64.48,79,124.21C148.87,230.24,152.5,175.9,146.22,129.15Z" transform="translate(0 -3.23)"/></g><g id="Conteúdo"><path class="cls-4" d="M576.66,180.45h6.08a4.75,4.75,0,1,1,0,9.49h-4.69v6.74h-1.39Zm5.93,1.27h-4.54v6.95h4.54a3.48,3.48,0,1,0,0-6.95Z" transform="translate(0 -3.23)"/><path class="cls-4" d="M597.48,195.29a5.14,5.14,0,0,1-4,1.68,3.94,3.94,0,0,1-4.11-3.92,3.88,3.88,0,0,1,4.11-3.89,5.09,5.09,0,0,1,4,1.68v-2.38c0-1.76-1.41-2.7-3.17-2.7a4.57,4.57,0,0,0-3.67,1.72l-.7-.87a5.66,5.66,0,0,1,4.52-2c2.38,0,4.28,1.14,4.28,3.77v8.27h-1.26Zm0-3.5a4.42,4.42,0,0,0-3.55-1.63,2.92,2.92,0,1,0,0,5.81,4.39,4.39,0,0,0,3.55-1.6Z" transform="translate(0 -3.23)"/><path class="cls-4" d="M602.34,182a1,1,0,0,1,1-1,1,1,0,1,1-1,1Zm.34,3h1.26v11.75h-1.26Z" transform="translate(0 -3.23)"/><path class="cls-4" d="M611.75,191.5l-3.92,5.18h-1.51l4.65-6-4.38-5.71h1.51l3.65,4.84,3.62-4.84h1.51l-4.38,5.71,4.65,6h-1.51Z" transform="translate(0 -3.23)"/><path class="cls-4" d="M627,195.29a5.14,5.14,0,0,1-4,1.68,3.94,3.94,0,0,1-4.11-3.92,3.88,3.88,0,0,1,4.11-3.89,5.11,5.11,0,0,1,4,1.68v-2.38c0-1.76-1.42-2.7-3.17-2.7a4.57,4.57,0,0,0-3.67,1.72l-.7-.87a5.66,5.66,0,0,1,4.52-2c2.38,0,4.28,1.14,4.28,3.77v8.27H627Zm0-3.5a4.43,4.43,0,0,0-3.56-1.63,2.92,2.92,0,1,0,0,5.81,4.41,4.41,0,0,0,3.56-1.6Zm-4.55-11.09c-.73,0-1.32.7-1.32,2.36h-.85c0-1.83.8-3.26,2.26-3.26,1,0,1.41.73,1.83,1.41s.63,1.07,1.21,1.07,1.29-.71,1.29-2.34h.88c0,1.83-.78,3.26-2.24,3.26-1,0-1.43-.73-1.85-1.41S623,180.7,622.45,180.7Z" transform="translate(0 -3.23)"/><path class="cls-4" d="M631.51,190.79c0-3.43,2.22-6.15,5.65-6.15s5.66,2.72,5.66,6.15-2.18,6.18-5.66,6.18S631.51,194.22,631.51,190.79Zm10,0c0-2.6-1.53-5-4.3-5s-4.28,2.41-4.28,5,1.55,5,4.28,5S641.46,193.42,641.46,190.79Z" transform="translate(0 -3.23)"/><path class="cls-4" d="M652.38,201.15V184.93h1.26v1.85a5.07,5.07,0,0,1,4.09-2.14c3.14,0,5.25,2.38,5.25,6.15s-2.11,6.18-5.25,6.18a5,5,0,0,1-4.09-2.19v6.37Zm5.13-15.37a4.75,4.75,0,0,0-3.87,2.09v5.81a4.79,4.79,0,0,0,3.87,2.14c2.63,0,4.11-2.18,4.11-5S660.14,185.78,657.51,185.78Z" transform="translate(0 -3.23)"/><path class="cls-4" d="M671.22,184.64c3.58,0,5.55,2.84,5.55,6.22v.34h-9.83a4.58,4.58,0,0,0,4.6,4.67,5.15,5.15,0,0,0,3.84-1.63l.66.83a6.05,6.05,0,0,1-4.6,1.9c-3.43,0-5.88-2.56-5.88-6.18C665.56,187.39,668,184.64,671.22,184.64Zm-4.28,5.57h8.54a4.31,4.31,0,0,0-4.28-4.48A4.43,4.43,0,0,0,666.94,190.21Z" transform="translate(0 -3.23)"/><path class="cls-4" d="M680,180.45h1.27v16.23H680Z" transform="translate(0 -3.23)"/><path class="cls-4" d="M684.55,190.79c0-3.43,2.21-6.15,5.64-6.15s5.67,2.72,5.67,6.15-2.19,6.18-5.67,6.18S684.55,194.22,684.55,190.79Zm10,0c0-2.6-1.54-5-4.31-5s-4.28,2.41-4.28,5,1.56,5,4.28,5S694.5,193.42,694.5,190.79Z" transform="translate(0 -3.23)"/><path class="cls-4" d="M705.65,194.41v-8.36h-1.94v-1.12h1.94v-3.21h1.29v3.21h2.39v1.12h-2.39v8.17c0,.95.39,1.6,1.22,1.6a1.83,1.83,0,0,0,1.31-.55l.49,1a2.63,2.63,0,0,1-2,.73C706.41,197,705.65,196,705.65,194.41Z" transform="translate(0 -3.23)"/><path class="cls-4" d="M712.1,184.93h1.26v2a5.05,5.05,0,0,1,4-2.27v1.39a2.64,2.64,0,0,0-.64,0,4.49,4.49,0,0,0-3.33,2.09v8.57H712.1Z" transform="translate(0 -3.23)"/><path class="cls-4" d="M727.27,195.29a5.12,5.12,0,0,1-4,1.68,3.94,3.94,0,0,1-4.11-3.92,3.89,3.89,0,0,1,4.11-3.89,5.09,5.09,0,0,1,4,1.68v-2.38c0-1.76-1.41-2.7-3.16-2.7a4.57,4.57,0,0,0-3.67,1.72l-.71-.87a5.7,5.7,0,0,1,4.53-2c2.38,0,4.28,1.14,4.28,3.77v8.27h-1.27Zm0-3.5a4.4,4.4,0,0,0-3.55-1.63,2.92,2.92,0,1,0,0,5.81,4.38,4.38,0,0,0,3.55-1.6Z" transform="translate(0 -3.23)"/><path class="cls-4" d="M732.47,180.45h1.27v6.38a5,5,0,0,1,4.08-2.19c3.14,0,5.26,2.45,5.26,6.17s-2.14,6.16-5.26,6.16a5,5,0,0,1-4.08-2.17v1.88h-1.27Zm5.14,15.37c2.62,0,4.11-2.16,4.11-5s-1.49-5-4.11-5a4.79,4.79,0,0,0-3.87,2.14v5.81A4.75,4.75,0,0,0,737.61,195.82Z" transform="translate(0 -3.23)"/><path class="cls-4" d="M753.82,195.29a5.1,5.1,0,0,1-4,1.68,3.94,3.94,0,0,1-4.11-3.92,3.88,3.88,0,0,1,4.11-3.89,5.07,5.07,0,0,1,4,1.68v-2.38c0-1.76-1.41-2.7-3.16-2.7a4.57,4.57,0,0,0-3.67,1.72l-.71-.87a5.7,5.7,0,0,1,4.53-2c2.38,0,4.28,1.14,4.28,3.77v8.27h-1.27Zm0-3.5a4.4,4.4,0,0,0-3.55-1.63,2.92,2.92,0,1,0,0,5.81,4.38,4.38,0,0,0,3.55-1.6Z" transform="translate(0 -3.23)"/><path class="cls-4" d="M759,180.45h1.26v16.23H759Z" transform="translate(0 -3.23)"/><path class="cls-4" d="M772.16,188.67c0-2.26-1.15-2.89-2.85-2.89a5,5,0,0,0-3.82,2v8.88h-1.26V180.45h1.26v6.25a6,6,0,0,1,4.24-2.06c2.38,0,3.69,1.12,3.69,3.77v8.27h-1.26Z" transform="translate(0 -3.23)"/><path class="cls-4" d="M776.68,190.79c0-3.43,2.21-6.15,5.64-6.15s5.67,2.72,5.67,6.15S785.8,197,782.32,197,776.68,194.22,776.68,190.79Zm10,0c0-2.6-1.54-5-4.31-5s-4.28,2.41-4.28,5,1.56,5,4.28,5S786.63,193.42,786.63,190.79Z" transform="translate(0 -3.23)"/><path class="cls-4" d="M802.53,184.64c3.57,0,5.54,2.84,5.54,6.22v.34h-9.82a4.57,4.57,0,0,0,4.59,4.67,5.17,5.17,0,0,0,3.85-1.63l.65.83a6,6,0,0,1-4.59,1.9c-3.43,0-5.89-2.56-5.89-6.18A5.84,5.84,0,0,1,802.53,184.64Zm-4.28,5.57h8.53a4.3,4.3,0,0,0-4.28-4.48A4.41,4.41,0,0,0,798.25,190.21Z" transform="translate(0 -3.23)"/><path class="cls-4" d="M817.67,180.45h1.39v16.23h-1.39Z" transform="translate(0 -3.23)"/><path class="cls-4" d="M831,188.72c0-2.26-1.15-2.94-2.85-2.94a5,5,0,0,0-3.82,2v8.88h-1.26V184.93h1.26v1.77a6,6,0,0,1,4.23-2.06c2.39,0,3.7,1.16,3.7,3.82v8.22H831Z" transform="translate(0 -3.23)"/><path class="cls-4" d="M836.42,194.41v-8.36h-1.94v-1.12h1.94v-3.21h1.29v3.21h2.38v1.12h-2.38v8.17c0,.95.39,1.6,1.22,1.6a1.83,1.83,0,0,0,1.31-.55l.49,1a2.66,2.66,0,0,1-2,.73C837.18,197,836.42,196,836.42,194.41Z" transform="translate(0 -3.23)"/><path class="cls-4" d="M847.85,184.64c3.58,0,5.55,2.84,5.55,6.22v.34h-9.83a4.57,4.57,0,0,0,4.6,4.67,5.17,5.17,0,0,0,3.84-1.63l.66.83a6.05,6.05,0,0,1-4.6,1.9c-3.43,0-5.89-2.56-5.89-6.18A5.84,5.84,0,0,1,847.85,184.64Zm-4.28,5.57h8.54a4.31,4.31,0,0,0-4.28-4.48A4.42,4.42,0,0,0,843.57,190.21Z" transform="translate(0 -3.23)"/><path class="cls-4" d="M857.41,198.69a4.49,4.49,0,0,0,3.89,1.66c2.14,0,4-1.07,4-3.77v-1.85a5.09,5.09,0,0,1-4.09,2.19c-3.11,0-5.25-2.36-5.25-6.13s2.14-6.15,5.25-6.15a5,5,0,0,1,4.09,2.19v-1.9h1.29v11.62c0,3.6-2.43,4.89-5.3,4.89a5.63,5.63,0,0,1-4.62-1.77Zm7.9-10.77a4.74,4.74,0,0,0-3.87-2.14c-2.6,0-4.11,2.16-4.11,5s1.51,5,4.11,5a4.74,4.74,0,0,0,3.87-2.14Z" transform="translate(0 -3.23)"/><path class="cls-4" d="M870.51,184.93h1.27v2a5,5,0,0,1,4-2.27v1.39a2.6,2.6,0,0,0-.63,0,4.47,4.47,0,0,0-3.33,2.09v8.57h-1.27Z" transform="translate(0 -3.23)"/><path class="cls-4" d="M877.88,182a1,1,0,0,1,1-1,1,1,0,1,1,0,1.94A1,1,0,0,1,877.88,182Zm.34,3h1.26v11.75h-1.26Z" transform="translate(0 -3.23)"/><path class="cls-4" d="M892.08,194.8A5,5,0,0,1,888,197c-3.11,0-5.25-2.39-5.25-6.16s2.14-6.17,5.25-6.17a5,5,0,0,1,4.09,2.19v-6.38h1.29v16.23h-1.29Zm0-6.88a4.69,4.69,0,0,0-3.87-2.14c-2.6,0-4.11,2.19-4.11,5s1.51,5,4.11,5a4.7,4.7,0,0,0,3.87-2.09Z" transform="translate(0 -3.23)"/><path class="cls-4" d="M904.77,195.29a5.12,5.12,0,0,1-4,1.68,3.94,3.94,0,0,1-4.11-3.92,3.89,3.89,0,0,1,4.11-3.89,5.09,5.09,0,0,1,4,1.68v-2.38c0-1.76-1.41-2.7-3.16-2.7a4.57,4.57,0,0,0-3.67,1.72l-.71-.87a5.7,5.7,0,0,1,4.53-2c2.38,0,4.28,1.14,4.28,3.77v8.27h-1.27Zm0-3.5a4.4,4.4,0,0,0-3.55-1.63,2.92,2.92,0,1,0,0,5.81,4.38,4.38,0,0,0,3.55-1.6Z" transform="translate(0 -3.23)"/><path class="cls-4" d="M918.63,194.8a5,5,0,0,1-4.08,2.17c-3.12,0-5.26-2.39-5.26-6.16s2.14-6.17,5.26-6.17a5,5,0,0,1,4.08,2.19v-6.38h1.29v16.23h-1.29Zm0-6.88a4.69,4.69,0,0,0-3.86-2.14c-2.61,0-4.11,2.19-4.11,5s1.5,5,4.11,5a4.7,4.7,0,0,0,3.86-2.09Z" transform="translate(0 -3.23)"/><path class="cls-4" d="M928.85,184.64c3.57,0,5.54,2.84,5.54,6.22v.34h-9.82a4.57,4.57,0,0,0,4.59,4.67,5.14,5.14,0,0,0,3.84-1.63l.66.83a6.05,6.05,0,0,1-4.6,1.9c-3.42,0-5.88-2.56-5.88-6.18A5.84,5.84,0,0,1,928.85,184.64Zm-4.28,5.57h8.53a4.31,4.31,0,0,0-4.28-4.48A4.41,4.41,0,0,0,924.57,190.21Z" transform="translate(0 -3.23)"/><path class="cls-4" d="M576.66,92.24H587v1.27h-8.9v6h8.73v1.27h-8.73v7.68h-1.39Z" transform="translate(0 -3.23)"/><path class="cls-4" d="M589.11,102.58c0-3.43,2.21-6.16,5.64-6.16s5.67,2.73,5.67,6.16-2.19,6.18-5.67,6.18S589.11,106,589.11,102.58Zm9.95,0c0-2.6-1.53-5-4.31-5s-4.28,2.41-4.28,5,1.56,5,4.28,5S599.06,105.21,599.06,102.58Z" transform="translate(0 -3.23)"/><path class="cls-4" d="M608.71,96.42a4.86,4.86,0,0,1,4.16,2l-.88.78a3.71,3.71,0,0,0-3.21-1.63c-2.75,0-4.42,2.19-4.42,5s1.67,5,4.42,5A3.73,3.73,0,0,0,612,106l.88.78a4.83,4.83,0,0,1-4.16,2c-3.45,0-5.72-2.75-5.72-6.18S605.26,96.42,608.71,96.42Z" transform="translate(0 -3.23)"/><path class="cls-4" d="M615,102.58c0-3.43,2.21-6.16,5.64-6.16s5.67,2.73,5.67,6.16-2.19,6.18-5.67,6.18S615,106,615,102.58Zm9.94,0c0-2.6-1.53-5-4.3-5s-4.28,2.41-4.28,5,1.55,5,4.28,5S625,105.21,625,102.58Z" transform="translate(0 -3.23)"/><path class="cls-4" d="M643.8,100.51c0-2.26-1.14-2.94-2.85-2.94a5.06,5.06,0,0,0-3.82,2v8.87h-1.26V96.72h1.26v1.77a6,6,0,0,1,4.24-2.07c2.38,0,3.69,1.17,3.69,3.82v8.22H643.8Z" transform="translate(0 -3.23)"/><path class="cls-4" d="M656.47,107.08a5.14,5.14,0,0,1-4,1.68,3.94,3.94,0,0,1-4.11-3.92,3.88,3.88,0,0,1,4.11-3.89,5.06,5.06,0,0,1,4,1.68v-2.39c0-1.75-1.41-2.7-3.17-2.7a4.56,4.56,0,0,0-3.67,1.73l-.7-.88a5.69,5.69,0,0,1,4.52-2c2.38,0,4.28,1.15,4.28,3.77v8.27h-1.26Zm0-3.5a4.42,4.42,0,0,0-3.56-1.63,2.92,2.92,0,1,0,0,5.81,4.4,4.4,0,0,0,3.56-1.61Z" transform="translate(0 -3.23)"/><path class="cls-4" d="M673,96.42c3.58,0,5.55,2.85,5.55,6.23V103h-9.83a4.57,4.57,0,0,0,4.6,4.67,5.17,5.17,0,0,0,3.84-1.63l.66.83a6.09,6.09,0,0,1-4.6,1.9c-3.43,0-5.89-2.56-5.89-6.18C667.28,99.17,669.69,96.42,673,96.42ZM668.67,102h8.54a4.31,4.31,0,0,0-4.28-4.47A4.42,4.42,0,0,0,668.67,102Z" transform="translate(0 -3.23)"/><path class="cls-4" d="M685,103.28l-3.92,5.18h-1.51l4.65-6-4.38-5.71h1.51l3.65,4.84,3.62-4.84h1.51l-4.38,5.71,4.65,6h-1.51Z" transform="translate(0 -3.23)"/><path class="cls-4" d="M696.93,96.42a4.86,4.86,0,0,1,4.16,2l-.88.78A3.71,3.71,0,0,0,697,97.57c-2.75,0-4.43,2.19-4.43,5s1.68,5,4.43,5a3.73,3.73,0,0,0,3.21-1.65l.88.78a4.83,4.83,0,0,1-4.16,2c-3.46,0-5.72-2.75-5.72-6.18S693.47,96.42,696.93,96.42Z" transform="translate(0 -3.23)"/><path class="cls-4" d="M708.89,96.42c3.58,0,5.55,2.85,5.55,6.23V103h-9.83a4.57,4.57,0,0,0,4.6,4.67,5.17,5.17,0,0,0,3.84-1.63l.66.83a6.09,6.09,0,0,1-4.6,1.9c-3.43,0-5.89-2.56-5.89-6.18C703.22,99.17,705.63,96.42,708.89,96.42ZM704.61,102h8.54a4.31,4.31,0,0,0-4.28-4.47A4.42,4.42,0,0,0,704.61,102Z" transform="translate(0 -3.23)"/><path class="cls-4" d="M717.69,92.24H719v16.22h-1.27Z" transform="translate(0 -3.23)"/><path class="cls-4" d="M727.88,96.42c3.58,0,5.55,2.85,5.55,6.23V103H723.6a4.57,4.57,0,0,0,4.6,4.67A5.17,5.17,0,0,0,732,106l.66.83a6.09,6.09,0,0,1-4.6,1.9c-3.43,0-5.89-2.56-5.89-6.18C722.21,99.17,724.62,96.42,727.88,96.42ZM723.6,102h8.54a4.31,4.31,0,0,0-4.28-4.47A4.42,4.42,0,0,0,723.6,102Zm4.26-9.8-2.07,2.75h-.95l2.36-3.5h1.31l2.41,3.5h-1Z" transform="translate(0 -3.23)"/><path class="cls-4" d="M744.61,100.51c0-2.26-1.14-2.94-2.84-2.94a5,5,0,0,0-3.82,2v8.87h-1.27V96.72H738v1.77a6,6,0,0,1,4.23-2.07c2.38,0,3.7,1.17,3.7,3.82v8.22h-1.27Z" transform="translate(0 -3.23)"/><path class="cls-4" d="M754.85,96.42a4.86,4.86,0,0,1,4.16,2l-.88.78a3.71,3.71,0,0,0-3.21-1.63c-2.75,0-4.43,2.19-4.43,5s1.68,5,4.43,5a3.73,3.73,0,0,0,3.21-1.65l.88.78a4.83,4.83,0,0,1-4.16,2c-3.46,0-5.72-2.75-5.72-6.18S751.39,96.42,754.85,96.42Z" transform="translate(0 -3.23)"/><path class="cls-4" d="M761.48,93.75a1,1,0,0,1,1-1,1,1,0,1,1,0,1.94A1,1,0,0,1,761.48,93.75Zm.34,3h1.27v11.74h-1.27Z" transform="translate(0 -3.23)"/><path class="cls-4" d="M774.49,107.08a5.12,5.12,0,0,1-4,1.68,3.94,3.94,0,0,1-4.11-3.92A3.89,3.89,0,0,1,770.5,101a5.06,5.06,0,0,1,4,1.68v-2.39c0-1.75-1.41-2.7-3.16-2.7a4.56,4.56,0,0,0-3.67,1.73l-.71-.88a5.73,5.73,0,0,1,4.53-2c2.38,0,4.28,1.15,4.28,3.77v8.27h-1.27Zm0-3.5a4.4,4.4,0,0,0-3.55-1.63,2.92,2.92,0,1,0,0,5.81,4.38,4.38,0,0,0,3.55-1.61Z" transform="translate(0 -3.23)"/><path class="cls-4" d="M791,96.42c3.57,0,5.54,2.85,5.54,6.23V103H786.7a4.57,4.57,0,0,0,4.59,4.67,5.17,5.17,0,0,0,3.85-1.63l.65.83a6.07,6.07,0,0,1-4.59,1.9c-3.43,0-5.89-2.56-5.89-6.18C785.31,99.17,787.72,96.42,791,96.42ZM786.7,102h8.54A4.31,4.31,0,0,0,791,97.52,4.41,4.41,0,0,0,786.7,102Z" transform="translate(0 -3.23)"/><path class="cls-4" d="M814.74,112.94v-6.37a5,5,0,0,1-4.09,2.19c-3.14,0-5.25-2.44-5.25-6.18s2.11-6.16,5.25-6.16a5.07,5.07,0,0,1,4.09,2.14V96.72H816v16.22Zm0-13.28a4.75,4.75,0,0,0-3.87-2.09c-2.6,0-4.11,2.16-4.11,5s1.51,5,4.11,5a4.79,4.79,0,0,0,3.87-2.14Z" transform="translate(0 -3.23)"/><path class="cls-4" d="M827.87,106.74a6,6,0,0,1-4.24,2c-2.4,0-3.69-1.12-3.69-3.77V96.72h1.26v8c0,2.29,1.14,2.92,2.85,2.92a5.1,5.1,0,0,0,3.82-1.94v-9h1.26v11.74h-1.26Z" transform="translate(0 -3.23)"/><path class="cls-4" d="M840.53,107.08a5.12,5.12,0,0,1-4,1.68,3.94,3.94,0,0,1-4.11-3.92,3.89,3.89,0,0,1,4.11-3.89,5.06,5.06,0,0,1,4,1.68v-2.39c0-1.75-1.41-2.7-3.16-2.7a4.56,4.56,0,0,0-3.67,1.73l-.71-.88a5.73,5.73,0,0,1,4.53-2c2.38,0,4.28,1.15,4.28,3.77v8.27h-1.27Zm0-3.5A4.4,4.4,0,0,0,837,102a2.92,2.92,0,1,0,0,5.81,4.38,4.38,0,0,0,3.55-1.61Z" transform="translate(0 -3.23)"/><path class="cls-4" d="M845.73,92.24H847v16.22h-1.27Z" transform="translate(0 -3.23)"/><path class="cls-4" d="M850.6,93.75a1,1,0,0,1,1-1,1,1,0,1,1,0,1.94A1,1,0,0,1,850.6,93.75Zm.34,3h1.26v11.74h-1.26Z" transform="translate(0 -3.23)"/><path class="cls-4" d="M864.8,106.59a5,5,0,0,1-4.09,2.17c-3.11,0-5.25-2.39-5.25-6.16s2.14-6.18,5.25-6.18a5,5,0,0,1,4.09,2.19V92.24h1.29v16.22H864.8Zm0-6.88a4.67,4.67,0,0,0-3.87-2.14c-2.6,0-4.11,2.19-4.11,5s1.51,5,4.11,5a4.7,4.7,0,0,0,3.87-2.09Z" transform="translate(0 -3.23)"/><path class="cls-4" d="M877.49,107.08a5.12,5.12,0,0,1-4,1.68,3.94,3.94,0,0,1-4.11-3.92A3.89,3.89,0,0,1,873.5,101a5.06,5.06,0,0,1,4,1.68v-2.39c0-1.75-1.41-2.7-3.16-2.7a4.56,4.56,0,0,0-3.67,1.73l-.71-.88a5.73,5.73,0,0,1,4.53-2c2.38,0,4.28,1.15,4.28,3.77v8.27h-1.27Zm0-3.5a4.4,4.4,0,0,0-3.55-1.63,2.92,2.92,0,1,0,0,5.81,4.38,4.38,0,0,0,3.55-1.61Z" transform="translate(0 -3.23)"/><path class="cls-4" d="M891.35,106.59a5,5,0,0,1-4.08,2.17c-3.12,0-5.26-2.39-5.26-6.16s2.14-6.18,5.26-6.18a5,5,0,0,1,4.08,2.19V92.24h1.29v16.22h-1.29Zm0-6.88a4.67,4.67,0,0,0-3.86-2.14c-2.61,0-4.12,2.19-4.12,5s1.51,5,4.12,5a4.7,4.7,0,0,0,3.86-2.09Z" transform="translate(0 -3.23)"/><path class="cls-4" d="M901.56,96.42c3.58,0,5.55,2.85,5.55,6.23V103h-9.83a4.58,4.58,0,0,0,4.6,4.67,5.15,5.15,0,0,0,3.84-1.63l.66.83a6.09,6.09,0,0,1-4.6,1.9c-3.43,0-5.88-2.56-5.88-6.18C895.9,99.17,898.31,96.42,901.56,96.42ZM897.28,102h8.54a4.3,4.3,0,0,0-4.28-4.47A4.43,4.43,0,0,0,897.28,102Z" transform="translate(0 -3.23)"/><path class="cls-4" d="M576.66,351.42h6.08a4.74,4.74,0,1,1,0,9.48h-4.69v6.74h-1.39Zm5.93,1.26h-4.54v7h4.54a3.48,3.48,0,1,0,0-7Z" transform="translate(0 -3.23)"/><path class="cls-4" d="M595.19,355.6c3.58,0,5.55,2.85,5.55,6.23v.34h-9.83a4.58,4.58,0,0,0,4.6,4.67,5.17,5.17,0,0,0,3.84-1.63l.66.82a6.07,6.07,0,0,1-4.6,1.9c-3.43,0-5.89-2.55-5.89-6.18A5.84,5.84,0,0,1,595.19,355.6Zm-4.28,5.57h8.54a4.32,4.32,0,0,0-4.28-4.48A4.43,4.43,0,0,0,590.91,361.17Z" transform="translate(0 -3.23)"/><path class="cls-4" d="M611.92,359.69c0-2.27-1.14-2.95-2.85-2.95a5,5,0,0,0-3.81,2v8.88H604V355.89h1.27v1.78a5.94,5.94,0,0,1,4.23-2.07c2.38,0,3.69,1.17,3.69,3.82v8.22h-1.26Z" transform="translate(0 -3.23)"/><path class="cls-4" d="M616.85,365.14a4.93,4.93,0,0,0,3.8,1.72c2,0,3.13-1,3.13-2.33s-1.6-1.95-3.28-2.39c-2-.48-4.13-1-4.13-3.28,0-1.8,1.53-3.26,4.18-3.26a5.4,5.4,0,0,1,4.21,1.73l-.71.9a4.25,4.25,0,0,0-3.5-1.56c-1.82,0-2.94.9-2.94,2.12s1.5,1.7,3.13,2.11c2,.51,4.29,1.07,4.29,3.58,0,1.9-1.46,3.45-4.41,3.45a5.69,5.69,0,0,1-4.52-1.85Z" transform="translate(0 -3.23)"/><path class="cls-4" d="M635.75,366.25a5.1,5.1,0,0,1-4,1.68,3.91,3.91,0,1,1,0-7.81,5.09,5.09,0,0,1,4,1.68v-2.38c0-1.75-1.41-2.7-3.16-2.7a4.57,4.57,0,0,0-3.68,1.73l-.7-.88a5.72,5.72,0,0,1,4.52-2c2.39,0,4.28,1.14,4.28,3.77v8.27h-1.26Zm0-3.5a4.42,4.42,0,0,0-3.55-1.63,2.92,2.92,0,1,0,0,5.81,4.39,4.39,0,0,0,3.55-1.6Z" transform="translate(0 -3.23)"/><path class="cls-4" d="M654.94,359.42c0-1.65-.71-2.68-2.36-2.68a4.37,4.37,0,0,0-3.36,2v8.9h-1.29v-8.22c0-1.65-.68-2.68-2.36-2.68a4.49,4.49,0,0,0-3.35,2v8.88H641V355.89h1.27v1.78A5.13,5.13,0,0,1,646,355.6a3,3,0,0,1,3.09,2.21A4.9,4.9,0,0,1,653,355.6c2.16,0,3.21,1.22,3.21,3.58v8.46h-1.26Z" transform="translate(0 -3.23)"/><path class="cls-4" d="M665.12,355.6c3.58,0,5.55,2.85,5.55,6.23v.34h-9.83a4.58,4.58,0,0,0,4.6,4.67,5.17,5.17,0,0,0,3.84-1.63l.66.82a6.05,6.05,0,0,1-4.6,1.9c-3.43,0-5.89-2.55-5.89-6.18A5.84,5.84,0,0,1,665.12,355.6Zm-4.28,5.57h8.54a4.32,4.32,0,0,0-4.28-4.48A4.43,4.43,0,0,0,660.84,361.17Z" transform="translate(0 -3.23)"/><path class="cls-4" d="M681.85,359.69c0-2.27-1.14-2.95-2.84-2.95a5,5,0,0,0-3.82,2v8.88h-1.27V355.89h1.27v1.78a6,6,0,0,1,4.23-2.07c2.38,0,3.7,1.17,3.7,3.82v8.22h-1.27Z" transform="translate(0 -3.23)"/><path class="cls-4" d="M687.3,365.38V357h-1.95v-1.12h1.95v-3.21h1.28v3.21H691V357h-2.39v8.17c0,.95.39,1.61,1.22,1.61a1.82,1.82,0,0,0,1.31-.56l.49,1a2.62,2.62,0,0,1-2,.73C688.05,367.93,687.3,367,687.3,365.38Z" transform="translate(0 -3.23)"/><path class="cls-4" d="M693.06,361.75c0-3.43,2.21-6.15,5.64-6.15s5.67,2.72,5.67,6.15-2.19,6.18-5.67,6.18S693.06,365.18,693.06,361.75Zm10,0c0-2.6-1.54-5-4.31-5s-4.28,2.41-4.28,5,1.56,5,4.28,5S703,364.38,703,361.75Z" transform="translate(0 -3.23)"/><path class="cls-4" d="M713.92,351.42h1.27v6.37a5,5,0,0,1,4.08-2.19c3.14,0,5.26,2.46,5.26,6.18s-2.14,6.15-5.26,6.15a5,5,0,0,1-4.08-2.16v1.87h-1.27Zm5.13,15.37c2.63,0,4.11-2.17,4.11-5s-1.48-5-4.11-5a4.79,4.79,0,0,0-3.86,2.14v5.82A4.73,4.73,0,0,0,719.05,366.79Z" transform="translate(0 -3.23)"/><path class="cls-4" d="M735.27,366.25a5.09,5.09,0,0,1-4,1.68,3.91,3.91,0,1,1,0-7.81,5.09,5.09,0,0,1,4,1.68v-2.38c0-1.75-1.41-2.7-3.16-2.7a4.56,4.56,0,0,0-3.67,1.73l-.71-.88a5.73,5.73,0,0,1,4.53-2c2.38,0,4.28,1.14,4.28,3.77v8.27h-1.27Zm0-3.5a4.4,4.4,0,0,0-3.55-1.63,2.92,2.92,0,1,0,0,5.81,4.38,4.38,0,0,0,3.55-1.6Z" transform="translate(0 -3.23)"/><path class="cls-4" d="M740.21,365.14a4.91,4.91,0,0,0,3.79,1.72c2,0,3.14-1,3.14-2.33s-1.61-1.95-3.29-2.39c-2-.48-4.13-1-4.13-3.28,0-1.8,1.53-3.26,4.18-3.26a5.4,5.4,0,0,1,4.21,1.73l-.7.9a4.29,4.29,0,0,0-3.51-1.56c-1.82,0-2.94.9-2.94,2.12s1.51,1.7,3.14,2.11c2,.51,4.28,1.07,4.28,3.58,0,1.9-1.46,3.45-4.4,3.45a5.7,5.7,0,0,1-4.53-1.85Z" transform="translate(0 -3.23)"/><path class="cls-4" d="M756.62,355.6c3.58,0,5.55,2.85,5.55,6.23v.34h-9.83a4.58,4.58,0,0,0,4.6,4.67,5.17,5.17,0,0,0,3.84-1.63l.66.82a6.05,6.05,0,0,1-4.6,1.9c-3.43,0-5.89-2.55-5.89-6.18A5.84,5.84,0,0,1,756.62,355.6Zm-4.28,5.57h8.54a4.32,4.32,0,0,0-4.28-4.48A4.43,4.43,0,0,0,752.34,361.17Z" transform="translate(0 -3.23)"/><path class="cls-4" d="M772.89,366.25a5.1,5.1,0,0,1-4,1.68,3.91,3.91,0,1,1,0-7.81,5.09,5.09,0,0,1,4,1.68v-2.38c0-1.75-1.41-2.7-3.16-2.7a4.57,4.57,0,0,0-3.68,1.73l-.7-.88a5.71,5.71,0,0,1,4.52-2c2.39,0,4.28,1.14,4.28,3.77v8.27h-1.26Zm0-3.5a4.42,4.42,0,0,0-3.55-1.63,2.92,2.92,0,1,0,0,5.81,4.39,4.39,0,0,0,3.55-1.6Z" transform="translate(0 -3.23)"/><path class="cls-4" d="M786.75,365.77a5,5,0,0,1-4.09,2.16c-3.11,0-5.25-2.38-5.25-6.15s2.14-6.18,5.25-6.18a5,5,0,0,1,4.09,2.19v-6.37H788v16.22h-1.29Zm0-6.89a4.71,4.71,0,0,0-3.87-2.14c-2.6,0-4.11,2.19-4.11,5s1.51,5,4.11,5a4.72,4.72,0,0,0,3.87-2.09Z" transform="translate(0 -3.23)"/><path class="cls-4" d="M791.29,361.75c0-3.43,2.22-6.15,5.65-6.15s5.66,2.72,5.66,6.15-2.19,6.18-5.66,6.18S791.29,365.18,791.29,361.75Zm10,0c0-2.6-1.53-5-4.3-5s-4.28,2.41-4.28,5,1.55,5,4.28,5S801.24,364.38,801.24,361.75Z" transform="translate(0 -3.23)"/><path class="cls-4" d="M817.14,355.6c3.58,0,5.55,2.85,5.55,6.23v.34h-9.83a4.58,4.58,0,0,0,4.6,4.67,5.17,5.17,0,0,0,3.84-1.63l.66.82a6.05,6.05,0,0,1-4.6,1.9c-3.43,0-5.89-2.55-5.89-6.18A5.84,5.84,0,0,1,817.14,355.6Zm-4.28,5.57h8.54a4.32,4.32,0,0,0-4.28-4.48A4.43,4.43,0,0,0,812.86,361.17Z" transform="translate(0 -3.23)"/><path class="cls-4" d="M839.93,359.42c0-1.65-.71-2.68-2.36-2.68a4.37,4.37,0,0,0-3.36,2v8.9h-1.29v-8.22c0-1.65-.68-2.68-2.36-2.68a4.49,4.49,0,0,0-3.35,2v8.88h-1.27V355.89h1.27v1.78A5.13,5.13,0,0,1,831,355.6a3,3,0,0,1,3.09,2.21A4.9,4.9,0,0,1,838,355.6c2.17,0,3.21,1.22,3.21,3.58v8.46h-1.26Z" transform="translate(0 -3.23)"/><path class="cls-4" d="M851.42,372.12V355.89h1.27v1.85a5.05,5.05,0,0,1,4.09-2.14c3.13,0,5.25,2.38,5.25,6.15s-2.12,6.18-5.25,6.18a5,5,0,0,1-4.09-2.19v6.38Zm5.14-15.38a4.75,4.75,0,0,0-3.87,2.1v5.81a4.79,4.79,0,0,0,3.87,2.14c2.62,0,4.11-2.19,4.11-5S859.18,356.74,856.56,356.74Z" transform="translate(0 -3.23)"/><path class="cls-4" d="M865.28,355.89h1.27v2a5,5,0,0,1,4-2.26V357a2.6,2.6,0,0,0-.63-.05,4.47,4.47,0,0,0-3.33,2.09v8.56h-1.27Z" transform="translate(0 -3.23)"/><path class="cls-4" d="M872.65,352.93a1,1,0,0,1,1-1,1,1,0,1,1-1,1Zm.34,3h1.27v11.75H873Z" transform="translate(0 -3.23)"/><path class="cls-4" d="M886.12,359.69c0-2.27-1.14-2.95-2.84-2.95a5,5,0,0,0-3.82,2v8.88H878.2V355.89h1.26v1.78a6,6,0,0,1,4.23-2.07c2.39,0,3.7,1.17,3.7,3.82v8.22h-1.27Z" transform="translate(0 -3.23)"/><path class="cls-4" d="M896.36,355.6a4.84,4.84,0,0,1,4.16,2l-.88.77a3.73,3.73,0,0,0-3.21-1.63c-2.74,0-4.42,2.19-4.42,5s1.68,5,4.42,5a3.75,3.75,0,0,0,3.21-1.65l.88.77a4.8,4.8,0,0,1-4.16,2c-3.45,0-5.72-2.75-5.72-6.18S892.91,355.6,896.36,355.6Z" transform="translate(0 -3.23)"/><path class="cls-4" d="M903.34,355.89h1.26v11.75h-1.26Zm0-1.77,3.74-3.51h1.51l-4.18,3.51Z" transform="translate(0 -3.23)"/><path class="cls-4" d="M908.54,372.12V355.89h1.27v1.85a5,5,0,0,1,4.08-2.14c3.14,0,5.26,2.38,5.26,6.15s-2.12,6.18-5.26,6.18a5,5,0,0,1-4.08-2.19v6.38Zm5.13-15.38a4.74,4.74,0,0,0-3.86,2.1v5.81a4.77,4.77,0,0,0,3.86,2.14c2.63,0,4.11-2.19,4.11-5S916.3,356.74,913.67,356.74Z" transform="translate(0 -3.23)"/><path class="cls-4" d="M922.06,352.93a1,1,0,0,1,1-1,1,1,0,1,1-1,1Zm.34,3h1.26v11.75H922.4Z" transform="translate(0 -3.23)"/><path class="cls-4" d="M926.92,361.75c0-3.43,2.22-6.15,5.65-6.15s5.66,2.72,5.66,6.15-2.19,6.18-5.66,6.18S926.92,365.18,926.92,361.75Zm10,0c0-2.6-1.53-5-4.3-5s-4.29,2.41-4.29,5,1.56,5,4.29,5S936.87,364.38,936.87,361.75Z" transform="translate(0 -3.23)"/><path class="cls-4" d="M941.22,365.14a4.91,4.91,0,0,0,3.79,1.72c2,0,3.14-1,3.14-2.33s-1.6-1.95-3.28-2.39c-2-.48-4.14-1-4.14-3.28,0-1.8,1.54-3.26,4.19-3.26a5.38,5.38,0,0,1,4.2,1.73l-.7.9a4.27,4.27,0,0,0-3.5-1.56c-1.83,0-2.95.9-2.95,2.12s1.51,1.7,3.14,2.11c2,.51,4.28,1.07,4.28,3.58,0,1.9-1.46,3.45-4.4,3.45a5.67,5.67,0,0,1-4.52-1.85Z" transform="translate(0 -3.23)"/><path class="cls-4" d="M967.61,365.77a5,5,0,0,1-4.09,2.16c-3.11,0-5.25-2.38-5.25-6.15s2.14-6.18,5.25-6.18a5,5,0,0,1,4.09,2.19v-6.37h1.28v16.22h-1.28Zm0-6.89a4.72,4.72,0,0,0-3.87-2.14c-2.6,0-4.11,2.19-4.11,5s1.51,5,4.11,5a4.73,4.73,0,0,0,3.87-2.09Z" transform="translate(0 -3.23)"/><path class="cls-4" d="M977.82,355.6c3.57,0,5.54,2.85,5.54,6.23v.34h-9.82a4.58,4.58,0,0,0,4.59,4.67,5.17,5.17,0,0,0,3.85-1.63l.65.82a6,6,0,0,1-4.59,1.9c-3.43,0-5.89-2.55-5.89-6.18A5.84,5.84,0,0,1,977.82,355.6Zm-4.28,5.57h8.53a4.31,4.31,0,0,0-4.28-4.48A4.42,4.42,0,0,0,973.54,361.17Z" transform="translate(0 -3.23)"/><path class="cls-4" d="M992.91,355.89h1.27v2a5,5,0,0,1,4-2.26V357a2.6,2.6,0,0,0-.63-.05,4.47,4.47,0,0,0-3.33,2.09v8.56h-1.27Z" transform="translate(0 -3.23)"/><path class="cls-4" d="M1005.61,355.6c3.57,0,5.54,2.85,5.54,6.23v.34h-9.82a4.58,4.58,0,0,0,4.59,4.67,5.17,5.17,0,0,0,3.85-1.63l.65.82a6,6,0,0,1-4.59,1.9c-3.43,0-5.89-2.55-5.89-6.18A5.84,5.84,0,0,1,1005.61,355.6Zm-4.28,5.57h8.53a4.31,4.31,0,0,0-4.28-4.48A4.42,4.42,0,0,0,1001.33,361.17Z" transform="translate(0 -3.23)"/><path class="cls-4" d="M1014.14,365.14a4.93,4.93,0,0,0,3.8,1.72c2,0,3.13-1,3.13-2.33s-1.6-1.95-3.28-2.39c-2-.48-4.13-1-4.13-3.28,0-1.8,1.53-3.26,4.18-3.26a5.42,5.42,0,0,1,4.21,1.73l-.71.9a4.27,4.27,0,0,0-3.5-1.56c-1.83,0-2.94.9-2.94,2.12s1.5,1.7,3.13,2.11c2,.51,4.28,1.07,4.28,3.58,0,1.9-1.46,3.45-4.4,3.45a5.67,5.67,0,0,1-4.52-1.85Z" transform="translate(0 -3.23)"/><path class="cls-4" d="M1025.57,372.12V355.89h1.26v1.85a5.07,5.07,0,0,1,4.09-2.14c3.14,0,5.25,2.38,5.25,6.15s-2.11,6.18-5.25,6.18a5,5,0,0,1-4.09-2.19v6.38Zm5.13-15.38a4.77,4.77,0,0,0-3.87,2.1v5.81a4.8,4.8,0,0,0,3.87,2.14c2.63,0,4.11-2.19,4.11-5S1033.33,356.74,1030.7,356.74Z" transform="translate(0 -3.23)"/><path class="cls-4" d="M1044.42,355.6c3.57,0,5.54,2.85,5.54,6.23v.34h-9.83a4.59,4.59,0,0,0,4.6,4.67,5.14,5.14,0,0,0,3.84-1.63l.66.82a6.05,6.05,0,0,1-4.6,1.9c-3.43,0-5.88-2.55-5.88-6.18A5.84,5.84,0,0,1,1044.42,355.6Zm-4.29,5.57h8.54a4.31,4.31,0,0,0-4.28-4.48A4.43,4.43,0,0,0,1040.13,361.17Z" transform="translate(0 -3.23)"/><path class="cls-4" d="M1052.88,352.93a1,1,0,0,1,1-1,1,1,0,0,1,0,1.95A1,1,0,0,1,1052.88,352.93Zm.34,3h1.26v11.75h-1.26Z" transform="translate(0 -3.23)"/><path class="cls-4" d="M1058.66,365.38V357h-1.94v-1.12h1.94v-3.21H1060v3.21h2.39V357H1060v8.17c0,.95.39,1.61,1.22,1.61a1.84,1.84,0,0,0,1.31-.56l.49,1a2.63,2.63,0,0,1-2,.73C1059.42,367.93,1058.66,367,1058.66,365.38Z" transform="translate(0 -3.23)"/><path class="cls-4" d="M1064.42,361.75c0-3.43,2.22-6.15,5.65-6.15s5.67,2.72,5.67,6.15-2.19,6.18-5.67,6.18S1064.42,365.18,1064.42,361.75Zm9.95,0c0-2.6-1.53-5-4.3-5s-4.28,2.41-4.28,5,1.55,5,4.28,5S1074.37,364.38,1074.37,361.75Z" transform="translate(0 -3.23)"/><path class="cls-4" d="M1078.21,370a3.29,3.29,0,0,0,1.41-2.23l-.24,0a1,1,0,0,1-1-1,1.06,1.06,0,0,1,1-1.05c.65,0,1.24.56,1.24,1.56a4.29,4.29,0,0,1-1.75,3.33Z" transform="translate(0 -3.23)"/><path class="cls-4" d="M576.85,394.56v-8.37h-1.94v-1.12h1.94v-3.21h1.29v3.21h2.39v1.12h-2.39v8.17c0,.95.39,1.61,1.22,1.61a1.82,1.82,0,0,0,1.31-.56l.49,1a2.63,2.63,0,0,1-2,.73C577.61,397.11,576.85,396.16,576.85,394.56Z" transform="translate(0 -3.23)"/><path class="cls-4" d="M583.3,385.07h1.26v2a5.07,5.07,0,0,1,4-2.26v1.38a3.28,3.28,0,0,0-.64,0,4.49,4.49,0,0,0-3.33,2.09v8.56H583.3Z" transform="translate(0 -3.23)"/><path class="cls-4" d="M598.47,395.43a5.09,5.09,0,0,1-4,1.68,3.94,3.94,0,0,1-4.11-3.92,3.89,3.89,0,0,1,4.11-3.89,5.09,5.09,0,0,1,4,1.68V388.6c0-1.75-1.41-2.7-3.16-2.7a4.57,4.57,0,0,0-3.67,1.72l-.71-.87a5.73,5.73,0,0,1,4.53-2c2.38,0,4.28,1.14,4.28,3.77v8.27h-1.27Zm0-3.5a4.4,4.4,0,0,0-3.55-1.63,2.92,2.92,0,1,0,0,5.81,4.38,4.38,0,0,0,3.55-1.6Z" transform="translate(0 -3.23)"/><path class="cls-4" d="M611.6,388.87c0-2.27-1.14-2.95-2.84-2.95a5,5,0,0,0-3.82,2v8.88h-1.27V385.07h1.27v1.78a5.92,5.92,0,0,1,4.23-2.07c2.38,0,3.7,1.17,3.7,3.82v8.22H611.6Z" transform="translate(0 -3.23)"/><path class="cls-4" d="M616.54,394.31a4.88,4.88,0,0,0,3.79,1.73c2,0,3.14-1,3.14-2.33s-1.61-1.95-3.29-2.39c-2-.48-4.13-1-4.13-3.28,0-1.8,1.53-3.26,4.18-3.26a5.4,5.4,0,0,1,4.21,1.73l-.7.9a4.29,4.29,0,0,0-3.51-1.56c-1.82,0-2.94.9-2.94,2.12s1.51,1.7,3.14,2.11c2,.51,4.28,1.07,4.28,3.58,0,1.89-1.46,3.45-4.4,3.45a5.7,5.7,0,0,1-4.53-1.85Z" transform="translate(0 -3.23)"/><path class="cls-4" d="M628,401.29V385.07h1.26v1.85a5.05,5.05,0,0,1,4.09-2.14c3.13,0,5.25,2.38,5.25,6.15s-2.12,6.18-5.25,6.18a5,5,0,0,1-4.09-2.19v6.37Zm5.13-15.37a4.75,4.75,0,0,0-3.87,2.09v5.82A4.79,4.79,0,0,0,633.1,396c2.62,0,4.11-2.19,4.11-5S635.72,385.92,633.1,385.92Z" transform="translate(0 -3.23)"/><path class="cls-4" d="M649.29,395.43a5.09,5.09,0,0,1-4,1.68,3.94,3.94,0,0,1-4.11-3.92,3.89,3.89,0,0,1,4.11-3.89,5.09,5.09,0,0,1,4,1.68V388.6c0-1.75-1.41-2.7-3.16-2.7a4.57,4.57,0,0,0-3.67,1.72l-.71-.87a5.73,5.73,0,0,1,4.53-2c2.38,0,4.28,1.14,4.28,3.77v8.27h-1.27Zm0-3.5a4.4,4.4,0,0,0-3.55-1.63,2.92,2.92,0,1,0,0,5.81,4.38,4.38,0,0,0,3.55-1.6Z" transform="translate(0 -3.23)"/><path class="cls-4" d="M654.49,385.07h1.27v2a5,5,0,0,1,4-2.26v1.38a3.23,3.23,0,0,0-.63,0,4.47,4.47,0,0,0-3.33,2.09v8.56h-1.27Z" transform="translate(0 -3.23)"/><path class="cls-4" d="M667.19,384.78c3.57,0,5.54,2.84,5.54,6.23v.34h-9.82A4.58,4.58,0,0,0,667.5,396a5.17,5.17,0,0,0,3.85-1.63l.65.82a6,6,0,0,1-4.59,1.9c-3.43,0-5.89-2.55-5.89-6.18A5.84,5.84,0,0,1,667.19,384.78Zm-4.28,5.57h8.53a4.3,4.3,0,0,0-4.28-4.48A4.42,4.42,0,0,0,662.91,390.35Zm4.25-9.8-2.06,2.75h-1l2.36-3.51h1.31l2.41,3.51h-1Z" transform="translate(0 -3.23)"/><path class="cls-4" d="M683.92,388.87c0-2.27-1.15-2.95-2.85-2.95a5,5,0,0,0-3.82,2v8.88H676V385.07h1.26v1.78a5.92,5.92,0,0,1,4.23-2.07c2.39,0,3.7,1.17,3.7,3.82v8.22h-1.26Z" transform="translate(0 -3.23)"/><path class="cls-4" d="M694.15,384.78a4.84,4.84,0,0,1,4.16,2l-.87.78a3.71,3.71,0,0,0-3.21-1.63c-2.75,0-4.43,2.19-4.43,5s1.68,5,4.43,5a3.74,3.74,0,0,0,3.21-1.66l.87.78a4.79,4.79,0,0,1-4.16,2c-3.45,0-5.71-2.75-5.71-6.18S690.7,384.78,694.15,384.78Z" transform="translate(0 -3.23)"/><path class="cls-4" d="M700.79,382.1a1,1,0,0,1,1-1,1,1,0,1,1,0,1.95A1,1,0,0,1,700.79,382.1Zm.34,3h1.26v11.75h-1.26Z" transform="translate(0 -3.23)"/><path class="cls-4" d="M713.8,395.43a5.1,5.1,0,0,1-4,1.68,3.94,3.94,0,0,1-4.11-3.92,3.89,3.89,0,0,1,4.11-3.89,5.09,5.09,0,0,1,4,1.68V388.6c0-1.75-1.41-2.7-3.16-2.7a4.57,4.57,0,0,0-3.67,1.72l-.71-.87a5.72,5.72,0,0,1,4.52-2c2.39,0,4.29,1.14,4.29,3.77v8.27H713.8Zm0-3.5a4.42,4.42,0,0,0-3.55-1.63,2.92,2.92,0,1,0,0,5.81,4.39,4.39,0,0,0,3.55-1.6Z" transform="translate(0 -3.23)"/><path class="cls-4" d="M730.28,384.78c3.58,0,5.55,2.84,5.55,6.23v.34H726a4.59,4.59,0,0,0,4.6,4.67,5.15,5.15,0,0,0,3.84-1.63l.66.82a6.05,6.05,0,0,1-4.6,1.9c-3.43,0-5.88-2.55-5.88-6.18C724.62,387.53,727,384.78,730.28,384.78ZM726,390.35h8.54a4.31,4.31,0,0,0-4.28-4.48A4.43,4.43,0,0,0,726,390.35Z" transform="translate(0 -3.23)"/><path class="cls-4" d="M750.42,384.78a4.86,4.86,0,0,1,4.16,2l-.88.78a3.71,3.71,0,0,0-3.21-1.63c-2.75,0-4.43,2.19-4.43,5s1.68,5,4.43,5a3.74,3.74,0,0,0,3.21-1.66l.88.78a4.8,4.8,0,0,1-4.16,2c-3.46,0-5.72-2.75-5.72-6.18S747,384.78,750.42,384.78Z" transform="translate(0 -3.23)"/><path class="cls-4" d="M756.71,390.93c0-3.43,2.22-6.15,5.65-6.15s5.66,2.72,5.66,6.15-2.19,6.18-5.66,6.18S756.71,394.36,756.71,390.93Zm9.95,0c0-2.6-1.53-5-4.3-5s-4.28,2.41-4.28,5,1.55,5,4.28,5S766.66,393.56,766.66,390.93Z" transform="translate(0 -3.23)"/><path class="cls-4" d="M771.28,380.6h1.26v16.22h-1.26Z" transform="translate(0 -3.23)"/><path class="cls-4" d="M784,395.43a5.1,5.1,0,0,1-4,1.68,3.94,3.94,0,0,1-4.11-3.92A3.89,3.89,0,0,1,780,389.3a5.09,5.09,0,0,1,4,1.68V388.6c0-1.75-1.41-2.7-3.16-2.7a4.61,4.61,0,0,0-3.68,1.72l-.7-.87a5.72,5.72,0,0,1,4.52-2c2.39,0,4.28,1.14,4.28,3.77v8.27H784Zm0-3.5a4.42,4.42,0,0,0-3.55-1.63,2.92,2.92,0,1,0,0,5.81,4.39,4.39,0,0,0,3.55-1.6Z" transform="translate(0 -3.23)"/><path class="cls-4" d="M789.15,380.6h1.27V387a5,5,0,0,1,4.08-2.19c3.14,0,5.26,2.46,5.26,6.18s-2.15,6.15-5.26,6.15a5,5,0,0,1-4.08-2.16v1.87h-1.27ZM794.28,396c2.63,0,4.11-2.17,4.11-5s-1.48-5-4.11-5a4.77,4.77,0,0,0-3.86,2.14v5.82A4.75,4.75,0,0,0,794.28,396Z" transform="translate(0 -3.23)"/><path class="cls-4" d="M802.35,390.93c0-3.43,2.22-6.15,5.65-6.15s5.66,2.72,5.66,6.15-2.18,6.18-5.66,6.18S802.35,394.36,802.35,390.93Zm9.95,0c0-2.6-1.53-5-4.3-5s-4.28,2.41-4.28,5,1.55,5,4.28,5S812.3,393.56,812.3,390.93Z" transform="translate(0 -3.23)"/><path class="cls-4" d="M816.92,385.07h1.26v2a5.07,5.07,0,0,1,4-2.26v1.38a3.23,3.23,0,0,0-.63,0,4.49,4.49,0,0,0-3.34,2.09v8.56h-1.26Z" transform="translate(0 -3.23)"/><path class="cls-4" d="M832.09,395.43a5.07,5.07,0,0,1-4,1.68,3.94,3.94,0,0,1-4.12-3.92,3.89,3.89,0,0,1,4.12-3.89,5.07,5.07,0,0,1,4,1.68V388.6c0-1.75-1.41-2.7-3.16-2.7a4.57,4.57,0,0,0-3.67,1.72l-.71-.87a5.73,5.73,0,0,1,4.53-2c2.38,0,4.28,1.14,4.28,3.77v8.27h-1.27Zm0-3.5a4.4,4.4,0,0,0-3.55-1.63,2.92,2.92,0,1,0,0,5.81,4.38,4.38,0,0,0,3.55-1.6Z" transform="translate(0 -3.23)"/><path class="cls-4" d="M845.61,394.31l.88.78a4.75,4.75,0,0,1-3.77,2l-.41,1.1a1.44,1.44,0,0,1,.9-.3,1.5,1.5,0,0,1,1.6,1.54c0,1.21-1.09,2-2.45,2a3.92,3.92,0,0,1-2.36-.71l.38-.78a3.05,3.05,0,0,0,2,.68c.85,0,1.58-.39,1.58-1.16,0-.52-.31-.88-1-.88a1.35,1.35,0,0,0-1,.41l-.68-.39.56-1.5c-3.16-.27-5.21-2.9-5.21-6.16,0-3.43,2.27-6.15,5.72-6.15a4.86,4.86,0,0,1,4.16,2l-.88.78a3.71,3.71,0,0,0-3.21-1.63c-2.74,0-4.42,2.19-4.42,5s1.68,5,4.42,5A3.74,3.74,0,0,0,845.61,394.31Z" transform="translate(0 -3.23)"/><path class="cls-4" d="M856.77,395.43a5.08,5.08,0,0,1-4,1.68,3.94,3.94,0,0,1-4.11-3.92,3.88,3.88,0,0,1,4.11-3.89,5.09,5.09,0,0,1,4,1.68V388.6c0-1.75-1.41-2.7-3.16-2.7a4.57,4.57,0,0,0-3.67,1.72l-.71-.87a5.73,5.73,0,0,1,4.53-2c2.38,0,4.28,1.14,4.28,3.77v8.27h-1.27Zm0-3.5a4.4,4.4,0,0,0-3.55-1.63,2.92,2.92,0,1,0,0,5.81,4.38,4.38,0,0,0,3.55-1.6Zm-4.54-11.09c-.73,0-1.32.7-1.32,2.36h-.85c0-1.83.8-3.26,2.26-3.26,1,0,1.41.73,1.83,1.41s.63,1.07,1.21,1.07,1.29-.71,1.29-2.34h.88c0,1.83-.78,3.26-2.24,3.26-1,0-1.43-.73-1.85-1.41S852.81,380.84,852.23,380.84Z" transform="translate(0 -3.23)"/><path class="cls-4" d="M861.29,390.93c0-3.43,2.22-6.15,5.65-6.15s5.67,2.72,5.67,6.15-2.19,6.18-5.67,6.18S861.29,394.36,861.29,390.93Zm10,0c0-2.6-1.53-5-4.3-5s-4.28,2.41-4.28,5,1.55,5,4.28,5S871.24,393.56,871.24,390.93Z" transform="translate(0 -3.23)"/><path class="cls-4" d="M887.19,384.78a4.84,4.84,0,0,1,4.16,2l-.87.78a3.73,3.73,0,0,0-3.21-1.63c-2.75,0-4.43,2.19-4.43,5s1.68,5,4.43,5a3.76,3.76,0,0,0,3.21-1.66l.87.78a4.79,4.79,0,0,1-4.16,2c-3.45,0-5.71-2.75-5.71-6.18S883.74,384.78,887.19,384.78Z" transform="translate(0 -3.23)"/><path class="cls-4" d="M893.49,390.93c0-3.43,2.21-6.15,5.64-6.15s5.67,2.72,5.67,6.15-2.19,6.18-5.67,6.18S893.49,394.36,893.49,390.93Zm10,0c0-2.6-1.54-5-4.31-5s-4.28,2.41-4.28,5,1.56,5,4.28,5S903.44,393.56,903.44,390.93Z" transform="translate(0 -3.23)"/><path class="cls-4" d="M922,388.6c0-1.66-.71-2.68-2.36-2.68a4.37,4.37,0,0,0-3.36,2v8.9H915V388.6c0-1.66-.68-2.68-2.36-2.68a4.49,4.49,0,0,0-3.35,2v8.88h-1.27V385.07h1.27v1.78a5.13,5.13,0,0,1,3.79-2.07A3,3,0,0,1,916.2,387a4.9,4.9,0,0,1,3.89-2.21c2.17,0,3.21,1.22,3.21,3.57v8.47H922Z" transform="translate(0 -3.23)"/><path class="cls-4" d="M932.86,390.93c0-3.43,2.21-6.15,5.64-6.15s5.66,2.72,5.66,6.15-2.18,6.18-5.66,6.18S932.86,394.36,932.86,390.93Zm9.94,0c0-2.6-1.53-5-4.3-5s-4.28,2.41-4.28,5,1.55,5,4.28,5S942.8,393.56,942.8,390.93Z" transform="translate(0 -3.23)"/><path class="cls-4" d="M947.15,394.31A4.9,4.9,0,0,0,951,396c2,0,3.13-1,3.13-2.33s-1.6-1.95-3.28-2.39c-2-.48-4.13-1-4.13-3.28,0-1.8,1.53-3.26,4.18-3.26a5.4,5.4,0,0,1,4.21,1.73l-.71.9a4.25,4.25,0,0,0-3.5-1.56c-1.82,0-2.94.9-2.94,2.12s1.5,1.7,3.13,2.11c2,.51,4.28,1.07,4.28,3.58,0,1.89-1.45,3.45-4.4,3.45a5.69,5.69,0,0,1-4.52-1.85Z" transform="translate(0 -3.23)"/><path class="cls-4" d="M964.88,401.29V385.07h1.26v1.85a5.07,5.07,0,0,1,4.09-2.14c3.14,0,5.25,2.38,5.25,6.15s-2.11,6.18-5.25,6.18a5,5,0,0,1-4.09-2.19v6.37ZM970,385.92a4.75,4.75,0,0,0-3.87,2.09v5.82A4.79,4.79,0,0,0,970,396c2.63,0,4.11-2.19,4.11-5S972.64,385.92,970,385.92Z" transform="translate(0 -3.23)"/><path class="cls-4" d="M986.21,395.43a5.1,5.1,0,0,1-4,1.68,3.94,3.94,0,0,1-4.11-3.92,3.88,3.88,0,0,1,4.11-3.89,5.11,5.11,0,0,1,4,1.68V388.6c0-1.75-1.42-2.7-3.17-2.7a4.57,4.57,0,0,0-3.67,1.72l-.7-.87a5.69,5.69,0,0,1,4.52-2c2.38,0,4.28,1.14,4.28,3.77v8.27h-1.26Zm0-3.5a4.42,4.42,0,0,0-3.55-1.63,2.92,2.92,0,1,0,0,5.81,4.39,4.39,0,0,0,3.55-1.6Z" transform="translate(0 -3.23)"/><path class="cls-4" d="M991.41,385.07h1.26v2a5.07,5.07,0,0,1,4-2.26v1.38a3.28,3.28,0,0,0-.64,0,4.49,4.49,0,0,0-3.33,2.09v8.56h-1.26Z" transform="translate(0 -3.23)"/><path class="cls-4" d="M1004.15,384.78a4.86,4.86,0,0,1,4.16,2l-.88.78a3.71,3.71,0,0,0-3.21-1.63c-2.75,0-4.42,2.19-4.42,5s1.67,5,4.42,5a3.74,3.74,0,0,0,3.21-1.66l.88.78a4.8,4.8,0,0,1-4.16,2c-3.45,0-5.72-2.75-5.72-6.18S1000.7,384.78,1004.15,384.78Z" transform="translate(0 -3.23)"/><path class="cls-4" d="M1016.11,384.78c3.58,0,5.55,2.84,5.55,6.23v.34h-9.83a4.58,4.58,0,0,0,4.6,4.67,5.17,5.17,0,0,0,3.84-1.63l.66.82a6.05,6.05,0,0,1-4.6,1.9c-3.43,0-5.88-2.55-5.88-6.18C1010.45,387.53,1012.85,384.78,1016.11,384.78Zm-4.28,5.57h8.54a4.31,4.31,0,0,0-4.28-4.48A4.43,4.43,0,0,0,1011.83,390.35Z" transform="translate(0 -3.23)"/><path class="cls-4" d="M1024.57,382.1a1,1,0,0,1,1-1,1,1,0,0,1,0,1.95A1,1,0,0,1,1024.57,382.1Zm.34,3h1.27v11.75h-1.27Z" transform="translate(0 -3.23)"/><path class="cls-4" d="M1030.12,385.07h1.26v2a5.07,5.07,0,0,1,4-2.26v1.38a3.28,3.28,0,0,0-.64,0,4.49,4.49,0,0,0-3.33,2.09v8.56h-1.26Z" transform="translate(0 -3.23)"/><path class="cls-4" d="M1037.14,390.93c0-3.43,2.22-6.15,5.65-6.15s5.66,2.72,5.66,6.15-2.19,6.18-5.66,6.18S1037.14,394.36,1037.14,390.93Zm9.95,0c0-2.6-1.53-5-4.3-5s-4.29,2.41-4.29,5,1.56,5,4.29,5S1047.09,393.56,1047.09,390.93Z" transform="translate(0 -3.23)"/><path class="cls-4" d="M1051.44,394.31a4.89,4.89,0,0,0,3.8,1.73c2,0,3.13-1,3.13-2.33s-1.6-1.95-3.28-2.39c-2-.48-4.14-1-4.14-3.28,0-1.8,1.54-3.26,4.19-3.26a5.42,5.42,0,0,1,4.21,1.73l-.71.9a4.27,4.27,0,0,0-3.5-1.56c-1.83,0-3,.9-3,2.12s1.51,1.7,3.14,2.11c2,.51,4.28,1.07,4.28,3.58,0,1.89-1.46,3.45-4.4,3.45a5.67,5.67,0,0,1-4.52-1.85Z" transform="translate(0 -3.23)"/><path class="cls-4" d="M580.79,5.3h-5.3V4h12V5.3h-5.3v15h-1.42Z" transform="translate(0 -3.23)"/><path class="cls-4" d="M588.06,8.51h1.27v2a5,5,0,0,1,4-2.27V9.65a2.6,2.6,0,0,0-.63-.05,4.47,4.47,0,0,0-3.33,2.09v8.57h-1.27Z" transform="translate(0 -3.23)"/><path class="cls-4" d="M603.24,18.87a5.14,5.14,0,0,1-4,1.68,3.94,3.94,0,0,1-4.11-3.92,3.89,3.89,0,0,1,4.11-3.89,5.06,5.06,0,0,1,4,1.68V12c0-1.75-1.41-2.7-3.16-2.7a4.6,4.6,0,0,0-3.68,1.73l-.7-.87a5.68,5.68,0,0,1,4.52-2c2.39,0,4.28,1.14,4.28,3.77v8.27h-1.26Zm0-3.5a4.42,4.42,0,0,0-3.55-1.63,2.92,2.92,0,1,0,0,5.81,4.37,4.37,0,0,0,3.55-1.61Z" transform="translate(0 -3.23)"/><path class="cls-4" d="M616.37,12.3c0-2.26-1.14-2.94-2.85-2.94a5,5,0,0,0-3.82,2v8.88h-1.26V8.51h1.26v1.77a6,6,0,0,1,4.24-2.06c2.38,0,3.69,1.16,3.69,3.81v8.23h-1.26Z" transform="translate(0 -3.23)"/><path class="cls-4" d="M621.3,17.75a4.9,4.9,0,0,0,3.8,1.73c2,0,3.13-1,3.13-2.34,0-1.51-1.6-1.94-3.28-2.38-2-.49-4.13-1-4.13-3.29,0-1.79,1.53-3.25,4.18-3.25a5.4,5.4,0,0,1,4.21,1.72l-.71.9A4.28,4.28,0,0,0,625,9.29c-1.82,0-2.94.9-2.94,2.11s1.5,1.7,3.13,2.12c2,.51,4.28,1.07,4.28,3.57,0,1.9-1.45,3.46-4.4,3.46a5.69,5.69,0,0,1-4.52-1.85Z" transform="translate(0 -3.23)"/><path class="cls-4" d="M633.14,9.63H631.2V8.51h1.94V7.44c0-2.31,1.24-3.65,3.19-3.65a3.17,3.17,0,0,1,1.58.36l-.39,1a2,2,0,0,0-1.07-.27c-1.34,0-2,.93-2,2.56V8.51h2.38V9.63h-2.38V20.26h-1.27Z" transform="translate(0 -3.23)"/><path class="cls-4" d="M638.49,14.37c0-3.43,2.22-6.15,5.65-6.15s5.66,2.72,5.66,6.15-2.19,6.18-5.66,6.18S638.49,17.8,638.49,14.37Zm10,0c0-2.6-1.53-5-4.3-5s-4.28,2.41-4.28,5,1.55,5,4.28,5S648.44,17,648.44,14.37Z" transform="translate(0 -3.23)"/><path class="cls-4" d="M653.06,8.51h1.26v2a5.05,5.05,0,0,1,4-2.27V9.65a2.6,2.6,0,0,0-.63-.05,4.49,4.49,0,0,0-3.34,2.09v8.57h-1.26Z" transform="translate(0 -3.23)"/><path class="cls-4" d="M674.75,12c0-1.65-.7-2.67-2.36-2.67a4.34,4.34,0,0,0-3.35,2v8.91h-1.29V12c0-1.65-.68-2.67-2.36-2.67a4.53,4.53,0,0,0-3.36,2v8.88h-1.26V8.51H662v1.77a5.18,5.18,0,0,1,3.8-2.06,3,3,0,0,1,3.09,2.21,4.84,4.84,0,0,1,3.89-2.21c2.16,0,3.21,1.21,3.21,3.57v8.47h-1.27Z" transform="translate(0 -3.23)"/><path class="cls-4" d="M687.42,18.87a5.14,5.14,0,0,1-4,1.68,3.94,3.94,0,0,1-4.11-3.92,3.89,3.89,0,0,1,4.11-3.89,5.06,5.06,0,0,1,4,1.68V12c0-1.75-1.41-2.7-3.16-2.7a4.6,4.6,0,0,0-3.68,1.73l-.7-.87a5.68,5.68,0,0,1,4.52-2c2.39,0,4.28,1.14,4.28,3.77v8.27h-1.26Zm0-3.5a4.42,4.42,0,0,0-3.55-1.63,2.92,2.92,0,1,0,0,5.81,4.37,4.37,0,0,0,3.55-1.61Z" transform="translate(0 -3.23)"/><path class="cls-4" d="M700.94,17.75l.87.78a4.74,4.74,0,0,1-3.77,2l-.41,1.09a1.59,1.59,0,0,1,2.51,1.24c0,1.22-1.1,2-2.46,2a3.94,3.94,0,0,1-2.36-.7l.39-.78a3.11,3.11,0,0,0,1.95.68c.85,0,1.58-.39,1.58-1.17,0-.51-.32-.87-1-.87a1.29,1.29,0,0,0-1,.41l-.69-.39.56-1.51c-3.16-.26-5.2-2.89-5.2-6.15,0-3.43,2.26-6.15,5.72-6.15a4.83,4.83,0,0,1,4.15,2l-.87.78a3.71,3.71,0,0,0-3.21-1.63c-2.75,0-4.43,2.19-4.43,5s1.68,5,4.43,5A3.73,3.73,0,0,0,700.94,17.75Z" transform="translate(0 -3.23)"/><path class="cls-4" d="M712.1,18.87a5.14,5.14,0,0,1-4,1.68A3.94,3.94,0,0,1,704,16.63a3.89,3.89,0,0,1,4.11-3.89,5.06,5.06,0,0,1,4,1.68V12c0-1.75-1.41-2.7-3.16-2.7a4.6,4.6,0,0,0-3.68,1.73l-.7-.87a5.69,5.69,0,0,1,4.52-2c2.39,0,4.28,1.14,4.28,3.77v8.27H712.1Zm0-3.5a4.42,4.42,0,0,0-3.55-1.63,2.92,2.92,0,1,0,0,5.81,4.37,4.37,0,0,0,3.55-1.61ZM707.55,4.28c-.73,0-1.31.7-1.31,2.36h-.85c0-1.83.8-3.26,2.26-3.26,1,0,1.41.72,1.82,1.41s.64,1.07,1.22,1.07S712,5.15,712,3.52h.87c0,1.83-.78,3.26-2.23,3.26-1,0-1.44-.73-1.85-1.41S708.13,4.28,707.55,4.28Z" transform="translate(0 -3.23)"/><path class="cls-4" d="M716.62,14.37c0-3.43,2.21-6.15,5.64-6.15s5.67,2.72,5.67,6.15-2.19,6.18-5.67,6.18S716.62,17.8,716.62,14.37Zm10,0c0-2.6-1.54-5-4.31-5s-4.28,2.41-4.28,5,1.56,5,4.28,5S726.57,17,726.57,14.37Z" transform="translate(0 -3.23)"/><path class="cls-4" d="M742.52,8.22a4.86,4.86,0,0,1,4.16,2l-.88.78a3.71,3.71,0,0,0-3.21-1.63c-2.75,0-4.43,2.19-4.43,5s1.68,5,4.43,5a3.73,3.73,0,0,0,3.21-1.65l.88.78a4.83,4.83,0,0,1-4.16,2c-3.46,0-5.72-2.75-5.72-6.18S739.06,8.22,742.52,8.22Z" transform="translate(0 -3.23)"/><path class="cls-4" d="M748.81,14.37c0-3.43,2.22-6.15,5.65-6.15s5.66,2.72,5.66,6.15-2.19,6.18-5.66,6.18S748.81,17.8,748.81,14.37Zm10,0c0-2.6-1.53-5-4.3-5s-4.28,2.41-4.28,5,1.55,5,4.28,5S758.76,17,758.76,14.37Z" transform="translate(0 -3.23)"/><path class="cls-4" d="M771.31,12.3c0-2.26-1.15-2.94-2.85-2.94a5,5,0,0,0-3.82,2v8.88h-1.26V8.51h1.26v1.77a6,6,0,0,1,4.23-2.06c2.39,0,3.7,1.16,3.7,3.81v8.23h-1.26Z" transform="translate(0 -3.23)"/><path class="cls-4" d="M776.75,18V9.63h-1.94V8.51h1.94V5.3H778V8.51h2.38V9.63H778V17.8c0,.95.39,1.6,1.22,1.6a1.8,1.8,0,0,0,1.31-.56l.49,1a2.65,2.65,0,0,1-2,.73C777.51,20.55,776.75,19.6,776.75,18Z" transform="translate(0 -3.23)"/><path class="cls-4" d="M783.2,8.51h1.26V20.26H783.2Zm0-1.78L787,3.23h1.51l-4.19,3.5Z" transform="translate(0 -3.23)"/><path class="cls-4" d="M796.33,12.3c0-2.26-1.15-2.94-2.85-2.94a5,5,0,0,0-3.82,2v8.88H788.4V8.51h1.26v1.77a6,6,0,0,1,4.24-2.06c2.38,0,3.69,1.16,3.69,3.81v8.23h-1.26Z" transform="translate(0 -3.23)"/><path class="cls-4" d="M809.46,18.53a6,6,0,0,1-4.23,2c-2.41,0-3.7-1.12-3.7-3.77V8.51h1.26v8c0,2.28,1.15,2.91,2.85,2.91a5.1,5.1,0,0,0,3.82-1.94v-9h1.26V20.26h-1.26Z" transform="translate(0 -3.23)"/><path class="cls-4" d="M822.13,18.87a5.14,5.14,0,0,1-4,1.68A3.94,3.94,0,0,1,814,16.63a3.88,3.88,0,0,1,4.11-3.89,5.07,5.07,0,0,1,4,1.68V12c0-1.75-1.41-2.7-3.17-2.7a4.59,4.59,0,0,0-3.67,1.73l-.7-.87a5.66,5.66,0,0,1,4.52-2c2.38,0,4.28,1.14,4.28,3.77v8.27h-1.26Zm0-3.5a4.42,4.42,0,0,0-3.56-1.63,2.92,2.92,0,1,0,0,5.81,4.38,4.38,0,0,0,3.56-1.61Z" transform="translate(0 -3.23)"/><path class="cls-4" d="M838.61,8.22c3.58,0,5.55,2.84,5.55,6.22v.34h-9.83a4.57,4.57,0,0,0,4.6,4.67,5.17,5.17,0,0,0,3.84-1.63l.66.83a6.05,6.05,0,0,1-4.6,1.9c-3.43,0-5.89-2.56-5.89-6.18C832.94,11,835.35,8.22,838.61,8.22Zm-4.28,5.57h8.54a4.31,4.31,0,0,0-4.28-4.48A4.42,4.42,0,0,0,834.33,13.79Z" transform="translate(0 -3.23)"/><path class="cls-4" d="M858.74,8.22a4.84,4.84,0,0,1,4.16,2L862,11a3.71,3.71,0,0,0-3.21-1.63c-2.75,0-4.43,2.19-4.43,5s1.68,5,4.43,5A3.73,3.73,0,0,0,862,17.75l.87.78a4.82,4.82,0,0,1-4.16,2c-3.45,0-5.71-2.75-5.71-6.18S855.29,8.22,858.74,8.22Z" transform="translate(0 -3.23)"/><path class="cls-4" d="M865,14.37c0-3.43,2.21-6.15,5.64-6.15s5.67,2.72,5.67,6.15-2.19,6.18-5.67,6.18S865,17.8,865,14.37Zm10,0c0-2.6-1.54-5-4.31-5s-4.28,2.41-4.28,5,1.56,5,4.28,5S875,17,875,14.37Z" transform="translate(0 -3.23)"/><path class="cls-4" d="M878.36,13.79h5.84V15h-5.84Z" transform="translate(0 -3.23)"/><path class="cls-4" d="M891.89,8.22c3.57,0,5.54,2.84,5.54,6.22v.34H887.6a4.58,4.58,0,0,0,4.6,4.67A5.14,5.14,0,0,0,896,17.82l.66.83a6.05,6.05,0,0,1-4.6,1.9c-3.43,0-5.88-2.56-5.88-6.18C886.22,11,888.63,8.22,891.89,8.22Zm-4.29,5.57h8.54a4.31,4.31,0,0,0-4.28-4.48A4.43,4.43,0,0,0,887.6,13.79Z" transform="translate(0 -3.23)"/><path class="cls-4" d="M898.89,8.51h1.41l4.28,10.26,4.23-10.26h1.43l-5,11.75h-1.43Z" transform="translate(0 -3.23)"/><path class="cls-4" d="M911.7,14.37c0-3.43,2.21-6.15,5.64-6.15S923,10.94,923,14.37s-2.19,6.18-5.67,6.18S911.7,17.8,911.7,14.37Zm9.95,0c0-2.6-1.53-5-4.31-5s-4.28,2.41-4.28,5,1.56,5,4.28,5S921.65,17,921.65,14.37Z" transform="translate(0 -3.23)"/><path class="cls-4" d="M926.27,4h1.26V20.26h-1.26Z" transform="translate(0 -3.23)"/><path class="cls-4" d="M939.4,18.53a6,6,0,0,1-4.23,2c-2.41,0-3.7-1.12-3.7-3.77V8.51h1.26v8c0,2.28,1.15,2.91,2.85,2.91a5.1,5.1,0,0,0,3.82-1.94v-9h1.26V20.26H939.4Z" transform="translate(0 -3.23)"/><path class="cls-4" d="M952.92,17.75l.87.78a4.74,4.74,0,0,1-3.77,2l-.41,1.09a1.59,1.59,0,0,1,2.5,1.24c0,1.22-1.09,2-2.45,2a3.94,3.94,0,0,1-2.36-.7l.39-.78a3.1,3.1,0,0,0,1.94.68c.86,0,1.59-.39,1.59-1.17,0-.51-.32-.87-1-.87a1.33,1.33,0,0,0-1,.41l-.68-.39.56-1.51c-3.16-.26-5.2-2.89-5.2-6.15,0-3.43,2.26-6.15,5.71-6.15a4.84,4.84,0,0,1,4.16,2l-.87.78a3.71,3.71,0,0,0-3.21-1.63c-2.75,0-4.43,2.19-4.43,5s1.68,5,4.43,5A3.73,3.73,0,0,0,952.92,17.75Z" transform="translate(0 -3.23)"/><path class="cls-4" d="M964.08,18.87a5.14,5.14,0,0,1-4,1.68A3.94,3.94,0,0,1,956,16.63a3.89,3.89,0,0,1,4.11-3.89,5.06,5.06,0,0,1,4,1.68V12c0-1.75-1.41-2.7-3.16-2.7a4.6,4.6,0,0,0-3.68,1.73l-.7-.87a5.68,5.68,0,0,1,4.52-2c2.39,0,4.28,1.14,4.28,3.77v8.27h-1.26Zm0-3.5a4.42,4.42,0,0,0-3.55-1.63,2.92,2.92,0,1,0,0,5.81,4.37,4.37,0,0,0,3.55-1.61ZM959.53,4.28c-.73,0-1.31.7-1.31,2.36h-.86c0-1.83.81-3.26,2.27-3.26,1,0,1.41.72,1.82,1.41s.63,1.07,1.22,1.07S964,5.15,964,3.52h.87c0,1.83-.78,3.26-2.24,3.26-1,0-1.43-.73-1.84-1.41S960.11,4.28,959.53,4.28Z" transform="translate(0 -3.23)"/><path class="cls-4" d="M968.6,14.37c0-3.43,2.21-6.15,5.64-6.15s5.67,2.72,5.67,6.15-2.19,6.18-5.67,6.18S968.6,17.8,968.6,14.37Zm9.95,0c0-2.6-1.54-5-4.31-5s-4.28,2.41-4.28,5,1.56,5,4.28,5S978.55,17,978.55,14.37Z" transform="translate(0 -3.23)"/><path class="cls-4" d="M988.78,14.37c0-3.43,2.21-6.15,5.64-6.15s5.67,2.72,5.67,6.15-2.19,6.18-5.67,6.18S988.78,17.8,988.78,14.37Zm10,0c0-2.6-1.53-5-4.31-5s-4.28,2.41-4.28,5,1.56,5,4.28,5S998.73,17,998.73,14.37Z" transform="translate(0 -3.23)"/><path class="cls-4" d="M1003.35,8.51h1.26v2a5,5,0,0,1,4-2.27V9.65a2.52,2.52,0,0,0-.63-.05,4.49,4.49,0,0,0-3.33,2.09v8.57h-1.26Z" transform="translate(0 -3.23)"/><path class="cls-4" d="M1011.81,22.27a4.49,4.49,0,0,0,3.89,1.66c2.14,0,4-1.07,4-3.77V18.31a5.07,5.07,0,0,1-4.08,2.19c-3.12,0-5.26-2.36-5.26-6.13s2.14-6.15,5.26-6.15a5,5,0,0,1,4.08,2.18V8.51H1021V20.13c0,3.6-2.43,4.89-5.3,4.89a5.63,5.63,0,0,1-4.62-1.77Zm7.9-10.77a4.73,4.73,0,0,0-3.86-2.14c-2.61,0-4.11,2.16-4.11,5s1.5,5,4.11,5a4.73,4.73,0,0,0,3.86-2.13Z" transform="translate(0 -3.23)"/><path class="cls-4" d="M1032.38,18.87a5.14,5.14,0,0,1-4,1.68,3.94,3.94,0,0,1-4.11-3.92,3.89,3.89,0,0,1,4.11-3.89,5.06,5.06,0,0,1,4,1.68V12c0-1.75-1.41-2.7-3.16-2.7a4.59,4.59,0,0,0-3.67,1.73l-.71-.87a5.69,5.69,0,0,1,4.52-2c2.39,0,4.29,1.14,4.29,3.77v8.27h-1.27Zm0-3.5a4.42,4.42,0,0,0-3.55-1.63,2.92,2.92,0,1,0,0,5.81,4.37,4.37,0,0,0,3.55-1.61Z" transform="translate(0 -3.23)"/><path class="cls-4" d="M1045.51,12.3c0-2.26-1.14-2.94-2.84-2.94a5,5,0,0,0-3.82,2v8.88h-1.27V8.51h1.27v1.77a6,6,0,0,1,4.23-2.06c2.38,0,3.7,1.16,3.7,3.81v8.23h-1.27Z" transform="translate(0 -3.23)"/><path class="cls-4" d="M1050.37,5.54a1,1,0,0,1,1-1,1,1,0,1,1-1,1Zm.34,3H1052V20.26h-1.27Z" transform="translate(0 -3.23)"/><path class="cls-4" d="M1055.31,19.21l7-9.58h-7V8.51h8.58v1l-7,9.61H1064v1.12h-8.68Z" transform="translate(0 -3.23)"/><path class="cls-4" d="M1074.79,18.87a5.14,5.14,0,0,1-4,1.68,3.94,3.94,0,0,1-4.11-3.92,3.88,3.88,0,0,1,4.11-3.89,5.07,5.07,0,0,1,4,1.68V12c0-1.75-1.41-2.7-3.17-2.7a4.59,4.59,0,0,0-3.67,1.73l-.7-.87a5.66,5.66,0,0,1,4.52-2c2.38,0,4.28,1.14,4.28,3.77v8.27h-1.26Zm0-3.5a4.42,4.42,0,0,0-3.55-1.63,2.92,2.92,0,1,0,0,5.81,4.37,4.37,0,0,0,3.55-1.61Z" transform="translate(0 -3.23)"/><path class="cls-4" d="M1085,8.22a4.84,4.84,0,0,1,4.16,2l-.87.78a3.73,3.73,0,0,0-3.21-1.63c-2.75,0-4.43,2.19-4.43,5s1.68,5,4.43,5a3.75,3.75,0,0,0,3.21-1.65l.87.78a4.82,4.82,0,0,1-4.16,2c-3.45,0-5.71-2.75-5.71-6.18S1081.57,8.22,1085,8.22Z" transform="translate(0 -3.23)"/><path class="cls-4" d="M1091.66,5.54a1,1,0,0,1,1-1,1,1,0,1,1,0,1.94A1,1,0,0,1,1091.66,5.54Zm.34,3h1.26V20.26H1092Z" transform="translate(0 -3.23)"/><path class="cls-4" d="M1096.52,14.37c0-3.43,2.21-6.15,5.64-6.15s5.67,2.72,5.67,6.15-2.19,6.18-5.67,6.18S1096.52,17.8,1096.52,14.37Zm10,0c0-2.6-1.53-5-4.31-5s-4.28,2.41-4.28,5,1.56,5,4.28,5S1106.47,17,1106.47,14.37Z" transform="translate(0 -3.23)"/><path class="cls-4" d="M1119,12.3c0-2.26-1.15-2.94-2.85-2.94a5,5,0,0,0-3.82,2v8.88h-1.26V8.51h1.26v1.77a6,6,0,0,1,4.23-2.06c2.39,0,3.7,1.16,3.7,3.81v8.23H1119Z" transform="translate(0 -3.23)"/><path class="cls-4" d="M1131.68,18.87a5.11,5.11,0,0,1-4,1.68,3.94,3.94,0,0,1-4.12-3.92,3.89,3.89,0,0,1,4.12-3.89,5.05,5.05,0,0,1,4,1.68V12c0-1.75-1.41-2.7-3.16-2.7a4.59,4.59,0,0,0-3.67,1.73l-.71-.87a5.7,5.7,0,0,1,4.53-2c2.38,0,4.28,1.14,4.28,3.77v8.27h-1.27Zm0-3.5a4.4,4.4,0,0,0-3.55-1.63,2.92,2.92,0,1,0,0,5.81,4.36,4.36,0,0,0,3.55-1.61Z" transform="translate(0 -3.23)"/><path class="cls-4" d="M1136.88,4h1.27V20.26h-1.27Z" transform="translate(0 -3.23)"/><path class="cls-4" d="M576.05,276.79a8,8,0,0,1,8.17-8.39,7.33,7.33,0,0,1,6,2.87L589,272a5.94,5.94,0,0,0-4.8-2.36c-3.77,0-6.71,2.9-6.71,7.13s2.94,7.12,6.71,7.12a5.94,5.94,0,0,0,4.8-2.36l1.16.73a7.28,7.28,0,0,1-6,2.9A8.05,8.05,0,0,1,576.05,276.79Z" transform="translate(0 -3.23)"/><path class="cls-4" d="M600.88,283.16a6,6,0,0,1-4.23,2c-2.41,0-3.7-1.12-3.7-3.77v-8.27h1.27v8c0,2.28,1.14,2.91,2.84,2.91a5.06,5.06,0,0,0,3.82-1.94v-8.95h1.26v11.75h-1.26Z" transform="translate(0 -3.23)"/><path class="cls-4" d="M606.08,268.66h1.27v16.23h-1.27Z" transform="translate(0 -3.23)"/><path class="cls-4" d="M611.53,282.62v-8.36h-1.95v-1.12h1.95v-3.21h1.29v3.21h2.38v1.12h-2.38v8.17c0,.95.39,1.6,1.21,1.6a1.82,1.82,0,0,0,1.32-.56l.48,1a2.62,2.62,0,0,1-2,.73C612.28,285.18,611.53,284.23,611.53,282.62Z" transform="translate(0 -3.23)"/><path class="cls-4" d="M617.63,270.17a1,1,0,0,1,1-1,1,1,0,1,1-1,1Zm.34,3h1.27v11.75H618Z" transform="translate(0 -3.23)"/><path class="cls-4" d="M621.37,273.14h1.41l4.28,10.26,4.24-10.26h1.43l-5,11.75h-1.43Z" transform="translate(0 -3.23)"/><path class="cls-4" d="M634.19,279c0-3.43,2.21-6.15,5.64-6.15s5.67,2.72,5.67,6.15-2.19,6.18-5.67,6.18S634.19,282.43,634.19,279Zm9.95,0c0-2.6-1.54-5-4.31-5s-4.28,2.41-4.28,5,1.56,5,4.28,5S644.14,281.63,644.14,279Z" transform="translate(0 -3.23)"/><path class="cls-4" d="M663.71,283a5,5,0,0,1-4.09,2.17c-3.11,0-5.25-2.39-5.25-6.16s2.14-6.17,5.25-6.17a5,5,0,0,1,4.09,2.19v-6.38H665v16.23h-1.29Zm0-6.88a4.69,4.69,0,0,0-3.87-2.14c-2.6,0-4.11,2.19-4.11,5s1.51,5,4.11,5a4.7,4.7,0,0,0,3.87-2.09Z" transform="translate(0 -3.23)"/><path class="cls-4" d="M673.92,272.85c3.58,0,5.55,2.84,5.55,6.22v.34h-9.83a4.58,4.58,0,0,0,4.6,4.67,5.17,5.17,0,0,0,3.84-1.63l.66.83a6.05,6.05,0,0,1-4.6,1.9c-3.43,0-5.88-2.56-5.88-6.18C668.26,275.6,670.66,272.85,673.92,272.85Zm-4.28,5.57h8.54a4.31,4.31,0,0,0-4.28-4.48A4.43,4.43,0,0,0,669.64,278.42Z" transform="translate(0 -3.23)"/><path class="cls-4" d="M689,273.14h1.27v2a5,5,0,0,1,4-2.27v1.39a2.6,2.6,0,0,0-.63,0,4.47,4.47,0,0,0-3.33,2.09v8.57H689Z" transform="translate(0 -3.23)"/><path class="cls-4" d="M701.72,272.85c3.57,0,5.54,2.84,5.54,6.22v.34h-9.83a4.58,4.58,0,0,0,4.6,4.67,5.15,5.15,0,0,0,3.84-1.63l.66.83a6.05,6.05,0,0,1-4.6,1.9c-3.42,0-5.88-2.56-5.88-6.18A5.84,5.84,0,0,1,701.72,272.85Zm-4.29,5.57H706a4.31,4.31,0,0,0-4.28-4.48A4.43,4.43,0,0,0,697.43,278.42Z" transform="translate(0 -3.23)"/><path class="cls-4" d="M710.52,268.66h1.26v16.23h-1.26Z" transform="translate(0 -3.23)"/><path class="cls-4" d="M723.19,283.5a5.14,5.14,0,0,1-4,1.68,3.94,3.94,0,0,1-4.11-3.92,3.89,3.89,0,0,1,4.11-3.89,5.09,5.09,0,0,1,4,1.68v-2.38c0-1.76-1.41-2.7-3.16-2.7a4.59,4.59,0,0,0-3.68,1.72l-.7-.87a5.68,5.68,0,0,1,4.52-2c2.38,0,4.28,1.14,4.28,3.77v8.27h-1.26Zm0-3.5a4.42,4.42,0,0,0-3.55-1.63,2.92,2.92,0,1,0,0,5.81,4.39,4.39,0,0,0,3.55-1.6Z" transform="translate(0 -3.23)"/><path class="cls-4" d="M736.71,282.38l.87.78a4.74,4.74,0,0,1-3.77,2l-.41,1.09a1.59,1.59,0,0,1,2.5,1.24c0,1.22-1.09,2-2.45,2a3.92,3.92,0,0,1-2.36-.7l.39-.78a3,3,0,0,0,1.94.68c.85,0,1.58-.39,1.58-1.17,0-.51-.31-.87-1-.87a1.33,1.33,0,0,0-1,.41l-.68-.39.56-1.51c-3.16-.26-5.2-2.89-5.2-6.15,0-3.43,2.26-6.15,5.71-6.15a4.84,4.84,0,0,1,4.16,2l-.87.78A3.72,3.72,0,0,0,733.5,274c-2.75,0-4.43,2.19-4.43,5s1.68,5,4.43,5A3.74,3.74,0,0,0,736.71,282.38Z" transform="translate(0 -3.23)"/><path class="cls-4" d="M739.72,279c0-3.43,2.21-6.15,5.64-6.15S751,275.57,751,279s-2.19,6.18-5.67,6.18S739.72,282.43,739.72,279Zm9.95,0c0-2.6-1.54-5-4.31-5s-4.28,2.41-4.28,5,1.56,5,4.28,5S749.67,281.63,749.67,279Zm-5.87-10.09c-.73,0-1.31.7-1.31,2.36h-.85c0-1.83.8-3.26,2.26-3.26,1,0,1.41.73,1.83,1.41s.63,1.07,1.21,1.07,1.29-.71,1.29-2.34h.88c0,1.83-.78,3.26-2.24,3.26-1,0-1.44-.73-1.85-1.41S744.39,268.91,743.8,268.91Z" transform="translate(0 -3.23)"/><path class="cls-4" d="M759.27,272.85c3.58,0,5.55,2.84,5.55,6.22v.34H755a4.57,4.57,0,0,0,4.6,4.67,5.17,5.17,0,0,0,3.84-1.63l.66.83a6.05,6.05,0,0,1-4.6,1.9c-3.43,0-5.89-2.56-5.89-6.18A5.84,5.84,0,0,1,759.27,272.85ZM755,278.42h8.54a4.31,4.31,0,0,0-4.28-4.48A4.42,4.42,0,0,0,755,278.42Z" transform="translate(0 -3.23)"/><path class="cls-4" d="M767.8,282.38a4.9,4.9,0,0,0,3.8,1.73c2,0,3.14-1,3.14-2.34s-1.61-1.94-3.29-2.38c-2-.49-4.13-1-4.13-3.28,0-1.8,1.53-3.26,4.18-3.26a5.4,5.4,0,0,1,4.21,1.72l-.71.9a4.28,4.28,0,0,0-3.5-1.55c-1.82,0-2.94.9-2.94,2.11s1.51,1.71,3.14,2.12c2,.51,4.28,1.07,4.28,3.57,0,1.9-1.46,3.46-4.41,3.46a5.69,5.69,0,0,1-4.52-1.85Z" transform="translate(0 -3.23)"/><path class="cls-4" d="M794.19,283a5,5,0,0,1-4.09,2.17c-3.11,0-5.25-2.39-5.25-6.16s2.14-6.17,5.25-6.17a5,5,0,0,1,4.09,2.19v-6.38h1.29v16.23h-1.29Zm0-6.88a4.69,4.69,0,0,0-3.87-2.14c-2.6,0-4.11,2.19-4.11,5s1.51,5,4.11,5a4.7,4.7,0,0,0,3.87-2.09Z" transform="translate(0 -3.23)"/><path class="cls-4" d="M804.4,272.85c3.58,0,5.55,2.84,5.55,6.22v.34h-9.83a4.58,4.58,0,0,0,4.6,4.67,5.17,5.17,0,0,0,3.84-1.63l.66.83a6.05,6.05,0,0,1-4.6,1.9c-3.43,0-5.89-2.56-5.89-6.18A5.84,5.84,0,0,1,804.4,272.85Zm-4.28,5.57h8.54a4.31,4.31,0,0,0-4.28-4.48A4.42,4.42,0,0,0,800.12,278.42Z" transform="translate(0 -3.23)"/><path class="cls-4" d="M819.5,268.66h1.27v16.23H819.5Z" transform="translate(0 -3.23)"/><path class="cls-4" d="M824,279c0-3.43,2.22-6.15,5.64-6.15s5.67,2.72,5.67,6.15-2.19,6.18-5.67,6.18S824,282.43,824,279Zm10,0c0-2.6-1.53-5-4.31-5s-4.28,2.41-4.28,5,1.56,5,4.28,5S834,281.63,834,279Z" transform="translate(0 -3.23)"/><path class="cls-4" d="M846.52,276.93c0-2.26-1.15-2.94-2.85-2.94a5,5,0,0,0-3.82,2v8.88h-1.26V273.14h1.26v1.77a6,6,0,0,1,4.23-2.06c2.39,0,3.7,1.16,3.7,3.82v8.22h-1.26Z" transform="translate(0 -3.23)"/><path class="cls-4" d="M852.47,286.9a4.49,4.49,0,0,0,3.89,1.66c2.14,0,4-1.07,4-3.77v-1.85a5.11,5.11,0,0,1-4.09,2.19c-3.11,0-5.25-2.36-5.25-6.13s2.14-6.15,5.25-6.15a5,5,0,0,1,4.09,2.19v-1.9h1.29v11.62c0,3.6-2.44,4.89-5.31,4.89a5.64,5.64,0,0,1-4.62-1.77Zm7.91-10.77a4.74,4.74,0,0,0-3.87-2.14c-2.6,0-4.11,2.16-4.11,5s1.51,5,4.11,5a4.74,4.74,0,0,0,3.87-2.14Z" transform="translate(0 -3.23)"/><path class="cls-4" d="M864.9,279c0-3.43,2.21-6.15,5.64-6.15s5.67,2.72,5.67,6.15-2.19,6.18-5.67,6.18S864.9,282.43,864.9,279Zm9.94,0c0-2.6-1.53-5-4.3-5s-4.28,2.41-4.28,5,1.56,5,4.28,5S874.84,281.63,874.84,279Z" transform="translate(0 -3.23)"/><path class="cls-4" d="M885.76,289.36V273.14H887V275a5,5,0,0,1,4.08-2.14c3.14,0,5.25,2.38,5.25,6.15s-2.11,6.18-5.25,6.18A5,5,0,0,1,887,283v6.37ZM890.89,274a4.73,4.73,0,0,0-3.86,2.09v5.81a4.77,4.77,0,0,0,3.86,2.14c2.63,0,4.11-2.18,4.11-5S893.52,274,890.89,274Z" transform="translate(0 -3.23)"/><path class="cls-4" d="M899.62,273.14h1.26v2a5.05,5.05,0,0,1,4-2.27v1.39a2.6,2.6,0,0,0-.63,0,4.49,4.49,0,0,0-3.34,2.09v8.57h-1.26Z" transform="translate(0 -3.23)"/><path class="cls-4" d="M914.79,283.5a5.1,5.1,0,0,1-4,1.68,3.94,3.94,0,0,1-4.11-3.92,3.88,3.88,0,0,1,4.11-3.89,5.07,5.07,0,0,1,4,1.68v-2.38c0-1.76-1.41-2.7-3.16-2.7a4.57,4.57,0,0,0-3.67,1.72l-.71-.87a5.7,5.7,0,0,1,4.53-2c2.38,0,4.28,1.14,4.28,3.77v8.27h-1.27Zm0-3.5a4.4,4.4,0,0,0-3.55-1.63,2.92,2.92,0,1,0,0,5.81,4.38,4.38,0,0,0,3.55-1.6Z" transform="translate(0 -3.23)"/><path class="cls-4" d="M919.39,283.84l7-9.58h-7v-1.12H928v1l-7,9.61h7.13v1.12h-8.68Z" transform="translate(0 -3.23)"/><path class="cls-4" d="M930.72,279c0-3.43,2.21-6.15,5.64-6.15S942,275.57,942,279s-2.19,6.18-5.67,6.18S930.72,282.43,930.72,279Zm9.95,0c0-2.6-1.54-5-4.31-5s-4.28,2.41-4.28,5,1.56,5,4.28,5S940.67,281.63,940.67,279Z" transform="translate(0 -3.23)"/><path class="cls-4" d="M956.62,272.85a4.86,4.86,0,0,1,4.16,2l-.88.78a3.71,3.71,0,0,0-3.21-1.63c-2.75,0-4.43,2.19-4.43,5s1.68,5,4.43,5a3.73,3.73,0,0,0,3.21-1.65l.88.78a4.8,4.8,0,0,1-4.16,2c-3.46,0-5.72-2.75-5.72-6.18S953.16,272.85,956.62,272.85Z" transform="translate(0 -3.23)"/><path class="cls-4" d="M962.91,279c0-3.43,2.22-6.15,5.65-6.15s5.66,2.72,5.66,6.15-2.19,6.18-5.66,6.18S962.91,282.43,962.91,279Zm10,0c0-2.6-1.53-5-4.3-5s-4.28,2.41-4.28,5,1.55,5,4.28,5S972.86,281.63,972.86,279Z" transform="translate(0 -3.23)"/><path class="cls-4" d="M991.46,276.67c0-1.66-.7-2.68-2.35-2.68a4.36,4.36,0,0,0-3.36,2v8.91h-1.29v-8.22c0-1.66-.68-2.68-2.36-2.68a4.53,4.53,0,0,0-3.36,2v8.88h-1.26V273.14h1.26v1.77a5.18,5.18,0,0,1,3.8-2.06,3,3,0,0,1,3.09,2.21,4.87,4.87,0,0,1,3.89-2.21c2.16,0,3.21,1.21,3.21,3.57v8.47h-1.27Z" transform="translate(0 -3.23)"/><path class="cls-4" d="M1010.89,276.93c0-2.26-1.14-2.94-2.85-2.94a5,5,0,0,0-3.81,2v8.88H1003V273.14h1.27v1.77a6,6,0,0,1,4.23-2.06c2.38,0,3.7,1.16,3.7,3.82v8.22h-1.27Z" transform="translate(0 -3.23)"/><path class="cls-4" d="M1015.41,279c0-3.43,2.21-6.15,5.64-6.15s5.67,2.72,5.67,6.15-2.19,6.18-5.67,6.18S1015.41,282.43,1015.41,279Zm9.95,0c0-2.6-1.53-5-4.31-5s-4.28,2.41-4.28,5,1.56,5,4.28,5S1025.36,281.63,1025.36,279Z" transform="translate(0 -3.23)"/><path class="cls-4" d="M1029.71,282.38a4.88,4.88,0,0,0,3.79,1.73c2,0,3.14-1,3.14-2.34s-1.61-1.94-3.28-2.38c-2-.49-4.14-1-4.14-3.28,0-1.8,1.53-3.26,4.19-3.26a5.39,5.39,0,0,1,4.2,1.72l-.7.9a4.29,4.29,0,0,0-3.5-1.55c-1.83,0-3,.9-3,2.11s1.51,1.71,3.14,2.12c2,.51,4.28,1.07,4.28,3.57,0,1.9-1.46,3.46-4.4,3.46a5.7,5.7,0,0,1-4.53-1.85Z" transform="translate(0 -3.23)"/><path class="cls-4" d="M1040.87,282.38a4.88,4.88,0,0,0,3.79,1.73c2,0,3.14-1,3.14-2.34s-1.6-1.94-3.28-2.38c-2-.49-4.14-1-4.14-3.28,0-1.8,1.53-3.26,4.19-3.26a5.39,5.39,0,0,1,4.2,1.72l-.7.9a4.29,4.29,0,0,0-3.5-1.55c-1.83,0-3,.9-3,2.11s1.51,1.71,3.14,2.12c2,.51,4.28,1.07,4.28,3.57,0,1.9-1.46,3.46-4.4,3.46a5.7,5.7,0,0,1-4.53-1.85Z" transform="translate(0 -3.23)"/><path class="cls-4" d="M1051.62,279c0-3.43,2.21-6.15,5.64-6.15s5.67,2.72,5.67,6.15-2.19,6.18-5.67,6.18S1051.62,282.43,1051.62,279Zm10,0c0-2.6-1.54-5-4.31-5s-4.28,2.41-4.28,5,1.56,5,4.28,5S1061.57,281.63,1061.57,279Z" transform="translate(0 -3.23)"/><path class="cls-4" d="M1065.91,282.38a4.92,4.92,0,0,0,3.8,1.73c2,0,3.14-1,3.14-2.34s-1.61-1.94-3.29-2.38c-2-.49-4.13-1-4.13-3.28,0-1.8,1.53-3.26,4.18-3.26a5.4,5.4,0,0,1,4.21,1.72l-.71.9a4.28,4.28,0,0,0-3.5-1.55c-1.82,0-2.94.9-2.94,2.11s1.51,1.71,3.14,2.12c2,.51,4.28,1.07,4.28,3.57,0,1.9-1.46,3.46-4.4,3.46a5.7,5.7,0,0,1-4.53-1.85Z" transform="translate(0 -3.23)"/><path class="cls-4" d="M1088.68,272.85a4.86,4.86,0,0,1,4.16,2l-.88.78a3.71,3.71,0,0,0-3.21-1.63c-2.75,0-4.43,2.19-4.43,5s1.68,5,4.43,5a3.73,3.73,0,0,0,3.21-1.65l.88.78a4.8,4.8,0,0,1-4.16,2c-3.46,0-5.72-2.75-5.72-6.18S1085.22,272.85,1088.68,272.85Z" transform="translate(0 -3.23)"/><path class="cls-4" d="M1095.65,268.66h1.27v16.23h-1.27Z" transform="translate(0 -3.23)"/><path class="cls-4" d="M1100.52,270.17a1,1,0,0,1,1-1,1,1,0,1,1-1,1Zm.34,3h1.26v11.75h-1.26Z" transform="translate(0 -3.23)"/><path class="cls-4" d="M1111.05,272.85c3.57,0,5.54,2.84,5.54,6.22v.34h-9.82a4.57,4.57,0,0,0,4.59,4.67,5.14,5.14,0,0,0,3.84-1.63l.66.83a6.05,6.05,0,0,1-4.6,1.9c-3.42,0-5.88-2.56-5.88-6.18A5.84,5.84,0,0,1,1111.05,272.85Zm-4.28,5.57h8.53a4.31,4.31,0,0,0-4.28-4.48A4.41,4.41,0,0,0,1106.77,278.42Z" transform="translate(0 -3.23)"/><path class="cls-4" d="M1127.78,276.93c0-2.26-1.15-2.94-2.85-2.94a5,5,0,0,0-3.82,2v8.88h-1.26V273.14h1.26v1.77a6,6,0,0,1,4.23-2.06c2.39,0,3.7,1.16,3.7,3.82v8.22h-1.26Z" transform="translate(0 -3.23)"/><path class="cls-4" d="M1133.22,282.62v-8.36h-2v-1.12h2v-3.21h1.29v3.21h2.38v1.12h-2.38v8.17c0,.95.39,1.6,1.22,1.6a1.82,1.82,0,0,0,1.31-.56l.49,1a2.66,2.66,0,0,1-2,.73C1134,285.18,1133.22,284.23,1133.22,282.62Z" transform="translate(0 -3.23)"/><path class="cls-4" d="M1144.65,272.85c3.57,0,5.55,2.84,5.55,6.22v.34h-9.83a4.57,4.57,0,0,0,4.6,4.67,5.17,5.17,0,0,0,3.84-1.63l.66.83a6.07,6.07,0,0,1-4.6,1.9c-3.43,0-5.89-2.56-5.89-6.18A5.84,5.84,0,0,1,1144.65,272.85Zm-4.28,5.57h8.54a4.31,4.31,0,0,0-4.29-4.48A4.42,4.42,0,0,0,1140.37,278.42Z" transform="translate(0 -3.23)"/><path class="cls-4" d="M1153.18,282.38a4.9,4.9,0,0,0,3.8,1.73c2,0,3.13-1,3.13-2.34s-1.6-1.94-3.28-2.38c-2-.49-4.13-1-4.13-3.28,0-1.8,1.53-3.26,4.18-3.26a5.4,5.4,0,0,1,4.21,1.72l-.71.9a4.28,4.28,0,0,0-3.5-1.55c-1.82,0-2.94.9-2.94,2.11s1.51,1.71,3.13,2.12c2,.51,4.29,1.07,4.29,3.57,0,1.9-1.46,3.46-4.41,3.46a5.69,5.69,0,0,1-4.52-1.85Z" transform="translate(0 -3.23)"/></g></g></svg>